%TF.GenerationSoftware,KiCad,Pcbnew,(6.0.5)*%
%TF.CreationDate,2022-05-16T15:03:43-04:00*%
%TF.ProjectId,PrawnBlaster_Connectorized,50726177-6e42-46c6-9173-7465725f436f,rev?*%
%TF.SameCoordinates,Original*%
%TF.FileFunction,Paste,Top*%
%TF.FilePolarity,Positive*%
%FSLAX46Y46*%
G04 Gerber Fmt 4.6, Leading zero omitted, Abs format (unit mm)*
G04 Created by KiCad (PCBNEW (6.0.5)) date 2022-05-16 15:03:43*
%MOMM*%
%LPD*%
G01*
G04 APERTURE LIST*
G04 Aperture macros list*
%AMRoundRect*
0 Rectangle with rounded corners*
0 $1 Rounding radius*
0 $2 $3 $4 $5 $6 $7 $8 $9 X,Y pos of 4 corners*
0 Add a 4 corners polygon primitive as box body*
4,1,4,$2,$3,$4,$5,$6,$7,$8,$9,$2,$3,0*
0 Add four circle primitives for the rounded corners*
1,1,$1+$1,$2,$3*
1,1,$1+$1,$4,$5*
1,1,$1+$1,$6,$7*
1,1,$1+$1,$8,$9*
0 Add four rect primitives between the rounded corners*
20,1,$1+$1,$2,$3,$4,$5,0*
20,1,$1+$1,$4,$5,$6,$7,0*
20,1,$1+$1,$6,$7,$8,$9,0*
20,1,$1+$1,$8,$9,$2,$3,0*%
G04 Aperture macros list end*
%ADD10R,5.080000X1.500000*%
%ADD11RoundRect,0.250000X-0.450000X0.350000X-0.450000X-0.350000X0.450000X-0.350000X0.450000X0.350000X0*%
%ADD12RoundRect,0.250000X0.337500X0.475000X-0.337500X0.475000X-0.337500X-0.475000X0.337500X-0.475000X0*%
%ADD13R,1.560000X0.650000*%
%ADD14RoundRect,0.250000X-0.159099X0.724784X-0.724784X0.159099X0.159099X-0.724784X0.724784X-0.159099X0*%
%ADD15RoundRect,0.250000X-0.350000X-0.450000X0.350000X-0.450000X0.350000X0.450000X-0.350000X0.450000X0*%
%ADD16RoundRect,0.250000X0.450000X-0.350000X0.450000X0.350000X-0.450000X0.350000X-0.450000X-0.350000X0*%
%ADD17RoundRect,0.250000X0.400000X0.625000X-0.400000X0.625000X-0.400000X-0.625000X0.400000X-0.625000X0*%
%ADD18RoundRect,0.250000X0.724784X0.159099X0.159099X0.724784X-0.724784X-0.159099X-0.159099X-0.724784X0*%
%ADD19RoundRect,0.250000X0.475000X-0.337500X0.475000X0.337500X-0.475000X0.337500X-0.475000X-0.337500X0*%
%ADD20R,1.950000X0.700000*%
G04 APERTURE END LIST*
D10*
%TO.C,J6*%
X182397500Y-108375000D03*
X182397500Y-104125000D03*
X182397500Y-112625000D03*
%TD*%
D11*
%TO.C,R8*%
X91963750Y-90753000D03*
X91963750Y-92753000D03*
%TD*%
D12*
%TO.C,C3*%
X163467500Y-66055000D03*
X161392500Y-66055000D03*
%TD*%
D13*
%TO.C,U3*%
X99930000Y-95055000D03*
X99930000Y-96005000D03*
X99930000Y-96955000D03*
X102630000Y-96955000D03*
X102630000Y-95055000D03*
%TD*%
D14*
%TO.C,R10*%
X171546016Y-66088984D03*
X169353984Y-68281016D03*
%TD*%
D13*
%TO.C,U1*%
X99920000Y-74775000D03*
X99920000Y-75725000D03*
X99920000Y-76675000D03*
X102620000Y-76675000D03*
X102620000Y-74775000D03*
%TD*%
D10*
%TO.C,J2*%
X84823200Y-96003000D03*
X84823200Y-100253000D03*
X84823200Y-91753000D03*
%TD*%
D15*
%TO.C,R7*%
X91953750Y-96003000D03*
X93953750Y-96003000D03*
%TD*%
D11*
%TO.C,R3*%
X138430000Y-64055000D03*
X138430000Y-66055000D03*
%TD*%
D16*
%TO.C,R5*%
X138430000Y-78555000D03*
X138430000Y-76555000D03*
%TD*%
D10*
%TO.C,J5*%
X182517500Y-78425000D03*
X182517500Y-82675000D03*
X182517500Y-74175000D03*
%TD*%
D17*
%TO.C,R11*%
X166650000Y-73660000D03*
X163550000Y-73660000D03*
%TD*%
D10*
%TO.C,J3*%
X182517500Y-63505000D03*
X182517500Y-67755000D03*
X182517500Y-59255000D03*
%TD*%
D12*
%TO.C,C2*%
X101297500Y-102015000D03*
X99222500Y-102015000D03*
%TD*%
D10*
%TO.C,J1*%
X84792500Y-75805000D03*
X84792500Y-71555000D03*
X84792500Y-80055000D03*
%TD*%
D11*
%TO.C,R4*%
X138430000Y-82185000D03*
X138430000Y-84185000D03*
%TD*%
D16*
%TO.C,R6*%
X138430000Y-71555000D03*
X138430000Y-69555000D03*
%TD*%
D18*
%TO.C,R12*%
X164006016Y-83621016D03*
X161813984Y-81428984D03*
%TD*%
%TO.C,R9*%
X167496016Y-79661016D03*
X165303984Y-77468984D03*
%TD*%
D10*
%TO.C,J4*%
X182567500Y-93345000D03*
X182567500Y-89095000D03*
X182567500Y-97595000D03*
%TD*%
D15*
%TO.C,R1*%
X92180000Y-75805000D03*
X94180000Y-75805000D03*
%TD*%
D16*
%TO.C,R2*%
X92180000Y-80875000D03*
X92180000Y-78875000D03*
%TD*%
D19*
%TO.C,C1*%
X102610000Y-72632500D03*
X102610000Y-70557500D03*
%TD*%
D20*
%TO.C,IC1*%
X148310000Y-68580000D03*
X148310000Y-69850000D03*
X148310000Y-71120000D03*
X148310000Y-72390000D03*
X148310000Y-73660000D03*
X148310000Y-74930000D03*
X148310000Y-76200000D03*
X148310000Y-77470000D03*
X148310000Y-78740000D03*
X148310000Y-80010000D03*
X157760000Y-80010000D03*
X157760000Y-78740000D03*
X157760000Y-77470000D03*
X157760000Y-76200000D03*
X157760000Y-74930000D03*
X157760000Y-73660000D03*
X157760000Y-72390000D03*
X157760000Y-71120000D03*
X157760000Y-69850000D03*
X157760000Y-68580000D03*
%TD*%
M02*
