%TF.GenerationSoftware,KiCad,Pcbnew,(7.0.0)*%
%TF.CreationDate,2023-02-27T11:52:56-05:00*%
%TF.ProjectId,PrawnBlaster_Connectorized,50726177-6e42-46c6-9173-7465725f436f,rev?*%
%TF.SameCoordinates,Original*%
%TF.FileFunction,Copper,L2,Bot*%
%TF.FilePolarity,Positive*%
%FSLAX46Y46*%
G04 Gerber Fmt 4.6, Leading zero omitted, Abs format (unit mm)*
G04 Created by KiCad (PCBNEW (7.0.0)) date 2023-02-27 11:52:56*
%MOMM*%
%LPD*%
G01*
G04 APERTURE LIST*
%TA.AperFunction,SMDPad,CuDef*%
%ADD10R,5.080000X1.500000*%
%TD*%
G04 APERTURE END LIST*
D10*
%TO.P,J6,2,Ext*%
%TO.N,GND*%
X182397499Y-104124999D03*
X182397499Y-112624999D03*
%TD*%
%TO.P,J2,2,Ext*%
%TO.N,GND*%
X84823199Y-91752999D03*
X84823199Y-100252999D03*
%TD*%
%TO.P,J5,2,Ext*%
%TO.N,GND*%
X182517499Y-82674999D03*
X182517499Y-74174999D03*
%TD*%
%TO.P,J3,2,Ext*%
%TO.N,GND*%
X182517499Y-67754999D03*
X182517499Y-59254999D03*
%TD*%
%TO.P,J1,2,Ext*%
%TO.N,GND*%
X84792499Y-80054999D03*
X84792499Y-71554999D03*
%TD*%
%TO.P,J4,2,Ext*%
%TO.N,GND*%
X182567499Y-97594999D03*
X182567499Y-89094999D03*
%TD*%
%TA.AperFunction,Conductor*%
%TO.N,GND*%
G36*
X179821128Y-57804540D02*
G01*
X179867600Y-57855906D01*
X179879899Y-57924074D01*
X179854308Y-57988442D01*
X179798561Y-58029556D01*
X179739978Y-58051406D01*
X179724324Y-58059954D01*
X179621807Y-58136697D01*
X179609197Y-58149307D01*
X179532454Y-58251824D01*
X179523905Y-58267480D01*
X179478759Y-58388521D01*
X179475162Y-58403742D01*
X179469859Y-58453061D01*
X179469500Y-58459777D01*
X179469500Y-58984410D01*
X179473006Y-58997493D01*
X179486090Y-59001000D01*
X182645500Y-59001000D01*
X182708500Y-59017881D01*
X182754619Y-59064000D01*
X182771500Y-59127000D01*
X182771500Y-60496410D01*
X182775006Y-60509493D01*
X182788090Y-60513000D01*
X185102723Y-60513000D01*
X185109438Y-60512640D01*
X185158757Y-60507337D01*
X185173978Y-60503740D01*
X185295019Y-60458594D01*
X185310676Y-60450045D01*
X185369473Y-60406030D01*
X185433751Y-60381399D01*
X185501382Y-60394224D01*
X185552180Y-60440678D01*
X185570983Y-60506896D01*
X185571014Y-66503125D01*
X185552211Y-66569344D01*
X185501414Y-66615798D01*
X185433783Y-66628624D01*
X185369504Y-66603994D01*
X185310671Y-66559951D01*
X185295019Y-66551405D01*
X185173978Y-66506259D01*
X185158757Y-66502662D01*
X185109438Y-66497359D01*
X185102723Y-66497000D01*
X182788090Y-66497000D01*
X182775006Y-66500506D01*
X182771500Y-66513590D01*
X182771500Y-68996410D01*
X182775006Y-69009493D01*
X182788090Y-69013000D01*
X185102723Y-69013000D01*
X185109438Y-69012640D01*
X185158757Y-69007337D01*
X185173978Y-69003740D01*
X185295019Y-68958594D01*
X185310675Y-68950045D01*
X185369519Y-68905996D01*
X185433797Y-68881366D01*
X185501427Y-68894191D01*
X185552225Y-68940646D01*
X185571028Y-69006863D01*
X185571048Y-72923150D01*
X185552245Y-72989369D01*
X185501448Y-73035823D01*
X185433817Y-73048649D01*
X185369539Y-73024019D01*
X185310675Y-72979954D01*
X185295019Y-72971405D01*
X185173978Y-72926259D01*
X185158757Y-72922662D01*
X185109438Y-72917359D01*
X185102723Y-72917000D01*
X182788090Y-72917000D01*
X182775006Y-72920506D01*
X182771500Y-72933590D01*
X182771500Y-75416410D01*
X182775006Y-75429493D01*
X182788090Y-75433000D01*
X185102723Y-75433000D01*
X185109438Y-75432640D01*
X185158757Y-75427337D01*
X185173978Y-75423740D01*
X185295019Y-75378594D01*
X185310671Y-75370048D01*
X185369552Y-75325970D01*
X185433830Y-75301340D01*
X185501461Y-75314165D01*
X185552259Y-75360619D01*
X185571062Y-75426837D01*
X185571093Y-81423183D01*
X185552290Y-81489401D01*
X185501493Y-81535856D01*
X185433863Y-81548683D01*
X185369584Y-81524052D01*
X185310675Y-81479954D01*
X185295019Y-81471405D01*
X185173978Y-81426259D01*
X185158757Y-81422662D01*
X185109438Y-81417359D01*
X185102723Y-81417000D01*
X182788090Y-81417000D01*
X182775006Y-81420506D01*
X182771500Y-81433590D01*
X182771500Y-83916410D01*
X182775006Y-83929493D01*
X182788090Y-83933000D01*
X185102723Y-83933000D01*
X185109438Y-83932640D01*
X185158757Y-83927337D01*
X185173978Y-83923740D01*
X185295019Y-83878594D01*
X185310676Y-83870045D01*
X185369596Y-83825938D01*
X185433874Y-83801307D01*
X185501505Y-83814132D01*
X185552303Y-83860586D01*
X185571106Y-83926804D01*
X185571127Y-87805779D01*
X185552324Y-87871997D01*
X185501528Y-87918452D01*
X185433897Y-87931279D01*
X185369619Y-87906649D01*
X185360675Y-87899953D01*
X185345019Y-87891405D01*
X185223978Y-87846259D01*
X185208757Y-87842662D01*
X185159438Y-87837359D01*
X185152723Y-87837000D01*
X182838090Y-87837000D01*
X182825006Y-87840506D01*
X182821500Y-87853590D01*
X182821500Y-90336410D01*
X182825006Y-90349493D01*
X182838090Y-90353000D01*
X185152723Y-90353000D01*
X185159438Y-90352640D01*
X185208757Y-90347337D01*
X185223978Y-90343740D01*
X185345019Y-90298594D01*
X185360673Y-90290047D01*
X185369627Y-90283344D01*
X185433905Y-90258711D01*
X185501537Y-90271535D01*
X185552336Y-90317990D01*
X185571140Y-90384208D01*
X185571171Y-96305812D01*
X185552368Y-96372030D01*
X185501571Y-96418485D01*
X185433941Y-96431312D01*
X185369663Y-96406682D01*
X185360674Y-96399953D01*
X185345019Y-96391405D01*
X185223978Y-96346259D01*
X185208757Y-96342662D01*
X185159438Y-96337359D01*
X185152723Y-96337000D01*
X182838090Y-96337000D01*
X182825006Y-96340506D01*
X182821500Y-96353590D01*
X182821500Y-98836410D01*
X182825006Y-98849493D01*
X182838090Y-98853000D01*
X185152723Y-98853000D01*
X185159438Y-98852640D01*
X185208757Y-98847337D01*
X185223978Y-98843740D01*
X185345019Y-98798594D01*
X185360674Y-98790046D01*
X185369671Y-98783311D01*
X185433949Y-98758677D01*
X185501581Y-98771501D01*
X185552381Y-98817955D01*
X185571185Y-98884174D01*
X185571207Y-102995276D01*
X185555795Y-103055662D01*
X185513328Y-103101275D01*
X185454196Y-103120956D01*
X185392865Y-103109891D01*
X185344339Y-103070786D01*
X185305802Y-103019307D01*
X185293192Y-103006697D01*
X185190675Y-102929954D01*
X185175019Y-102921405D01*
X185053978Y-102876259D01*
X185038757Y-102872662D01*
X184989438Y-102867359D01*
X184982723Y-102867000D01*
X182668090Y-102867000D01*
X182655006Y-102870506D01*
X182651500Y-102883590D01*
X182651500Y-105366410D01*
X182655006Y-105379493D01*
X182668090Y-105383000D01*
X184982723Y-105383000D01*
X184989438Y-105382640D01*
X185038757Y-105377337D01*
X185053978Y-105373740D01*
X185175019Y-105328594D01*
X185190675Y-105320045D01*
X185293192Y-105243302D01*
X185305801Y-105230693D01*
X185344350Y-105179198D01*
X185392876Y-105140093D01*
X185454207Y-105129027D01*
X185513339Y-105148708D01*
X185555806Y-105194320D01*
X185571219Y-105254705D01*
X185571252Y-111495336D01*
X185555840Y-111555722D01*
X185513373Y-111601335D01*
X185454241Y-111621016D01*
X185392910Y-111609951D01*
X185344384Y-111570846D01*
X185305802Y-111519307D01*
X185293192Y-111506697D01*
X185190675Y-111429954D01*
X185175019Y-111421405D01*
X185053978Y-111376259D01*
X185038757Y-111372662D01*
X184989438Y-111367359D01*
X184982723Y-111367000D01*
X182668090Y-111367000D01*
X182655006Y-111370506D01*
X182651500Y-111383590D01*
X182651500Y-112753000D01*
X182634619Y-112816000D01*
X182588500Y-112862119D01*
X182525500Y-112879000D01*
X179366090Y-112879000D01*
X179353006Y-112882506D01*
X179349500Y-112895590D01*
X179349500Y-113420223D01*
X179349859Y-113426938D01*
X179355162Y-113476257D01*
X179358759Y-113491478D01*
X179403905Y-113612519D01*
X179412454Y-113628175D01*
X179472203Y-113707991D01*
X179496834Y-113772270D01*
X179484007Y-113839900D01*
X179437553Y-113890697D01*
X179371335Y-113909500D01*
X81926456Y-113909500D01*
X81863518Y-113892655D01*
X81817408Y-113846623D01*
X81800456Y-113783716D01*
X81798029Y-112354410D01*
X179349500Y-112354410D01*
X179353006Y-112367493D01*
X179366090Y-112371000D01*
X182126910Y-112371000D01*
X182139993Y-112367493D01*
X182143500Y-112354410D01*
X182143500Y-111383590D01*
X182139993Y-111370506D01*
X182126910Y-111367000D01*
X179812277Y-111367000D01*
X179805561Y-111367359D01*
X179756242Y-111372662D01*
X179741021Y-111376259D01*
X179619980Y-111421405D01*
X179604324Y-111429954D01*
X179501807Y-111506697D01*
X179489197Y-111519307D01*
X179412454Y-111621824D01*
X179403905Y-111637480D01*
X179358759Y-111758521D01*
X179355162Y-111773742D01*
X179349859Y-111823061D01*
X179349500Y-111829777D01*
X179349500Y-112354410D01*
X81798029Y-112354410D01*
X81791617Y-108577765D01*
X92585788Y-108577765D01*
X92586290Y-108582332D01*
X92586291Y-108582344D01*
X92614910Y-108842444D01*
X92614911Y-108842453D01*
X92615414Y-108847018D01*
X92683928Y-109109088D01*
X92685725Y-109113318D01*
X92685728Y-109113325D01*
X92735866Y-109231308D01*
X92789870Y-109358390D01*
X92930982Y-109589610D01*
X93104255Y-109797820D01*
X93199177Y-109882870D01*
X93302561Y-109975503D01*
X93302565Y-109975506D01*
X93305998Y-109978582D01*
X93531910Y-110128044D01*
X93777176Y-110243020D01*
X94036569Y-110321060D01*
X94304561Y-110360500D01*
X94505330Y-110360500D01*
X94507631Y-110360500D01*
X94710156Y-110345677D01*
X94974553Y-110286780D01*
X95227558Y-110190014D01*
X95463777Y-110057441D01*
X95678177Y-109891888D01*
X95866186Y-109696881D01*
X96023799Y-109476579D01*
X96147656Y-109235675D01*
X96235118Y-108979305D01*
X96284319Y-108712933D01*
X96294212Y-108442235D01*
X96264586Y-108172982D01*
X96196072Y-107910912D01*
X96090130Y-107661610D01*
X95949018Y-107430390D01*
X95775745Y-107222180D01*
X95700137Y-107154435D01*
X95577438Y-107044496D01*
X95577432Y-107044491D01*
X95574002Y-107041418D01*
X95348090Y-106891956D01*
X95102824Y-106776980D01*
X95098420Y-106775655D01*
X94847843Y-106700267D01*
X94847838Y-106700265D01*
X94843431Y-106698940D01*
X94838874Y-106698269D01*
X94838868Y-106698268D01*
X94580000Y-106660171D01*
X94579996Y-106660170D01*
X94575439Y-106659500D01*
X94372369Y-106659500D01*
X94370098Y-106659666D01*
X94370076Y-106659667D01*
X94174438Y-106673986D01*
X94174427Y-106673987D01*
X94169844Y-106674323D01*
X94165353Y-106675323D01*
X94165349Y-106675324D01*
X93909939Y-106732219D01*
X93909934Y-106732220D01*
X93905447Y-106733220D01*
X93901149Y-106734863D01*
X93901145Y-106734865D01*
X93656746Y-106828339D01*
X93656735Y-106828343D01*
X93652442Y-106829986D01*
X93648434Y-106832235D01*
X93648422Y-106832241D01*
X93420232Y-106960308D01*
X93420221Y-106960314D01*
X93416223Y-106962559D01*
X93412589Y-106965364D01*
X93412586Y-106965367D01*
X93205466Y-107125298D01*
X93205458Y-107125305D01*
X93201823Y-107128112D01*
X93198632Y-107131421D01*
X93198625Y-107131428D01*
X93017011Y-107319802D01*
X93017004Y-107319809D01*
X93013814Y-107323119D01*
X93011136Y-107326861D01*
X93011131Y-107326868D01*
X92858885Y-107539668D01*
X92858878Y-107539677D01*
X92856201Y-107543421D01*
X92854097Y-107547512D01*
X92854091Y-107547523D01*
X92734453Y-107780222D01*
X92732344Y-107784325D01*
X92730856Y-107788684D01*
X92730854Y-107788691D01*
X92646371Y-108036327D01*
X92646367Y-108036341D01*
X92644882Y-108040695D01*
X92644044Y-108045228D01*
X92644044Y-108045231D01*
X92596517Y-108302537D01*
X92596515Y-108302546D01*
X92595681Y-108307067D01*
X92595513Y-108311656D01*
X92595512Y-108311668D01*
X92585956Y-108573161D01*
X92585788Y-108577765D01*
X81791617Y-108577765D01*
X81785407Y-104920223D01*
X179349500Y-104920223D01*
X179349859Y-104926938D01*
X179355162Y-104976257D01*
X179358759Y-104991478D01*
X179403905Y-105112519D01*
X179412454Y-105128175D01*
X179489197Y-105230692D01*
X179501807Y-105243302D01*
X179604324Y-105320045D01*
X179619980Y-105328594D01*
X179741021Y-105373740D01*
X179756242Y-105377337D01*
X179805561Y-105382640D01*
X179812277Y-105383000D01*
X182126910Y-105383000D01*
X182139993Y-105379493D01*
X182143500Y-105366410D01*
X182143500Y-104395590D01*
X182139993Y-104382506D01*
X182126910Y-104379000D01*
X179366090Y-104379000D01*
X179353006Y-104382506D01*
X179349500Y-104395590D01*
X179349500Y-104920223D01*
X81785407Y-104920223D01*
X81783598Y-103854410D01*
X179349500Y-103854410D01*
X179353006Y-103867493D01*
X179366090Y-103871000D01*
X182126910Y-103871000D01*
X182139993Y-103867493D01*
X182143500Y-103854410D01*
X182143500Y-102883590D01*
X182139993Y-102870506D01*
X182126910Y-102867000D01*
X179812277Y-102867000D01*
X179805561Y-102867359D01*
X179756242Y-102872662D01*
X179741021Y-102876259D01*
X179619980Y-102921405D01*
X179604324Y-102929954D01*
X179501807Y-103006697D01*
X179489197Y-103019307D01*
X179412454Y-103121824D01*
X179403905Y-103137480D01*
X179358759Y-103258521D01*
X179355162Y-103273742D01*
X179349859Y-103323061D01*
X179349500Y-103329777D01*
X179349500Y-103854410D01*
X81783598Y-103854410D01*
X81779622Y-101512523D01*
X81798341Y-101446230D01*
X81849127Y-101399687D01*
X81916800Y-101386809D01*
X81981132Y-101411445D01*
X82030023Y-101448045D01*
X82045680Y-101456594D01*
X82166721Y-101501740D01*
X82181942Y-101505337D01*
X82231261Y-101510640D01*
X82237977Y-101511000D01*
X84552610Y-101511000D01*
X84565693Y-101507493D01*
X84569200Y-101494410D01*
X85077200Y-101494410D01*
X85080706Y-101507493D01*
X85093790Y-101511000D01*
X87408423Y-101511000D01*
X87415138Y-101510640D01*
X87464457Y-101505337D01*
X87479678Y-101501740D01*
X87600719Y-101456594D01*
X87616375Y-101448045D01*
X87718892Y-101371302D01*
X87731502Y-101358692D01*
X87808245Y-101256175D01*
X87816794Y-101240519D01*
X87861940Y-101119478D01*
X87865537Y-101104257D01*
X87870840Y-101054938D01*
X87871200Y-101048223D01*
X87871200Y-100523590D01*
X87867693Y-100510506D01*
X87854610Y-100507000D01*
X85093790Y-100507000D01*
X85080706Y-100510506D01*
X85077200Y-100523590D01*
X85077200Y-101494410D01*
X84569200Y-101494410D01*
X84569200Y-99982410D01*
X85077200Y-99982410D01*
X85080706Y-99995493D01*
X85093790Y-99999000D01*
X87854610Y-99999000D01*
X87867693Y-99995493D01*
X87871200Y-99982410D01*
X87871200Y-99457777D01*
X87870840Y-99451061D01*
X87865537Y-99401742D01*
X87861940Y-99386521D01*
X87816794Y-99265480D01*
X87808245Y-99249824D01*
X87731502Y-99147307D01*
X87718892Y-99134697D01*
X87616375Y-99057954D01*
X87600719Y-99049405D01*
X87479678Y-99004259D01*
X87464457Y-99000662D01*
X87415138Y-98995359D01*
X87408423Y-98995000D01*
X85093790Y-98995000D01*
X85080706Y-98998506D01*
X85077200Y-99011590D01*
X85077200Y-99982410D01*
X84569200Y-99982410D01*
X84569200Y-99011590D01*
X84565693Y-98998506D01*
X84552610Y-98995000D01*
X82237977Y-98995000D01*
X82231261Y-98995359D01*
X82181942Y-99000662D01*
X82166721Y-99004259D01*
X82045680Y-99049405D01*
X82030024Y-99057954D01*
X81977209Y-99097491D01*
X81912930Y-99122122D01*
X81845300Y-99109295D01*
X81794503Y-99062841D01*
X81775700Y-98996623D01*
X81775700Y-98390223D01*
X179519500Y-98390223D01*
X179519859Y-98396938D01*
X179525162Y-98446257D01*
X179528759Y-98461478D01*
X179573905Y-98582519D01*
X179582454Y-98598175D01*
X179659197Y-98700692D01*
X179671807Y-98713302D01*
X179774324Y-98790045D01*
X179789980Y-98798594D01*
X179911021Y-98843740D01*
X179926242Y-98847337D01*
X179975561Y-98852640D01*
X179982277Y-98853000D01*
X182296910Y-98853000D01*
X182309993Y-98849493D01*
X182313500Y-98836410D01*
X182313500Y-97865590D01*
X182309993Y-97852506D01*
X182296910Y-97849000D01*
X179536090Y-97849000D01*
X179523006Y-97852506D01*
X179519500Y-97865590D01*
X179519500Y-98390223D01*
X81775700Y-98390223D01*
X81775700Y-97324410D01*
X179519500Y-97324410D01*
X179523006Y-97337493D01*
X179536090Y-97341000D01*
X182296910Y-97341000D01*
X182309993Y-97337493D01*
X182313500Y-97324410D01*
X182313500Y-96353590D01*
X182309993Y-96340506D01*
X182296910Y-96337000D01*
X179982277Y-96337000D01*
X179975561Y-96337359D01*
X179926242Y-96342662D01*
X179911021Y-96346259D01*
X179789980Y-96391405D01*
X179774324Y-96399954D01*
X179671807Y-96476697D01*
X179659197Y-96489307D01*
X179582454Y-96591824D01*
X179573905Y-96607480D01*
X179528759Y-96728521D01*
X179525162Y-96743742D01*
X179519859Y-96793061D01*
X179519500Y-96799777D01*
X179519500Y-97324410D01*
X81775700Y-97324410D01*
X81775700Y-93009377D01*
X81794503Y-92943159D01*
X81845300Y-92896705D01*
X81912930Y-92883878D01*
X81977209Y-92908509D01*
X82030024Y-92948045D01*
X82045680Y-92956594D01*
X82166721Y-93001740D01*
X82181942Y-93005337D01*
X82231261Y-93010640D01*
X82237977Y-93011000D01*
X84552610Y-93011000D01*
X84565693Y-93007493D01*
X84569200Y-92994410D01*
X85077200Y-92994410D01*
X85080706Y-93007493D01*
X85093790Y-93011000D01*
X87408423Y-93011000D01*
X87415138Y-93010640D01*
X87464457Y-93005337D01*
X87479678Y-93001740D01*
X87600719Y-92956594D01*
X87616375Y-92948045D01*
X87718892Y-92871302D01*
X87731502Y-92858692D01*
X87808245Y-92756175D01*
X87816794Y-92740519D01*
X87861940Y-92619478D01*
X87865537Y-92604257D01*
X87870840Y-92554938D01*
X87871200Y-92548223D01*
X87871200Y-92023590D01*
X87867693Y-92010506D01*
X87854610Y-92007000D01*
X85093790Y-92007000D01*
X85080706Y-92010506D01*
X85077200Y-92023590D01*
X85077200Y-92994410D01*
X84569200Y-92994410D01*
X84569200Y-91482410D01*
X85077200Y-91482410D01*
X85080706Y-91495493D01*
X85093790Y-91499000D01*
X87854610Y-91499000D01*
X87867693Y-91495493D01*
X87871200Y-91482410D01*
X87871200Y-90957777D01*
X87870840Y-90951061D01*
X87865537Y-90901742D01*
X87861940Y-90886521D01*
X87816794Y-90765480D01*
X87808245Y-90749824D01*
X87731502Y-90647307D01*
X87718892Y-90634697D01*
X87616375Y-90557954D01*
X87600719Y-90549405D01*
X87479678Y-90504259D01*
X87464457Y-90500662D01*
X87415138Y-90495359D01*
X87408423Y-90495000D01*
X85093790Y-90495000D01*
X85080706Y-90498506D01*
X85077200Y-90511590D01*
X85077200Y-91482410D01*
X84569200Y-91482410D01*
X84569200Y-90511590D01*
X84565693Y-90498506D01*
X84552610Y-90495000D01*
X82237977Y-90495000D01*
X82231261Y-90495359D01*
X82181942Y-90500662D01*
X82166721Y-90504259D01*
X82045680Y-90549405D01*
X82030024Y-90557954D01*
X81977209Y-90597491D01*
X81912930Y-90622122D01*
X81845300Y-90609295D01*
X81794503Y-90562841D01*
X81775700Y-90496623D01*
X81775700Y-88777765D01*
X151455788Y-88777765D01*
X151456290Y-88782332D01*
X151456291Y-88782344D01*
X151484910Y-89042444D01*
X151484911Y-89042453D01*
X151485414Y-89047018D01*
X151553928Y-89309088D01*
X151555725Y-89313318D01*
X151555728Y-89313325D01*
X151605866Y-89431308D01*
X151659870Y-89558390D01*
X151800982Y-89789610D01*
X151974255Y-89997820D01*
X152068785Y-90082519D01*
X152172561Y-90175503D01*
X152172565Y-90175506D01*
X152175998Y-90178582D01*
X152401910Y-90328044D01*
X152647176Y-90443020D01*
X152906569Y-90521060D01*
X153174561Y-90560500D01*
X153375330Y-90560500D01*
X153377631Y-90560500D01*
X153580156Y-90545677D01*
X153844553Y-90486780D01*
X154097558Y-90390014D01*
X154333777Y-90257441D01*
X154548177Y-90091888D01*
X154736186Y-89896881D01*
X154740949Y-89890223D01*
X179519500Y-89890223D01*
X179519859Y-89896938D01*
X179525162Y-89946257D01*
X179528759Y-89961478D01*
X179573905Y-90082519D01*
X179582454Y-90098175D01*
X179659197Y-90200692D01*
X179671807Y-90213302D01*
X179774324Y-90290045D01*
X179789980Y-90298594D01*
X179911021Y-90343740D01*
X179926242Y-90347337D01*
X179975561Y-90352640D01*
X179982277Y-90353000D01*
X182296910Y-90353000D01*
X182309993Y-90349493D01*
X182313500Y-90336410D01*
X182313500Y-89365590D01*
X182309993Y-89352506D01*
X182296910Y-89349000D01*
X179536090Y-89349000D01*
X179523006Y-89352506D01*
X179519500Y-89365590D01*
X179519500Y-89890223D01*
X154740949Y-89890223D01*
X154893799Y-89676579D01*
X155017656Y-89435675D01*
X155105118Y-89179305D01*
X155154319Y-88912933D01*
X155157554Y-88824410D01*
X179519500Y-88824410D01*
X179523006Y-88837493D01*
X179536090Y-88841000D01*
X182296910Y-88841000D01*
X182309993Y-88837493D01*
X182313500Y-88824410D01*
X182313500Y-87853590D01*
X182309993Y-87840506D01*
X182296910Y-87837000D01*
X179982277Y-87837000D01*
X179975561Y-87837359D01*
X179926242Y-87842662D01*
X179911021Y-87846259D01*
X179789980Y-87891405D01*
X179774324Y-87899954D01*
X179671807Y-87976697D01*
X179659197Y-87989307D01*
X179582454Y-88091824D01*
X179573905Y-88107480D01*
X179528759Y-88228521D01*
X179525162Y-88243742D01*
X179519859Y-88293061D01*
X179519500Y-88299777D01*
X179519500Y-88824410D01*
X155157554Y-88824410D01*
X155164212Y-88642235D01*
X155134586Y-88372982D01*
X155066072Y-88110912D01*
X154960130Y-87861610D01*
X154819018Y-87630390D01*
X154645745Y-87422180D01*
X154570137Y-87354435D01*
X154447438Y-87244496D01*
X154447432Y-87244491D01*
X154444002Y-87241418D01*
X154218090Y-87091956D01*
X153972824Y-86976980D01*
X153968420Y-86975655D01*
X153717843Y-86900267D01*
X153717838Y-86900265D01*
X153713431Y-86898940D01*
X153708874Y-86898269D01*
X153708868Y-86898268D01*
X153450000Y-86860171D01*
X153449996Y-86860170D01*
X153445439Y-86859500D01*
X153242369Y-86859500D01*
X153240098Y-86859666D01*
X153240076Y-86859667D01*
X153044438Y-86873986D01*
X153044427Y-86873987D01*
X153039844Y-86874323D01*
X153035353Y-86875323D01*
X153035349Y-86875324D01*
X152779939Y-86932219D01*
X152779934Y-86932220D01*
X152775447Y-86933220D01*
X152771149Y-86934863D01*
X152771145Y-86934865D01*
X152526746Y-87028339D01*
X152526735Y-87028343D01*
X152522442Y-87029986D01*
X152518434Y-87032235D01*
X152518422Y-87032241D01*
X152290232Y-87160308D01*
X152290221Y-87160314D01*
X152286223Y-87162559D01*
X152282589Y-87165364D01*
X152282586Y-87165367D01*
X152075466Y-87325298D01*
X152075458Y-87325305D01*
X152071823Y-87328112D01*
X152068632Y-87331421D01*
X152068625Y-87331428D01*
X151887011Y-87519802D01*
X151887004Y-87519809D01*
X151883814Y-87523119D01*
X151881136Y-87526861D01*
X151881131Y-87526868D01*
X151728885Y-87739668D01*
X151728878Y-87739677D01*
X151726201Y-87743421D01*
X151724097Y-87747512D01*
X151724091Y-87747523D01*
X151604453Y-87980222D01*
X151602344Y-87984325D01*
X151600856Y-87988684D01*
X151600854Y-87988691D01*
X151516371Y-88236327D01*
X151516367Y-88236341D01*
X151514882Y-88240695D01*
X151514044Y-88245228D01*
X151514044Y-88245231D01*
X151466517Y-88502537D01*
X151466515Y-88502546D01*
X151465681Y-88507067D01*
X151465513Y-88511656D01*
X151465512Y-88511668D01*
X151455956Y-88773161D01*
X151455788Y-88777765D01*
X81775700Y-88777765D01*
X81775700Y-83470223D01*
X179469500Y-83470223D01*
X179469859Y-83476938D01*
X179475162Y-83526257D01*
X179478759Y-83541478D01*
X179523905Y-83662519D01*
X179532454Y-83678175D01*
X179609197Y-83780692D01*
X179621807Y-83793302D01*
X179724324Y-83870045D01*
X179739980Y-83878594D01*
X179861021Y-83923740D01*
X179876242Y-83927337D01*
X179925561Y-83932640D01*
X179932277Y-83933000D01*
X182246910Y-83933000D01*
X182259993Y-83929493D01*
X182263500Y-83916410D01*
X182263500Y-82945590D01*
X182259993Y-82932506D01*
X182246910Y-82929000D01*
X179486090Y-82929000D01*
X179473006Y-82932506D01*
X179469500Y-82945590D01*
X179469500Y-83470223D01*
X81775700Y-83470223D01*
X81775700Y-82404410D01*
X179469500Y-82404410D01*
X179473006Y-82417493D01*
X179486090Y-82421000D01*
X182246910Y-82421000D01*
X182259993Y-82417493D01*
X182263500Y-82404410D01*
X182263500Y-81433590D01*
X182259993Y-81420506D01*
X182246910Y-81417000D01*
X179932277Y-81417000D01*
X179925561Y-81417359D01*
X179876242Y-81422662D01*
X179861021Y-81426259D01*
X179739980Y-81471405D01*
X179724324Y-81479954D01*
X179621807Y-81556697D01*
X179609197Y-81569307D01*
X179532454Y-81671824D01*
X179523905Y-81687480D01*
X179478759Y-81808521D01*
X179475162Y-81823742D01*
X179469859Y-81873061D01*
X179469500Y-81879777D01*
X179469500Y-82404410D01*
X81775700Y-82404410D01*
X81775700Y-81334359D01*
X81794503Y-81268141D01*
X81845300Y-81221687D01*
X81912930Y-81208860D01*
X81977208Y-81233490D01*
X81999324Y-81250046D01*
X82014980Y-81258594D01*
X82136021Y-81303740D01*
X82151242Y-81307337D01*
X82200561Y-81312640D01*
X82207277Y-81313000D01*
X84521910Y-81313000D01*
X84534993Y-81309493D01*
X84538500Y-81296410D01*
X85046500Y-81296410D01*
X85050006Y-81309493D01*
X85063090Y-81313000D01*
X87377723Y-81313000D01*
X87384438Y-81312640D01*
X87433757Y-81307337D01*
X87448978Y-81303740D01*
X87570019Y-81258594D01*
X87585675Y-81250045D01*
X87688192Y-81173302D01*
X87700802Y-81160692D01*
X87777545Y-81058175D01*
X87786094Y-81042519D01*
X87831240Y-80921478D01*
X87834837Y-80906257D01*
X87840140Y-80856938D01*
X87840500Y-80850223D01*
X87840500Y-80325590D01*
X87836993Y-80312506D01*
X87823910Y-80309000D01*
X85063090Y-80309000D01*
X85050006Y-80312506D01*
X85046500Y-80325590D01*
X85046500Y-81296410D01*
X84538500Y-81296410D01*
X84538500Y-79784410D01*
X85046500Y-79784410D01*
X85050006Y-79797493D01*
X85063090Y-79801000D01*
X87823910Y-79801000D01*
X87836993Y-79797493D01*
X87840500Y-79784410D01*
X87840500Y-79259777D01*
X87840140Y-79253061D01*
X87834837Y-79203742D01*
X87831240Y-79188521D01*
X87786094Y-79067480D01*
X87777545Y-79051824D01*
X87700802Y-78949307D01*
X87688192Y-78936697D01*
X87585675Y-78859954D01*
X87570019Y-78851405D01*
X87448978Y-78806259D01*
X87433757Y-78802662D01*
X87384438Y-78797359D01*
X87377723Y-78797000D01*
X85063090Y-78797000D01*
X85050006Y-78800506D01*
X85046500Y-78813590D01*
X85046500Y-79784410D01*
X84538500Y-79784410D01*
X84538500Y-78813590D01*
X84534993Y-78800506D01*
X84521910Y-78797000D01*
X82207277Y-78797000D01*
X82200561Y-78797359D01*
X82151242Y-78802662D01*
X82136021Y-78806259D01*
X82014980Y-78851405D01*
X81999324Y-78859953D01*
X81977208Y-78876510D01*
X81912930Y-78901140D01*
X81845300Y-78888313D01*
X81794503Y-78841859D01*
X81775700Y-78775641D01*
X81775700Y-74970223D01*
X179469500Y-74970223D01*
X179469859Y-74976938D01*
X179475162Y-75026257D01*
X179478759Y-75041478D01*
X179523905Y-75162519D01*
X179532454Y-75178175D01*
X179609197Y-75280692D01*
X179621807Y-75293302D01*
X179724324Y-75370045D01*
X179739980Y-75378594D01*
X179861021Y-75423740D01*
X179876242Y-75427337D01*
X179925561Y-75432640D01*
X179932277Y-75433000D01*
X182246910Y-75433000D01*
X182259993Y-75429493D01*
X182263500Y-75416410D01*
X182263500Y-74445590D01*
X182259993Y-74432506D01*
X182246910Y-74429000D01*
X179486090Y-74429000D01*
X179473006Y-74432506D01*
X179469500Y-74445590D01*
X179469500Y-74970223D01*
X81775700Y-74970223D01*
X81775700Y-73904410D01*
X179469500Y-73904410D01*
X179473006Y-73917493D01*
X179486090Y-73921000D01*
X182246910Y-73921000D01*
X182259993Y-73917493D01*
X182263500Y-73904410D01*
X182263500Y-72933590D01*
X182259993Y-72920506D01*
X182246910Y-72917000D01*
X179932277Y-72917000D01*
X179925561Y-72917359D01*
X179876242Y-72922662D01*
X179861021Y-72926259D01*
X179739980Y-72971405D01*
X179724324Y-72979954D01*
X179621807Y-73056697D01*
X179609197Y-73069307D01*
X179532454Y-73171824D01*
X179523905Y-73187480D01*
X179478759Y-73308521D01*
X179475162Y-73323742D01*
X179469859Y-73373061D01*
X179469500Y-73379777D01*
X179469500Y-73904410D01*
X81775700Y-73904410D01*
X81775700Y-72834359D01*
X81794503Y-72768141D01*
X81845300Y-72721687D01*
X81912930Y-72708860D01*
X81977208Y-72733490D01*
X81999324Y-72750046D01*
X82014980Y-72758594D01*
X82136021Y-72803740D01*
X82151242Y-72807337D01*
X82200561Y-72812640D01*
X82207277Y-72813000D01*
X84521910Y-72813000D01*
X84534993Y-72809493D01*
X84538500Y-72796410D01*
X85046500Y-72796410D01*
X85050006Y-72809493D01*
X85063090Y-72813000D01*
X87377723Y-72813000D01*
X87384438Y-72812640D01*
X87433757Y-72807337D01*
X87448978Y-72803740D01*
X87570019Y-72758594D01*
X87585675Y-72750045D01*
X87688192Y-72673302D01*
X87700802Y-72660692D01*
X87777545Y-72558175D01*
X87786094Y-72542519D01*
X87831240Y-72421478D01*
X87834837Y-72406257D01*
X87840140Y-72356938D01*
X87840500Y-72350223D01*
X87840500Y-71825590D01*
X87836993Y-71812506D01*
X87823910Y-71809000D01*
X85063090Y-71809000D01*
X85050006Y-71812506D01*
X85046500Y-71825590D01*
X85046500Y-72796410D01*
X84538500Y-72796410D01*
X84538500Y-71284410D01*
X85046500Y-71284410D01*
X85050006Y-71297493D01*
X85063090Y-71301000D01*
X87823910Y-71301000D01*
X87836993Y-71297493D01*
X87840500Y-71284410D01*
X87840500Y-70759777D01*
X87840140Y-70753061D01*
X87834837Y-70703742D01*
X87831240Y-70688521D01*
X87786094Y-70567480D01*
X87777545Y-70551824D01*
X87700802Y-70449307D01*
X87688192Y-70436697D01*
X87585675Y-70359954D01*
X87570019Y-70351405D01*
X87448978Y-70306259D01*
X87433757Y-70302662D01*
X87384438Y-70297359D01*
X87377723Y-70297000D01*
X85063090Y-70297000D01*
X85050006Y-70300506D01*
X85046500Y-70313590D01*
X85046500Y-71284410D01*
X84538500Y-71284410D01*
X84538500Y-70313590D01*
X84534993Y-70300506D01*
X84521910Y-70297000D01*
X82207277Y-70297000D01*
X82200561Y-70297359D01*
X82151242Y-70302662D01*
X82136021Y-70306259D01*
X82014980Y-70351405D01*
X81999324Y-70359953D01*
X81977208Y-70376510D01*
X81912930Y-70401140D01*
X81845300Y-70388313D01*
X81794503Y-70341859D01*
X81775700Y-70275641D01*
X81775700Y-68550223D01*
X179469500Y-68550223D01*
X179469859Y-68556938D01*
X179475162Y-68606257D01*
X179478759Y-68621478D01*
X179523905Y-68742519D01*
X179532454Y-68758175D01*
X179609197Y-68860692D01*
X179621807Y-68873302D01*
X179724324Y-68950045D01*
X179739980Y-68958594D01*
X179861021Y-69003740D01*
X179876242Y-69007337D01*
X179925561Y-69012640D01*
X179932277Y-69013000D01*
X182246910Y-69013000D01*
X182259993Y-69009493D01*
X182263500Y-68996410D01*
X182263500Y-68025590D01*
X182259993Y-68012506D01*
X182246910Y-68009000D01*
X179486090Y-68009000D01*
X179473006Y-68012506D01*
X179469500Y-68025590D01*
X179469500Y-68550223D01*
X81775700Y-68550223D01*
X81775700Y-67484410D01*
X179469500Y-67484410D01*
X179473006Y-67497493D01*
X179486090Y-67501000D01*
X182246910Y-67501000D01*
X182259993Y-67497493D01*
X182263500Y-67484410D01*
X182263500Y-66513590D01*
X182259993Y-66500506D01*
X182246910Y-66497000D01*
X179932277Y-66497000D01*
X179925561Y-66497359D01*
X179876242Y-66502662D01*
X179861021Y-66506259D01*
X179739980Y-66551405D01*
X179724324Y-66559954D01*
X179621807Y-66636697D01*
X179609197Y-66649307D01*
X179532454Y-66751824D01*
X179523905Y-66767480D01*
X179478759Y-66888521D01*
X179475162Y-66903742D01*
X179469859Y-66953061D01*
X179469500Y-66959777D01*
X179469500Y-67484410D01*
X81775700Y-67484410D01*
X81775700Y-64077765D01*
X92625788Y-64077765D01*
X92626290Y-64082332D01*
X92626291Y-64082344D01*
X92654910Y-64342444D01*
X92654911Y-64342453D01*
X92655414Y-64347018D01*
X92723928Y-64609088D01*
X92725725Y-64613318D01*
X92725728Y-64613325D01*
X92775866Y-64731308D01*
X92829870Y-64858390D01*
X92970982Y-65089610D01*
X93144255Y-65297820D01*
X93239177Y-65382870D01*
X93342561Y-65475503D01*
X93342565Y-65475506D01*
X93345998Y-65478582D01*
X93571910Y-65628044D01*
X93817176Y-65743020D01*
X94076569Y-65821060D01*
X94344561Y-65860500D01*
X94545330Y-65860500D01*
X94547631Y-65860500D01*
X94750156Y-65845677D01*
X95014553Y-65786780D01*
X95267558Y-65690014D01*
X95503777Y-65557441D01*
X95718177Y-65391888D01*
X95906186Y-65196881D01*
X96063799Y-64976579D01*
X96187656Y-64735675D01*
X96275118Y-64479305D01*
X96324319Y-64212933D01*
X96334212Y-63942235D01*
X96304586Y-63672982D01*
X96236072Y-63410912D01*
X96130130Y-63161610D01*
X95989018Y-62930390D01*
X95815745Y-62722180D01*
X95740137Y-62654435D01*
X95617438Y-62544496D01*
X95617432Y-62544491D01*
X95614002Y-62541418D01*
X95388090Y-62391956D01*
X95142824Y-62276980D01*
X95138420Y-62275655D01*
X94887843Y-62200267D01*
X94887838Y-62200265D01*
X94883431Y-62198940D01*
X94878874Y-62198269D01*
X94878868Y-62198268D01*
X94620000Y-62160171D01*
X94619996Y-62160170D01*
X94615439Y-62159500D01*
X94412369Y-62159500D01*
X94410098Y-62159666D01*
X94410076Y-62159667D01*
X94214438Y-62173986D01*
X94214427Y-62173987D01*
X94209844Y-62174323D01*
X94205353Y-62175323D01*
X94205349Y-62175324D01*
X93949939Y-62232219D01*
X93949934Y-62232220D01*
X93945447Y-62233220D01*
X93941149Y-62234863D01*
X93941145Y-62234865D01*
X93696746Y-62328339D01*
X93696735Y-62328343D01*
X93692442Y-62329986D01*
X93688434Y-62332235D01*
X93688422Y-62332241D01*
X93460232Y-62460308D01*
X93460221Y-62460314D01*
X93456223Y-62462559D01*
X93452589Y-62465364D01*
X93452586Y-62465367D01*
X93245466Y-62625298D01*
X93245458Y-62625305D01*
X93241823Y-62628112D01*
X93238632Y-62631421D01*
X93238625Y-62631428D01*
X93057011Y-62819802D01*
X93057004Y-62819809D01*
X93053814Y-62823119D01*
X93051136Y-62826861D01*
X93051131Y-62826868D01*
X92898885Y-63039668D01*
X92898878Y-63039677D01*
X92896201Y-63043421D01*
X92894097Y-63047512D01*
X92894091Y-63047523D01*
X92774453Y-63280222D01*
X92772344Y-63284325D01*
X92770856Y-63288684D01*
X92770854Y-63288691D01*
X92686371Y-63536327D01*
X92686367Y-63536341D01*
X92684882Y-63540695D01*
X92684044Y-63545228D01*
X92684044Y-63545231D01*
X92636517Y-63802537D01*
X92636515Y-63802546D01*
X92635681Y-63807067D01*
X92635513Y-63811656D01*
X92635512Y-63811668D01*
X92625956Y-64073161D01*
X92625788Y-64077765D01*
X81775700Y-64077765D01*
X81775700Y-60050223D01*
X179469500Y-60050223D01*
X179469859Y-60056938D01*
X179475162Y-60106257D01*
X179478759Y-60121478D01*
X179523905Y-60242519D01*
X179532454Y-60258175D01*
X179609197Y-60360692D01*
X179621807Y-60373302D01*
X179724324Y-60450045D01*
X179739980Y-60458594D01*
X179861021Y-60503740D01*
X179876242Y-60507337D01*
X179925561Y-60512640D01*
X179932277Y-60513000D01*
X182246910Y-60513000D01*
X182259993Y-60509493D01*
X182263500Y-60496410D01*
X182263500Y-59525590D01*
X182259993Y-59512506D01*
X182246910Y-59509000D01*
X179486090Y-59509000D01*
X179473006Y-59512506D01*
X179469500Y-59525590D01*
X179469500Y-60050223D01*
X81775700Y-60050223D01*
X81775700Y-57911500D01*
X81792581Y-57848500D01*
X81838700Y-57802381D01*
X81901700Y-57785500D01*
X179754528Y-57785500D01*
X179821128Y-57804540D01*
G37*
%TD.AperFunction*%
%TD*%
M02*
