%TF.GenerationSoftware,KiCad,Pcbnew,(6.0.5)*%
%TF.CreationDate,2022-05-16T15:03:43-04:00*%
%TF.ProjectId,PrawnBlaster_Connectorized,50726177-6e42-46c6-9173-7465725f436f,rev?*%
%TF.SameCoordinates,Original*%
%TF.FileFunction,Copper,L2,Bot*%
%TF.FilePolarity,Positive*%
%FSLAX46Y46*%
G04 Gerber Fmt 4.6, Leading zero omitted, Abs format (unit mm)*
G04 Created by KiCad (PCBNEW (6.0.5)) date 2022-05-16 15:03:43*
%MOMM*%
%LPD*%
G01*
G04 APERTURE LIST*
%TA.AperFunction,SMDPad,CuDef*%
%ADD10R,5.080000X1.500000*%
%TD*%
G04 APERTURE END LIST*
D10*
%TO.P,J6,2,Ext*%
%TO.N,GND*%
X182397500Y-104125000D03*
X182397500Y-112625000D03*
%TD*%
%TO.P,J2,2,Ext*%
%TO.N,GND*%
X84823200Y-91753000D03*
X84823200Y-100253000D03*
%TD*%
%TO.P,J5,2,Ext*%
%TO.N,GND*%
X182517500Y-82675000D03*
X182517500Y-74175000D03*
%TD*%
%TO.P,J3,2,Ext*%
%TO.N,GND*%
X182517500Y-67755000D03*
X182517500Y-59255000D03*
%TD*%
%TO.P,J1,2,Ext*%
%TO.N,GND*%
X84792500Y-80055000D03*
X84792500Y-71555000D03*
%TD*%
%TO.P,J4,2,Ext*%
%TO.N,GND*%
X182567500Y-97595000D03*
X182567500Y-89095000D03*
%TD*%
%TA.AperFunction,Conductor*%
%TO.N,GND*%
G36*
X179414944Y-58313502D02*
G01*
X179461437Y-58367158D01*
X179472086Y-58433109D01*
X179469869Y-58453517D01*
X179469500Y-58460328D01*
X179469500Y-58982885D01*
X179473975Y-58998124D01*
X179475365Y-58999329D01*
X179483048Y-59001000D01*
X182645500Y-59001000D01*
X182713621Y-59021002D01*
X182760114Y-59074658D01*
X182771500Y-59127000D01*
X182771500Y-60494884D01*
X182775975Y-60510123D01*
X182777365Y-60511328D01*
X182785048Y-60512999D01*
X184941100Y-60512999D01*
X185009221Y-60533001D01*
X185055714Y-60586657D01*
X185067100Y-60638999D01*
X185067100Y-66371000D01*
X185047098Y-66439121D01*
X184993442Y-66485614D01*
X184941100Y-66497000D01*
X182789615Y-66497000D01*
X182774376Y-66501475D01*
X182773171Y-66502865D01*
X182771500Y-66510548D01*
X182771500Y-68994884D01*
X182775975Y-69010123D01*
X182777365Y-69011328D01*
X182785048Y-69012999D01*
X184941100Y-69012999D01*
X185009221Y-69033001D01*
X185055714Y-69086657D01*
X185067100Y-69138999D01*
X185067100Y-72791000D01*
X185047098Y-72859121D01*
X184993442Y-72905614D01*
X184941100Y-72917000D01*
X182789615Y-72917000D01*
X182774376Y-72921475D01*
X182773171Y-72922865D01*
X182771500Y-72930548D01*
X182771500Y-75414884D01*
X182775975Y-75430123D01*
X182777365Y-75431328D01*
X182785048Y-75432999D01*
X184941100Y-75432999D01*
X185009221Y-75453001D01*
X185055714Y-75506657D01*
X185067100Y-75558999D01*
X185067100Y-81291000D01*
X185047098Y-81359121D01*
X184993442Y-81405614D01*
X184941100Y-81417000D01*
X182789615Y-81417000D01*
X182774376Y-81421475D01*
X182773171Y-81422865D01*
X182771500Y-81430548D01*
X182771500Y-83914884D01*
X182775975Y-83930123D01*
X182777365Y-83931328D01*
X182785048Y-83932999D01*
X184941100Y-83932999D01*
X185009221Y-83953001D01*
X185055714Y-84006657D01*
X185067100Y-84058999D01*
X185067100Y-87711000D01*
X185047098Y-87779121D01*
X184993442Y-87825614D01*
X184941100Y-87837000D01*
X182839615Y-87837000D01*
X182824376Y-87841475D01*
X182823171Y-87842865D01*
X182821500Y-87850548D01*
X182821500Y-90334884D01*
X182825975Y-90350123D01*
X182827365Y-90351328D01*
X182835048Y-90352999D01*
X184941100Y-90352999D01*
X185009221Y-90373001D01*
X185055714Y-90426657D01*
X185067100Y-90478999D01*
X185067100Y-96211000D01*
X185047098Y-96279121D01*
X184993442Y-96325614D01*
X184941100Y-96337000D01*
X182839615Y-96337000D01*
X182824376Y-96341475D01*
X182823171Y-96342865D01*
X182821500Y-96350548D01*
X182821500Y-98834884D01*
X182825975Y-98850123D01*
X182827365Y-98851328D01*
X182835048Y-98852999D01*
X184941100Y-98852999D01*
X185009221Y-98873001D01*
X185055714Y-98926657D01*
X185067100Y-98978999D01*
X185067100Y-102741000D01*
X185047098Y-102809121D01*
X184993442Y-102855614D01*
X184941100Y-102867000D01*
X182669615Y-102867000D01*
X182654376Y-102871475D01*
X182653171Y-102872865D01*
X182651500Y-102880548D01*
X182651500Y-105364884D01*
X182655975Y-105380123D01*
X182657365Y-105381328D01*
X182665048Y-105382999D01*
X184941100Y-105382999D01*
X185009221Y-105403001D01*
X185055714Y-105456657D01*
X185067100Y-105508999D01*
X185067100Y-111241000D01*
X185047098Y-111309121D01*
X184993442Y-111355614D01*
X184941100Y-111367000D01*
X182669615Y-111367000D01*
X182654376Y-111371475D01*
X182653171Y-111372865D01*
X182651500Y-111380548D01*
X182651500Y-112753000D01*
X182631498Y-112821121D01*
X182577842Y-112867614D01*
X182525500Y-112879000D01*
X179367616Y-112879000D01*
X179352377Y-112883475D01*
X179351172Y-112884865D01*
X179349501Y-112892548D01*
X179349501Y-113275500D01*
X179329499Y-113343621D01*
X179275843Y-113390114D01*
X179223501Y-113401500D01*
X82409700Y-113401500D01*
X82341579Y-113381498D01*
X82295086Y-113327842D01*
X82283700Y-113275500D01*
X82283700Y-112352885D01*
X179349500Y-112352885D01*
X179353975Y-112368124D01*
X179355365Y-112369329D01*
X179363048Y-112371000D01*
X182125385Y-112371000D01*
X182140624Y-112366525D01*
X182141829Y-112365135D01*
X182143500Y-112357452D01*
X182143500Y-111385116D01*
X182139025Y-111369877D01*
X182137635Y-111368672D01*
X182129952Y-111367001D01*
X179812831Y-111367001D01*
X179806010Y-111367371D01*
X179755148Y-111372895D01*
X179739896Y-111376521D01*
X179619446Y-111421676D01*
X179603851Y-111430214D01*
X179501776Y-111506715D01*
X179489215Y-111519276D01*
X179412714Y-111621351D01*
X179404176Y-111636946D01*
X179359022Y-111757394D01*
X179355395Y-111772649D01*
X179349869Y-111823514D01*
X179349500Y-111830328D01*
X179349500Y-112352885D01*
X82283700Y-112352885D01*
X82283700Y-104919669D01*
X179349501Y-104919669D01*
X179349871Y-104926490D01*
X179355395Y-104977352D01*
X179359021Y-104992604D01*
X179404176Y-105113054D01*
X179412714Y-105128649D01*
X179489215Y-105230724D01*
X179501776Y-105243285D01*
X179603851Y-105319786D01*
X179619446Y-105328324D01*
X179739894Y-105373478D01*
X179755149Y-105377105D01*
X179806014Y-105382631D01*
X179812828Y-105383000D01*
X182125385Y-105383000D01*
X182140624Y-105378525D01*
X182141829Y-105377135D01*
X182143500Y-105369452D01*
X182143500Y-104397115D01*
X182139025Y-104381876D01*
X182137635Y-104380671D01*
X182129952Y-104379000D01*
X179367616Y-104379000D01*
X179352377Y-104383475D01*
X179351172Y-104384865D01*
X179349501Y-104392548D01*
X179349501Y-104919669D01*
X82283700Y-104919669D01*
X82283700Y-103852885D01*
X179349500Y-103852885D01*
X179353975Y-103868124D01*
X179355365Y-103869329D01*
X179363048Y-103871000D01*
X182125385Y-103871000D01*
X182140624Y-103866525D01*
X182141829Y-103865135D01*
X182143500Y-103857452D01*
X182143500Y-102885116D01*
X182139025Y-102869877D01*
X182137635Y-102868672D01*
X182129952Y-102867001D01*
X179812831Y-102867001D01*
X179806010Y-102867371D01*
X179755148Y-102872895D01*
X179739896Y-102876521D01*
X179619446Y-102921676D01*
X179603851Y-102930214D01*
X179501776Y-103006715D01*
X179489215Y-103019276D01*
X179412714Y-103121351D01*
X179404176Y-103136946D01*
X179359022Y-103257394D01*
X179355395Y-103272649D01*
X179349869Y-103323514D01*
X179349500Y-103330328D01*
X179349500Y-103852885D01*
X82283700Y-103852885D01*
X82283700Y-101637000D01*
X82303702Y-101568879D01*
X82357358Y-101522386D01*
X82409700Y-101511000D01*
X84551085Y-101511000D01*
X84566324Y-101506525D01*
X84567529Y-101505135D01*
X84569200Y-101497452D01*
X84569200Y-101492884D01*
X85077200Y-101492884D01*
X85081675Y-101508123D01*
X85083065Y-101509328D01*
X85090748Y-101510999D01*
X87407869Y-101510999D01*
X87414690Y-101510629D01*
X87465552Y-101505105D01*
X87480804Y-101501479D01*
X87601254Y-101456324D01*
X87616849Y-101447786D01*
X87718924Y-101371285D01*
X87731485Y-101358724D01*
X87807986Y-101256649D01*
X87816524Y-101241054D01*
X87861678Y-101120606D01*
X87865305Y-101105351D01*
X87870831Y-101054486D01*
X87871200Y-101047672D01*
X87871200Y-100525115D01*
X87866725Y-100509876D01*
X87865335Y-100508671D01*
X87857652Y-100507000D01*
X85095315Y-100507000D01*
X85080076Y-100511475D01*
X85078871Y-100512865D01*
X85077200Y-100520548D01*
X85077200Y-101492884D01*
X84569200Y-101492884D01*
X84569200Y-99980885D01*
X85077200Y-99980885D01*
X85081675Y-99996124D01*
X85083065Y-99997329D01*
X85090748Y-99999000D01*
X87853084Y-99999000D01*
X87868323Y-99994525D01*
X87869528Y-99993135D01*
X87871199Y-99985452D01*
X87871199Y-99458331D01*
X87870829Y-99451510D01*
X87865305Y-99400648D01*
X87861679Y-99385396D01*
X87816524Y-99264946D01*
X87807986Y-99249351D01*
X87731485Y-99147276D01*
X87718924Y-99134715D01*
X87616849Y-99058214D01*
X87601254Y-99049676D01*
X87480806Y-99004522D01*
X87465551Y-99000895D01*
X87414686Y-98995369D01*
X87407872Y-98995000D01*
X85095315Y-98995000D01*
X85080076Y-98999475D01*
X85078871Y-99000865D01*
X85077200Y-99008548D01*
X85077200Y-99980885D01*
X84569200Y-99980885D01*
X84569200Y-99013116D01*
X84564725Y-98997877D01*
X84563335Y-98996672D01*
X84555652Y-98995001D01*
X82409700Y-98995001D01*
X82341579Y-98974999D01*
X82295086Y-98921343D01*
X82283700Y-98869001D01*
X82283700Y-98389669D01*
X179519501Y-98389669D01*
X179519871Y-98396490D01*
X179525395Y-98447352D01*
X179529021Y-98462604D01*
X179574176Y-98583054D01*
X179582714Y-98598649D01*
X179659215Y-98700724D01*
X179671776Y-98713285D01*
X179773851Y-98789786D01*
X179789446Y-98798324D01*
X179909894Y-98843478D01*
X179925149Y-98847105D01*
X179976014Y-98852631D01*
X179982828Y-98853000D01*
X182295385Y-98853000D01*
X182310624Y-98848525D01*
X182311829Y-98847135D01*
X182313500Y-98839452D01*
X182313500Y-97867115D01*
X182309025Y-97851876D01*
X182307635Y-97850671D01*
X182299952Y-97849000D01*
X179537616Y-97849000D01*
X179522377Y-97853475D01*
X179521172Y-97854865D01*
X179519501Y-97862548D01*
X179519501Y-98389669D01*
X82283700Y-98389669D01*
X82283700Y-97322885D01*
X179519500Y-97322885D01*
X179523975Y-97338124D01*
X179525365Y-97339329D01*
X179533048Y-97341000D01*
X182295385Y-97341000D01*
X182310624Y-97336525D01*
X182311829Y-97335135D01*
X182313500Y-97327452D01*
X182313500Y-96355116D01*
X182309025Y-96339877D01*
X182307635Y-96338672D01*
X182299952Y-96337001D01*
X179982831Y-96337001D01*
X179976010Y-96337371D01*
X179925148Y-96342895D01*
X179909896Y-96346521D01*
X179789446Y-96391676D01*
X179773851Y-96400214D01*
X179671776Y-96476715D01*
X179659215Y-96489276D01*
X179582714Y-96591351D01*
X179574176Y-96606946D01*
X179529022Y-96727394D01*
X179525395Y-96742649D01*
X179519869Y-96793514D01*
X179519500Y-96800328D01*
X179519500Y-97322885D01*
X82283700Y-97322885D01*
X82283700Y-93137000D01*
X82303702Y-93068879D01*
X82357358Y-93022386D01*
X82409700Y-93011000D01*
X84551085Y-93011000D01*
X84566324Y-93006525D01*
X84567529Y-93005135D01*
X84569200Y-92997452D01*
X84569200Y-92992884D01*
X85077200Y-92992884D01*
X85081675Y-93008123D01*
X85083065Y-93009328D01*
X85090748Y-93010999D01*
X87407869Y-93010999D01*
X87414690Y-93010629D01*
X87465552Y-93005105D01*
X87480804Y-93001479D01*
X87601254Y-92956324D01*
X87616849Y-92947786D01*
X87718924Y-92871285D01*
X87731485Y-92858724D01*
X87807986Y-92756649D01*
X87816524Y-92741054D01*
X87861678Y-92620606D01*
X87865305Y-92605351D01*
X87870831Y-92554486D01*
X87871200Y-92547672D01*
X87871200Y-92025115D01*
X87866725Y-92009876D01*
X87865335Y-92008671D01*
X87857652Y-92007000D01*
X85095315Y-92007000D01*
X85080076Y-92011475D01*
X85078871Y-92012865D01*
X85077200Y-92020548D01*
X85077200Y-92992884D01*
X84569200Y-92992884D01*
X84569200Y-91480885D01*
X85077200Y-91480885D01*
X85081675Y-91496124D01*
X85083065Y-91497329D01*
X85090748Y-91499000D01*
X87853084Y-91499000D01*
X87868323Y-91494525D01*
X87869528Y-91493135D01*
X87871199Y-91485452D01*
X87871199Y-90958331D01*
X87870829Y-90951510D01*
X87865305Y-90900648D01*
X87861679Y-90885396D01*
X87816524Y-90764946D01*
X87807986Y-90749351D01*
X87731485Y-90647276D01*
X87718924Y-90634715D01*
X87616849Y-90558214D01*
X87601254Y-90549676D01*
X87480806Y-90504522D01*
X87465551Y-90500895D01*
X87414686Y-90495369D01*
X87407872Y-90495000D01*
X85095315Y-90495000D01*
X85080076Y-90499475D01*
X85078871Y-90500865D01*
X85077200Y-90508548D01*
X85077200Y-91480885D01*
X84569200Y-91480885D01*
X84569200Y-90513116D01*
X84564725Y-90497877D01*
X84563335Y-90496672D01*
X84555652Y-90495001D01*
X82409700Y-90495001D01*
X82341579Y-90474999D01*
X82295086Y-90421343D01*
X82283700Y-90369001D01*
X82283700Y-89889669D01*
X179519501Y-89889669D01*
X179519871Y-89896490D01*
X179525395Y-89947352D01*
X179529021Y-89962604D01*
X179574176Y-90083054D01*
X179582714Y-90098649D01*
X179659215Y-90200724D01*
X179671776Y-90213285D01*
X179773851Y-90289786D01*
X179789446Y-90298324D01*
X179909894Y-90343478D01*
X179925149Y-90347105D01*
X179976014Y-90352631D01*
X179982828Y-90353000D01*
X182295385Y-90353000D01*
X182310624Y-90348525D01*
X182311829Y-90347135D01*
X182313500Y-90339452D01*
X182313500Y-89367115D01*
X182309025Y-89351876D01*
X182307635Y-89350671D01*
X182299952Y-89349000D01*
X179537616Y-89349000D01*
X179522377Y-89353475D01*
X179521172Y-89354865D01*
X179519501Y-89362548D01*
X179519501Y-89889669D01*
X82283700Y-89889669D01*
X82283700Y-88822885D01*
X179519500Y-88822885D01*
X179523975Y-88838124D01*
X179525365Y-88839329D01*
X179533048Y-88841000D01*
X182295385Y-88841000D01*
X182310624Y-88836525D01*
X182311829Y-88835135D01*
X182313500Y-88827452D01*
X182313500Y-87855116D01*
X182309025Y-87839877D01*
X182307635Y-87838672D01*
X182299952Y-87837001D01*
X179982831Y-87837001D01*
X179976010Y-87837371D01*
X179925148Y-87842895D01*
X179909896Y-87846521D01*
X179789446Y-87891676D01*
X179773851Y-87900214D01*
X179671776Y-87976715D01*
X179659215Y-87989276D01*
X179582714Y-88091351D01*
X179574176Y-88106946D01*
X179529022Y-88227394D01*
X179525395Y-88242649D01*
X179519869Y-88293514D01*
X179519500Y-88300328D01*
X179519500Y-88822885D01*
X82283700Y-88822885D01*
X82283700Y-83469669D01*
X179469501Y-83469669D01*
X179469871Y-83476490D01*
X179475395Y-83527352D01*
X179479021Y-83542604D01*
X179524176Y-83663054D01*
X179532714Y-83678649D01*
X179609215Y-83780724D01*
X179621776Y-83793285D01*
X179723851Y-83869786D01*
X179739446Y-83878324D01*
X179859894Y-83923478D01*
X179875149Y-83927105D01*
X179926014Y-83932631D01*
X179932828Y-83933000D01*
X182245385Y-83933000D01*
X182260624Y-83928525D01*
X182261829Y-83927135D01*
X182263500Y-83919452D01*
X182263500Y-82947115D01*
X182259025Y-82931876D01*
X182257635Y-82930671D01*
X182249952Y-82929000D01*
X179487616Y-82929000D01*
X179472377Y-82933475D01*
X179471172Y-82934865D01*
X179469501Y-82942548D01*
X179469501Y-83469669D01*
X82283700Y-83469669D01*
X82283700Y-82402885D01*
X179469500Y-82402885D01*
X179473975Y-82418124D01*
X179475365Y-82419329D01*
X179483048Y-82421000D01*
X182245385Y-82421000D01*
X182260624Y-82416525D01*
X182261829Y-82415135D01*
X182263500Y-82407452D01*
X182263500Y-81435116D01*
X182259025Y-81419877D01*
X182257635Y-81418672D01*
X182249952Y-81417001D01*
X179932831Y-81417001D01*
X179926010Y-81417371D01*
X179875148Y-81422895D01*
X179859896Y-81426521D01*
X179739446Y-81471676D01*
X179723851Y-81480214D01*
X179621776Y-81556715D01*
X179609215Y-81569276D01*
X179532714Y-81671351D01*
X179524176Y-81686946D01*
X179479022Y-81807394D01*
X179475395Y-81822649D01*
X179469869Y-81873514D01*
X179469500Y-81880328D01*
X179469500Y-82402885D01*
X82283700Y-82402885D01*
X82283700Y-81439000D01*
X82303702Y-81370879D01*
X82357358Y-81324386D01*
X82409700Y-81313000D01*
X84520385Y-81313000D01*
X84535624Y-81308525D01*
X84536829Y-81307135D01*
X84538500Y-81299452D01*
X84538500Y-81294884D01*
X85046500Y-81294884D01*
X85050975Y-81310123D01*
X85052365Y-81311328D01*
X85060048Y-81312999D01*
X87377169Y-81312999D01*
X87383990Y-81312629D01*
X87434852Y-81307105D01*
X87450104Y-81303479D01*
X87570554Y-81258324D01*
X87586149Y-81249786D01*
X87688224Y-81173285D01*
X87700785Y-81160724D01*
X87777286Y-81058649D01*
X87785824Y-81043054D01*
X87830978Y-80922606D01*
X87834605Y-80907351D01*
X87840131Y-80856486D01*
X87840500Y-80849672D01*
X87840500Y-80327115D01*
X87836025Y-80311876D01*
X87834635Y-80310671D01*
X87826952Y-80309000D01*
X85064615Y-80309000D01*
X85049376Y-80313475D01*
X85048171Y-80314865D01*
X85046500Y-80322548D01*
X85046500Y-81294884D01*
X84538500Y-81294884D01*
X84538500Y-79782885D01*
X85046500Y-79782885D01*
X85050975Y-79798124D01*
X85052365Y-79799329D01*
X85060048Y-79801000D01*
X87822384Y-79801000D01*
X87837623Y-79796525D01*
X87838828Y-79795135D01*
X87840499Y-79787452D01*
X87840499Y-79260331D01*
X87840129Y-79253510D01*
X87834605Y-79202648D01*
X87830979Y-79187396D01*
X87785824Y-79066946D01*
X87777286Y-79051351D01*
X87700785Y-78949276D01*
X87688224Y-78936715D01*
X87586149Y-78860214D01*
X87570554Y-78851676D01*
X87450106Y-78806522D01*
X87434851Y-78802895D01*
X87383986Y-78797369D01*
X87377172Y-78797000D01*
X85064615Y-78797000D01*
X85049376Y-78801475D01*
X85048171Y-78802865D01*
X85046500Y-78810548D01*
X85046500Y-79782885D01*
X84538500Y-79782885D01*
X84538500Y-78815116D01*
X84534025Y-78799877D01*
X84532635Y-78798672D01*
X84524952Y-78797001D01*
X82409700Y-78797001D01*
X82341579Y-78776999D01*
X82295086Y-78723343D01*
X82283700Y-78671001D01*
X82283700Y-74969669D01*
X179469501Y-74969669D01*
X179469871Y-74976490D01*
X179475395Y-75027352D01*
X179479021Y-75042604D01*
X179524176Y-75163054D01*
X179532714Y-75178649D01*
X179609215Y-75280724D01*
X179621776Y-75293285D01*
X179723851Y-75369786D01*
X179739446Y-75378324D01*
X179859894Y-75423478D01*
X179875149Y-75427105D01*
X179926014Y-75432631D01*
X179932828Y-75433000D01*
X182245385Y-75433000D01*
X182260624Y-75428525D01*
X182261829Y-75427135D01*
X182263500Y-75419452D01*
X182263500Y-74447115D01*
X182259025Y-74431876D01*
X182257635Y-74430671D01*
X182249952Y-74429000D01*
X179487616Y-74429000D01*
X179472377Y-74433475D01*
X179471172Y-74434865D01*
X179469501Y-74442548D01*
X179469501Y-74969669D01*
X82283700Y-74969669D01*
X82283700Y-73902885D01*
X179469500Y-73902885D01*
X179473975Y-73918124D01*
X179475365Y-73919329D01*
X179483048Y-73921000D01*
X182245385Y-73921000D01*
X182260624Y-73916525D01*
X182261829Y-73915135D01*
X182263500Y-73907452D01*
X182263500Y-72935116D01*
X182259025Y-72919877D01*
X182257635Y-72918672D01*
X182249952Y-72917001D01*
X179932831Y-72917001D01*
X179926010Y-72917371D01*
X179875148Y-72922895D01*
X179859896Y-72926521D01*
X179739446Y-72971676D01*
X179723851Y-72980214D01*
X179621776Y-73056715D01*
X179609215Y-73069276D01*
X179532714Y-73171351D01*
X179524176Y-73186946D01*
X179479022Y-73307394D01*
X179475395Y-73322649D01*
X179469869Y-73373514D01*
X179469500Y-73380328D01*
X179469500Y-73902885D01*
X82283700Y-73902885D01*
X82283700Y-72939000D01*
X82303702Y-72870879D01*
X82357358Y-72824386D01*
X82409700Y-72813000D01*
X84520385Y-72813000D01*
X84535624Y-72808525D01*
X84536829Y-72807135D01*
X84538500Y-72799452D01*
X84538500Y-72794884D01*
X85046500Y-72794884D01*
X85050975Y-72810123D01*
X85052365Y-72811328D01*
X85060048Y-72812999D01*
X87377169Y-72812999D01*
X87383990Y-72812629D01*
X87434852Y-72807105D01*
X87450104Y-72803479D01*
X87570554Y-72758324D01*
X87586149Y-72749786D01*
X87688224Y-72673285D01*
X87700785Y-72660724D01*
X87777286Y-72558649D01*
X87785824Y-72543054D01*
X87830978Y-72422606D01*
X87834605Y-72407351D01*
X87840131Y-72356486D01*
X87840500Y-72349672D01*
X87840500Y-71827115D01*
X87836025Y-71811876D01*
X87834635Y-71810671D01*
X87826952Y-71809000D01*
X85064615Y-71809000D01*
X85049376Y-71813475D01*
X85048171Y-71814865D01*
X85046500Y-71822548D01*
X85046500Y-72794884D01*
X84538500Y-72794884D01*
X84538500Y-71282885D01*
X85046500Y-71282885D01*
X85050975Y-71298124D01*
X85052365Y-71299329D01*
X85060048Y-71301000D01*
X87822384Y-71301000D01*
X87837623Y-71296525D01*
X87838828Y-71295135D01*
X87840499Y-71287452D01*
X87840499Y-70760331D01*
X87840129Y-70753510D01*
X87834605Y-70702648D01*
X87830979Y-70687396D01*
X87785824Y-70566946D01*
X87777286Y-70551351D01*
X87700785Y-70449276D01*
X87688224Y-70436715D01*
X87586149Y-70360214D01*
X87570554Y-70351676D01*
X87450106Y-70306522D01*
X87434851Y-70302895D01*
X87383986Y-70297369D01*
X87377172Y-70297000D01*
X85064615Y-70297000D01*
X85049376Y-70301475D01*
X85048171Y-70302865D01*
X85046500Y-70310548D01*
X85046500Y-71282885D01*
X84538500Y-71282885D01*
X84538500Y-70315116D01*
X84534025Y-70299877D01*
X84532635Y-70298672D01*
X84524952Y-70297001D01*
X82409700Y-70297001D01*
X82341579Y-70276999D01*
X82295086Y-70223343D01*
X82283700Y-70171001D01*
X82283700Y-68549669D01*
X179469501Y-68549669D01*
X179469871Y-68556490D01*
X179475395Y-68607352D01*
X179479021Y-68622604D01*
X179524176Y-68743054D01*
X179532714Y-68758649D01*
X179609215Y-68860724D01*
X179621776Y-68873285D01*
X179723851Y-68949786D01*
X179739446Y-68958324D01*
X179859894Y-69003478D01*
X179875149Y-69007105D01*
X179926014Y-69012631D01*
X179932828Y-69013000D01*
X182245385Y-69013000D01*
X182260624Y-69008525D01*
X182261829Y-69007135D01*
X182263500Y-68999452D01*
X182263500Y-68027115D01*
X182259025Y-68011876D01*
X182257635Y-68010671D01*
X182249952Y-68009000D01*
X179487616Y-68009000D01*
X179472377Y-68013475D01*
X179471172Y-68014865D01*
X179469501Y-68022548D01*
X179469501Y-68549669D01*
X82283700Y-68549669D01*
X82283700Y-67482885D01*
X179469500Y-67482885D01*
X179473975Y-67498124D01*
X179475365Y-67499329D01*
X179483048Y-67501000D01*
X182245385Y-67501000D01*
X182260624Y-67496525D01*
X182261829Y-67495135D01*
X182263500Y-67487452D01*
X182263500Y-66515116D01*
X182259025Y-66499877D01*
X182257635Y-66498672D01*
X182249952Y-66497001D01*
X179932831Y-66497001D01*
X179926010Y-66497371D01*
X179875148Y-66502895D01*
X179859896Y-66506521D01*
X179739446Y-66551676D01*
X179723851Y-66560214D01*
X179621776Y-66636715D01*
X179609215Y-66649276D01*
X179532714Y-66751351D01*
X179524176Y-66766946D01*
X179479022Y-66887394D01*
X179475395Y-66902649D01*
X179469869Y-66953514D01*
X179469500Y-66960328D01*
X179469500Y-67482885D01*
X82283700Y-67482885D01*
X82283700Y-60049669D01*
X179469501Y-60049669D01*
X179469871Y-60056490D01*
X179475395Y-60107352D01*
X179479021Y-60122604D01*
X179524176Y-60243054D01*
X179532714Y-60258649D01*
X179609215Y-60360724D01*
X179621776Y-60373285D01*
X179723851Y-60449786D01*
X179739446Y-60458324D01*
X179859894Y-60503478D01*
X179875149Y-60507105D01*
X179926014Y-60512631D01*
X179932828Y-60513000D01*
X182245385Y-60513000D01*
X182260624Y-60508525D01*
X182261829Y-60507135D01*
X182263500Y-60499452D01*
X182263500Y-59527115D01*
X182259025Y-59511876D01*
X182257635Y-59510671D01*
X182249952Y-59509000D01*
X179487616Y-59509000D01*
X179472377Y-59513475D01*
X179471172Y-59514865D01*
X179469501Y-59522548D01*
X179469501Y-60049669D01*
X82283700Y-60049669D01*
X82283700Y-58419500D01*
X82303702Y-58351379D01*
X82357358Y-58304886D01*
X82409700Y-58293500D01*
X179346823Y-58293500D01*
X179414944Y-58313502D01*
G37*
%TD.AperFunction*%
%TD*%
M02*
