%TF.GenerationSoftware,KiCad,Pcbnew,(6.0.7)*%
%TF.CreationDate,2022-09-28T11:50:51-04:00*%
%TF.ProjectId,PrawnBlaster_Connectorized,50726177-6e42-46c6-9173-7465725f436f,rev?*%
%TF.SameCoordinates,Original*%
%TF.FileFunction,Legend,Top*%
%TF.FilePolarity,Positive*%
%FSLAX46Y46*%
G04 Gerber Fmt 4.6, Leading zero omitted, Abs format (unit mm)*
G04 Created by KiCad (PCBNEW (6.0.7)) date 2022-09-28 11:50:51*
%MOMM*%
%LPD*%
G01*
G04 APERTURE LIST*
%ADD10C,0.150000*%
%ADD11C,0.254000*%
%ADD12C,0.120000*%
%ADD13C,0.200000*%
G04 APERTURE END LIST*
D10*
X83430000Y-67733571D02*
X83763333Y-67733571D01*
X83906190Y-68257380D02*
X83430000Y-68257380D01*
X83430000Y-67257380D01*
X83906190Y-67257380D01*
X84239523Y-68257380D02*
X84763333Y-67590714D01*
X84239523Y-67590714D02*
X84763333Y-68257380D01*
X85001428Y-67590714D02*
X85382380Y-67590714D01*
X85144285Y-67257380D02*
X85144285Y-68114523D01*
X85191904Y-68209761D01*
X85287142Y-68257380D01*
X85382380Y-68257380D01*
X87049047Y-68257380D02*
X86715714Y-67781190D01*
X86477619Y-68257380D02*
X86477619Y-67257380D01*
X86858571Y-67257380D01*
X86953809Y-67305000D01*
X87001428Y-67352619D01*
X87049047Y-67447857D01*
X87049047Y-67590714D01*
X87001428Y-67685952D01*
X86953809Y-67733571D01*
X86858571Y-67781190D01*
X86477619Y-67781190D01*
X87858571Y-68209761D02*
X87763333Y-68257380D01*
X87572857Y-68257380D01*
X87477619Y-68209761D01*
X87430000Y-68114523D01*
X87430000Y-67733571D01*
X87477619Y-67638333D01*
X87572857Y-67590714D01*
X87763333Y-67590714D01*
X87858571Y-67638333D01*
X87906190Y-67733571D01*
X87906190Y-67828809D01*
X87430000Y-67924047D01*
X88191904Y-67590714D02*
X88572857Y-67590714D01*
X88334761Y-68257380D02*
X88334761Y-67400238D01*
X88382380Y-67305000D01*
X88477619Y-67257380D01*
X88572857Y-67257380D01*
X175105714Y-66222142D02*
X175058095Y-66269761D01*
X174915238Y-66317380D01*
X174820000Y-66317380D01*
X174677142Y-66269761D01*
X174581904Y-66174523D01*
X174534285Y-66079285D01*
X174486666Y-65888809D01*
X174486666Y-65745952D01*
X174534285Y-65555476D01*
X174581904Y-65460238D01*
X174677142Y-65365000D01*
X174820000Y-65317380D01*
X174915238Y-65317380D01*
X175058095Y-65365000D01*
X175105714Y-65412619D01*
X175677142Y-66317380D02*
X175581904Y-66269761D01*
X175534285Y-66174523D01*
X175534285Y-65317380D01*
X176058095Y-66317380D02*
X176058095Y-65317380D01*
X176153333Y-65936428D02*
X176439047Y-66317380D01*
X176439047Y-65650714D02*
X176058095Y-66031666D01*
X177534285Y-65317380D02*
X178153333Y-65317380D01*
X177820000Y-65698333D01*
X177962857Y-65698333D01*
X178058095Y-65745952D01*
X178105714Y-65793571D01*
X178153333Y-65888809D01*
X178153333Y-66126904D01*
X178105714Y-66222142D01*
X178058095Y-66269761D01*
X177962857Y-66317380D01*
X177677142Y-66317380D01*
X177581904Y-66269761D01*
X177534285Y-66222142D01*
X174675714Y-110472142D02*
X174628095Y-110519761D01*
X174485238Y-110567380D01*
X174390000Y-110567380D01*
X174247142Y-110519761D01*
X174151904Y-110424523D01*
X174104285Y-110329285D01*
X174056666Y-110138809D01*
X174056666Y-109995952D01*
X174104285Y-109805476D01*
X174151904Y-109710238D01*
X174247142Y-109615000D01*
X174390000Y-109567380D01*
X174485238Y-109567380D01*
X174628095Y-109615000D01*
X174675714Y-109662619D01*
X175247142Y-110567380D02*
X175151904Y-110519761D01*
X175104285Y-110424523D01*
X175104285Y-109567380D01*
X175628095Y-110567380D02*
X175628095Y-109567380D01*
X175723333Y-110186428D02*
X176009047Y-110567380D01*
X176009047Y-109900714D02*
X175628095Y-110281666D01*
X177390000Y-109567380D02*
X177485238Y-109567380D01*
X177580476Y-109615000D01*
X177628095Y-109662619D01*
X177675714Y-109757857D01*
X177723333Y-109948333D01*
X177723333Y-110186428D01*
X177675714Y-110376904D01*
X177628095Y-110472142D01*
X177580476Y-110519761D01*
X177485238Y-110567380D01*
X177390000Y-110567380D01*
X177294761Y-110519761D01*
X177247142Y-110472142D01*
X177199523Y-110376904D01*
X177151904Y-110186428D01*
X177151904Y-109948333D01*
X177199523Y-109757857D01*
X177247142Y-109662619D01*
X177294761Y-109615000D01*
X177390000Y-109567380D01*
X83677083Y-102821571D02*
X84010416Y-102821571D01*
X84153273Y-103345380D02*
X83677083Y-103345380D01*
X83677083Y-102345380D01*
X84153273Y-102345380D01*
X84486607Y-103345380D02*
X85010416Y-102678714D01*
X84486607Y-102678714D02*
X85010416Y-103345380D01*
X85248511Y-102678714D02*
X85629464Y-102678714D01*
X85391369Y-102345380D02*
X85391369Y-103202523D01*
X85438988Y-103297761D01*
X85534226Y-103345380D01*
X85629464Y-103345380D01*
X86581845Y-102345380D02*
X87153273Y-102345380D01*
X86867559Y-103345380D02*
X86867559Y-102345380D01*
X87486607Y-103345380D02*
X87486607Y-102678714D01*
X87486607Y-102869190D02*
X87534226Y-102773952D01*
X87581845Y-102726333D01*
X87677083Y-102678714D01*
X87772321Y-102678714D01*
X88105654Y-103345380D02*
X88105654Y-102678714D01*
X88105654Y-102345380D02*
X88058035Y-102393000D01*
X88105654Y-102440619D01*
X88153273Y-102393000D01*
X88105654Y-102345380D01*
X88105654Y-102440619D01*
X89010416Y-102678714D02*
X89010416Y-103488238D01*
X88962797Y-103583476D01*
X88915178Y-103631095D01*
X88819940Y-103678714D01*
X88677083Y-103678714D01*
X88581845Y-103631095D01*
X89010416Y-103297761D02*
X88915178Y-103345380D01*
X88724702Y-103345380D01*
X88629464Y-103297761D01*
X88581845Y-103250142D01*
X88534226Y-103154904D01*
X88534226Y-102869190D01*
X88581845Y-102773952D01*
X88629464Y-102726333D01*
X88724702Y-102678714D01*
X88915178Y-102678714D01*
X89010416Y-102726333D01*
X174995714Y-95842142D02*
X174948095Y-95889761D01*
X174805238Y-95937380D01*
X174710000Y-95937380D01*
X174567142Y-95889761D01*
X174471904Y-95794523D01*
X174424285Y-95699285D01*
X174376666Y-95508809D01*
X174376666Y-95365952D01*
X174424285Y-95175476D01*
X174471904Y-95080238D01*
X174567142Y-94985000D01*
X174710000Y-94937380D01*
X174805238Y-94937380D01*
X174948095Y-94985000D01*
X174995714Y-95032619D01*
X175567142Y-95937380D02*
X175471904Y-95889761D01*
X175424285Y-95794523D01*
X175424285Y-94937380D01*
X175948095Y-95937380D02*
X175948095Y-94937380D01*
X176043333Y-95556428D02*
X176329047Y-95937380D01*
X176329047Y-95270714D02*
X175948095Y-95651666D01*
X178043333Y-95937380D02*
X177471904Y-95937380D01*
X177757619Y-95937380D02*
X177757619Y-94937380D01*
X177662380Y-95080238D01*
X177567142Y-95175476D01*
X177471904Y-95223095D01*
X174885714Y-81142142D02*
X174838095Y-81189761D01*
X174695238Y-81237380D01*
X174600000Y-81237380D01*
X174457142Y-81189761D01*
X174361904Y-81094523D01*
X174314285Y-80999285D01*
X174266666Y-80808809D01*
X174266666Y-80665952D01*
X174314285Y-80475476D01*
X174361904Y-80380238D01*
X174457142Y-80285000D01*
X174600000Y-80237380D01*
X174695238Y-80237380D01*
X174838095Y-80285000D01*
X174885714Y-80332619D01*
X175457142Y-81237380D02*
X175361904Y-81189761D01*
X175314285Y-81094523D01*
X175314285Y-80237380D01*
X175838095Y-81237380D02*
X175838095Y-80237380D01*
X175933333Y-80856428D02*
X176219047Y-81237380D01*
X176219047Y-80570714D02*
X175838095Y-80951666D01*
X177361904Y-80332619D02*
X177409523Y-80285000D01*
X177504761Y-80237380D01*
X177742857Y-80237380D01*
X177838095Y-80285000D01*
X177885714Y-80332619D01*
X177933333Y-80427857D01*
X177933333Y-80523095D01*
X177885714Y-80665952D01*
X177314285Y-81237380D01*
X177933333Y-81237380D01*
%TO.C,J6*%
X177889880Y-105708333D02*
X178604166Y-105708333D01*
X178747023Y-105755952D01*
X178842261Y-105851190D01*
X178889880Y-105994047D01*
X178889880Y-106089285D01*
X177889880Y-104803571D02*
X177889880Y-104994047D01*
X177937500Y-105089285D01*
X177985119Y-105136904D01*
X178127976Y-105232142D01*
X178318452Y-105279761D01*
X178699404Y-105279761D01*
X178794642Y-105232142D01*
X178842261Y-105184523D01*
X178889880Y-105089285D01*
X178889880Y-104898809D01*
X178842261Y-104803571D01*
X178794642Y-104755952D01*
X178699404Y-104708333D01*
X178461309Y-104708333D01*
X178366071Y-104755952D01*
X178318452Y-104803571D01*
X178270833Y-104898809D01*
X178270833Y-105089285D01*
X178318452Y-105184523D01*
X178366071Y-105232142D01*
X178461309Y-105279761D01*
%TO.C,R8*%
X94066130Y-91919666D02*
X93589940Y-92253000D01*
X94066130Y-92491095D02*
X93066130Y-92491095D01*
X93066130Y-92110142D01*
X93113750Y-92014904D01*
X93161369Y-91967285D01*
X93256607Y-91919666D01*
X93399464Y-91919666D01*
X93494702Y-91967285D01*
X93542321Y-92014904D01*
X93589940Y-92110142D01*
X93589940Y-92491095D01*
X93494702Y-91348238D02*
X93447083Y-91443476D01*
X93399464Y-91491095D01*
X93304226Y-91538714D01*
X93256607Y-91538714D01*
X93161369Y-91491095D01*
X93113750Y-91443476D01*
X93066130Y-91348238D01*
X93066130Y-91157761D01*
X93113750Y-91062523D01*
X93161369Y-91014904D01*
X93256607Y-90967285D01*
X93304226Y-90967285D01*
X93399464Y-91014904D01*
X93447083Y-91062523D01*
X93494702Y-91157761D01*
X93494702Y-91348238D01*
X93542321Y-91443476D01*
X93589940Y-91491095D01*
X93685178Y-91538714D01*
X93875654Y-91538714D01*
X93970892Y-91491095D01*
X94018511Y-91443476D01*
X94066130Y-91348238D01*
X94066130Y-91157761D01*
X94018511Y-91062523D01*
X93970892Y-91014904D01*
X93875654Y-90967285D01*
X93685178Y-90967285D01*
X93589940Y-91014904D01*
X93542321Y-91062523D01*
X93494702Y-91157761D01*
%TO.C,C3*%
X162833333Y-68502142D02*
X162785714Y-68549761D01*
X162642857Y-68597380D01*
X162547619Y-68597380D01*
X162404761Y-68549761D01*
X162309523Y-68454523D01*
X162261904Y-68359285D01*
X162214285Y-68168809D01*
X162214285Y-68025952D01*
X162261904Y-67835476D01*
X162309523Y-67740238D01*
X162404761Y-67645000D01*
X162547619Y-67597380D01*
X162642857Y-67597380D01*
X162785714Y-67645000D01*
X162833333Y-67692619D01*
X163166666Y-67597380D02*
X163785714Y-67597380D01*
X163452380Y-67978333D01*
X163595238Y-67978333D01*
X163690476Y-68025952D01*
X163738095Y-68073571D01*
X163785714Y-68168809D01*
X163785714Y-68406904D01*
X163738095Y-68502142D01*
X163690476Y-68549761D01*
X163595238Y-68597380D01*
X163309523Y-68597380D01*
X163214285Y-68549761D01*
X163166666Y-68502142D01*
%TO.C,U3*%
X98768095Y-92827380D02*
X98768095Y-93636904D01*
X98815714Y-93732142D01*
X98863333Y-93779761D01*
X98958571Y-93827380D01*
X99149047Y-93827380D01*
X99244285Y-93779761D01*
X99291904Y-93732142D01*
X99339523Y-93636904D01*
X99339523Y-92827380D01*
X99720476Y-92827380D02*
X100339523Y-92827380D01*
X100006190Y-93208333D01*
X100149047Y-93208333D01*
X100244285Y-93255952D01*
X100291904Y-93303571D01*
X100339523Y-93398809D01*
X100339523Y-93636904D01*
X100291904Y-93732142D01*
X100244285Y-93779761D01*
X100149047Y-93827380D01*
X99863333Y-93827380D01*
X99768095Y-93779761D01*
X99720476Y-93732142D01*
%TO.C,U2*%
X120033095Y-87567380D02*
X120033095Y-88376904D01*
X120080714Y-88472142D01*
X120128333Y-88519761D01*
X120223571Y-88567380D01*
X120414047Y-88567380D01*
X120509285Y-88519761D01*
X120556904Y-88472142D01*
X120604523Y-88376904D01*
X120604523Y-87567380D01*
X121033095Y-87662619D02*
X121080714Y-87615000D01*
X121175952Y-87567380D01*
X121414047Y-87567380D01*
X121509285Y-87615000D01*
X121556904Y-87662619D01*
X121604523Y-87757857D01*
X121604523Y-87853095D01*
X121556904Y-87995952D01*
X120985476Y-88567380D01*
X121604523Y-88567380D01*
X106784722Y-71995592D02*
X106703910Y-72022529D01*
X106623097Y-72103341D01*
X106569223Y-72211091D01*
X106569223Y-72318841D01*
X106596160Y-72399653D01*
X106676972Y-72534340D01*
X106757784Y-72615152D01*
X106892471Y-72695964D01*
X106973284Y-72722902D01*
X107081033Y-72722902D01*
X107188783Y-72669027D01*
X107242658Y-72615152D01*
X107296532Y-72507402D01*
X107296532Y-72453528D01*
X107107971Y-72264966D01*
X107000221Y-72372715D01*
X107592844Y-72264966D02*
X107027158Y-71699280D01*
X107242658Y-71483781D01*
X107323470Y-71456844D01*
X107377345Y-71456844D01*
X107458157Y-71483781D01*
X107538969Y-71564593D01*
X107565906Y-71645406D01*
X107565906Y-71699280D01*
X107538969Y-71780093D01*
X107323470Y-71995592D01*
X108454841Y-71402969D02*
X108131592Y-71726218D01*
X108293216Y-71564593D02*
X107727531Y-70998908D01*
X107754468Y-71133595D01*
X107754468Y-71241345D01*
X107727531Y-71322157D01*
X108454841Y-70756471D02*
X108374028Y-70783409D01*
X108320154Y-70783409D01*
X108239341Y-70756471D01*
X108212404Y-70729534D01*
X108185467Y-70648722D01*
X108185467Y-70594847D01*
X108212404Y-70514035D01*
X108320154Y-70406285D01*
X108400966Y-70379348D01*
X108454841Y-70379348D01*
X108535653Y-70406285D01*
X108562590Y-70433223D01*
X108589528Y-70514035D01*
X108589528Y-70567910D01*
X108562590Y-70648722D01*
X108454841Y-70756471D01*
X108427903Y-70837284D01*
X108427903Y-70891158D01*
X108454841Y-70971971D01*
X108562590Y-71079720D01*
X108643402Y-71106658D01*
X108697277Y-71106658D01*
X108778089Y-71079720D01*
X108885839Y-70971971D01*
X108912776Y-70891158D01*
X108912776Y-70837284D01*
X108885839Y-70756471D01*
X108778089Y-70648722D01*
X108697277Y-70621784D01*
X108643402Y-70621784D01*
X108562590Y-70648722D01*
X132908096Y-112366218D02*
X132827284Y-112393155D01*
X132746471Y-112473967D01*
X132692597Y-112581717D01*
X132692597Y-112689467D01*
X132719534Y-112770279D01*
X132800346Y-112904966D01*
X132881158Y-112985778D01*
X133015845Y-113066590D01*
X133096658Y-113093528D01*
X133204407Y-113093528D01*
X133312157Y-113039653D01*
X133366032Y-112985778D01*
X133419906Y-112878028D01*
X133419906Y-112824154D01*
X133231345Y-112635592D01*
X133123595Y-112743341D01*
X133716218Y-112635592D02*
X133150532Y-112069906D01*
X133366032Y-111854407D01*
X133446844Y-111827470D01*
X133500719Y-111827470D01*
X133581531Y-111854407D01*
X133662343Y-111935219D01*
X133689280Y-112016032D01*
X133689280Y-112069906D01*
X133662343Y-112150719D01*
X133446844Y-112366218D01*
X133823967Y-111396471D02*
X133877842Y-111342597D01*
X133958654Y-111315659D01*
X134012529Y-111315659D01*
X134093341Y-111342597D01*
X134228028Y-111423409D01*
X134362715Y-111558096D01*
X134443528Y-111692783D01*
X134470465Y-111773595D01*
X134470465Y-111827470D01*
X134443528Y-111908282D01*
X134389653Y-111962157D01*
X134308841Y-111989094D01*
X134254966Y-111989094D01*
X134174154Y-111962157D01*
X134039467Y-111881345D01*
X133904780Y-111746658D01*
X133823967Y-111611971D01*
X133797030Y-111531158D01*
X133797030Y-111477284D01*
X133823967Y-111396471D01*
X132881158Y-69213155D02*
X132800346Y-69240093D01*
X132719534Y-69320905D01*
X132665659Y-69428654D01*
X132665659Y-69536404D01*
X132692597Y-69617216D01*
X132773409Y-69751903D01*
X132854221Y-69832715D01*
X132988908Y-69913528D01*
X133069720Y-69940465D01*
X133177470Y-69940465D01*
X133285219Y-69886590D01*
X133339094Y-69832715D01*
X133392969Y-69724966D01*
X133392969Y-69671091D01*
X133204407Y-69482529D01*
X133096658Y-69590279D01*
X133689280Y-69482529D02*
X133123595Y-68916844D01*
X134012529Y-69159280D01*
X133446844Y-68593595D01*
X134281903Y-68889906D02*
X133716218Y-68324221D01*
X133850905Y-68189534D01*
X133958654Y-68135659D01*
X134066404Y-68135659D01*
X134147216Y-68162597D01*
X134281903Y-68243409D01*
X134362715Y-68324221D01*
X134443528Y-68458908D01*
X134470465Y-68539720D01*
X134470465Y-68647470D01*
X134416590Y-68755219D01*
X134281903Y-68889906D01*
X132881158Y-94613155D02*
X132800346Y-94640093D01*
X132719534Y-94720905D01*
X132665659Y-94828654D01*
X132665659Y-94936404D01*
X132692597Y-95017216D01*
X132773409Y-95151903D01*
X132854221Y-95232715D01*
X132988908Y-95313528D01*
X133069720Y-95340465D01*
X133177470Y-95340465D01*
X133285219Y-95286590D01*
X133339094Y-95232715D01*
X133392969Y-95124966D01*
X133392969Y-95071091D01*
X133204407Y-94882529D01*
X133096658Y-94990279D01*
X133689280Y-94882529D02*
X133123595Y-94316844D01*
X134012529Y-94559280D01*
X133446844Y-93993595D01*
X134281903Y-94289906D02*
X133716218Y-93724221D01*
X133850905Y-93589534D01*
X133958654Y-93535659D01*
X134066404Y-93535659D01*
X134147216Y-93562597D01*
X134281903Y-93643409D01*
X134362715Y-93724221D01*
X134443528Y-93858908D01*
X134470465Y-93939720D01*
X134470465Y-94047470D01*
X134416590Y-94155219D01*
X134281903Y-94289906D01*
X113499761Y-62238809D02*
X113614047Y-62276904D01*
X113804523Y-62276904D01*
X113880714Y-62238809D01*
X113918809Y-62200714D01*
X113956904Y-62124523D01*
X113956904Y-62048333D01*
X113918809Y-61972142D01*
X113880714Y-61934047D01*
X113804523Y-61895952D01*
X113652142Y-61857857D01*
X113575952Y-61819761D01*
X113537857Y-61781666D01*
X113499761Y-61705476D01*
X113499761Y-61629285D01*
X113537857Y-61553095D01*
X113575952Y-61515000D01*
X113652142Y-61476904D01*
X113842619Y-61476904D01*
X113956904Y-61515000D01*
X114223571Y-61476904D02*
X114414047Y-62276904D01*
X114566428Y-61705476D01*
X114718809Y-62276904D01*
X114909285Y-61476904D01*
X115214047Y-62276904D02*
X115214047Y-61476904D01*
X115404523Y-61476904D01*
X115518809Y-61515000D01*
X115595000Y-61591190D01*
X115633095Y-61667380D01*
X115671190Y-61819761D01*
X115671190Y-61934047D01*
X115633095Y-62086428D01*
X115595000Y-62162619D01*
X115518809Y-62238809D01*
X115404523Y-62276904D01*
X115214047Y-62276904D01*
X116014047Y-62276904D02*
X116014047Y-61476904D01*
X116547380Y-61476904D02*
X116699761Y-61476904D01*
X116775952Y-61515000D01*
X116852142Y-61591190D01*
X116890238Y-61743571D01*
X116890238Y-62010238D01*
X116852142Y-62162619D01*
X116775952Y-62238809D01*
X116699761Y-62276904D01*
X116547380Y-62276904D01*
X116471190Y-62238809D01*
X116395000Y-62162619D01*
X116356904Y-62010238D01*
X116356904Y-61743571D01*
X116395000Y-61591190D01*
X116471190Y-61515000D01*
X116547380Y-61476904D01*
X107633375Y-87518435D02*
X107175439Y-87437622D01*
X107310126Y-87841683D02*
X106744441Y-87275998D01*
X106959940Y-87060499D01*
X107040752Y-87033561D01*
X107094627Y-87033561D01*
X107175439Y-87060499D01*
X107256251Y-87141311D01*
X107283189Y-87222123D01*
X107283189Y-87275998D01*
X107256251Y-87356810D01*
X107040752Y-87572309D01*
X107310126Y-86710312D02*
X107768062Y-87168248D01*
X107848874Y-87195186D01*
X107902749Y-87195186D01*
X107983561Y-87168248D01*
X108091311Y-87060499D01*
X108118248Y-86979687D01*
X108118248Y-86925812D01*
X108091311Y-86845000D01*
X107633375Y-86387064D01*
X108468435Y-86683375D02*
X107902749Y-86117690D01*
X108791683Y-86360126D01*
X108225998Y-85794441D01*
X132892722Y-64375592D02*
X132811910Y-64402529D01*
X132731097Y-64483341D01*
X132677223Y-64591091D01*
X132677223Y-64698841D01*
X132704160Y-64779653D01*
X132784972Y-64914340D01*
X132865784Y-64995152D01*
X133000471Y-65075964D01*
X133081284Y-65102902D01*
X133189033Y-65102902D01*
X133296783Y-65049027D01*
X133350658Y-64995152D01*
X133404532Y-64887402D01*
X133404532Y-64833528D01*
X133215971Y-64644966D01*
X133108221Y-64752715D01*
X133700844Y-64644966D02*
X133135158Y-64079280D01*
X133350658Y-63863781D01*
X133431470Y-63836844D01*
X133485345Y-63836844D01*
X133566157Y-63863781D01*
X133646969Y-63944593D01*
X133673906Y-64025406D01*
X133673906Y-64079280D01*
X133646969Y-64160093D01*
X133431470Y-64375592D01*
X134562841Y-63782969D02*
X134239592Y-64106218D01*
X134401216Y-63944593D02*
X133835531Y-63378908D01*
X133862468Y-63513595D01*
X133862468Y-63621345D01*
X133835531Y-63702157D01*
X134508966Y-62705473D02*
X134239592Y-62974847D01*
X134482028Y-63271158D01*
X134482028Y-63217284D01*
X134508966Y-63136471D01*
X134643653Y-63001784D01*
X134724465Y-62974847D01*
X134778340Y-62974847D01*
X134859152Y-63001784D01*
X134993839Y-63136471D01*
X135020776Y-63217284D01*
X135020776Y-63271158D01*
X134993839Y-63351971D01*
X134859152Y-63486658D01*
X134778340Y-63513595D01*
X134724465Y-63513595D01*
X132908096Y-92046218D02*
X132827284Y-92073155D01*
X132746471Y-92153967D01*
X132692597Y-92261717D01*
X132692597Y-92369467D01*
X132719534Y-92450279D01*
X132800346Y-92584966D01*
X132881158Y-92665778D01*
X133015845Y-92746590D01*
X133096658Y-92773528D01*
X133204407Y-92773528D01*
X133312157Y-92719653D01*
X133366032Y-92665778D01*
X133419906Y-92558028D01*
X133419906Y-92504154D01*
X133231345Y-92315592D01*
X133123595Y-92423341D01*
X133716218Y-92315592D02*
X133150532Y-91749906D01*
X133366032Y-91534407D01*
X133446844Y-91507470D01*
X133500719Y-91507470D01*
X133581531Y-91534407D01*
X133662343Y-91615219D01*
X133689280Y-91696032D01*
X133689280Y-91749906D01*
X133662343Y-91830719D01*
X133446844Y-92046218D01*
X133958654Y-90941784D02*
X133850905Y-91049534D01*
X133823967Y-91130346D01*
X133823967Y-91184221D01*
X133850905Y-91318908D01*
X133931717Y-91453595D01*
X134147216Y-91669094D01*
X134228028Y-91696032D01*
X134281903Y-91696032D01*
X134362715Y-91669094D01*
X134470465Y-91561345D01*
X134497402Y-91480532D01*
X134497402Y-91426658D01*
X134470465Y-91345845D01*
X134335778Y-91211158D01*
X134254966Y-91184221D01*
X134201091Y-91184221D01*
X134120279Y-91211158D01*
X134012529Y-91318908D01*
X133985592Y-91399720D01*
X133985592Y-91453595D01*
X134012529Y-91534407D01*
X107281158Y-81913155D02*
X107200346Y-81940093D01*
X107119534Y-82020905D01*
X107065659Y-82128654D01*
X107065659Y-82236404D01*
X107092597Y-82317216D01*
X107173409Y-82451903D01*
X107254221Y-82532715D01*
X107388908Y-82613528D01*
X107469720Y-82640465D01*
X107577470Y-82640465D01*
X107685219Y-82586590D01*
X107739094Y-82532715D01*
X107792969Y-82424966D01*
X107792969Y-82371091D01*
X107604407Y-82182529D01*
X107496658Y-82290279D01*
X108089280Y-82182529D02*
X107523595Y-81616844D01*
X108412529Y-81859280D01*
X107846844Y-81293595D01*
X108681903Y-81589906D02*
X108116218Y-81024221D01*
X108250905Y-80889534D01*
X108358654Y-80835659D01*
X108466404Y-80835659D01*
X108547216Y-80862597D01*
X108681903Y-80943409D01*
X108762715Y-81024221D01*
X108843528Y-81158908D01*
X108870465Y-81239720D01*
X108870465Y-81347470D01*
X108816590Y-81455219D01*
X108681903Y-81589906D01*
X132908096Y-102206218D02*
X132827284Y-102233155D01*
X132746471Y-102313967D01*
X132692597Y-102421717D01*
X132692597Y-102529467D01*
X132719534Y-102610279D01*
X132800346Y-102744966D01*
X132881158Y-102825778D01*
X133015845Y-102906590D01*
X133096658Y-102933528D01*
X133204407Y-102933528D01*
X133312157Y-102879653D01*
X133366032Y-102825778D01*
X133419906Y-102718028D01*
X133419906Y-102664154D01*
X133231345Y-102475592D01*
X133123595Y-102583341D01*
X133716218Y-102475592D02*
X133150532Y-101909906D01*
X133366032Y-101694407D01*
X133446844Y-101667470D01*
X133500719Y-101667470D01*
X133581531Y-101694407D01*
X133662343Y-101775219D01*
X133689280Y-101856032D01*
X133689280Y-101909906D01*
X133662343Y-101990719D01*
X133446844Y-102206218D01*
X133662343Y-101398096D02*
X134012529Y-101047910D01*
X134039467Y-101451971D01*
X134120279Y-101371158D01*
X134201091Y-101344221D01*
X134254966Y-101344221D01*
X134335778Y-101371158D01*
X134470465Y-101505845D01*
X134497402Y-101586658D01*
X134497402Y-101640532D01*
X134470465Y-101721345D01*
X134308841Y-101882969D01*
X134228028Y-101909906D01*
X134174154Y-101909906D01*
X106884847Y-102405592D02*
X107235033Y-102055406D01*
X107261971Y-102459467D01*
X107342783Y-102378654D01*
X107423595Y-102351717D01*
X107477470Y-102351717D01*
X107558282Y-102378654D01*
X107692969Y-102513341D01*
X107719906Y-102594154D01*
X107719906Y-102648028D01*
X107692969Y-102728841D01*
X107531345Y-102890465D01*
X107450532Y-102917402D01*
X107396658Y-102917402D01*
X107396658Y-101893781D02*
X108150905Y-102270905D01*
X107773781Y-101516658D01*
X107908468Y-101381971D02*
X108258654Y-101031784D01*
X108285592Y-101435845D01*
X108366404Y-101355033D01*
X108447216Y-101328096D01*
X108501091Y-101328096D01*
X108581903Y-101355033D01*
X108716590Y-101489720D01*
X108743528Y-101570532D01*
X108743528Y-101624407D01*
X108716590Y-101705219D01*
X108554966Y-101866844D01*
X108474154Y-101893781D01*
X108420279Y-101893781D01*
X133038722Y-74535592D02*
X132957910Y-74562529D01*
X132877097Y-74643341D01*
X132823223Y-74751091D01*
X132823223Y-74858841D01*
X132850160Y-74939653D01*
X132930972Y-75074340D01*
X133011784Y-75155152D01*
X133146471Y-75235964D01*
X133227284Y-75262902D01*
X133335033Y-75262902D01*
X133442783Y-75209027D01*
X133496658Y-75155152D01*
X133550532Y-75047402D01*
X133550532Y-74993528D01*
X133361971Y-74804966D01*
X133254221Y-74912715D01*
X133846844Y-74804966D02*
X133281158Y-74239280D01*
X133496658Y-74023781D01*
X133577470Y-73996844D01*
X133631345Y-73996844D01*
X133712157Y-74023781D01*
X133792969Y-74104593D01*
X133819906Y-74185406D01*
X133819906Y-74239280D01*
X133792969Y-74320093D01*
X133577470Y-74535592D01*
X134708841Y-73942969D02*
X134385592Y-74266218D01*
X134547216Y-74104593D02*
X133981531Y-73538908D01*
X134008468Y-73673595D01*
X134008468Y-73781345D01*
X133981531Y-73862157D01*
X134412529Y-73215659D02*
X134412529Y-73161784D01*
X134439467Y-73080972D01*
X134574154Y-72946285D01*
X134654966Y-72919348D01*
X134708841Y-72919348D01*
X134789653Y-72946285D01*
X134843528Y-73000160D01*
X134897402Y-73107910D01*
X134897402Y-73754407D01*
X135247589Y-73404221D01*
X106784722Y-66915592D02*
X106703910Y-66942529D01*
X106623097Y-67023341D01*
X106569223Y-67131091D01*
X106569223Y-67238841D01*
X106596160Y-67319653D01*
X106676972Y-67454340D01*
X106757784Y-67535152D01*
X106892471Y-67615964D01*
X106973284Y-67642902D01*
X107081033Y-67642902D01*
X107188783Y-67589027D01*
X107242658Y-67535152D01*
X107296532Y-67427402D01*
X107296532Y-67373528D01*
X107107971Y-67184966D01*
X107000221Y-67292715D01*
X107592844Y-67184966D02*
X107027158Y-66619280D01*
X107242658Y-66403781D01*
X107323470Y-66376844D01*
X107377345Y-66376844D01*
X107458157Y-66403781D01*
X107538969Y-66484593D01*
X107565906Y-66565406D01*
X107565906Y-66619280D01*
X107538969Y-66700093D01*
X107323470Y-66915592D01*
X108454841Y-66322969D02*
X108131592Y-66646218D01*
X108293216Y-66484593D02*
X107727531Y-65918908D01*
X107754468Y-66053595D01*
X107754468Y-66161345D01*
X107727531Y-66242157D01*
X108077717Y-65568722D02*
X108454841Y-65191598D01*
X108778089Y-65999720D01*
X132908096Y-99666218D02*
X132827284Y-99693155D01*
X132746471Y-99773967D01*
X132692597Y-99881717D01*
X132692597Y-99989467D01*
X132719534Y-100070279D01*
X132800346Y-100204966D01*
X132881158Y-100285778D01*
X133015845Y-100366590D01*
X133096658Y-100393528D01*
X133204407Y-100393528D01*
X133312157Y-100339653D01*
X133366032Y-100285778D01*
X133419906Y-100178028D01*
X133419906Y-100124154D01*
X133231345Y-99935592D01*
X133123595Y-100043341D01*
X133716218Y-99935592D02*
X133150532Y-99369906D01*
X133366032Y-99154407D01*
X133446844Y-99127470D01*
X133500719Y-99127470D01*
X133581531Y-99154407D01*
X133662343Y-99235219D01*
X133689280Y-99316032D01*
X133689280Y-99369906D01*
X133662343Y-99450719D01*
X133446844Y-99666218D01*
X134147216Y-98750346D02*
X134524340Y-99127470D01*
X133797030Y-98669534D02*
X134066404Y-99208282D01*
X134416590Y-98858096D01*
X106784722Y-84695592D02*
X106703910Y-84722529D01*
X106623097Y-84803341D01*
X106569223Y-84911091D01*
X106569223Y-85018841D01*
X106596160Y-85099653D01*
X106676972Y-85234340D01*
X106757784Y-85315152D01*
X106892471Y-85395964D01*
X106973284Y-85422902D01*
X107081033Y-85422902D01*
X107188783Y-85369027D01*
X107242658Y-85315152D01*
X107296532Y-85207402D01*
X107296532Y-85153528D01*
X107107971Y-84964966D01*
X107000221Y-85072715D01*
X107592844Y-84964966D02*
X107027158Y-84399280D01*
X107242658Y-84183781D01*
X107323470Y-84156844D01*
X107377345Y-84156844D01*
X107458157Y-84183781D01*
X107538969Y-84264593D01*
X107565906Y-84345406D01*
X107565906Y-84399280D01*
X107538969Y-84480093D01*
X107323470Y-84695592D01*
X107619781Y-83914407D02*
X107619781Y-83860532D01*
X107646719Y-83779720D01*
X107781406Y-83645033D01*
X107862218Y-83618096D01*
X107916093Y-83618096D01*
X107996905Y-83645033D01*
X108050780Y-83698908D01*
X108104654Y-83806658D01*
X108104654Y-84453155D01*
X108454841Y-84102969D01*
X108158529Y-83375659D02*
X108158529Y-83321784D01*
X108185467Y-83240972D01*
X108320154Y-83106285D01*
X108400966Y-83079348D01*
X108454841Y-83079348D01*
X108535653Y-83106285D01*
X108589528Y-83160160D01*
X108643402Y-83267910D01*
X108643402Y-83914407D01*
X108993589Y-83564221D01*
X105317131Y-106473308D02*
X105667317Y-106123122D01*
X105694255Y-106527183D01*
X105775067Y-106446370D01*
X105855879Y-106419433D01*
X105909754Y-106419433D01*
X105990566Y-106446370D01*
X106125253Y-106581057D01*
X106152190Y-106661870D01*
X106152190Y-106715744D01*
X106125253Y-106796557D01*
X105963629Y-106958181D01*
X105882816Y-106985118D01*
X105828942Y-106985118D01*
X105828942Y-105961497D02*
X106583189Y-106338621D01*
X106206065Y-105584374D01*
X106340752Y-105449687D02*
X106690938Y-105099500D01*
X106717876Y-105503561D01*
X106798688Y-105422749D01*
X106879500Y-105395812D01*
X106933375Y-105395812D01*
X107014187Y-105422749D01*
X107148874Y-105557436D01*
X107175812Y-105638248D01*
X107175812Y-105692123D01*
X107148874Y-105772935D01*
X106987250Y-105934560D01*
X106906438Y-105961497D01*
X106852563Y-105961497D01*
X107418248Y-105611311D02*
X107849247Y-105180312D01*
X107633748Y-104695439D02*
X107822309Y-104506877D01*
X108199433Y-104722377D02*
X107930059Y-104991751D01*
X107364374Y-104426065D01*
X107633748Y-104156691D01*
X108441870Y-104479940D02*
X107876184Y-103914255D01*
X108765118Y-104156691D01*
X108199433Y-103591006D01*
X106148129Y-113042309D02*
X106902377Y-113419433D01*
X106525253Y-112665186D01*
X107171751Y-112557436D02*
X107279500Y-112503561D01*
X107333375Y-112503561D01*
X107414187Y-112530499D01*
X107494999Y-112611311D01*
X107521937Y-112692123D01*
X107521937Y-112745998D01*
X107495000Y-112826810D01*
X107279500Y-113042309D01*
X106713815Y-112476624D01*
X106902377Y-112288062D01*
X106983189Y-112261125D01*
X107037064Y-112261125D01*
X107117876Y-112288062D01*
X107171751Y-112341937D01*
X107198688Y-112422749D01*
X107198688Y-112476624D01*
X107171751Y-112557436D01*
X106983189Y-112745998D01*
X107279500Y-111910938D02*
X107737436Y-112368874D01*
X107818248Y-112395812D01*
X107872123Y-112395812D01*
X107952935Y-112368874D01*
X108060685Y-112261125D01*
X108087622Y-112180312D01*
X108087622Y-112126438D01*
X108060685Y-112045625D01*
X107602749Y-111587690D01*
X108383934Y-111884001D02*
X108491683Y-111830126D01*
X108626370Y-111695439D01*
X108653308Y-111614627D01*
X108653308Y-111560752D01*
X108626370Y-111479940D01*
X108572496Y-111426065D01*
X108491683Y-111399128D01*
X108437809Y-111399128D01*
X108356996Y-111426065D01*
X108222309Y-111506877D01*
X108141497Y-111533815D01*
X108087622Y-111533815D01*
X108006810Y-111506877D01*
X107952935Y-111453003D01*
X107925998Y-111372190D01*
X107925998Y-111318316D01*
X107952935Y-111237503D01*
X108087622Y-111102816D01*
X108195372Y-111048942D01*
X132892722Y-79615592D02*
X132811910Y-79642529D01*
X132731097Y-79723341D01*
X132677223Y-79831091D01*
X132677223Y-79938841D01*
X132704160Y-80019653D01*
X132784972Y-80154340D01*
X132865784Y-80235152D01*
X133000471Y-80315964D01*
X133081284Y-80342902D01*
X133189033Y-80342902D01*
X133296783Y-80289027D01*
X133350658Y-80235152D01*
X133404532Y-80127402D01*
X133404532Y-80073528D01*
X133215971Y-79884966D01*
X133108221Y-79992715D01*
X133700844Y-79884966D02*
X133135158Y-79319280D01*
X133350658Y-79103781D01*
X133431470Y-79076844D01*
X133485345Y-79076844D01*
X133566157Y-79103781D01*
X133646969Y-79184593D01*
X133673906Y-79265406D01*
X133673906Y-79319280D01*
X133646969Y-79400093D01*
X133431470Y-79615592D01*
X134562841Y-79022969D02*
X134239592Y-79346218D01*
X134401216Y-79184593D02*
X133835531Y-78618908D01*
X133862468Y-78753595D01*
X133862468Y-78861345D01*
X133835531Y-78942157D01*
X134347341Y-78107097D02*
X134401216Y-78053223D01*
X134482028Y-78026285D01*
X134535903Y-78026285D01*
X134616715Y-78053223D01*
X134751402Y-78134035D01*
X134886089Y-78268722D01*
X134966902Y-78403409D01*
X134993839Y-78484221D01*
X134993839Y-78538096D01*
X134966902Y-78618908D01*
X134913027Y-78672783D01*
X134832215Y-78699720D01*
X134778340Y-78699720D01*
X134697528Y-78672783D01*
X134562841Y-78591971D01*
X134428154Y-78457284D01*
X134347341Y-78322597D01*
X134320404Y-78241784D01*
X134320404Y-78187910D01*
X134347341Y-78107097D01*
X106784722Y-92305592D02*
X106703910Y-92332529D01*
X106623097Y-92413341D01*
X106569223Y-92521091D01*
X106569223Y-92628841D01*
X106596160Y-92709653D01*
X106676972Y-92844340D01*
X106757784Y-92925152D01*
X106892471Y-93005964D01*
X106973284Y-93032902D01*
X107081033Y-93032902D01*
X107188783Y-92979027D01*
X107242658Y-92925152D01*
X107296532Y-92817402D01*
X107296532Y-92763528D01*
X107107971Y-92574966D01*
X107000221Y-92682715D01*
X107592844Y-92574966D02*
X107027158Y-92009280D01*
X107242658Y-91793781D01*
X107323470Y-91766844D01*
X107377345Y-91766844D01*
X107458157Y-91793781D01*
X107538969Y-91874593D01*
X107565906Y-91955406D01*
X107565906Y-92009280D01*
X107538969Y-92090093D01*
X107323470Y-92305592D01*
X107619781Y-91524407D02*
X107619781Y-91470532D01*
X107646719Y-91389720D01*
X107781406Y-91255033D01*
X107862218Y-91228096D01*
X107916093Y-91228096D01*
X107996905Y-91255033D01*
X108050780Y-91308908D01*
X108104654Y-91416658D01*
X108104654Y-92063155D01*
X108454841Y-91712969D01*
X108077717Y-90958722D02*
X108454841Y-90581598D01*
X108778089Y-91389720D01*
X106784722Y-89775592D02*
X106703910Y-89802529D01*
X106623097Y-89883341D01*
X106569223Y-89991091D01*
X106569223Y-90098841D01*
X106596160Y-90179653D01*
X106676972Y-90314340D01*
X106757784Y-90395152D01*
X106892471Y-90475964D01*
X106973284Y-90502902D01*
X107081033Y-90502902D01*
X107188783Y-90449027D01*
X107242658Y-90395152D01*
X107296532Y-90287402D01*
X107296532Y-90233528D01*
X107107971Y-90044966D01*
X107000221Y-90152715D01*
X107592844Y-90044966D02*
X107027158Y-89479280D01*
X107242658Y-89263781D01*
X107323470Y-89236844D01*
X107377345Y-89236844D01*
X107458157Y-89263781D01*
X107538969Y-89344593D01*
X107565906Y-89425406D01*
X107565906Y-89479280D01*
X107538969Y-89560093D01*
X107323470Y-89775592D01*
X107619781Y-88994407D02*
X107619781Y-88940532D01*
X107646719Y-88859720D01*
X107781406Y-88725033D01*
X107862218Y-88698096D01*
X107916093Y-88698096D01*
X107996905Y-88725033D01*
X108050780Y-88778908D01*
X108104654Y-88886658D01*
X108104654Y-89533155D01*
X108454841Y-89182969D01*
X108374028Y-88132410D02*
X108266279Y-88240160D01*
X108239341Y-88320972D01*
X108239341Y-88374847D01*
X108266279Y-88509534D01*
X108347091Y-88644221D01*
X108562590Y-88859720D01*
X108643402Y-88886658D01*
X108697277Y-88886658D01*
X108778089Y-88859720D01*
X108885839Y-88751971D01*
X108912776Y-88671158D01*
X108912776Y-88617284D01*
X108885839Y-88536471D01*
X108751152Y-88401784D01*
X108670340Y-88374847D01*
X108616465Y-88374847D01*
X108535653Y-88401784D01*
X108427903Y-88509534D01*
X108400966Y-88590346D01*
X108400966Y-88644221D01*
X108427903Y-88725033D01*
X104949788Y-102648773D02*
X105219162Y-102379399D01*
X105057537Y-102864272D02*
X104680414Y-102110025D01*
X105434661Y-102487149D01*
X105623223Y-102298587D02*
X105057537Y-101732902D01*
X105192224Y-101598215D01*
X105299974Y-101544340D01*
X105407723Y-101544340D01*
X105488536Y-101571277D01*
X105623223Y-101652089D01*
X105704035Y-101732902D01*
X105784847Y-101867589D01*
X105811784Y-101948401D01*
X105811784Y-102056150D01*
X105757910Y-102163900D01*
X105623223Y-102298587D01*
X106458282Y-101355778D02*
X106458282Y-101409653D01*
X106404407Y-101517402D01*
X106350532Y-101571277D01*
X106242783Y-101625152D01*
X106135033Y-101625152D01*
X106054221Y-101598215D01*
X105919534Y-101517402D01*
X105838722Y-101436590D01*
X105757910Y-101301903D01*
X105730972Y-101221091D01*
X105730972Y-101113341D01*
X105784847Y-101005592D01*
X105838722Y-100951717D01*
X105946471Y-100897842D01*
X106000346Y-100897842D01*
X106673781Y-101355778D02*
X107104780Y-100924780D01*
X106539094Y-100251345D02*
X107293341Y-100628468D01*
X106916218Y-99874221D01*
X107993714Y-99928096D02*
X107535778Y-99847284D01*
X107670465Y-100251345D02*
X107104780Y-99685659D01*
X107320279Y-99470160D01*
X107401091Y-99443223D01*
X107454966Y-99443223D01*
X107535778Y-99470160D01*
X107616590Y-99550972D01*
X107643528Y-99631784D01*
X107643528Y-99685659D01*
X107616590Y-99766471D01*
X107401091Y-99981971D01*
X107939839Y-99389348D02*
X108128401Y-99200786D01*
X108505524Y-99416285D02*
X108236150Y-99685659D01*
X107670465Y-99119974D01*
X107939839Y-98850600D01*
X108640211Y-98688975D02*
X108451650Y-98877537D01*
X108747961Y-99173849D02*
X108182276Y-98608163D01*
X108451650Y-98338789D01*
X133038722Y-77075592D02*
X132957910Y-77102529D01*
X132877097Y-77183341D01*
X132823223Y-77291091D01*
X132823223Y-77398841D01*
X132850160Y-77479653D01*
X132930972Y-77614340D01*
X133011784Y-77695152D01*
X133146471Y-77775964D01*
X133227284Y-77802902D01*
X133335033Y-77802902D01*
X133442783Y-77749027D01*
X133496658Y-77695152D01*
X133550532Y-77587402D01*
X133550532Y-77533528D01*
X133361971Y-77344966D01*
X133254221Y-77452715D01*
X133846844Y-77344966D02*
X133281158Y-76779280D01*
X133496658Y-76563781D01*
X133577470Y-76536844D01*
X133631345Y-76536844D01*
X133712157Y-76563781D01*
X133792969Y-76644593D01*
X133819906Y-76725406D01*
X133819906Y-76779280D01*
X133792969Y-76860093D01*
X133577470Y-77075592D01*
X134708841Y-76482969D02*
X134385592Y-76806218D01*
X134547216Y-76644593D02*
X133981531Y-76078908D01*
X134008468Y-76213595D01*
X134008468Y-76321345D01*
X133981531Y-76402157D01*
X135247589Y-75944221D02*
X134924340Y-76267470D01*
X135085964Y-76105845D02*
X134520279Y-75540160D01*
X134547216Y-75674847D01*
X134547216Y-75782597D01*
X134520279Y-75863409D01*
X106315473Y-110364966D02*
X107069720Y-110742089D01*
X106692597Y-109987842D01*
X107392969Y-110364966D02*
X107500719Y-110311091D01*
X107635406Y-110176404D01*
X107662343Y-110095592D01*
X107662343Y-110041717D01*
X107635406Y-109960905D01*
X107581531Y-109907030D01*
X107500719Y-109880093D01*
X107446844Y-109880093D01*
X107366032Y-109907030D01*
X107231345Y-109987842D01*
X107150532Y-110014780D01*
X107096658Y-110014780D01*
X107015845Y-109987842D01*
X106961971Y-109933967D01*
X106935033Y-109853155D01*
X106935033Y-109799280D01*
X106961971Y-109718468D01*
X107096658Y-109583781D01*
X107204407Y-109529906D01*
X107823967Y-109449094D02*
X108093341Y-109718468D01*
X107339094Y-109341345D02*
X107823967Y-109449094D01*
X107716218Y-108964221D01*
X108416590Y-109341345D02*
X108524340Y-109287470D01*
X108659027Y-109152783D01*
X108685964Y-109071971D01*
X108685964Y-109018096D01*
X108659027Y-108937284D01*
X108605152Y-108883409D01*
X108524340Y-108856471D01*
X108470465Y-108856471D01*
X108389653Y-108883409D01*
X108254966Y-108964221D01*
X108174154Y-108991158D01*
X108120279Y-108991158D01*
X108039467Y-108964221D01*
X107985592Y-108910346D01*
X107958654Y-108829534D01*
X107958654Y-108775659D01*
X107985592Y-108694847D01*
X108120279Y-108560160D01*
X108228028Y-108506285D01*
X133008096Y-104746218D02*
X132927284Y-104773155D01*
X132846471Y-104853967D01*
X132792597Y-104961717D01*
X132792597Y-105069467D01*
X132819534Y-105150279D01*
X132900346Y-105284966D01*
X132981158Y-105365778D01*
X133115845Y-105446590D01*
X133196658Y-105473528D01*
X133304407Y-105473528D01*
X133412157Y-105419653D01*
X133466032Y-105365778D01*
X133519906Y-105258028D01*
X133519906Y-105204154D01*
X133331345Y-105015592D01*
X133223595Y-105123341D01*
X133816218Y-105015592D02*
X133250532Y-104449906D01*
X133466032Y-104234407D01*
X133546844Y-104207470D01*
X133600719Y-104207470D01*
X133681531Y-104234407D01*
X133762343Y-104315219D01*
X133789280Y-104396032D01*
X133789280Y-104449906D01*
X133762343Y-104530719D01*
X133546844Y-104746218D01*
X133843155Y-103965033D02*
X133843155Y-103911158D01*
X133870093Y-103830346D01*
X134004780Y-103695659D01*
X134085592Y-103668722D01*
X134139467Y-103668722D01*
X134220279Y-103695659D01*
X134274154Y-103749534D01*
X134328028Y-103857284D01*
X134328028Y-104503781D01*
X134678215Y-104153595D01*
X106784722Y-79605592D02*
X106703910Y-79632529D01*
X106623097Y-79713341D01*
X106569223Y-79821091D01*
X106569223Y-79928841D01*
X106596160Y-80009653D01*
X106676972Y-80144340D01*
X106757784Y-80225152D01*
X106892471Y-80305964D01*
X106973284Y-80332902D01*
X107081033Y-80332902D01*
X107188783Y-80279027D01*
X107242658Y-80225152D01*
X107296532Y-80117402D01*
X107296532Y-80063528D01*
X107107971Y-79874966D01*
X107000221Y-79982715D01*
X107592844Y-79874966D02*
X107027158Y-79309280D01*
X107242658Y-79093781D01*
X107323470Y-79066844D01*
X107377345Y-79066844D01*
X107458157Y-79093781D01*
X107538969Y-79174593D01*
X107565906Y-79255406D01*
X107565906Y-79309280D01*
X107538969Y-79390093D01*
X107323470Y-79605592D01*
X107619781Y-78824407D02*
X107619781Y-78770532D01*
X107646719Y-78689720D01*
X107781406Y-78555033D01*
X107862218Y-78528096D01*
X107916093Y-78528096D01*
X107996905Y-78555033D01*
X108050780Y-78608908D01*
X108104654Y-78716658D01*
X108104654Y-79363155D01*
X108454841Y-79012969D01*
X108993589Y-78474221D02*
X108670340Y-78797470D01*
X108831964Y-78635845D02*
X108266279Y-78070160D01*
X108293216Y-78204847D01*
X108293216Y-78312597D01*
X108266279Y-78393409D01*
X132908096Y-86966218D02*
X132827284Y-86993155D01*
X132746471Y-87073967D01*
X132692597Y-87181717D01*
X132692597Y-87289467D01*
X132719534Y-87370279D01*
X132800346Y-87504966D01*
X132881158Y-87585778D01*
X133015845Y-87666590D01*
X133096658Y-87693528D01*
X133204407Y-87693528D01*
X133312157Y-87639653D01*
X133366032Y-87585778D01*
X133419906Y-87478028D01*
X133419906Y-87424154D01*
X133231345Y-87235592D01*
X133123595Y-87343341D01*
X133716218Y-87235592D02*
X133150532Y-86669906D01*
X133366032Y-86454407D01*
X133446844Y-86427470D01*
X133500719Y-86427470D01*
X133581531Y-86454407D01*
X133662343Y-86535219D01*
X133689280Y-86616032D01*
X133689280Y-86669906D01*
X133662343Y-86750719D01*
X133446844Y-86966218D01*
X134039467Y-86265845D02*
X133958654Y-86292783D01*
X133904780Y-86292783D01*
X133823967Y-86265845D01*
X133797030Y-86238908D01*
X133770093Y-86158096D01*
X133770093Y-86104221D01*
X133797030Y-86023409D01*
X133904780Y-85915659D01*
X133985592Y-85888722D01*
X134039467Y-85888722D01*
X134120279Y-85915659D01*
X134147216Y-85942597D01*
X134174154Y-86023409D01*
X134174154Y-86077284D01*
X134147216Y-86158096D01*
X134039467Y-86265845D01*
X134012529Y-86346658D01*
X134012529Y-86400532D01*
X134039467Y-86481345D01*
X134147216Y-86589094D01*
X134228028Y-86616032D01*
X134281903Y-86616032D01*
X134362715Y-86589094D01*
X134470465Y-86481345D01*
X134497402Y-86400532D01*
X134497402Y-86346658D01*
X134470465Y-86265845D01*
X134362715Y-86158096D01*
X134281903Y-86131158D01*
X134228028Y-86131158D01*
X134147216Y-86158096D01*
X132808096Y-89536218D02*
X132727284Y-89563155D01*
X132646471Y-89643967D01*
X132592597Y-89751717D01*
X132592597Y-89859467D01*
X132619534Y-89940279D01*
X132700346Y-90074966D01*
X132781158Y-90155778D01*
X132915845Y-90236590D01*
X132996658Y-90263528D01*
X133104407Y-90263528D01*
X133212157Y-90209653D01*
X133266032Y-90155778D01*
X133319906Y-90048028D01*
X133319906Y-89994154D01*
X133131345Y-89805592D01*
X133023595Y-89913341D01*
X133616218Y-89805592D02*
X133050532Y-89239906D01*
X133266032Y-89024407D01*
X133346844Y-88997470D01*
X133400719Y-88997470D01*
X133481531Y-89024407D01*
X133562343Y-89105219D01*
X133589280Y-89186032D01*
X133589280Y-89239906D01*
X133562343Y-89320719D01*
X133346844Y-89536218D01*
X133562343Y-88728096D02*
X133939467Y-88350972D01*
X134262715Y-89159094D01*
X107281158Y-69213155D02*
X107200346Y-69240093D01*
X107119534Y-69320905D01*
X107065659Y-69428654D01*
X107065659Y-69536404D01*
X107092597Y-69617216D01*
X107173409Y-69751903D01*
X107254221Y-69832715D01*
X107388908Y-69913528D01*
X107469720Y-69940465D01*
X107577470Y-69940465D01*
X107685219Y-69886590D01*
X107739094Y-69832715D01*
X107792969Y-69724966D01*
X107792969Y-69671091D01*
X107604407Y-69482529D01*
X107496658Y-69590279D01*
X108089280Y-69482529D02*
X107523595Y-68916844D01*
X108412529Y-69159280D01*
X107846844Y-68593595D01*
X108681903Y-68889906D02*
X108116218Y-68324221D01*
X108250905Y-68189534D01*
X108358654Y-68135659D01*
X108466404Y-68135659D01*
X108547216Y-68162597D01*
X108681903Y-68243409D01*
X108762715Y-68324221D01*
X108843528Y-68458908D01*
X108870465Y-68539720D01*
X108870465Y-68647470D01*
X108816590Y-68755219D01*
X108681903Y-68889906D01*
X132881158Y-107313155D02*
X132800346Y-107340093D01*
X132719534Y-107420905D01*
X132665659Y-107528654D01*
X132665659Y-107636404D01*
X132692597Y-107717216D01*
X132773409Y-107851903D01*
X132854221Y-107932715D01*
X132988908Y-108013528D01*
X133069720Y-108040465D01*
X133177470Y-108040465D01*
X133285219Y-107986590D01*
X133339094Y-107932715D01*
X133392969Y-107824966D01*
X133392969Y-107771091D01*
X133204407Y-107582529D01*
X133096658Y-107690279D01*
X133689280Y-107582529D02*
X133123595Y-107016844D01*
X134012529Y-107259280D01*
X133446844Y-106693595D01*
X134281903Y-106989906D02*
X133716218Y-106424221D01*
X133850905Y-106289534D01*
X133958654Y-106235659D01*
X134066404Y-106235659D01*
X134147216Y-106262597D01*
X134281903Y-106343409D01*
X134362715Y-106424221D01*
X134443528Y-106558908D01*
X134470465Y-106639720D01*
X134470465Y-106747470D01*
X134416590Y-106855219D01*
X134281903Y-106989906D01*
X132908096Y-97126218D02*
X132827284Y-97153155D01*
X132746471Y-97233967D01*
X132692597Y-97341717D01*
X132692597Y-97449467D01*
X132719534Y-97530279D01*
X132800346Y-97664966D01*
X132881158Y-97745778D01*
X133015845Y-97826590D01*
X133096658Y-97853528D01*
X133204407Y-97853528D01*
X133312157Y-97799653D01*
X133366032Y-97745778D01*
X133419906Y-97638028D01*
X133419906Y-97584154D01*
X133231345Y-97395592D01*
X133123595Y-97503341D01*
X133716218Y-97395592D02*
X133150532Y-96829906D01*
X133366032Y-96614407D01*
X133446844Y-96587470D01*
X133500719Y-96587470D01*
X133581531Y-96614407D01*
X133662343Y-96695219D01*
X133689280Y-96776032D01*
X133689280Y-96829906D01*
X133662343Y-96910719D01*
X133446844Y-97126218D01*
X133985592Y-95994847D02*
X133716218Y-96264221D01*
X133958654Y-96560532D01*
X133958654Y-96506658D01*
X133985592Y-96425845D01*
X134120279Y-96291158D01*
X134201091Y-96264221D01*
X134254966Y-96264221D01*
X134335778Y-96291158D01*
X134470465Y-96425845D01*
X134497402Y-96506658D01*
X134497402Y-96560532D01*
X134470465Y-96641345D01*
X134335778Y-96776032D01*
X134254966Y-96802969D01*
X134201091Y-96802969D01*
X132881158Y-81913155D02*
X132800346Y-81940093D01*
X132719534Y-82020905D01*
X132665659Y-82128654D01*
X132665659Y-82236404D01*
X132692597Y-82317216D01*
X132773409Y-82451903D01*
X132854221Y-82532715D01*
X132988908Y-82613528D01*
X133069720Y-82640465D01*
X133177470Y-82640465D01*
X133285219Y-82586590D01*
X133339094Y-82532715D01*
X133392969Y-82424966D01*
X133392969Y-82371091D01*
X133204407Y-82182529D01*
X133096658Y-82290279D01*
X133689280Y-82182529D02*
X133123595Y-81616844D01*
X134012529Y-81859280D01*
X133446844Y-81293595D01*
X134281903Y-81589906D02*
X133716218Y-81024221D01*
X133850905Y-80889534D01*
X133958654Y-80835659D01*
X134066404Y-80835659D01*
X134147216Y-80862597D01*
X134281903Y-80943409D01*
X134362715Y-81024221D01*
X134443528Y-81158908D01*
X134470465Y-81239720D01*
X134470465Y-81347470D01*
X134416590Y-81455219D01*
X134281903Y-81589906D01*
X106784722Y-74535592D02*
X106703910Y-74562529D01*
X106623097Y-74643341D01*
X106569223Y-74751091D01*
X106569223Y-74858841D01*
X106596160Y-74939653D01*
X106676972Y-75074340D01*
X106757784Y-75155152D01*
X106892471Y-75235964D01*
X106973284Y-75262902D01*
X107081033Y-75262902D01*
X107188783Y-75209027D01*
X107242658Y-75155152D01*
X107296532Y-75047402D01*
X107296532Y-74993528D01*
X107107971Y-74804966D01*
X107000221Y-74912715D01*
X107592844Y-74804966D02*
X107027158Y-74239280D01*
X107242658Y-74023781D01*
X107323470Y-73996844D01*
X107377345Y-73996844D01*
X107458157Y-74023781D01*
X107538969Y-74104593D01*
X107565906Y-74185406D01*
X107565906Y-74239280D01*
X107538969Y-74320093D01*
X107323470Y-74535592D01*
X108454841Y-73942969D02*
X108131592Y-74266218D01*
X108293216Y-74104593D02*
X107727531Y-73538908D01*
X107754468Y-73673595D01*
X107754468Y-73781345D01*
X107727531Y-73862157D01*
X108724215Y-73673595D02*
X108831964Y-73565845D01*
X108858902Y-73485033D01*
X108858902Y-73431158D01*
X108831964Y-73296471D01*
X108751152Y-73161784D01*
X108535653Y-72946285D01*
X108454841Y-72919348D01*
X108400966Y-72919348D01*
X108320154Y-72946285D01*
X108212404Y-73054035D01*
X108185467Y-73134847D01*
X108185467Y-73188722D01*
X108212404Y-73269534D01*
X108347091Y-73404221D01*
X108427903Y-73431158D01*
X108481778Y-73431158D01*
X108562590Y-73404221D01*
X108670340Y-73296471D01*
X108697277Y-73215659D01*
X108697277Y-73161784D01*
X108670340Y-73080972D01*
X106784722Y-77075592D02*
X106703910Y-77102529D01*
X106623097Y-77183341D01*
X106569223Y-77291091D01*
X106569223Y-77398841D01*
X106596160Y-77479653D01*
X106676972Y-77614340D01*
X106757784Y-77695152D01*
X106892471Y-77775964D01*
X106973284Y-77802902D01*
X107081033Y-77802902D01*
X107188783Y-77749027D01*
X107242658Y-77695152D01*
X107296532Y-77587402D01*
X107296532Y-77533528D01*
X107107971Y-77344966D01*
X107000221Y-77452715D01*
X107592844Y-77344966D02*
X107027158Y-76779280D01*
X107242658Y-76563781D01*
X107323470Y-76536844D01*
X107377345Y-76536844D01*
X107458157Y-76563781D01*
X107538969Y-76644593D01*
X107565906Y-76725406D01*
X107565906Y-76779280D01*
X107538969Y-76860093D01*
X107323470Y-77075592D01*
X107619781Y-76294407D02*
X107619781Y-76240532D01*
X107646719Y-76159720D01*
X107781406Y-76025033D01*
X107862218Y-75998096D01*
X107916093Y-75998096D01*
X107996905Y-76025033D01*
X108050780Y-76078908D01*
X108104654Y-76186658D01*
X108104654Y-76833155D01*
X108454841Y-76482969D01*
X108239341Y-75567097D02*
X108293216Y-75513223D01*
X108374028Y-75486285D01*
X108427903Y-75486285D01*
X108508715Y-75513223D01*
X108643402Y-75594035D01*
X108778089Y-75728722D01*
X108858902Y-75863409D01*
X108885839Y-75944221D01*
X108885839Y-75998096D01*
X108858902Y-76078908D01*
X108805027Y-76132783D01*
X108724215Y-76159720D01*
X108670340Y-76159720D01*
X108589528Y-76132783D01*
X108454841Y-76051971D01*
X108320154Y-75917284D01*
X108239341Y-75782597D01*
X108212404Y-75701784D01*
X108212404Y-75647910D01*
X108239341Y-75567097D01*
X106784722Y-64375592D02*
X106703910Y-64402529D01*
X106623097Y-64483341D01*
X106569223Y-64591091D01*
X106569223Y-64698841D01*
X106596160Y-64779653D01*
X106676972Y-64914340D01*
X106757784Y-64995152D01*
X106892471Y-65075964D01*
X106973284Y-65102902D01*
X107081033Y-65102902D01*
X107188783Y-65049027D01*
X107242658Y-64995152D01*
X107296532Y-64887402D01*
X107296532Y-64833528D01*
X107107971Y-64644966D01*
X107000221Y-64752715D01*
X107592844Y-64644966D02*
X107027158Y-64079280D01*
X107242658Y-63863781D01*
X107323470Y-63836844D01*
X107377345Y-63836844D01*
X107458157Y-63863781D01*
X107538969Y-63944593D01*
X107565906Y-64025406D01*
X107565906Y-64079280D01*
X107538969Y-64160093D01*
X107323470Y-64375592D01*
X108454841Y-63782969D02*
X108131592Y-64106218D01*
X108293216Y-63944593D02*
X107727531Y-63378908D01*
X107754468Y-63513595D01*
X107754468Y-63621345D01*
X107727531Y-63702157D01*
X108374028Y-62732410D02*
X108266279Y-62840160D01*
X108239341Y-62920972D01*
X108239341Y-62974847D01*
X108266279Y-63109534D01*
X108347091Y-63244221D01*
X108562590Y-63459720D01*
X108643402Y-63486658D01*
X108697277Y-63486658D01*
X108778089Y-63459720D01*
X108885839Y-63351971D01*
X108912776Y-63271158D01*
X108912776Y-63217284D01*
X108885839Y-63136471D01*
X108751152Y-63001784D01*
X108670340Y-62974847D01*
X108616465Y-62974847D01*
X108535653Y-63001784D01*
X108427903Y-63109534D01*
X108400966Y-63190346D01*
X108400966Y-63244221D01*
X108427903Y-63325033D01*
X132938722Y-66915592D02*
X132857910Y-66942529D01*
X132777097Y-67023341D01*
X132723223Y-67131091D01*
X132723223Y-67238841D01*
X132750160Y-67319653D01*
X132830972Y-67454340D01*
X132911784Y-67535152D01*
X133046471Y-67615964D01*
X133127284Y-67642902D01*
X133235033Y-67642902D01*
X133342783Y-67589027D01*
X133396658Y-67535152D01*
X133450532Y-67427402D01*
X133450532Y-67373528D01*
X133261971Y-67184966D01*
X133154221Y-67292715D01*
X133746844Y-67184966D02*
X133181158Y-66619280D01*
X133396658Y-66403781D01*
X133477470Y-66376844D01*
X133531345Y-66376844D01*
X133612157Y-66403781D01*
X133692969Y-66484593D01*
X133719906Y-66565406D01*
X133719906Y-66619280D01*
X133692969Y-66700093D01*
X133477470Y-66915592D01*
X134608841Y-66322969D02*
X134285592Y-66646218D01*
X134447216Y-66484593D02*
X133881531Y-65918908D01*
X133908468Y-66053595D01*
X133908468Y-66161345D01*
X133881531Y-66242157D01*
X134716590Y-65460972D02*
X135093714Y-65838096D01*
X134366404Y-65380160D02*
X134635778Y-65918908D01*
X134985964Y-65568722D01*
X124685476Y-62238809D02*
X124799761Y-62276904D01*
X124990238Y-62276904D01*
X125066428Y-62238809D01*
X125104523Y-62200714D01*
X125142619Y-62124523D01*
X125142619Y-62048333D01*
X125104523Y-61972142D01*
X125066428Y-61934047D01*
X124990238Y-61895952D01*
X124837857Y-61857857D01*
X124761666Y-61819761D01*
X124723571Y-61781666D01*
X124685476Y-61705476D01*
X124685476Y-61629285D01*
X124723571Y-61553095D01*
X124761666Y-61515000D01*
X124837857Y-61476904D01*
X125028333Y-61476904D01*
X125142619Y-61515000D01*
X125409285Y-61476904D02*
X125599761Y-62276904D01*
X125752142Y-61705476D01*
X125904523Y-62276904D01*
X126095000Y-61476904D01*
X126856904Y-62200714D02*
X126818809Y-62238809D01*
X126704523Y-62276904D01*
X126628333Y-62276904D01*
X126514047Y-62238809D01*
X126437857Y-62162619D01*
X126399761Y-62086428D01*
X126361666Y-61934047D01*
X126361666Y-61819761D01*
X126399761Y-61667380D01*
X126437857Y-61591190D01*
X126514047Y-61515000D01*
X126628333Y-61476904D01*
X126704523Y-61476904D01*
X126818809Y-61515000D01*
X126856904Y-61553095D01*
X127580714Y-62276904D02*
X127199761Y-62276904D01*
X127199761Y-61476904D01*
X127847380Y-62276904D02*
X127847380Y-61476904D01*
X128304523Y-62276904D02*
X127961666Y-61819761D01*
X128304523Y-61476904D02*
X127847380Y-61934047D01*
X106784722Y-97649592D02*
X106703910Y-97676529D01*
X106623097Y-97757341D01*
X106569223Y-97865091D01*
X106569223Y-97972841D01*
X106596160Y-98053653D01*
X106676972Y-98188340D01*
X106757784Y-98269152D01*
X106892471Y-98349964D01*
X106973284Y-98376902D01*
X107081033Y-98376902D01*
X107188783Y-98323027D01*
X107242658Y-98269152D01*
X107296532Y-98161402D01*
X107296532Y-98107528D01*
X107107971Y-97918966D01*
X107000221Y-98026715D01*
X107592844Y-97918966D02*
X107027158Y-97353280D01*
X107242658Y-97137781D01*
X107323470Y-97110844D01*
X107377345Y-97110844D01*
X107458157Y-97137781D01*
X107538969Y-97218593D01*
X107565906Y-97299406D01*
X107565906Y-97353280D01*
X107538969Y-97434093D01*
X107323470Y-97649592D01*
X107619781Y-96868407D02*
X107619781Y-96814532D01*
X107646719Y-96733720D01*
X107781406Y-96599033D01*
X107862218Y-96572096D01*
X107916093Y-96572096D01*
X107996905Y-96599033D01*
X108050780Y-96652908D01*
X108104654Y-96760658D01*
X108104654Y-97407155D01*
X108454841Y-97056969D01*
X108454841Y-96410471D02*
X108374028Y-96437409D01*
X108320154Y-96437409D01*
X108239341Y-96410471D01*
X108212404Y-96383534D01*
X108185467Y-96302722D01*
X108185467Y-96248847D01*
X108212404Y-96168035D01*
X108320154Y-96060285D01*
X108400966Y-96033348D01*
X108454841Y-96033348D01*
X108535653Y-96060285D01*
X108562590Y-96087223D01*
X108589528Y-96168035D01*
X108589528Y-96221910D01*
X108562590Y-96302722D01*
X108454841Y-96410471D01*
X108427903Y-96491284D01*
X108427903Y-96545158D01*
X108454841Y-96625971D01*
X108562590Y-96733720D01*
X108643402Y-96760658D01*
X108697277Y-96760658D01*
X108778089Y-96733720D01*
X108885839Y-96625971D01*
X108912776Y-96545158D01*
X108912776Y-96491284D01*
X108885839Y-96410471D01*
X108778089Y-96302722D01*
X108697277Y-96275784D01*
X108643402Y-96275784D01*
X108562590Y-96302722D01*
X106838597Y-95555964D02*
X107107971Y-95286590D01*
X106946346Y-95771463D02*
X106569223Y-95017216D01*
X107323470Y-95394340D01*
X107269595Y-94370719D02*
X107188783Y-94397656D01*
X107107971Y-94478468D01*
X107054096Y-94586218D01*
X107054096Y-94693967D01*
X107081033Y-94774780D01*
X107161845Y-94909467D01*
X107242658Y-94990279D01*
X107377345Y-95071091D01*
X107458157Y-95098028D01*
X107565906Y-95098028D01*
X107673656Y-95044154D01*
X107727531Y-94990279D01*
X107781406Y-94882529D01*
X107781406Y-94828654D01*
X107592844Y-94640093D01*
X107485094Y-94747842D01*
X108077717Y-94640093D02*
X107512032Y-94074407D01*
X108400966Y-94316844D01*
X107835280Y-93751158D01*
X108670340Y-94047470D02*
X108104654Y-93481784D01*
X108239341Y-93347097D01*
X108347091Y-93293223D01*
X108454841Y-93293223D01*
X108535653Y-93320160D01*
X108670340Y-93400972D01*
X108751152Y-93481784D01*
X108831964Y-93616471D01*
X108858902Y-93697284D01*
X108858902Y-93805033D01*
X108805027Y-93912783D01*
X108670340Y-94047470D01*
X132908096Y-84426218D02*
X132827284Y-84453155D01*
X132746471Y-84533967D01*
X132692597Y-84641717D01*
X132692597Y-84749467D01*
X132719534Y-84830279D01*
X132800346Y-84964966D01*
X132881158Y-85045778D01*
X133015845Y-85126590D01*
X133096658Y-85153528D01*
X133204407Y-85153528D01*
X133312157Y-85099653D01*
X133366032Y-85045778D01*
X133419906Y-84938028D01*
X133419906Y-84884154D01*
X133231345Y-84695592D01*
X133123595Y-84803341D01*
X133716218Y-84695592D02*
X133150532Y-84129906D01*
X133366032Y-83914407D01*
X133446844Y-83887470D01*
X133500719Y-83887470D01*
X133581531Y-83914407D01*
X133662343Y-83995219D01*
X133689280Y-84076032D01*
X133689280Y-84129906D01*
X133662343Y-84210719D01*
X133446844Y-84426218D01*
X134308841Y-84102969D02*
X134416590Y-83995219D01*
X134443528Y-83914407D01*
X134443528Y-83860532D01*
X134416590Y-83725845D01*
X134335778Y-83591158D01*
X134120279Y-83375659D01*
X134039467Y-83348722D01*
X133985592Y-83348722D01*
X133904780Y-83375659D01*
X133797030Y-83483409D01*
X133770093Y-83564221D01*
X133770093Y-83618096D01*
X133797030Y-83698908D01*
X133931717Y-83833595D01*
X134012529Y-83860532D01*
X134066404Y-83860532D01*
X134147216Y-83833595D01*
X134254966Y-83725845D01*
X134281903Y-83645033D01*
X134281903Y-83591158D01*
X134254966Y-83510346D01*
X133008096Y-109836218D02*
X132927284Y-109863155D01*
X132846471Y-109943967D01*
X132792597Y-110051717D01*
X132792597Y-110159467D01*
X132819534Y-110240279D01*
X132900346Y-110374966D01*
X132981158Y-110455778D01*
X133115845Y-110536590D01*
X133196658Y-110563528D01*
X133304407Y-110563528D01*
X133412157Y-110509653D01*
X133466032Y-110455778D01*
X133519906Y-110348028D01*
X133519906Y-110294154D01*
X133331345Y-110105592D01*
X133223595Y-110213341D01*
X133816218Y-110105592D02*
X133250532Y-109539906D01*
X133466032Y-109324407D01*
X133546844Y-109297470D01*
X133600719Y-109297470D01*
X133681531Y-109324407D01*
X133762343Y-109405219D01*
X133789280Y-109486032D01*
X133789280Y-109539906D01*
X133762343Y-109620719D01*
X133546844Y-109836218D01*
X134678215Y-109243595D02*
X134354966Y-109566844D01*
X134516590Y-109405219D02*
X133950905Y-108839534D01*
X133977842Y-108974221D01*
X133977842Y-109081971D01*
X133950905Y-109162783D01*
X132892722Y-71995592D02*
X132811910Y-72022529D01*
X132731097Y-72103341D01*
X132677223Y-72211091D01*
X132677223Y-72318841D01*
X132704160Y-72399653D01*
X132784972Y-72534340D01*
X132865784Y-72615152D01*
X133000471Y-72695964D01*
X133081284Y-72722902D01*
X133189033Y-72722902D01*
X133296783Y-72669027D01*
X133350658Y-72615152D01*
X133404532Y-72507402D01*
X133404532Y-72453528D01*
X133215971Y-72264966D01*
X133108221Y-72372715D01*
X133700844Y-72264966D02*
X133135158Y-71699280D01*
X133350658Y-71483781D01*
X133431470Y-71456844D01*
X133485345Y-71456844D01*
X133566157Y-71483781D01*
X133646969Y-71564593D01*
X133673906Y-71645406D01*
X133673906Y-71699280D01*
X133646969Y-71780093D01*
X133431470Y-71995592D01*
X134562841Y-71402969D02*
X134239592Y-71726218D01*
X134401216Y-71564593D02*
X133835531Y-70998908D01*
X133862468Y-71133595D01*
X133862468Y-71241345D01*
X133835531Y-71322157D01*
X134185717Y-70648722D02*
X134535903Y-70298536D01*
X134562841Y-70702597D01*
X134643653Y-70621784D01*
X134724465Y-70594847D01*
X134778340Y-70594847D01*
X134859152Y-70621784D01*
X134993839Y-70756471D01*
X135020776Y-70837284D01*
X135020776Y-70891158D01*
X134993839Y-70971971D01*
X134832215Y-71133595D01*
X134751402Y-71160532D01*
X134697528Y-71160532D01*
X107281158Y-107313155D02*
X107200346Y-107340093D01*
X107119534Y-107420905D01*
X107065659Y-107528654D01*
X107065659Y-107636404D01*
X107092597Y-107717216D01*
X107173409Y-107851903D01*
X107254221Y-107932715D01*
X107388908Y-108013528D01*
X107469720Y-108040465D01*
X107577470Y-108040465D01*
X107685219Y-107986590D01*
X107739094Y-107932715D01*
X107792969Y-107824966D01*
X107792969Y-107771091D01*
X107604407Y-107582529D01*
X107496658Y-107690279D01*
X108089280Y-107582529D02*
X107523595Y-107016844D01*
X108412529Y-107259280D01*
X107846844Y-106693595D01*
X108681903Y-106989906D02*
X108116218Y-106424221D01*
X108250905Y-106289534D01*
X108358654Y-106235659D01*
X108466404Y-106235659D01*
X108547216Y-106262597D01*
X108681903Y-106343409D01*
X108762715Y-106424221D01*
X108843528Y-106558908D01*
X108870465Y-106639720D01*
X108870465Y-106747470D01*
X108816590Y-106855219D01*
X108681903Y-106989906D01*
%TO.C,R10*%
X169000093Y-66594734D02*
X168427674Y-66493719D01*
X168596032Y-66998795D02*
X167888926Y-66291688D01*
X168158300Y-66022314D01*
X168259315Y-65988642D01*
X168326658Y-65988642D01*
X168427674Y-66022314D01*
X168528689Y-66123329D01*
X168562361Y-66224345D01*
X168562361Y-66291688D01*
X168528689Y-66392703D01*
X168259315Y-66662077D01*
X169673529Y-65921299D02*
X169269468Y-66325360D01*
X169471498Y-66123329D02*
X168764391Y-65416222D01*
X168798063Y-65584581D01*
X168798063Y-65719268D01*
X168764391Y-65820284D01*
X169404155Y-64776459D02*
X169471498Y-64709116D01*
X169572513Y-64675444D01*
X169639857Y-64675444D01*
X169740872Y-64709116D01*
X169909231Y-64810131D01*
X170077590Y-64978490D01*
X170178605Y-65146848D01*
X170212277Y-65247864D01*
X170212277Y-65315207D01*
X170178605Y-65416222D01*
X170111261Y-65483566D01*
X170010246Y-65517238D01*
X169942903Y-65517238D01*
X169841887Y-65483566D01*
X169673529Y-65382551D01*
X169505170Y-65214192D01*
X169404155Y-65045833D01*
X169370483Y-64944818D01*
X169370483Y-64877474D01*
X169404155Y-64776459D01*
%TO.C,U1*%
X98968095Y-72537380D02*
X98968095Y-73346904D01*
X99015714Y-73442142D01*
X99063333Y-73489761D01*
X99158571Y-73537380D01*
X99349047Y-73537380D01*
X99444285Y-73489761D01*
X99491904Y-73442142D01*
X99539523Y-73346904D01*
X99539523Y-72537380D01*
X100539523Y-73537380D02*
X99968095Y-73537380D01*
X100253809Y-73537380D02*
X100253809Y-72537380D01*
X100158571Y-72680238D01*
X100063333Y-72775476D01*
X99968095Y-72823095D01*
%TO.C,J2*%
X88235580Y-99336333D02*
X88949866Y-99336333D01*
X89092723Y-99383952D01*
X89187961Y-99479190D01*
X89235580Y-99622047D01*
X89235580Y-99717285D01*
X88330819Y-98907761D02*
X88283200Y-98860142D01*
X88235580Y-98764904D01*
X88235580Y-98526809D01*
X88283200Y-98431571D01*
X88330819Y-98383952D01*
X88426057Y-98336333D01*
X88521295Y-98336333D01*
X88664152Y-98383952D01*
X89235580Y-98955380D01*
X89235580Y-98336333D01*
%TO.C,R7*%
X93997083Y-94635380D02*
X93663750Y-94159190D01*
X93425654Y-94635380D02*
X93425654Y-93635380D01*
X93806607Y-93635380D01*
X93901845Y-93683000D01*
X93949464Y-93730619D01*
X93997083Y-93825857D01*
X93997083Y-93968714D01*
X93949464Y-94063952D01*
X93901845Y-94111571D01*
X93806607Y-94159190D01*
X93425654Y-94159190D01*
X94330416Y-93635380D02*
X94997083Y-93635380D01*
X94568511Y-94635380D01*
%TO.C,R3*%
X140812380Y-66331666D02*
X140336190Y-66665000D01*
X140812380Y-66903095D02*
X139812380Y-66903095D01*
X139812380Y-66522142D01*
X139860000Y-66426904D01*
X139907619Y-66379285D01*
X140002857Y-66331666D01*
X140145714Y-66331666D01*
X140240952Y-66379285D01*
X140288571Y-66426904D01*
X140336190Y-66522142D01*
X140336190Y-66903095D01*
X139812380Y-65998333D02*
X139812380Y-65379285D01*
X140193333Y-65712619D01*
X140193333Y-65569761D01*
X140240952Y-65474523D01*
X140288571Y-65426904D01*
X140383809Y-65379285D01*
X140621904Y-65379285D01*
X140717142Y-65426904D01*
X140764761Y-65474523D01*
X140812380Y-65569761D01*
X140812380Y-65855476D01*
X140764761Y-65950714D01*
X140717142Y-65998333D01*
%TO.C,R5*%
X137072380Y-78721666D02*
X136596190Y-79055000D01*
X137072380Y-79293095D02*
X136072380Y-79293095D01*
X136072380Y-78912142D01*
X136120000Y-78816904D01*
X136167619Y-78769285D01*
X136262857Y-78721666D01*
X136405714Y-78721666D01*
X136500952Y-78769285D01*
X136548571Y-78816904D01*
X136596190Y-78912142D01*
X136596190Y-79293095D01*
X136072380Y-77816904D02*
X136072380Y-78293095D01*
X136548571Y-78340714D01*
X136500952Y-78293095D01*
X136453333Y-78197857D01*
X136453333Y-77959761D01*
X136500952Y-77864523D01*
X136548571Y-77816904D01*
X136643809Y-77769285D01*
X136881904Y-77769285D01*
X136977142Y-77816904D01*
X137024761Y-77864523D01*
X137072380Y-77959761D01*
X137072380Y-78197857D01*
X137024761Y-78293095D01*
X136977142Y-78340714D01*
%TO.C,J5*%
X178009880Y-75758333D02*
X178724166Y-75758333D01*
X178867023Y-75805952D01*
X178962261Y-75901190D01*
X179009880Y-76044047D01*
X179009880Y-76139285D01*
X178009880Y-74805952D02*
X178009880Y-75282142D01*
X178486071Y-75329761D01*
X178438452Y-75282142D01*
X178390833Y-75186904D01*
X178390833Y-74948809D01*
X178438452Y-74853571D01*
X178486071Y-74805952D01*
X178581309Y-74758333D01*
X178819404Y-74758333D01*
X178914642Y-74805952D01*
X178962261Y-74853571D01*
X179009880Y-74948809D01*
X179009880Y-75186904D01*
X178962261Y-75282142D01*
X178914642Y-75329761D01*
%TO.C,R11*%
X164457142Y-75932380D02*
X164123809Y-75456190D01*
X163885714Y-75932380D02*
X163885714Y-74932380D01*
X164266666Y-74932380D01*
X164361904Y-74980000D01*
X164409523Y-75027619D01*
X164457142Y-75122857D01*
X164457142Y-75265714D01*
X164409523Y-75360952D01*
X164361904Y-75408571D01*
X164266666Y-75456190D01*
X163885714Y-75456190D01*
X165409523Y-75932380D02*
X164838095Y-75932380D01*
X165123809Y-75932380D02*
X165123809Y-74932380D01*
X165028571Y-75075238D01*
X164933333Y-75170476D01*
X164838095Y-75218095D01*
X166361904Y-75932380D02*
X165790476Y-75932380D01*
X166076190Y-75932380D02*
X166076190Y-74932380D01*
X165980952Y-75075238D01*
X165885714Y-75170476D01*
X165790476Y-75218095D01*
%TO.C,J3*%
X178009880Y-60838333D02*
X178724166Y-60838333D01*
X178867023Y-60885952D01*
X178962261Y-60981190D01*
X179009880Y-61124047D01*
X179009880Y-61219285D01*
X178009880Y-60457380D02*
X178009880Y-59838333D01*
X178390833Y-60171666D01*
X178390833Y-60028809D01*
X178438452Y-59933571D01*
X178486071Y-59885952D01*
X178581309Y-59838333D01*
X178819404Y-59838333D01*
X178914642Y-59885952D01*
X178962261Y-59933571D01*
X179009880Y-60028809D01*
X179009880Y-60314523D01*
X178962261Y-60409761D01*
X178914642Y-60457380D01*
%TO.C,C2*%
X100093333Y-104052142D02*
X100045714Y-104099761D01*
X99902857Y-104147380D01*
X99807619Y-104147380D01*
X99664761Y-104099761D01*
X99569523Y-104004523D01*
X99521904Y-103909285D01*
X99474285Y-103718809D01*
X99474285Y-103575952D01*
X99521904Y-103385476D01*
X99569523Y-103290238D01*
X99664761Y-103195000D01*
X99807619Y-103147380D01*
X99902857Y-103147380D01*
X100045714Y-103195000D01*
X100093333Y-103242619D01*
X100474285Y-103242619D02*
X100521904Y-103195000D01*
X100617142Y-103147380D01*
X100855238Y-103147380D01*
X100950476Y-103195000D01*
X100998095Y-103242619D01*
X101045714Y-103337857D01*
X101045714Y-103433095D01*
X100998095Y-103575952D01*
X100426666Y-104147380D01*
X101045714Y-104147380D01*
%TO.C,J1*%
X88204880Y-79138333D02*
X88919166Y-79138333D01*
X89062023Y-79185952D01*
X89157261Y-79281190D01*
X89204880Y-79424047D01*
X89204880Y-79519285D01*
X89204880Y-78138333D02*
X89204880Y-78709761D01*
X89204880Y-78424047D02*
X88204880Y-78424047D01*
X88347738Y-78519285D01*
X88442976Y-78614523D01*
X88490595Y-78709761D01*
%TO.C,R4*%
X140812380Y-81571666D02*
X140336190Y-81905000D01*
X140812380Y-82143095D02*
X139812380Y-82143095D01*
X139812380Y-81762142D01*
X139860000Y-81666904D01*
X139907619Y-81619285D01*
X140002857Y-81571666D01*
X140145714Y-81571666D01*
X140240952Y-81619285D01*
X140288571Y-81666904D01*
X140336190Y-81762142D01*
X140336190Y-82143095D01*
X140145714Y-80714523D02*
X140812380Y-80714523D01*
X139764761Y-80952619D02*
X140479047Y-81190714D01*
X140479047Y-80571666D01*
%TO.C,TP1*%
X105602380Y-82961904D02*
X105602380Y-82390476D01*
X106602380Y-82676190D02*
X105602380Y-82676190D01*
X106602380Y-82057142D02*
X105602380Y-82057142D01*
X105602380Y-81676190D01*
X105650000Y-81580952D01*
X105697619Y-81533333D01*
X105792857Y-81485714D01*
X105935714Y-81485714D01*
X106030952Y-81533333D01*
X106078571Y-81580952D01*
X106126190Y-81676190D01*
X106126190Y-82057142D01*
X106602380Y-80533333D02*
X106602380Y-81104761D01*
X106602380Y-80819047D02*
X105602380Y-80819047D01*
X105745238Y-80914285D01*
X105840476Y-81009523D01*
X105888095Y-81104761D01*
%TO.C,R6*%
X136962380Y-69681666D02*
X136486190Y-70015000D01*
X136962380Y-70253095D02*
X135962380Y-70253095D01*
X135962380Y-69872142D01*
X136010000Y-69776904D01*
X136057619Y-69729285D01*
X136152857Y-69681666D01*
X136295714Y-69681666D01*
X136390952Y-69729285D01*
X136438571Y-69776904D01*
X136486190Y-69872142D01*
X136486190Y-70253095D01*
X135962380Y-68824523D02*
X135962380Y-69015000D01*
X136010000Y-69110238D01*
X136057619Y-69157857D01*
X136200476Y-69253095D01*
X136390952Y-69300714D01*
X136771904Y-69300714D01*
X136867142Y-69253095D01*
X136914761Y-69205476D01*
X136962380Y-69110238D01*
X136962380Y-68919761D01*
X136914761Y-68824523D01*
X136867142Y-68776904D01*
X136771904Y-68729285D01*
X136533809Y-68729285D01*
X136438571Y-68776904D01*
X136390952Y-68824523D01*
X136343333Y-68919761D01*
X136343333Y-69110238D01*
X136390952Y-69205476D01*
X136438571Y-69253095D01*
X136533809Y-69300714D01*
%TO.C,R12*%
X162984414Y-84590089D02*
X162883399Y-85162508D01*
X163388475Y-84994150D02*
X162681368Y-85701256D01*
X162411994Y-85431882D01*
X162378322Y-85330867D01*
X162378322Y-85263524D01*
X162411994Y-85162508D01*
X162513009Y-85061493D01*
X162614025Y-85027821D01*
X162681368Y-85027821D01*
X162782383Y-85061493D01*
X163051757Y-85330867D01*
X162310979Y-83916653D02*
X162715040Y-84320714D01*
X162513009Y-84118684D02*
X161805902Y-84825791D01*
X161974261Y-84792119D01*
X162108948Y-84792119D01*
X162209964Y-84825791D01*
X161401841Y-84287043D02*
X161334498Y-84287043D01*
X161233483Y-84253371D01*
X161065124Y-84085012D01*
X161031452Y-83983997D01*
X161031452Y-83916653D01*
X161065124Y-83815638D01*
X161132467Y-83748295D01*
X161267154Y-83680951D01*
X162075276Y-83680951D01*
X161637544Y-83243218D01*
%TO.C,TP2*%
X103772380Y-87431904D02*
X103772380Y-86860476D01*
X104772380Y-87146190D02*
X103772380Y-87146190D01*
X104772380Y-86527142D02*
X103772380Y-86527142D01*
X103772380Y-86146190D01*
X103820000Y-86050952D01*
X103867619Y-86003333D01*
X103962857Y-85955714D01*
X104105714Y-85955714D01*
X104200952Y-86003333D01*
X104248571Y-86050952D01*
X104296190Y-86146190D01*
X104296190Y-86527142D01*
X103867619Y-85574761D02*
X103820000Y-85527142D01*
X103772380Y-85431904D01*
X103772380Y-85193809D01*
X103820000Y-85098571D01*
X103867619Y-85050952D01*
X103962857Y-85003333D01*
X104058095Y-85003333D01*
X104200952Y-85050952D01*
X104772380Y-85622380D01*
X104772380Y-85003333D01*
%TO.C,R9*%
X165550798Y-79649903D02*
X165449783Y-80222323D01*
X165954859Y-80053964D02*
X165247753Y-80761071D01*
X164978378Y-80491697D01*
X164944707Y-80390682D01*
X164944707Y-80323338D01*
X164978378Y-80222323D01*
X165079394Y-80121308D01*
X165180409Y-80087636D01*
X165247753Y-80087636D01*
X165348768Y-80121308D01*
X165618142Y-80390682D01*
X165214081Y-79313185D02*
X165079394Y-79178498D01*
X164978378Y-79144827D01*
X164911035Y-79144827D01*
X164742676Y-79178498D01*
X164574317Y-79279514D01*
X164304943Y-79548888D01*
X164271272Y-79649903D01*
X164271272Y-79717246D01*
X164304943Y-79818262D01*
X164439630Y-79952949D01*
X164540646Y-79986621D01*
X164607989Y-79986621D01*
X164709004Y-79952949D01*
X164877363Y-79784590D01*
X164911035Y-79683575D01*
X164911035Y-79616231D01*
X164877363Y-79515216D01*
X164742676Y-79380529D01*
X164641661Y-79346857D01*
X164574317Y-79346857D01*
X164473302Y-79380529D01*
%TO.C,J4*%
X178059880Y-90678333D02*
X178774166Y-90678333D01*
X178917023Y-90725952D01*
X179012261Y-90821190D01*
X179059880Y-90964047D01*
X179059880Y-91059285D01*
X178393214Y-89773571D02*
X179059880Y-89773571D01*
X178012261Y-90011666D02*
X178726547Y-90249761D01*
X178726547Y-89630714D01*
%TO.C,R1*%
X93013333Y-74607380D02*
X92680000Y-74131190D01*
X92441904Y-74607380D02*
X92441904Y-73607380D01*
X92822857Y-73607380D01*
X92918095Y-73655000D01*
X92965714Y-73702619D01*
X93013333Y-73797857D01*
X93013333Y-73940714D01*
X92965714Y-74035952D01*
X92918095Y-74083571D01*
X92822857Y-74131190D01*
X92441904Y-74131190D01*
X93965714Y-74607380D02*
X93394285Y-74607380D01*
X93680000Y-74607380D02*
X93680000Y-73607380D01*
X93584761Y-73750238D01*
X93489523Y-73845476D01*
X93394285Y-73893095D01*
%TO.C,R2*%
X90982380Y-80041666D02*
X90506190Y-80375000D01*
X90982380Y-80613095D02*
X89982380Y-80613095D01*
X89982380Y-80232142D01*
X90030000Y-80136904D01*
X90077619Y-80089285D01*
X90172857Y-80041666D01*
X90315714Y-80041666D01*
X90410952Y-80089285D01*
X90458571Y-80136904D01*
X90506190Y-80232142D01*
X90506190Y-80613095D01*
X90077619Y-79660714D02*
X90030000Y-79613095D01*
X89982380Y-79517857D01*
X89982380Y-79279761D01*
X90030000Y-79184523D01*
X90077619Y-79136904D01*
X90172857Y-79089285D01*
X90268095Y-79089285D01*
X90410952Y-79136904D01*
X90982380Y-79708333D01*
X90982380Y-79089285D01*
%TO.C,C1*%
X101287142Y-71761666D02*
X101334761Y-71809285D01*
X101382380Y-71952142D01*
X101382380Y-72047380D01*
X101334761Y-72190238D01*
X101239523Y-72285476D01*
X101144285Y-72333095D01*
X100953809Y-72380714D01*
X100810952Y-72380714D01*
X100620476Y-72333095D01*
X100525238Y-72285476D01*
X100430000Y-72190238D01*
X100382380Y-72047380D01*
X100382380Y-71952142D01*
X100430000Y-71809285D01*
X100477619Y-71761666D01*
X101382380Y-70809285D02*
X101382380Y-71380714D01*
X101382380Y-71095000D02*
X100382380Y-71095000D01*
X100525238Y-71190238D01*
X100620476Y-71285476D01*
X100668095Y-71380714D01*
D11*
%TO.C,IC1*%
X151795238Y-74869523D02*
X151795238Y-73599523D01*
X153125714Y-74748571D02*
X153065238Y-74809047D01*
X152883809Y-74869523D01*
X152762857Y-74869523D01*
X152581428Y-74809047D01*
X152460476Y-74688095D01*
X152400000Y-74567142D01*
X152339523Y-74325238D01*
X152339523Y-74143809D01*
X152400000Y-73901904D01*
X152460476Y-73780952D01*
X152581428Y-73660000D01*
X152762857Y-73599523D01*
X152883809Y-73599523D01*
X153065238Y-73660000D01*
X153125714Y-73720476D01*
X154335238Y-74869523D02*
X153609523Y-74869523D01*
X153972380Y-74869523D02*
X153972380Y-73599523D01*
X153851428Y-73780952D01*
X153730476Y-73901904D01*
X153609523Y-73962380D01*
D12*
%TO.C,J6*%
X178687500Y-108125000D02*
X178687500Y-108625000D01*
X179187500Y-108375000D02*
X178687500Y-108125000D01*
X178687500Y-108625000D02*
X179187500Y-108375000D01*
%TO.C,R8*%
X91228750Y-91525936D02*
X91228750Y-91980064D01*
X92698750Y-91525936D02*
X92698750Y-91980064D01*
%TO.C,C3*%
X162691252Y-66790000D02*
X162168748Y-66790000D01*
X162691252Y-65320000D02*
X162168748Y-65320000D01*
%TO.C,U3*%
X102180000Y-94395000D02*
X99730000Y-94395000D01*
X100380000Y-97615000D02*
X102180000Y-97615000D01*
%TO.C,U2*%
X110295000Y-93415000D02*
X110295000Y-93015000D01*
X131295000Y-98515000D02*
X131295000Y-98115000D01*
X110295000Y-78115000D02*
X110295000Y-77715000D01*
X110295000Y-90815000D02*
X110295000Y-90415000D01*
X131295000Y-83215000D02*
X131295000Y-82815000D01*
X131295000Y-90815000D02*
X131295000Y-90415000D01*
X131295000Y-80715000D02*
X131295000Y-80315000D01*
X110295000Y-95915000D02*
X110295000Y-95515000D01*
X110295000Y-73015000D02*
X110295000Y-72615000D01*
X131295000Y-110948000D02*
X128288000Y-110948000D01*
X110295000Y-108615000D02*
X110295000Y-108215000D01*
X110295000Y-101015000D02*
X110295000Y-100615000D01*
X110295000Y-111215000D02*
X110295000Y-110815000D01*
X131295000Y-93415000D02*
X131295000Y-93015000D01*
X110295000Y-70515000D02*
X110295000Y-70115000D01*
X131295000Y-108615000D02*
X131295000Y-108215000D01*
X110295000Y-98515000D02*
X110295000Y-98115000D01*
X131295000Y-113615000D02*
X110295000Y-113615000D01*
X131295000Y-65415000D02*
X131295000Y-65015000D01*
X110295000Y-62615000D02*
X117095000Y-62615000D01*
X110295000Y-83215000D02*
X110295000Y-82815000D01*
X131295000Y-101015000D02*
X131295000Y-100615000D01*
X131295000Y-103515000D02*
X131295000Y-103115000D01*
X131295000Y-111215000D02*
X131295000Y-110815000D01*
X110295000Y-68015000D02*
X110295000Y-67615000D01*
X110295000Y-75615000D02*
X110295000Y-75215000D01*
X131295000Y-95915000D02*
X131295000Y-95515000D01*
X131295000Y-70515000D02*
X131295000Y-70115000D01*
X110295000Y-106115000D02*
X110295000Y-105715000D01*
X131295000Y-73015000D02*
X131295000Y-72615000D01*
X110295000Y-85815000D02*
X110295000Y-85415000D01*
X131295000Y-88315000D02*
X131295000Y-87915000D01*
X124495000Y-62615000D02*
X131295000Y-62615000D01*
X110295000Y-88315000D02*
X110295000Y-87915000D01*
X110295000Y-113615000D02*
X110295000Y-113315000D01*
X119695000Y-62615000D02*
X119295000Y-62615000D01*
X110295000Y-80715000D02*
X110295000Y-80315000D01*
X131295000Y-78115000D02*
X131295000Y-77715000D01*
X110295000Y-65415000D02*
X110295000Y-65015000D01*
X131295000Y-75615000D02*
X131295000Y-75215000D01*
X122295000Y-62615000D02*
X121895000Y-62615000D01*
X128288000Y-110948000D02*
X128288000Y-113615000D01*
X131295000Y-68015000D02*
X131295000Y-67615000D01*
X131295000Y-106115000D02*
X131295000Y-105715000D01*
X131295000Y-85815000D02*
X131295000Y-85415000D01*
X131295000Y-113615000D02*
X131295000Y-113315000D01*
X110295000Y-103515000D02*
X110295000Y-103115000D01*
%TO.C,R10*%
X171607579Y-67314355D02*
X170579355Y-68342579D01*
X170320645Y-66027421D02*
X169292421Y-67055645D01*
%TO.C,U1*%
X102170000Y-74115000D02*
X99720000Y-74115000D01*
X100370000Y-77335000D02*
X102170000Y-77335000D01*
%TO.C,J2*%
X88533200Y-95753000D02*
X88033200Y-96003000D01*
X88033200Y-96003000D02*
X88533200Y-96253000D01*
X88533200Y-96253000D02*
X88533200Y-95753000D01*
%TO.C,R7*%
X92726686Y-95268000D02*
X93180814Y-95268000D01*
X92726686Y-96738000D02*
X93180814Y-96738000D01*
%TO.C,R3*%
X137695000Y-64827936D02*
X137695000Y-65282064D01*
X139165000Y-64827936D02*
X139165000Y-65282064D01*
%TO.C,R5*%
X139165000Y-77782064D02*
X139165000Y-77327936D01*
X137695000Y-77782064D02*
X137695000Y-77327936D01*
%TO.C,J5*%
X179307500Y-78425000D02*
X178807500Y-78175000D01*
X178807500Y-78175000D02*
X178807500Y-78675000D01*
X178807500Y-78675000D02*
X179307500Y-78425000D01*
%TO.C,R11*%
X165827064Y-72750000D02*
X164372936Y-72750000D01*
X165827064Y-74570000D02*
X164372936Y-74570000D01*
%TO.C,J3*%
X179307500Y-63505000D02*
X178807500Y-63255000D01*
X178807500Y-63255000D02*
X178807500Y-63755000D01*
X178807500Y-63755000D02*
X179307500Y-63505000D01*
%TO.C,C2*%
X100521252Y-102750000D02*
X99998748Y-102750000D01*
X100521252Y-101280000D02*
X99998748Y-101280000D01*
%TO.C,J1*%
X88002500Y-75805000D02*
X88502500Y-76055000D01*
X88502500Y-76055000D02*
X88502500Y-75555000D01*
X88502500Y-75555000D02*
X88002500Y-75805000D01*
%TO.C,R4*%
X137695000Y-82957936D02*
X137695000Y-83412064D01*
X139165000Y-82957936D02*
X139165000Y-83412064D01*
%TO.C,TP1*%
X105070000Y-81330000D02*
X103670000Y-81330000D01*
X103670000Y-81330000D02*
X103670000Y-79930000D01*
X103670000Y-79930000D02*
X105070000Y-79930000D01*
X105070000Y-79930000D02*
X105070000Y-81330000D01*
%TO.C,R6*%
X139165000Y-70782064D02*
X139165000Y-70327936D01*
X137695000Y-70782064D02*
X137695000Y-70327936D01*
%TO.C,R12*%
X162780645Y-83682579D02*
X161752421Y-82654355D01*
X164067579Y-82395645D02*
X163039355Y-81367421D01*
%TO.C,G\u002A\u002A\u002A*%
G36*
X149056682Y-99636844D02*
G01*
X149179156Y-99637849D01*
X149281444Y-99639556D01*
X149365514Y-99642082D01*
X149433333Y-99645540D01*
X149486868Y-99650046D01*
X149528088Y-99655715D01*
X149558958Y-99662661D01*
X149581448Y-99671000D01*
X149597523Y-99680846D01*
X149609152Y-99692313D01*
X149618302Y-99705518D01*
X149626940Y-99720574D01*
X149632006Y-99729383D01*
X149652378Y-99784821D01*
X149656610Y-99857377D01*
X149644579Y-99950647D01*
X149621028Y-100050554D01*
X149584254Y-100186512D01*
X148250206Y-100194509D01*
X148011374Y-100195980D01*
X147802449Y-100197376D01*
X147621348Y-100198753D01*
X147465990Y-100200162D01*
X147334292Y-100201659D01*
X147224171Y-100203296D01*
X147133545Y-100205127D01*
X147060332Y-100207206D01*
X147002450Y-100209587D01*
X146957815Y-100212323D01*
X146924345Y-100215467D01*
X146899958Y-100219074D01*
X146882572Y-100223198D01*
X146870104Y-100227890D01*
X146865587Y-100230178D01*
X146794307Y-100286666D01*
X146742324Y-100364875D01*
X146735078Y-100381795D01*
X146725359Y-100411569D01*
X146708566Y-100468858D01*
X146685410Y-100550964D01*
X146656603Y-100655186D01*
X146622854Y-100778826D01*
X146584876Y-100919184D01*
X146543379Y-101073562D01*
X146499074Y-101239258D01*
X146452672Y-101413576D01*
X146404883Y-101593813D01*
X146356420Y-101777273D01*
X146307993Y-101961255D01*
X146260313Y-102143060D01*
X146214090Y-102319988D01*
X146170037Y-102489340D01*
X146128863Y-102648418D01*
X146091280Y-102794520D01*
X146057999Y-102924950D01*
X146029731Y-103037006D01*
X146007186Y-103127989D01*
X145991076Y-103195201D01*
X145982112Y-103235941D01*
X145980453Y-103246859D01*
X145986327Y-103296613D01*
X146009351Y-103333337D01*
X146029665Y-103352092D01*
X146078877Y-103393501D01*
X147397235Y-103393501D01*
X147642185Y-103393592D01*
X147856860Y-103393882D01*
X148042972Y-103394396D01*
X148202236Y-103395161D01*
X148336363Y-103396203D01*
X148447069Y-103397547D01*
X148536066Y-103399221D01*
X148605067Y-103401249D01*
X148655788Y-103403657D01*
X148689939Y-103406473D01*
X148709236Y-103409721D01*
X148715392Y-103413428D01*
X148715393Y-103413495D01*
X148710472Y-103444157D01*
X148697811Y-103496099D01*
X148680055Y-103560345D01*
X148659849Y-103627916D01*
X148639837Y-103689837D01*
X148622666Y-103737130D01*
X148614870Y-103754666D01*
X148559477Y-103829243D01*
X148479771Y-103892332D01*
X148427683Y-103920041D01*
X148414591Y-103925683D01*
X148400460Y-103930633D01*
X148383225Y-103934936D01*
X148360822Y-103938638D01*
X148331185Y-103941784D01*
X148292248Y-103944419D01*
X148241949Y-103946588D01*
X148178220Y-103948337D01*
X148098997Y-103949711D01*
X148002216Y-103950755D01*
X147885811Y-103951514D01*
X147747717Y-103952034D01*
X147585870Y-103952360D01*
X147398204Y-103952536D01*
X147182654Y-103952609D01*
X146940151Y-103952623D01*
X146694505Y-103952597D01*
X146478797Y-103952494D01*
X146290971Y-103952272D01*
X146128976Y-103951890D01*
X145990759Y-103951305D01*
X145874265Y-103950478D01*
X145777442Y-103949367D01*
X145698237Y-103947930D01*
X145634596Y-103946126D01*
X145584466Y-103943915D01*
X145545795Y-103941253D01*
X145516528Y-103938102D01*
X145494613Y-103934418D01*
X145477997Y-103930162D01*
X145464626Y-103925290D01*
X145459035Y-103922848D01*
X145385902Y-103874537D01*
X145337914Y-103806967D01*
X145314401Y-103719113D01*
X145312540Y-103698452D01*
X145312538Y-103681446D01*
X145314676Y-103658257D01*
X145319374Y-103627228D01*
X145327052Y-103586697D01*
X145338127Y-103535005D01*
X145353021Y-103470492D01*
X145372153Y-103391500D01*
X145395941Y-103296368D01*
X145424805Y-103183436D01*
X145459166Y-103051046D01*
X145499441Y-102897537D01*
X145546051Y-102721250D01*
X145599415Y-102520524D01*
X145659952Y-102293702D01*
X145728083Y-102039122D01*
X145794437Y-101791610D01*
X145857785Y-101555939D01*
X145919269Y-101328129D01*
X145978339Y-101110176D01*
X146034443Y-100904075D01*
X146087029Y-100711821D01*
X146135547Y-100535409D01*
X146179445Y-100376834D01*
X146218170Y-100238092D01*
X146251173Y-100121178D01*
X146277901Y-100028086D01*
X146297803Y-99960813D01*
X146310327Y-99921353D01*
X146313884Y-99912202D01*
X146364485Y-99838333D01*
X146435334Y-99766265D01*
X146515744Y-99705932D01*
X146564269Y-99679437D01*
X146644244Y-99642683D01*
X148072671Y-99638350D01*
X148325584Y-99637561D01*
X148548474Y-99636901D01*
X148743308Y-99636485D01*
X148912056Y-99636428D01*
X149056682Y-99636844D01*
G37*
G36*
X155027345Y-104663672D02*
G01*
X155076126Y-104582731D01*
X155141810Y-104509533D01*
X155221858Y-104448054D01*
X155313731Y-104402271D01*
X155414892Y-104376161D01*
X155442847Y-104373050D01*
X155539476Y-104373349D01*
X155616830Y-104393360D01*
X155682573Y-104435547D01*
X155705793Y-104457582D01*
X155736451Y-104492923D01*
X155753878Y-104527022D01*
X155762785Y-104572224D01*
X155766433Y-104616433D01*
X155767645Y-104685295D01*
X155759211Y-104738205D01*
X155738675Y-104790383D01*
X155738193Y-104791382D01*
X155676931Y-104886058D01*
X155595027Y-104965928D01*
X155498826Y-105027347D01*
X155394670Y-105066667D01*
X155288901Y-105080243D01*
X155241536Y-105076852D01*
X155149840Y-105053914D01*
X155079907Y-105012698D01*
X155052021Y-104985317D01*
X155007805Y-104913177D01*
X154990646Y-104832872D01*
X154992689Y-104809410D01*
X155164248Y-104809410D01*
X155185916Y-104868678D01*
X155230225Y-104913435D01*
X155257531Y-104927295D01*
X155304230Y-104941328D01*
X155347993Y-104941453D01*
X155400681Y-104929249D01*
X155457675Y-104900950D01*
X155516087Y-104853108D01*
X155565447Y-104795875D01*
X155594761Y-104741031D01*
X155606769Y-104664330D01*
X155591476Y-104598871D01*
X155551936Y-104549108D01*
X155491203Y-104519499D01*
X155438522Y-104513149D01*
X155356096Y-104524652D01*
X155285001Y-104561674D01*
X155238555Y-104603692D01*
X155190220Y-104671003D01*
X155165567Y-104741547D01*
X155164248Y-104809410D01*
X154992689Y-104809410D01*
X154998005Y-104748378D01*
X155027345Y-104663672D01*
G37*
G36*
X157505543Y-100798319D02*
G01*
X157475773Y-100907580D01*
X157445181Y-100990310D01*
X157410716Y-101051890D01*
X157369333Y-101097702D01*
X157317982Y-101133126D01*
X157314978Y-101134788D01*
X157299012Y-101141897D01*
X157277382Y-101147800D01*
X157246921Y-101152667D01*
X157204464Y-101156664D01*
X157146845Y-101159961D01*
X157070898Y-101162724D01*
X156973459Y-101165122D01*
X156851361Y-101167323D01*
X156701439Y-101169495D01*
X156647814Y-101170202D01*
X156030729Y-101178199D01*
X155972010Y-101223012D01*
X155930318Y-101260636D01*
X155897461Y-101300216D01*
X155890883Y-101311158D01*
X155881130Y-101337344D01*
X155864520Y-101390176D01*
X155842294Y-101465351D01*
X155815695Y-101558568D01*
X155785964Y-101665524D01*
X155754344Y-101781917D01*
X155746105Y-101812675D01*
X155711129Y-101944007D01*
X155683795Y-102048152D01*
X155663395Y-102128803D01*
X155649217Y-102189652D01*
X155640553Y-102234392D01*
X155636692Y-102266717D01*
X155636924Y-102290319D01*
X155640540Y-102308891D01*
X155646828Y-102326127D01*
X155647214Y-102327052D01*
X155671159Y-102368967D01*
X155699137Y-102398181D01*
X155702985Y-102400526D01*
X155729882Y-102405890D01*
X155788577Y-102410266D01*
X155878890Y-102413650D01*
X156000645Y-102416037D01*
X156153661Y-102417423D01*
X156312942Y-102417809D01*
X156468845Y-102417993D01*
X156595922Y-102418627D01*
X156697336Y-102419834D01*
X156776250Y-102421735D01*
X156835825Y-102424453D01*
X156879224Y-102428110D01*
X156909610Y-102432830D01*
X156930145Y-102438733D01*
X156937323Y-102441967D01*
X156980847Y-102472107D01*
X157006700Y-102511387D01*
X157015803Y-102564801D01*
X157009074Y-102637340D01*
X156989576Y-102725712D01*
X156961907Y-102833678D01*
X155216325Y-102833678D01*
X155145023Y-102797689D01*
X155075617Y-102746173D01*
X155026647Y-102675656D01*
X155003183Y-102594178D01*
X155001875Y-102570744D01*
X155005951Y-102542746D01*
X155017613Y-102487755D01*
X155035852Y-102409592D01*
X155059656Y-102312076D01*
X155088012Y-102199028D01*
X155119912Y-102074268D01*
X155154342Y-101941615D01*
X155190292Y-101804891D01*
X155226750Y-101667915D01*
X155262706Y-101534507D01*
X155297147Y-101408487D01*
X155329063Y-101293676D01*
X155357443Y-101193893D01*
X155381275Y-101112959D01*
X155399548Y-101054693D01*
X155411250Y-101022916D01*
X155412048Y-101021289D01*
X155457435Y-100956151D01*
X155522886Y-100890107D01*
X155598039Y-100832134D01*
X155672534Y-100791210D01*
X155681813Y-100787541D01*
X155702062Y-100780331D01*
X155722931Y-100774247D01*
X155747185Y-100769194D01*
X155777588Y-100765076D01*
X155816904Y-100761797D01*
X155867898Y-100759263D01*
X155933334Y-100757377D01*
X156015976Y-100756044D01*
X156118587Y-100755169D01*
X156243933Y-100754656D01*
X156394778Y-100754410D01*
X156573885Y-100754336D01*
X156643430Y-100754333D01*
X157516289Y-100754333D01*
X157505543Y-100798319D01*
G37*
G36*
X158267991Y-103391716D02*
G01*
X158350541Y-103415543D01*
X158405405Y-103451130D01*
X158448526Y-103489741D01*
X158385265Y-103544342D01*
X158322003Y-103598943D01*
X158277451Y-103567218D01*
X158203909Y-103531740D01*
X158126652Y-103527862D01*
X158051468Y-103552088D01*
X157977943Y-103603660D01*
X157921694Y-103674987D01*
X157889147Y-103757203D01*
X157885066Y-103781753D01*
X157883584Y-103832380D01*
X157896810Y-103870267D01*
X157920402Y-103902078D01*
X157953359Y-103935123D01*
X157987730Y-103949963D01*
X158037027Y-103953325D01*
X158106790Y-103944297D01*
X158176860Y-103921139D01*
X158182133Y-103918663D01*
X158253736Y-103884000D01*
X158289894Y-103929345D01*
X158326051Y-103974691D01*
X158286396Y-104005883D01*
X158202578Y-104054612D01*
X158104241Y-104084694D01*
X158001418Y-104094741D01*
X157904145Y-104083364D01*
X157853044Y-104065869D01*
X157785498Y-104021774D01*
X157742664Y-103960518D01*
X157722764Y-103879020D01*
X157720815Y-103836848D01*
X157730684Y-103738222D01*
X157763037Y-103650766D01*
X157821786Y-103563993D01*
X157823235Y-103562220D01*
X157895287Y-103493539D01*
X157982138Y-103440937D01*
X158077439Y-103405625D01*
X158174841Y-103388814D01*
X158267991Y-103391716D01*
G37*
G36*
X155917828Y-104587788D02*
G01*
X155935432Y-104521358D01*
X155935488Y-104521146D01*
X155969307Y-104393187D01*
X156185239Y-104389002D01*
X156274801Y-104387766D01*
X156338755Y-104388542D01*
X156383452Y-104391976D01*
X156415244Y-104398716D01*
X156440483Y-104409410D01*
X156452287Y-104416230D01*
X156493652Y-104458397D01*
X156512885Y-104515519D01*
X156511734Y-104581260D01*
X156491945Y-104649289D01*
X156455267Y-104713272D01*
X156403445Y-104766875D01*
X156346242Y-104800622D01*
X156324376Y-104809988D01*
X156311842Y-104820127D01*
X156309322Y-104836787D01*
X156317495Y-104865719D01*
X156337040Y-104912670D01*
X156367566Y-104981001D01*
X156408765Y-105072973D01*
X156222315Y-105072973D01*
X156177242Y-104961008D01*
X156153767Y-104904194D01*
X156136224Y-104870833D01*
X156118645Y-104854680D01*
X156095065Y-104849493D01*
X156070229Y-104849043D01*
X156027578Y-104853820D01*
X156003234Y-104865971D01*
X156001536Y-104869037D01*
X155993760Y-104894513D01*
X155980630Y-104939736D01*
X155968914Y-104981001D01*
X155943045Y-105072973D01*
X155788468Y-105072973D01*
X155845068Y-104861039D01*
X155869688Y-104768748D01*
X155885516Y-104709301D01*
X156046742Y-104709301D01*
X156061423Y-104717752D01*
X156098174Y-104720823D01*
X156125792Y-104721083D01*
X156186114Y-104717723D01*
X156241827Y-104709180D01*
X156263165Y-104703406D01*
X156315335Y-104672431D01*
X156341345Y-104623645D01*
X156345189Y-104586740D01*
X156335915Y-104550837D01*
X156305703Y-104527755D01*
X156250965Y-104515812D01*
X156188190Y-104513149D01*
X156093067Y-104513149D01*
X156074450Y-104589125D01*
X156061660Y-104640104D01*
X156050792Y-104681383D01*
X156047481Y-104693092D01*
X156046742Y-104709301D01*
X155885516Y-104709301D01*
X155894927Y-104673958D01*
X155917828Y-104587788D01*
G37*
G36*
X152162203Y-104647762D02*
G01*
X152163848Y-104644427D01*
X152221338Y-104556669D01*
X152295716Y-104484416D01*
X152382058Y-104428806D01*
X152475442Y-104390980D01*
X152570945Y-104372077D01*
X152663644Y-104373236D01*
X152748616Y-104395599D01*
X152820938Y-104440304D01*
X152859845Y-104483294D01*
X152891419Y-104553614D01*
X152899455Y-104636938D01*
X152885542Y-104726467D01*
X152851265Y-104815403D01*
X152798213Y-104896948D01*
X152752078Y-104944835D01*
X152660093Y-105009330D01*
X152556920Y-105054368D01*
X152451266Y-105077191D01*
X152351841Y-105075040D01*
X152344930Y-105073805D01*
X152255578Y-105042848D01*
X152187568Y-104990613D01*
X152142562Y-104921044D01*
X152122224Y-104838083D01*
X152126344Y-104774547D01*
X152292019Y-104774547D01*
X152303095Y-104846936D01*
X152337083Y-104900227D01*
X152389804Y-104932329D01*
X152457075Y-104941153D01*
X152534717Y-104924609D01*
X152565763Y-104911386D01*
X152645760Y-104857289D01*
X152699181Y-104785772D01*
X152725291Y-104697873D01*
X152726770Y-104683785D01*
X152728887Y-104631717D01*
X152721776Y-104597934D01*
X152701579Y-104569187D01*
X152689821Y-104556979D01*
X152633550Y-104520843D01*
X152568088Y-104510051D01*
X152498997Y-104521563D01*
X152431837Y-104552335D01*
X152372168Y-104599328D01*
X152325553Y-104659499D01*
X152297552Y-104729808D01*
X152292019Y-104774547D01*
X152126344Y-104774547D01*
X152128216Y-104745675D01*
X152162203Y-104647762D01*
G37*
G36*
X157602470Y-102154106D02*
G01*
X157635595Y-102024629D01*
X157671326Y-101888253D01*
X157708611Y-101748887D01*
X157746395Y-101610442D01*
X157783626Y-101476828D01*
X157819249Y-101351954D01*
X157852211Y-101239730D01*
X157881460Y-101144068D01*
X157905940Y-101068876D01*
X157924599Y-101018064D01*
X157933740Y-100998926D01*
X158001942Y-100914604D01*
X158091627Y-100838879D01*
X158157063Y-100798417D01*
X158172438Y-100790456D01*
X158188107Y-100783747D01*
X158206826Y-100778166D01*
X158231349Y-100773590D01*
X158264433Y-100769897D01*
X158308830Y-100766964D01*
X158367298Y-100764666D01*
X158442591Y-100762882D01*
X158537464Y-100761488D01*
X158654672Y-100760362D01*
X158796970Y-100759380D01*
X158967113Y-100758419D01*
X159064332Y-100757903D01*
X159904068Y-100753476D01*
X159976045Y-100789893D01*
X160042125Y-100840003D01*
X160091206Y-100910359D01*
X160117318Y-100991177D01*
X160120000Y-101025774D01*
X160115866Y-101053102D01*
X160104141Y-101107421D01*
X160085841Y-101184908D01*
X160061982Y-101281745D01*
X160033580Y-101394109D01*
X160001650Y-101518181D01*
X159967208Y-101650139D01*
X159931270Y-101786164D01*
X159894853Y-101922435D01*
X159858971Y-102055130D01*
X159824641Y-102180430D01*
X159792878Y-102294514D01*
X159764698Y-102393562D01*
X159741118Y-102473752D01*
X159723153Y-102531264D01*
X159711818Y-102562278D01*
X159711055Y-102563839D01*
X159667494Y-102626911D01*
X159604386Y-102692271D01*
X159531928Y-102750429D01*
X159471787Y-102786531D01*
X159392229Y-102825680D01*
X158552494Y-102828880D01*
X158347574Y-102829342D01*
X158167558Y-102829085D01*
X158013549Y-102828125D01*
X157886653Y-102826478D01*
X157787975Y-102824162D01*
X157718618Y-102821191D01*
X157679688Y-102817582D01*
X157672779Y-102815923D01*
X157598487Y-102769711D01*
X157545830Y-102701849D01*
X157517314Y-102616326D01*
X157512821Y-102561146D01*
X157517109Y-102524817D01*
X157529272Y-102462039D01*
X157548255Y-102376721D01*
X157571120Y-102280694D01*
X158136625Y-102280694D01*
X158150413Y-102327373D01*
X158184116Y-102371791D01*
X158231608Y-102419283D01*
X159090886Y-102409811D01*
X159149603Y-102364998D01*
X159191530Y-102326998D01*
X159224774Y-102286636D01*
X159231395Y-102275564D01*
X159244212Y-102243132D01*
X159262660Y-102186083D01*
X159285516Y-102109137D01*
X159311557Y-102017012D01*
X159339559Y-101914426D01*
X159368298Y-101806099D01*
X159396552Y-101696748D01*
X159423097Y-101591093D01*
X159446709Y-101493853D01*
X159466165Y-101409744D01*
X159480241Y-101343488D01*
X159487715Y-101299801D01*
X159488278Y-101284788D01*
X159470333Y-101247086D01*
X159440337Y-101208858D01*
X159401681Y-101170202D01*
X158984290Y-101170202D01*
X158850542Y-101170380D01*
X158744683Y-101171368D01*
X158662613Y-101173844D01*
X158600232Y-101178488D01*
X158553441Y-101185978D01*
X158518139Y-101196993D01*
X158490226Y-101212213D01*
X158465601Y-101232316D01*
X158440165Y-101257982D01*
X158437548Y-101260745D01*
X158404455Y-101302322D01*
X158380487Y-101343787D01*
X158378777Y-101348003D01*
X158367046Y-101383891D01*
X158349532Y-101443724D01*
X158327507Y-101522593D01*
X158302248Y-101615586D01*
X158275029Y-101717792D01*
X158247126Y-101824301D01*
X158219813Y-101930201D01*
X158194366Y-102030582D01*
X158172059Y-102120532D01*
X158154167Y-102195142D01*
X158141966Y-102249499D01*
X158136731Y-102278694D01*
X158136625Y-102280694D01*
X157571120Y-102280694D01*
X157573006Y-102272773D01*
X157602470Y-102154106D01*
G37*
G36*
X157298555Y-103396582D02*
G01*
X157407837Y-103394980D01*
X157490756Y-103398529D01*
X157552661Y-103408173D01*
X157598901Y-103424860D01*
X157634827Y-103449537D01*
X157643381Y-103457621D01*
X157679200Y-103511144D01*
X157687487Y-103574513D01*
X157668456Y-103650904D01*
X157658165Y-103675270D01*
X157618378Y-103736011D01*
X157561654Y-103790658D01*
X157500296Y-103827653D01*
X157492976Y-103830438D01*
X157480512Y-103837975D01*
X157477640Y-103852835D01*
X157485641Y-103881179D01*
X157505794Y-103929168D01*
X157520058Y-103960763D01*
X157574981Y-104081285D01*
X157388461Y-104081285D01*
X157343940Y-103976532D01*
X157299419Y-103871778D01*
X157234175Y-103876563D01*
X157168932Y-103881348D01*
X157143669Y-103977318D01*
X157118406Y-104073287D01*
X157043699Y-104078163D01*
X156994255Y-104078314D01*
X156971713Y-104069790D01*
X156969239Y-104062168D01*
X156973288Y-104040994D01*
X156984454Y-103993885D01*
X157001493Y-103925787D01*
X157023163Y-103841644D01*
X157048221Y-103746400D01*
X157054879Y-103721398D01*
X157056033Y-103717076D01*
X157214210Y-103717076D01*
X157227475Y-103724982D01*
X157261205Y-103728582D01*
X157317013Y-103729396D01*
X157383788Y-103727139D01*
X157428800Y-103718929D01*
X157462052Y-103702609D01*
X157470677Y-103696245D01*
X157504484Y-103655656D01*
X157512821Y-103609984D01*
X157509513Y-103576041D01*
X157495717Y-103554608D01*
X157465630Y-103542903D01*
X157413445Y-103538144D01*
X157361460Y-103537456D01*
X157260699Y-103537456D01*
X157243094Y-103607374D01*
X157230041Y-103656265D01*
X157218451Y-103694909D01*
X157215491Y-103703344D01*
X157214210Y-103717076D01*
X157056033Y-103717076D01*
X157140272Y-103401499D01*
X157298555Y-103396582D01*
G37*
G36*
X153083700Y-104444005D02*
G01*
X153100072Y-104382860D01*
X153332492Y-104388023D01*
X153423047Y-104390192D01*
X153487268Y-104392700D01*
X153530805Y-104396592D01*
X153559306Y-104402911D01*
X153578419Y-104412699D01*
X153593794Y-104426999D01*
X153603476Y-104438065D01*
X153634957Y-104497456D01*
X153641300Y-104567011D01*
X153624407Y-104639792D01*
X153586175Y-104708861D01*
X153528505Y-104767281D01*
X153509766Y-104780381D01*
X153469725Y-104806076D01*
X153442317Y-104823755D01*
X153435801Y-104828022D01*
X153438838Y-104843514D01*
X153452564Y-104880691D01*
X153474214Y-104932213D01*
X153479787Y-104944791D01*
X153503696Y-104999310D01*
X153521443Y-105041774D01*
X153529811Y-105064434D01*
X153530075Y-105065914D01*
X153515618Y-105069825D01*
X153478220Y-105070987D01*
X153439503Y-105069772D01*
X153348931Y-105064975D01*
X153304972Y-104961008D01*
X153281130Y-104906667D01*
X153262632Y-104875184D01*
X153242736Y-104859794D01*
X153214701Y-104853736D01*
X153196460Y-104852164D01*
X153154691Y-104850982D01*
X153133150Y-104861270D01*
X153120251Y-104891140D01*
X153115285Y-104909018D01*
X153101257Y-104964632D01*
X153089308Y-105017590D01*
X153088440Y-105021860D01*
X153080229Y-105052474D01*
X153065347Y-105067520D01*
X153034284Y-105072510D01*
X153000242Y-105072973D01*
X152955279Y-105070762D01*
X152927118Y-105065124D01*
X152922296Y-105060976D01*
X152925601Y-105044602D01*
X152935684Y-105003624D01*
X152952832Y-104936949D01*
X152977330Y-104843484D01*
X153009464Y-104722135D01*
X153015072Y-104701090D01*
X153178495Y-104701090D01*
X153192337Y-104714284D01*
X153228434Y-104720620D01*
X153277866Y-104720418D01*
X153331712Y-104713999D01*
X153381055Y-104701683D01*
X153401944Y-104693067D01*
X153448413Y-104658458D01*
X153473599Y-104619441D01*
X153481113Y-104583411D01*
X153467928Y-104557707D01*
X153451147Y-104542770D01*
X153420091Y-104524355D01*
X153379652Y-104516249D01*
X153318992Y-104516334D01*
X153316497Y-104516453D01*
X153220143Y-104521146D01*
X153199473Y-104601121D01*
X153187513Y-104650849D01*
X153179898Y-104689126D01*
X153178495Y-104701090D01*
X153015072Y-104701090D01*
X153049522Y-104571809D01*
X153083700Y-104444005D01*
G37*
G36*
X154063109Y-104369194D02*
G01*
X154131408Y-104369194D01*
X154178989Y-104373070D01*
X154202834Y-104386528D01*
X154208052Y-104397185D01*
X154213259Y-104421326D01*
X154222687Y-104471515D01*
X154235350Y-104542239D01*
X154250261Y-104627985D01*
X154266069Y-104721083D01*
X154282210Y-104816186D01*
X154297049Y-104901660D01*
X154309603Y-104971992D01*
X154318887Y-105021669D01*
X154323860Y-105044981D01*
X154324465Y-105061031D01*
X154309912Y-105069494D01*
X154273579Y-105072659D01*
X154242929Y-105072973D01*
X154192219Y-105072082D01*
X154165660Y-105066837D01*
X154155417Y-105053376D01*
X154153661Y-105028986D01*
X154151999Y-104977254D01*
X154143812Y-104943766D01*
X154123372Y-104924561D01*
X154084954Y-104915674D01*
X154022827Y-104913144D01*
X153986053Y-104913023D01*
X153837953Y-104913023D01*
X153783983Y-104992585D01*
X153752342Y-105036950D01*
X153727483Y-105060781D01*
X153698965Y-105070505D01*
X153656347Y-105072546D01*
X153654036Y-105072560D01*
X153609734Y-105070991D01*
X153582354Y-105066536D01*
X153578060Y-105063391D01*
X153586940Y-105048292D01*
X153611958Y-105010675D01*
X153650682Y-104954069D01*
X153700679Y-104882002D01*
X153759516Y-104798005D01*
X153768653Y-104785063D01*
X153929743Y-104785063D01*
X154026894Y-104785063D01*
X154080464Y-104783965D01*
X154108535Y-104779318D01*
X154117564Y-104769090D01*
X154115881Y-104757072D01*
X154108782Y-104724765D01*
X154100373Y-104675825D01*
X154096992Y-104653105D01*
X154088844Y-104608988D01*
X154080112Y-104581747D01*
X154076087Y-104577462D01*
X154063110Y-104590040D01*
X154037904Y-104623065D01*
X154005402Y-104669988D01*
X153997825Y-104681429D01*
X153929743Y-104785063D01*
X153768653Y-104785063D01*
X153820585Y-104711501D01*
X154063109Y-104369194D01*
G37*
G36*
X155401773Y-103398680D02*
G01*
X155463916Y-103411043D01*
X155519245Y-103428363D01*
X155559706Y-103448063D01*
X155577246Y-103467568D01*
X155577431Y-103469557D01*
X155566853Y-103487904D01*
X155540057Y-103518764D01*
X155523586Y-103535384D01*
X155469742Y-103587571D01*
X155415620Y-103554576D01*
X155358629Y-103530528D01*
X155300359Y-103523143D01*
X155248396Y-103531120D01*
X155210327Y-103553161D01*
X155193739Y-103587965D01*
X155193552Y-103592623D01*
X155199558Y-103613533D01*
X155220921Y-103632529D01*
X155262657Y-103652595D01*
X155329783Y-103676712D01*
X155341513Y-103680589D01*
X155417081Y-103710654D01*
X155465223Y-103744328D01*
X155490492Y-103786196D01*
X155497456Y-103837716D01*
X155482900Y-103917173D01*
X155442196Y-103984890D01*
X155379788Y-104038481D01*
X155300120Y-104075555D01*
X155207636Y-104093726D01*
X155106782Y-104090605D01*
X155048823Y-104078806D01*
X154995149Y-104057268D01*
X154945939Y-104026856D01*
X154899811Y-103990075D01*
X154954710Y-103940179D01*
X154998584Y-103904351D01*
X155029162Y-103891730D01*
X155053275Y-103900654D01*
X155065497Y-103913223D01*
X155104739Y-103941474D01*
X155158471Y-103956818D01*
X155217361Y-103959561D01*
X155272078Y-103950013D01*
X155313291Y-103928481D01*
X155329777Y-103904495D01*
X155334569Y-103879810D01*
X155327562Y-103860594D01*
X155303942Y-103843211D01*
X155258896Y-103824024D01*
X155193061Y-103801210D01*
X155111136Y-103769264D01*
X155057918Y-103735623D01*
X155030206Y-103696325D01*
X155024795Y-103647405D01*
X155033110Y-103603262D01*
X155070984Y-103517071D01*
X155131538Y-103452934D01*
X155213465Y-103411742D01*
X155315457Y-103394383D01*
X155340868Y-103393853D01*
X155401773Y-103398680D01*
G37*
G36*
X156817040Y-104513149D02*
G01*
X156837778Y-104571352D01*
X156856160Y-104615706D01*
X156869156Y-104639149D01*
X156871953Y-104641109D01*
X156886866Y-104629731D01*
X156917539Y-104598975D01*
X156959099Y-104553908D01*
X156994600Y-104513626D01*
X157104950Y-104386144D01*
X157198469Y-104385667D01*
X157291989Y-104385189D01*
X157099969Y-104589271D01*
X156907949Y-104793352D01*
X156871280Y-104933162D01*
X156834611Y-105072973D01*
X156755982Y-105072973D01*
X156709491Y-105071830D01*
X156687803Y-105065912D01*
X156683748Y-105051487D01*
X156686850Y-105036984D01*
X156695678Y-105002963D01*
X156709234Y-104950100D01*
X156722757Y-104897028D01*
X156749166Y-104793061D01*
X156669002Y-104589125D01*
X156588839Y-104385189D01*
X156774426Y-104385189D01*
X156817040Y-104513149D01*
G37*
G36*
X154944274Y-103529459D02*
G01*
X154557402Y-103538411D01*
X154541283Y-103601914D01*
X154525165Y-103665416D01*
X154691411Y-103665416D01*
X154759963Y-103666490D01*
X154814754Y-103669393D01*
X154849149Y-103673645D01*
X154857568Y-103677412D01*
X154853562Y-103699364D01*
X154843749Y-103738667D01*
X154840821Y-103749389D01*
X154824164Y-103809371D01*
X154657912Y-103809371D01*
X154588354Y-103810466D01*
X154531566Y-103813425D01*
X154494593Y-103817757D01*
X154484172Y-103821489D01*
X154476551Y-103843976D01*
X154467283Y-103884045D01*
X154465453Y-103893466D01*
X154454223Y-103953325D01*
X154837218Y-103953325D01*
X154803064Y-104081285D01*
X154534454Y-104081285D01*
X154430835Y-104080369D01*
X154350109Y-104077728D01*
X154294963Y-104073519D01*
X154268086Y-104067902D01*
X154265844Y-104065454D01*
X154269847Y-104045425D01*
X154280931Y-103999993D01*
X154297704Y-103934603D01*
X154318777Y-103854699D01*
X154336291Y-103789541D01*
X154361249Y-103697341D01*
X154384644Y-103610805D01*
X154404599Y-103536882D01*
X154419240Y-103482520D01*
X154424880Y-103461480D01*
X154443021Y-103393501D01*
X154983586Y-103393501D01*
X154944274Y-103529459D01*
G37*
G36*
X151010869Y-104368584D02*
G01*
X151082846Y-104372888D01*
X151154824Y-104377192D01*
X151205059Y-104662957D01*
X151221970Y-104759458D01*
X151237615Y-104849308D01*
X151250872Y-104926015D01*
X151260618Y-104983085D01*
X151265230Y-105010847D01*
X151275164Y-105072973D01*
X151195305Y-105072973D01*
X151147186Y-105071341D01*
X151121908Y-105063697D01*
X151110379Y-105045916D01*
X151107143Y-105032985D01*
X151096849Y-104983405D01*
X151090539Y-104953010D01*
X151085344Y-104934376D01*
X151074911Y-104922671D01*
X151052867Y-104916284D01*
X151012841Y-104913607D01*
X150948460Y-104913028D01*
X150932257Y-104913023D01*
X150782277Y-104913023D01*
X150730957Y-104992998D01*
X150700987Y-105037595D01*
X150677315Y-105061480D01*
X150649356Y-105071117D01*
X150606528Y-105072967D01*
X150599997Y-105072973D01*
X150555714Y-105070659D01*
X150529290Y-105064737D01*
X150525688Y-105059985D01*
X150536020Y-105043910D01*
X150562361Y-105005350D01*
X150602204Y-104947907D01*
X150653042Y-104875181D01*
X150712366Y-104790774D01*
X150724658Y-104773361D01*
X150899318Y-104773361D01*
X150917270Y-104782630D01*
X150955844Y-104784991D01*
X150976862Y-104785063D01*
X151066239Y-104785063D01*
X151056169Y-104709087D01*
X151046061Y-104641322D01*
X151035618Y-104603502D01*
X151021517Y-104593725D01*
X151000432Y-104610085D01*
X150969038Y-104650681D01*
X150964692Y-104656712D01*
X150923478Y-104715141D01*
X150901537Y-104752445D01*
X150899318Y-104773361D01*
X150724658Y-104773361D01*
X150770944Y-104707791D01*
X151010869Y-104368584D01*
G37*
G36*
X152753788Y-100754518D02*
G01*
X152829135Y-100755447D01*
X152882613Y-100757684D01*
X152919284Y-100761790D01*
X152944207Y-100768329D01*
X152962443Y-100777863D01*
X152978775Y-100790715D01*
X152989253Y-100801415D01*
X152999402Y-100816619D01*
X153009983Y-100839101D01*
X153021760Y-100871636D01*
X153035492Y-100916999D01*
X153051944Y-100977962D01*
X153071877Y-101057302D01*
X153096052Y-101157793D01*
X153125232Y-101282209D01*
X153160178Y-101433324D01*
X153185367Y-101542909D01*
X153219052Y-101689220D01*
X153250679Y-101825725D01*
X153279512Y-101949310D01*
X153304816Y-102056859D01*
X153325853Y-102145257D01*
X153341888Y-102211390D01*
X153352184Y-102252143D01*
X153355895Y-102264521D01*
X153366468Y-102253266D01*
X153394651Y-102218804D01*
X153438687Y-102163390D01*
X153496820Y-102089277D01*
X153567294Y-101998720D01*
X153648352Y-101893975D01*
X153738238Y-101777296D01*
X153835195Y-101650937D01*
X153905957Y-101558425D01*
X154008486Y-101424729D01*
X154106653Y-101297718D01*
X154198497Y-101179860D01*
X154282058Y-101073626D01*
X154355377Y-100981485D01*
X154416492Y-100905905D01*
X154463446Y-100849355D01*
X154494276Y-100814307D01*
X154504469Y-100804430D01*
X154524689Y-100789592D01*
X154544578Y-100778636D01*
X154569253Y-100770872D01*
X154603834Y-100765610D01*
X154653440Y-100762161D01*
X154723188Y-100759834D01*
X154818198Y-100757939D01*
X154854028Y-100757325D01*
X154947580Y-100756446D01*
X155028014Y-100757056D01*
X155090587Y-100759010D01*
X155130558Y-100762161D01*
X155143236Y-100766256D01*
X155132832Y-100780816D01*
X155104388Y-100818810D01*
X155059369Y-100878319D01*
X154999243Y-100957423D01*
X154925474Y-101054200D01*
X154839528Y-101166731D01*
X154742872Y-101293095D01*
X154636971Y-101431373D01*
X154523291Y-101579643D01*
X154403299Y-101735986D01*
X154348806Y-101806935D01*
X153560043Y-102833678D01*
X152849087Y-102833678D01*
X152636860Y-101917966D01*
X152597383Y-101747657D01*
X152559293Y-101583373D01*
X152523340Y-101428348D01*
X152490274Y-101285818D01*
X152460847Y-101159017D01*
X152435809Y-101051179D01*
X152415910Y-100965540D01*
X152401901Y-100905333D01*
X152395589Y-100878294D01*
X152366546Y-100754333D01*
X152651512Y-100754333D01*
X152753788Y-100754518D01*
G37*
G36*
X156636743Y-103391898D02*
G01*
X156710896Y-103396698D01*
X156785050Y-103401499D01*
X156835918Y-103697406D01*
X156852560Y-103793865D01*
X156867884Y-103882039D01*
X156880860Y-103956042D01*
X156890455Y-104009990D01*
X156895499Y-104037299D01*
X156899064Y-104062480D01*
X156892130Y-104075564D01*
X156867597Y-104080513D01*
X156818364Y-104081285D01*
X156816640Y-104081285D01*
X156766488Y-104080435D01*
X156740434Y-104075082D01*
X156730591Y-104061022D01*
X156729068Y-104034608D01*
X156727475Y-103991390D01*
X156718918Y-103963328D01*
X156697728Y-103947158D01*
X156658239Y-103939614D01*
X156594781Y-103937433D01*
X156560178Y-103937330D01*
X156410705Y-103937330D01*
X156361184Y-104009308D01*
X156330658Y-104050932D01*
X156305296Y-104072328D01*
X156273007Y-104080206D01*
X156231512Y-104081285D01*
X156183473Y-104079216D01*
X156162868Y-104072156D01*
X156163671Y-104061291D01*
X156176021Y-104043157D01*
X156204235Y-104002740D01*
X156245646Y-103943829D01*
X156297585Y-103870215D01*
X156357384Y-103785688D01*
X156358636Y-103783922D01*
X156521133Y-103783922D01*
X156535599Y-103789110D01*
X156572898Y-103792544D01*
X156608706Y-103793376D01*
X156696278Y-103793376D01*
X156686739Y-103741392D01*
X156676449Y-103686096D01*
X156666850Y-103635449D01*
X156656499Y-103581490D01*
X156588816Y-103677979D01*
X156555991Y-103725969D01*
X156531939Y-103763408D01*
X156521292Y-103783049D01*
X156521133Y-103783922D01*
X156358636Y-103783922D01*
X156406362Y-103716598D01*
X156636743Y-103391898D01*
G37*
G36*
X150444766Y-103669577D02*
G01*
X150450540Y-103661417D01*
X150640118Y-103393501D01*
X150789245Y-103393501D01*
X150841154Y-103701405D01*
X150857764Y-103799139D01*
X150873112Y-103887978D01*
X150886213Y-103962346D01*
X150896086Y-104016667D01*
X150901748Y-104045366D01*
X150901944Y-104046200D01*
X150905081Y-104067325D01*
X150896559Y-104077664D01*
X150869326Y-104080146D01*
X150824889Y-104078190D01*
X150738955Y-104073287D01*
X150730957Y-104009308D01*
X150722960Y-103945328D01*
X150570109Y-103940787D01*
X150417259Y-103936247D01*
X150365180Y-104008766D01*
X150333402Y-104050400D01*
X150307410Y-104071992D01*
X150275217Y-104080098D01*
X150232619Y-104081285D01*
X150152138Y-104081285D01*
X150206550Y-104005309D01*
X150232763Y-103968549D01*
X150273567Y-103911133D01*
X150325087Y-103838523D01*
X150365587Y-103781379D01*
X150525688Y-103781379D01*
X150537107Y-103787864D01*
X150572159Y-103792220D01*
X150609851Y-103793376D01*
X150699345Y-103793376D01*
X150688588Y-103725397D01*
X150677018Y-103655626D01*
X150666881Y-103615535D01*
X150654566Y-103603217D01*
X150636461Y-103616762D01*
X150608954Y-103654261D01*
X150594444Y-103675638D01*
X150562265Y-103723746D01*
X150537710Y-103761476D01*
X150525860Y-103781012D01*
X150525688Y-103781379D01*
X150365587Y-103781379D01*
X150383445Y-103756183D01*
X150444766Y-103669577D01*
G37*
G36*
X150256921Y-104384831D02*
G01*
X150270068Y-104390294D01*
X150275756Y-104404789D01*
X150273946Y-104432265D01*
X150264602Y-104476668D01*
X150247688Y-104541948D01*
X150223167Y-104632053D01*
X150205486Y-104697091D01*
X150144918Y-104921020D01*
X150319654Y-104925559D01*
X150494390Y-104930097D01*
X150483262Y-104989417D01*
X150474134Y-105031240D01*
X150465876Y-105058406D01*
X150464644Y-105060854D01*
X150446912Y-105064953D01*
X150402747Y-105068458D01*
X150337704Y-105071117D01*
X150257338Y-105072673D01*
X150200468Y-105072973D01*
X150100518Y-105072417D01*
X150029055Y-105070563D01*
X149982594Y-105067133D01*
X149957649Y-105061846D01*
X149950734Y-105054422D01*
X149951082Y-105052979D01*
X149957243Y-105032090D01*
X149970272Y-104985182D01*
X149988835Y-104917158D01*
X150011595Y-104832919D01*
X150037219Y-104737368D01*
X150044765Y-104709104D01*
X150131146Y-104385222D01*
X150208393Y-104385206D01*
X150236350Y-104384450D01*
X150256921Y-104384831D01*
G37*
G36*
X149664411Y-98518208D02*
G01*
X149923725Y-98518734D01*
X150151509Y-98519528D01*
X150347700Y-98520590D01*
X150512235Y-98521920D01*
X150645054Y-98523517D01*
X150746093Y-98525381D01*
X150815290Y-98527511D01*
X150852583Y-98529908D01*
X150858203Y-98530841D01*
X150943562Y-98568018D01*
X151005292Y-98626433D01*
X151042296Y-98704614D01*
X151053559Y-98792727D01*
X151049033Y-98835804D01*
X151036305Y-98904291D01*
X151016696Y-98993370D01*
X150991526Y-99098220D01*
X150962116Y-99214020D01*
X150929786Y-99335951D01*
X150895857Y-99459193D01*
X150861650Y-99578925D01*
X150828485Y-99690327D01*
X150797682Y-99788578D01*
X150770562Y-99868860D01*
X150748446Y-99926350D01*
X150736167Y-99951243D01*
X150673600Y-100029231D01*
X150591298Y-100099169D01*
X150500720Y-100152200D01*
X150452141Y-100170767D01*
X150399566Y-100182577D01*
X150337917Y-100190491D01*
X150274463Y-100194426D01*
X150216474Y-100194302D01*
X150171220Y-100190033D01*
X150145970Y-100181539D01*
X150143484Y-100174278D01*
X150149436Y-100154190D01*
X150162496Y-100107206D01*
X150181574Y-100037350D01*
X150205576Y-99948646D01*
X150233412Y-99845118D01*
X150263989Y-99730791D01*
X150273568Y-99694859D01*
X150311309Y-99550549D01*
X150341905Y-99427998D01*
X150364919Y-99329137D01*
X150379914Y-99255897D01*
X150386455Y-99210211D01*
X150386125Y-99196771D01*
X150367539Y-99158336D01*
X150336528Y-99120448D01*
X150336439Y-99120365D01*
X150296516Y-99082859D01*
X146098079Y-99082859D01*
X146030800Y-99127383D01*
X145969269Y-99182541D01*
X145932089Y-99239347D01*
X145925257Y-99260477D01*
X145910721Y-99310514D01*
X145889020Y-99387455D01*
X145860694Y-99489296D01*
X145826281Y-99614035D01*
X145786321Y-99759670D01*
X145741353Y-99924196D01*
X145691916Y-100105611D01*
X145638550Y-100301912D01*
X145581792Y-100511096D01*
X145522183Y-100731161D01*
X145460262Y-100960102D01*
X145396567Y-101195918D01*
X145331638Y-101436605D01*
X145266015Y-101680160D01*
X145200235Y-101924581D01*
X145134839Y-102167864D01*
X145070365Y-102408007D01*
X145007352Y-102643006D01*
X144946341Y-102870858D01*
X144887869Y-103089561D01*
X144832477Y-103297112D01*
X144780702Y-103491507D01*
X144733085Y-103670744D01*
X144690164Y-103832820D01*
X144652479Y-103975732D01*
X144620568Y-104097476D01*
X144594971Y-104196050D01*
X144576228Y-104269452D01*
X144564876Y-104315677D01*
X144561627Y-104330730D01*
X144565407Y-104392383D01*
X144592438Y-104449171D01*
X144636654Y-104489571D01*
X144648118Y-104495128D01*
X144663821Y-104497976D01*
X144697115Y-104500510D01*
X144749137Y-104502736D01*
X144821020Y-104504664D01*
X144913901Y-104506299D01*
X145028915Y-104507651D01*
X145167195Y-104508726D01*
X145329877Y-104509532D01*
X145518097Y-104510077D01*
X145732988Y-104510369D01*
X145975687Y-104510414D01*
X146247328Y-104510221D01*
X146549045Y-104509797D01*
X146773574Y-104509377D01*
X148854290Y-104505151D01*
X148920336Y-104459380D01*
X148974049Y-104410607D01*
X149014314Y-104352817D01*
X149016924Y-104347415D01*
X149028929Y-104314848D01*
X149047559Y-104255986D01*
X149071456Y-104175510D01*
X149099262Y-104078103D01*
X149129620Y-103968447D01*
X149161171Y-103851224D01*
X149164843Y-103837362D01*
X149282220Y-103393501D01*
X149394887Y-103393501D01*
X149461073Y-103395781D01*
X149522511Y-103401728D01*
X149562393Y-103409229D01*
X149635615Y-103445832D01*
X149694703Y-103505455D01*
X149735024Y-103580575D01*
X149751947Y-103663666D01*
X149749188Y-103712729D01*
X149740609Y-103754688D01*
X149724820Y-103820901D01*
X149703127Y-103906643D01*
X149676832Y-104007188D01*
X149647243Y-104117808D01*
X149615662Y-104233779D01*
X149583394Y-104350373D01*
X149551745Y-104462865D01*
X149522019Y-104566527D01*
X149495521Y-104656635D01*
X149473554Y-104728462D01*
X149457425Y-104777282D01*
X149450429Y-104794983D01*
X149403027Y-104866172D01*
X149333212Y-104936807D01*
X149249676Y-104998856D01*
X149198901Y-105027478D01*
X149123463Y-105064975D01*
X146628249Y-105068400D01*
X146290090Y-105068828D01*
X145982509Y-105069131D01*
X145704098Y-105069301D01*
X145453445Y-105069326D01*
X145229140Y-105069197D01*
X145029773Y-105068903D01*
X144853934Y-105068434D01*
X144700212Y-105067779D01*
X144567196Y-105066929D01*
X144453477Y-105065873D01*
X144357644Y-105064600D01*
X144278286Y-105063101D01*
X144213993Y-105061366D01*
X144163355Y-105059383D01*
X144124962Y-105057143D01*
X144097402Y-105054635D01*
X144079267Y-105051850D01*
X144071538Y-105049770D01*
X143990002Y-105005102D01*
X143931150Y-104940057D01*
X143897401Y-104859010D01*
X143891176Y-104766337D01*
X143895905Y-104732189D01*
X143902606Y-104703339D01*
X143917075Y-104645864D01*
X143938812Y-104561624D01*
X143967316Y-104452479D01*
X144002087Y-104320290D01*
X144042624Y-104166918D01*
X144088427Y-103994221D01*
X144138994Y-103804060D01*
X144193827Y-103598296D01*
X144252424Y-103378789D01*
X144314284Y-103147399D01*
X144378908Y-102905987D01*
X144445794Y-102656411D01*
X144514442Y-102400534D01*
X144584352Y-102140215D01*
X144655022Y-101877313D01*
X144725954Y-101613691D01*
X144796645Y-101351207D01*
X144866595Y-101091721D01*
X144935305Y-100837095D01*
X145002273Y-100589189D01*
X145066999Y-100349862D01*
X145128982Y-100120974D01*
X145187722Y-99904387D01*
X145242719Y-99701960D01*
X145293471Y-99515554D01*
X145339478Y-99347028D01*
X145380241Y-99198244D01*
X145415257Y-99071060D01*
X145444028Y-98967338D01*
X145466051Y-98888938D01*
X145480827Y-98837720D01*
X145487856Y-98815544D01*
X145487865Y-98815523D01*
X145529962Y-98745165D01*
X145593287Y-98673350D01*
X145668770Y-98608888D01*
X145747342Y-98560592D01*
X145753049Y-98557893D01*
X145828501Y-98523035D01*
X148313094Y-98518790D01*
X148697907Y-98518241D01*
X149051440Y-98517961D01*
X149373628Y-98517950D01*
X149664411Y-98518208D01*
G37*
G36*
X161045282Y-100757971D02*
G01*
X161326688Y-100762330D01*
X161554646Y-101456342D01*
X161601454Y-101598587D01*
X161645285Y-101731280D01*
X161685119Y-101851374D01*
X161719938Y-101955820D01*
X161748725Y-102041573D01*
X161770459Y-102105585D01*
X161784124Y-102144808D01*
X161788624Y-102156374D01*
X161799933Y-102145776D01*
X161830381Y-102113139D01*
X161878106Y-102060556D01*
X161941245Y-101990119D01*
X162017936Y-101903919D01*
X162106317Y-101804050D01*
X162204525Y-101692603D01*
X162310700Y-101571671D01*
X162408865Y-101459500D01*
X163023086Y-100756605D01*
X163308074Y-100755469D01*
X163409783Y-100755235D01*
X163483702Y-100755753D01*
X163534030Y-100757458D01*
X163564964Y-100760780D01*
X163580704Y-100766154D01*
X163585447Y-100774011D01*
X163583686Y-100783876D01*
X163578019Y-100804100D01*
X163564807Y-100852564D01*
X163544767Y-100926602D01*
X163518617Y-101023550D01*
X163487074Y-101140742D01*
X163450854Y-101275513D01*
X163410675Y-101425198D01*
X163367253Y-101587131D01*
X163321307Y-101758649D01*
X163305004Y-101819550D01*
X163035698Y-102825680D01*
X162753840Y-102830047D01*
X162649232Y-102831213D01*
X162573047Y-102830858D01*
X162521744Y-102828775D01*
X162491783Y-102824758D01*
X162479623Y-102818600D01*
X162479300Y-102814052D01*
X162486031Y-102791437D01*
X162499435Y-102743274D01*
X162518306Y-102674099D01*
X162541437Y-102588453D01*
X162567623Y-102490872D01*
X162595659Y-102385895D01*
X162624337Y-102278060D01*
X162652453Y-102171905D01*
X162678800Y-102071969D01*
X162702174Y-101982789D01*
X162721366Y-101908904D01*
X162735173Y-101854852D01*
X162742388Y-101825171D01*
X162743164Y-101821012D01*
X162733021Y-101829859D01*
X162704023Y-101860440D01*
X162658318Y-101910361D01*
X162598057Y-101977229D01*
X162525389Y-102058652D01*
X162442463Y-102152235D01*
X162351430Y-102255586D01*
X162293816Y-102321285D01*
X161844459Y-102834538D01*
X161391599Y-102825680D01*
X161223652Y-102327121D01*
X161183038Y-102207082D01*
X161145413Y-102096889D01*
X161112044Y-102000170D01*
X161084196Y-101920555D01*
X161063136Y-101861673D01*
X161050129Y-101827154D01*
X161046599Y-101819505D01*
X161040458Y-101832147D01*
X161027225Y-101872201D01*
X161007925Y-101936137D01*
X160983585Y-102020424D01*
X160955230Y-102121532D01*
X160923886Y-102235929D01*
X160901773Y-102318064D01*
X160766054Y-102825680D01*
X160205404Y-102834394D01*
X160442042Y-101950314D01*
X160487034Y-101782276D01*
X160530745Y-101619116D01*
X160572257Y-101464252D01*
X160610655Y-101321104D01*
X160645019Y-101193088D01*
X160674433Y-101083622D01*
X160697980Y-100996124D01*
X160714742Y-100934013D01*
X160721278Y-100909923D01*
X160763876Y-100753611D01*
X161045282Y-100757971D01*
G37*
G36*
X151438685Y-104770245D02*
G01*
X151463959Y-104675325D01*
X151471990Y-104645107D01*
X151626764Y-104645107D01*
X151640894Y-104653963D01*
X151677268Y-104657880D01*
X151726608Y-104657365D01*
X151779637Y-104652924D01*
X151827074Y-104645065D01*
X151859642Y-104634294D01*
X151863040Y-104632204D01*
X151889210Y-104601090D01*
X151897793Y-104564123D01*
X151887677Y-104533181D01*
X151873289Y-104522858D01*
X151844058Y-104517548D01*
X151795149Y-104514021D01*
X151754078Y-104513149D01*
X151660169Y-104513149D01*
X151643511Y-104573130D01*
X151632751Y-104614641D01*
X151627039Y-104642067D01*
X151626764Y-104645107D01*
X151471990Y-104645107D01*
X151486897Y-104589018D01*
X151504566Y-104522344D01*
X151504883Y-104521146D01*
X151538703Y-104393187D01*
X151752713Y-104388709D01*
X151852509Y-104387779D01*
X151925761Y-104390710D01*
X151977819Y-104398874D01*
X152014033Y-104413645D01*
X152039750Y-104436395D01*
X152059801Y-104467523D01*
X152069021Y-104515406D01*
X152056386Y-104572628D01*
X152025390Y-104629014D01*
X151992066Y-104664745D01*
X151942165Y-104706733D01*
X151984357Y-104750772D01*
X152014924Y-104790493D01*
X152024376Y-104829816D01*
X152013289Y-104878355D01*
X151994558Y-104921023D01*
X151943793Y-104989824D01*
X151894589Y-105025721D01*
X151864945Y-105041060D01*
X151834600Y-105052002D01*
X151797134Y-105059493D01*
X151746127Y-105064479D01*
X151675160Y-105067907D01*
X151591781Y-105070369D01*
X151356951Y-105076406D01*
X151396311Y-104929018D01*
X151551138Y-104929018D01*
X151679618Y-104929018D01*
X151752482Y-104927071D01*
X151800433Y-104920461D01*
X151830357Y-104908031D01*
X151837349Y-104902546D01*
X151860263Y-104871805D01*
X151866599Y-104849763D01*
X151859403Y-104819100D01*
X151834775Y-104799326D01*
X151788153Y-104788602D01*
X151714975Y-104785089D01*
X151706146Y-104785063D01*
X151584080Y-104785063D01*
X151567609Y-104857041D01*
X151551138Y-104929018D01*
X151396311Y-104929018D01*
X151414007Y-104862756D01*
X151438685Y-104770245D01*
G37*
G36*
X151089869Y-103611047D02*
G01*
X151109893Y-103536670D01*
X151124622Y-103481786D01*
X151130365Y-103460258D01*
X151148717Y-103391058D01*
X151362595Y-103396279D01*
X151451767Y-103398997D01*
X151515161Y-103402690D01*
X151558989Y-103408289D01*
X151589461Y-103416727D01*
X151612789Y-103428934D01*
X151621568Y-103435123D01*
X151657162Y-103470061D01*
X151680568Y-103507783D01*
X151680894Y-103508674D01*
X151688875Y-103575536D01*
X151671537Y-103648652D01*
X151632408Y-103720449D01*
X151575013Y-103783351D01*
X151541191Y-103808696D01*
X151510672Y-103829652D01*
X151494038Y-103848530D01*
X151491109Y-103872536D01*
X151501710Y-103908876D01*
X151525663Y-103964756D01*
X151536739Y-103989314D01*
X151578287Y-104081285D01*
X151392397Y-104081285D01*
X151351388Y-103981316D01*
X151310380Y-103881348D01*
X151171459Y-103881348D01*
X151148364Y-103981316D01*
X151125269Y-104081285D01*
X151048075Y-104081285D01*
X151003372Y-104078502D01*
X150975505Y-104071412D01*
X150970881Y-104066325D01*
X150974876Y-104046601D01*
X150985938Y-104001437D01*
X151002681Y-103936245D01*
X151023723Y-103856437D01*
X151041447Y-103790412D01*
X151057932Y-103729396D01*
X151214155Y-103729396D01*
X151325675Y-103729396D01*
X151386529Y-103728155D01*
X151425861Y-103722377D01*
X151454107Y-103708980D01*
X151481702Y-103684880D01*
X151483951Y-103682641D01*
X151522028Y-103633493D01*
X151529891Y-103593491D01*
X151508235Y-103563547D01*
X151457759Y-103544574D01*
X151379158Y-103537484D01*
X151373009Y-103537456D01*
X151265582Y-103537456D01*
X151239869Y-103633426D01*
X151214155Y-103729396D01*
X151057932Y-103729396D01*
X151066428Y-103697950D01*
X151089869Y-103611047D01*
G37*
G36*
X153178353Y-103600612D02*
G01*
X152983483Y-103807722D01*
X152947317Y-103940505D01*
X152911151Y-104073287D01*
X152831037Y-104078042D01*
X152750922Y-104082797D01*
X152822794Y-103813651D01*
X152754779Y-103639565D01*
X152718614Y-103547543D01*
X152693257Y-103481477D01*
X152678723Y-103437207D01*
X152675030Y-103410573D01*
X152682191Y-103397418D01*
X152700223Y-103393580D01*
X152729142Y-103394903D01*
X152755692Y-103396662D01*
X152847723Y-103401499D01*
X152888994Y-103524340D01*
X152909298Y-103582628D01*
X152926601Y-103628430D01*
X152937882Y-103653858D01*
X152939524Y-103656228D01*
X152953041Y-103648610D01*
X152982736Y-103621080D01*
X153024077Y-103578111D01*
X153067484Y-103529949D01*
X153186184Y-103394624D01*
X153279703Y-103394063D01*
X153373223Y-103393501D01*
X153178353Y-103600612D01*
G37*
G36*
X158696399Y-103395761D02*
G01*
X158723999Y-103401514D01*
X158728438Y-103405549D01*
X158724317Y-103425855D01*
X158713459Y-103468117D01*
X158698122Y-103523590D01*
X158696448Y-103529459D01*
X158680791Y-103585762D01*
X158669389Y-103629720D01*
X158664502Y-103652586D01*
X158664458Y-103653369D01*
X158679259Y-103658684D01*
X158718892Y-103662801D01*
X158776206Y-103665119D01*
X158807796Y-103665416D01*
X158951135Y-103665416D01*
X158966896Y-103605435D01*
X158980874Y-103551216D01*
X158996706Y-103488405D01*
X159001401Y-103469478D01*
X159020145Y-103393501D01*
X159098221Y-103393501D01*
X159143228Y-103395266D01*
X159171442Y-103399768D01*
X159176297Y-103403088D01*
X159172304Y-103420689D01*
X159161131Y-103464548D01*
X159143989Y-103530054D01*
X159122089Y-103612596D01*
X159096642Y-103707561D01*
X159086015Y-103746979D01*
X158995732Y-104081285D01*
X158917763Y-104081285D01*
X158880656Y-104081169D01*
X158857856Y-104077144D01*
X158848148Y-104063696D01*
X158850321Y-104035310D01*
X158863159Y-103986473D01*
X158882575Y-103921335D01*
X158897419Y-103869498D01*
X158901331Y-103836780D01*
X158889610Y-103818786D01*
X158857558Y-103811119D01*
X158800474Y-103809386D01*
X158762851Y-103809371D01*
X158621319Y-103809371D01*
X158549487Y-104081285D01*
X158469304Y-104081285D01*
X158419115Y-104078634D01*
X158397102Y-104070058D01*
X158396126Y-104061291D01*
X158402186Y-104040399D01*
X158415106Y-103993486D01*
X158433557Y-103925453D01*
X158456212Y-103841204D01*
X158481743Y-103745641D01*
X158489260Y-103717399D01*
X158575390Y-103393501D01*
X158651914Y-103393501D01*
X158696399Y-103395761D01*
G37*
G36*
X152500890Y-103396548D02*
G01*
X152582087Y-103401499D01*
X152402431Y-104073287D01*
X152326455Y-104078163D01*
X152282289Y-104078580D01*
X152254994Y-104074180D01*
X152250689Y-104070165D01*
X152254652Y-104050715D01*
X152265359Y-104006477D01*
X152281283Y-103943564D01*
X152300898Y-103868089D01*
X152305834Y-103849358D01*
X152360769Y-103641423D01*
X152225055Y-103783984D01*
X152170794Y-103838827D01*
X152125112Y-103880885D01*
X152092250Y-103906510D01*
X152076448Y-103912051D01*
X152076345Y-103911944D01*
X152062718Y-103888767D01*
X152044377Y-103848487D01*
X152038247Y-103833363D01*
X152014355Y-103773976D01*
X151988848Y-103712654D01*
X151985757Y-103705403D01*
X151958371Y-103641423D01*
X151842607Y-104073287D01*
X151766631Y-104078163D01*
X151722408Y-104078794D01*
X151695015Y-104074936D01*
X151690655Y-104071308D01*
X151694596Y-104052751D01*
X151705530Y-104008510D01*
X151722126Y-103943786D01*
X151743053Y-103863783D01*
X151763552Y-103786521D01*
X151788486Y-103693058D01*
X151811638Y-103606149D01*
X151831287Y-103532263D01*
X151845712Y-103477873D01*
X151852141Y-103453483D01*
X151862575Y-103418814D01*
X151876660Y-103401006D01*
X151903863Y-103394441D01*
X151953227Y-103393501D01*
X152038621Y-103393501D01*
X152091635Y-103540524D01*
X152144649Y-103687546D01*
X152419693Y-103391596D01*
X152500890Y-103396548D01*
G37*
G36*
X146810901Y-102165613D02*
G01*
X146854211Y-102003561D01*
X146900111Y-101831834D01*
X146917679Y-101766104D01*
X147188073Y-100754513D01*
X148152283Y-100754423D01*
X148359533Y-100754523D01*
X148537067Y-100754899D01*
X148687156Y-100755598D01*
X148812074Y-100756671D01*
X148914092Y-100758166D01*
X148995485Y-100760133D01*
X149058523Y-100762620D01*
X149105480Y-100765676D01*
X149138628Y-100769351D01*
X149160240Y-100773694D01*
X149167963Y-100776355D01*
X149238919Y-100822448D01*
X149293361Y-100888790D01*
X149326755Y-100967215D01*
X149334567Y-101049557D01*
X149331725Y-101071276D01*
X149322911Y-101111621D01*
X149306950Y-101176912D01*
X149284896Y-101263315D01*
X149257797Y-101366994D01*
X149226706Y-101484116D01*
X149192673Y-101610844D01*
X149156751Y-101743345D01*
X149119988Y-101877784D01*
X149083438Y-102010326D01*
X149048151Y-102137137D01*
X149015177Y-102254382D01*
X148985569Y-102358226D01*
X148960377Y-102444835D01*
X148940652Y-102510374D01*
X148927446Y-102551008D01*
X148923232Y-102561566D01*
X148880487Y-102623723D01*
X148818210Y-102689164D01*
X148746269Y-102748565D01*
X148683602Y-102788019D01*
X148611625Y-102825680D01*
X147621947Y-102830150D01*
X147419402Y-102831029D01*
X147246528Y-102831658D01*
X147101004Y-102831981D01*
X146980513Y-102831940D01*
X146882734Y-102831480D01*
X146805348Y-102830543D01*
X146746036Y-102829073D01*
X146702480Y-102827013D01*
X146672359Y-102824307D01*
X146653355Y-102820897D01*
X146643149Y-102816728D01*
X146639421Y-102811742D01*
X146639778Y-102806157D01*
X146645112Y-102786136D01*
X146657999Y-102737864D01*
X146677729Y-102663994D01*
X146703593Y-102567180D01*
X146734883Y-102450077D01*
X146743506Y-102417809D01*
X147304304Y-102417809D01*
X147787839Y-102417809D01*
X147925129Y-102417735D01*
X148034248Y-102417347D01*
X148119013Y-102416395D01*
X148183242Y-102414628D01*
X148230754Y-102411798D01*
X148265367Y-102407654D01*
X148290900Y-102401947D01*
X148311170Y-102394425D01*
X148329995Y-102384841D01*
X148335102Y-102381992D01*
X148386475Y-102342425D01*
X148430074Y-102291179D01*
X148435729Y-102282024D01*
X148449971Y-102248749D01*
X148470260Y-102189736D01*
X148495201Y-102110114D01*
X148523402Y-102015013D01*
X148553468Y-101909563D01*
X148584006Y-101798894D01*
X148613622Y-101688133D01*
X148640921Y-101582413D01*
X148664511Y-101486860D01*
X148682998Y-101406607D01*
X148694987Y-101346781D01*
X148699088Y-101312780D01*
X148687505Y-101250419D01*
X148651322Y-101205699D01*
X148624672Y-101188809D01*
X148599850Y-101182709D01*
X148549796Y-101177879D01*
X148473091Y-101174268D01*
X148368318Y-101171824D01*
X148234058Y-101170496D01*
X148112564Y-101170202D01*
X147635392Y-101170202D01*
X147478802Y-101758017D01*
X147443347Y-101891173D01*
X147410233Y-102015650D01*
X147380427Y-102127813D01*
X147354891Y-102224027D01*
X147334591Y-102300659D01*
X147320492Y-102354074D01*
X147313557Y-102380637D01*
X147313259Y-102381820D01*
X147304304Y-102417809D01*
X146743506Y-102417809D01*
X146770888Y-102315336D01*
X146810901Y-102165613D01*
G37*
G36*
X153671938Y-103575954D02*
G01*
X153695358Y-103491322D01*
X153699248Y-103477475D01*
X153722909Y-103393501D01*
X153914915Y-103393501D01*
X154022791Y-103395797D01*
X154103959Y-103403525D01*
X154163428Y-103417948D01*
X154206208Y-103440328D01*
X154237307Y-103471926D01*
X154239761Y-103475346D01*
X154261738Y-103532627D01*
X154259613Y-103599652D01*
X154236644Y-103669587D01*
X154196090Y-103735600D01*
X154141209Y-103790859D01*
X154075261Y-103828531D01*
X154070485Y-103830273D01*
X154058301Y-103837901D01*
X154055770Y-103853204D01*
X154064187Y-103882303D01*
X154084847Y-103931317D01*
X154098073Y-103960598D01*
X154153071Y-104081285D01*
X153966739Y-104081285D01*
X153877673Y-103871721D01*
X153813048Y-103876534D01*
X153777409Y-103880407D01*
X153755747Y-103890341D01*
X153741283Y-103913840D01*
X153727238Y-103958410D01*
X153722008Y-103977318D01*
X153695593Y-104073287D01*
X153620832Y-104078163D01*
X153569617Y-104077762D01*
X153547039Y-104068299D01*
X153546070Y-104064532D01*
X153550056Y-104043867D01*
X153561068Y-103997776D01*
X153577689Y-103931688D01*
X153598503Y-103851032D01*
X153622094Y-103761238D01*
X153630591Y-103729396D01*
X153789567Y-103729396D01*
X153898854Y-103729396D01*
X153962023Y-103727529D01*
X154003465Y-103720295D01*
X154033307Y-103705246D01*
X154047727Y-103693407D01*
X154090533Y-103643789D01*
X154102926Y-103601960D01*
X154085852Y-103569380D01*
X154040258Y-103547511D01*
X153967088Y-103537812D01*
X153946770Y-103537456D01*
X153837917Y-103537456D01*
X153789567Y-103729396D01*
X153630591Y-103729396D01*
X153647044Y-103667736D01*
X153671938Y-103575954D01*
G37*
G36*
X152019939Y-100808543D02*
G01*
X151986330Y-100935887D01*
X151938631Y-101035490D01*
X151877146Y-101106901D01*
X151802177Y-101149669D01*
X151787979Y-101154096D01*
X151757928Y-101157957D01*
X151698882Y-101161406D01*
X151613836Y-101164377D01*
X151505782Y-101166801D01*
X151377714Y-101168610D01*
X151232625Y-101169737D01*
X151082600Y-101170113D01*
X150434559Y-101170202D01*
X150398764Y-101310158D01*
X150382901Y-101373453D01*
X150370654Y-101424740D01*
X150363836Y-101456319D01*
X150363021Y-101462110D01*
X150378500Y-101464555D01*
X150422812Y-101466833D01*
X150492798Y-101468892D01*
X150585301Y-101470681D01*
X150697163Y-101472147D01*
X150825227Y-101473241D01*
X150966335Y-101473910D01*
X151098841Y-101474106D01*
X151274624Y-101474232D01*
X151420945Y-101474661D01*
X151540334Y-101475470D01*
X151635317Y-101476735D01*
X151708424Y-101478534D01*
X151762181Y-101480942D01*
X151799118Y-101484036D01*
X151821762Y-101487894D01*
X151832641Y-101492591D01*
X151834609Y-101496414D01*
X151830106Y-101522302D01*
X151818314Y-101568507D01*
X151802203Y-101623641D01*
X151761644Y-101722825D01*
X151709315Y-101799454D01*
X151652941Y-101846349D01*
X151633786Y-101851681D01*
X151594894Y-101856368D01*
X151534396Y-101860483D01*
X151450427Y-101864097D01*
X151341119Y-101867282D01*
X151204605Y-101870109D01*
X151039018Y-101872650D01*
X150932463Y-101873980D01*
X150246248Y-101881978D01*
X150176793Y-102137897D01*
X150153623Y-102223914D01*
X150133719Y-102299026D01*
X150118482Y-102357855D01*
X150109310Y-102395023D01*
X150107246Y-102405309D01*
X150122669Y-102407863D01*
X150166776Y-102410431D01*
X150236259Y-102412934D01*
X150327811Y-102415293D01*
X150438125Y-102417430D01*
X150563896Y-102419266D01*
X150701816Y-102420721D01*
X150777668Y-102421304D01*
X151448182Y-102425806D01*
X151488090Y-102463312D01*
X151519799Y-102500657D01*
X151535718Y-102542574D01*
X151536598Y-102596244D01*
X151523187Y-102668848D01*
X151513494Y-102706640D01*
X151479216Y-102833678D01*
X150605244Y-102833665D01*
X150415765Y-102833632D01*
X150255579Y-102833475D01*
X150121990Y-102833098D01*
X150012299Y-102832406D01*
X149923810Y-102831302D01*
X149853827Y-102829690D01*
X149799652Y-102827475D01*
X149758588Y-102824561D01*
X149727939Y-102820852D01*
X149705007Y-102816252D01*
X149687095Y-102810665D01*
X149671507Y-102803996D01*
X149663684Y-102800197D01*
X149614474Y-102767992D01*
X149573429Y-102728061D01*
X149564426Y-102715498D01*
X149548975Y-102689517D01*
X149536854Y-102664581D01*
X149528513Y-102637831D01*
X149524400Y-102606414D01*
X149524965Y-102567471D01*
X149530655Y-102518148D01*
X149541920Y-102455587D01*
X149559208Y-102376934D01*
X149582967Y-102279332D01*
X149613647Y-102159925D01*
X149651697Y-102015857D01*
X149697564Y-101844271D01*
X149706587Y-101810610D01*
X149746813Y-101661682D01*
X149785497Y-101520603D01*
X149821678Y-101390726D01*
X149854396Y-101275402D01*
X149882690Y-101177985D01*
X149905601Y-101101828D01*
X149922167Y-101050285D01*
X149930766Y-101027889D01*
X149974405Y-100964280D01*
X150037652Y-100897809D01*
X150110574Y-100837893D01*
X150171133Y-100799992D01*
X150243111Y-100762330D01*
X152030303Y-100753300D01*
X152019939Y-100808543D01*
G37*
G36*
X156111811Y-103393724D02*
G01*
X156182962Y-103394698D01*
X156230698Y-103396880D01*
X156259309Y-103400729D01*
X156273080Y-103406702D01*
X156276300Y-103415258D01*
X156275049Y-103421493D01*
X156265006Y-103458365D01*
X156256242Y-103493470D01*
X156245751Y-103537456D01*
X156055150Y-103537456D01*
X155974529Y-103537661D01*
X155920108Y-103539045D01*
X155886095Y-103542759D01*
X155866699Y-103549956D01*
X155856131Y-103561789D01*
X155848949Y-103578485D01*
X155836008Y-103616093D01*
X155834289Y-103640915D01*
X155848251Y-103655604D01*
X155882355Y-103662814D01*
X155941060Y-103665198D01*
X155995080Y-103665416D01*
X156156809Y-103665416D01*
X156145580Y-103725275D01*
X156136430Y-103767275D01*
X156128157Y-103794652D01*
X156126861Y-103797252D01*
X156108727Y-103802273D01*
X156065653Y-103806279D01*
X156004684Y-103808779D01*
X155953120Y-103809371D01*
X155786869Y-103809371D01*
X155770211Y-103869352D01*
X155759452Y-103910863D01*
X155753739Y-103938289D01*
X155753464Y-103941329D01*
X155768395Y-103945948D01*
X155809152Y-103949742D01*
X155869577Y-103952328D01*
X155943509Y-103953324D01*
X155946393Y-103953325D01*
X156028335Y-103953165D01*
X156082918Y-103954378D01*
X156114752Y-103959500D01*
X156128447Y-103971071D01*
X156128613Y-103991627D01*
X156119859Y-104023707D01*
X156113453Y-104045296D01*
X156108718Y-104058401D01*
X156100106Y-104067862D01*
X156082965Y-104074274D01*
X156052643Y-104078228D01*
X156004486Y-104080320D01*
X155933844Y-104081141D01*
X155836064Y-104081285D01*
X155831194Y-104081285D01*
X155732021Y-104081063D01*
X155660558Y-104080096D01*
X155612525Y-104077929D01*
X155583643Y-104074108D01*
X155569634Y-104068179D01*
X155566217Y-104059687D01*
X155567437Y-104053294D01*
X155573876Y-104029801D01*
X155587103Y-103980514D01*
X155605749Y-103910572D01*
X155628444Y-103825113D01*
X155653820Y-103729277D01*
X155659073Y-103709402D01*
X155742553Y-103393501D01*
X156012959Y-103393501D01*
X156111811Y-103393724D01*
G37*
G36*
X155041408Y-104421178D02*
G01*
X155029513Y-104462921D01*
X155023257Y-104485158D01*
X155013587Y-104500436D01*
X154990555Y-104509034D01*
X154947078Y-104512656D01*
X154906811Y-104513149D01*
X154798171Y-104513149D01*
X154737368Y-104741077D01*
X154714563Y-104826488D01*
X154693580Y-104904934D01*
X154676335Y-104969263D01*
X154664744Y-105012320D01*
X154662392Y-105020989D01*
X154651884Y-105051825D01*
X154635854Y-105067177D01*
X154604524Y-105072427D01*
X154567918Y-105072973D01*
X154520674Y-105071563D01*
X154498559Y-105065489D01*
X154494766Y-105051977D01*
X154496808Y-105044016D01*
X154507047Y-105009312D01*
X154522472Y-104954079D01*
X154541394Y-104884691D01*
X154562123Y-104807521D01*
X154582967Y-104728942D01*
X154602238Y-104655327D01*
X154618246Y-104593050D01*
X154629300Y-104548483D01*
X154633711Y-104527999D01*
X154633728Y-104527663D01*
X154619132Y-104520305D01*
X154580912Y-104515083D01*
X154528683Y-104513149D01*
X154472654Y-104512380D01*
X154442163Y-104508640D01*
X154430767Y-104499784D01*
X154432024Y-104483662D01*
X154432713Y-104481159D01*
X154445244Y-104436989D01*
X154450864Y-104417179D01*
X154455587Y-104405926D01*
X154465381Y-104397674D01*
X154484663Y-104391958D01*
X154517855Y-104388315D01*
X154569374Y-104386282D01*
X154643640Y-104385395D01*
X154745072Y-104385190D01*
X154755846Y-104385189D01*
X155051753Y-104385189D01*
X155041408Y-104421178D01*
G37*
%TO.C,TP2*%
X105020000Y-83020000D02*
X105020000Y-84420000D01*
X103620000Y-83020000D02*
X105020000Y-83020000D01*
X105020000Y-84420000D02*
X103620000Y-84420000D01*
X103620000Y-84420000D02*
X103620000Y-83020000D01*
%TO.C,R9*%
X167557579Y-78435645D02*
X166529355Y-77407421D01*
X166270645Y-79722579D02*
X165242421Y-78694355D01*
%TO.C,J4*%
X178857500Y-93595000D02*
X179357500Y-93345000D01*
X178857500Y-93095000D02*
X178857500Y-93595000D01*
X179357500Y-93345000D02*
X178857500Y-93095000D01*
%TO.C,R1*%
X92952936Y-76540000D02*
X93407064Y-76540000D01*
X92952936Y-75070000D02*
X93407064Y-75070000D01*
%TO.C,R2*%
X92915000Y-80102064D02*
X92915000Y-79647936D01*
X91445000Y-80102064D02*
X91445000Y-79647936D01*
%TO.C,C1*%
X101875000Y-71856252D02*
X101875000Y-71333748D01*
X103345000Y-71856252D02*
X103345000Y-71333748D01*
D13*
%TO.C,IC1*%
X156435000Y-67895000D02*
X156435000Y-80695000D01*
X149635000Y-67895000D02*
X156435000Y-67895000D01*
X156435000Y-80695000D02*
X149635000Y-80695000D01*
X147335000Y-67880000D02*
X149285000Y-67880000D01*
X149635000Y-80695000D02*
X149635000Y-67895000D01*
%TD*%
M02*
