%TF.GenerationSoftware,KiCad,Pcbnew,(6.0.7)*%
%TF.CreationDate,2022-09-28T11:50:51-04:00*%
%TF.ProjectId,PrawnBlaster_Connectorized,50726177-6e42-46c6-9173-7465725f436f,rev?*%
%TF.SameCoordinates,Original*%
%TF.FileFunction,Copper,L1,Top*%
%TF.FilePolarity,Positive*%
%FSLAX46Y46*%
G04 Gerber Fmt 4.6, Leading zero omitted, Abs format (unit mm)*
G04 Created by KiCad (PCBNEW (6.0.7)) date 2022-09-28 11:50:51*
%MOMM*%
%LPD*%
G01*
G04 APERTURE LIST*
G04 Aperture macros list*
%AMRoundRect*
0 Rectangle with rounded corners*
0 $1 Rounding radius*
0 $2 $3 $4 $5 $6 $7 $8 $9 X,Y pos of 4 corners*
0 Add a 4 corners polygon primitive as box body*
4,1,4,$2,$3,$4,$5,$6,$7,$8,$9,$2,$3,0*
0 Add four circle primitives for the rounded corners*
1,1,$1+$1,$2,$3*
1,1,$1+$1,$4,$5*
1,1,$1+$1,$6,$7*
1,1,$1+$1,$8,$9*
0 Add four rect primitives between the rounded corners*
20,1,$1+$1,$2,$3,$4,$5,0*
20,1,$1+$1,$4,$5,$6,$7,0*
20,1,$1+$1,$6,$7,$8,$9,0*
20,1,$1+$1,$8,$9,$2,$3,0*%
G04 Aperture macros list end*
%TA.AperFunction,SMDPad,CuDef*%
%ADD10R,5.080000X1.500000*%
%TD*%
%TA.AperFunction,SMDPad,CuDef*%
%ADD11RoundRect,0.250000X-0.450000X0.350000X-0.450000X-0.350000X0.450000X-0.350000X0.450000X0.350000X0*%
%TD*%
%TA.AperFunction,SMDPad,CuDef*%
%ADD12RoundRect,0.250000X0.337500X0.475000X-0.337500X0.475000X-0.337500X-0.475000X0.337500X-0.475000X0*%
%TD*%
%TA.AperFunction,SMDPad,CuDef*%
%ADD13R,1.560000X0.650000*%
%TD*%
%TA.AperFunction,SMDPad,CuDef*%
%ADD14R,3.500000X1.700000*%
%TD*%
%TA.AperFunction,SMDPad,CuDef*%
%ADD15R,1.700000X3.500000*%
%TD*%
%TA.AperFunction,SMDPad,CuDef*%
%ADD16RoundRect,0.250000X-0.159099X0.724784X-0.724784X0.159099X0.159099X-0.724784X0.724784X-0.159099X0*%
%TD*%
%TA.AperFunction,SMDPad,CuDef*%
%ADD17RoundRect,0.250000X-0.350000X-0.450000X0.350000X-0.450000X0.350000X0.450000X-0.350000X0.450000X0*%
%TD*%
%TA.AperFunction,SMDPad,CuDef*%
%ADD18RoundRect,0.250000X0.450000X-0.350000X0.450000X0.350000X-0.450000X0.350000X-0.450000X-0.350000X0*%
%TD*%
%TA.AperFunction,SMDPad,CuDef*%
%ADD19RoundRect,0.250000X0.400000X0.625000X-0.400000X0.625000X-0.400000X-0.625000X0.400000X-0.625000X0*%
%TD*%
%TA.AperFunction,SMDPad,CuDef*%
%ADD20R,1.000000X1.000000*%
%TD*%
%TA.AperFunction,SMDPad,CuDef*%
%ADD21RoundRect,0.250000X0.724784X0.159099X0.159099X0.724784X-0.724784X-0.159099X-0.159099X-0.724784X0*%
%TD*%
%TA.AperFunction,SMDPad,CuDef*%
%ADD22RoundRect,0.250000X0.475000X-0.337500X0.475000X0.337500X-0.475000X0.337500X-0.475000X-0.337500X0*%
%TD*%
%TA.AperFunction,SMDPad,CuDef*%
%ADD23R,1.950000X0.700000*%
%TD*%
%TA.AperFunction,Conductor*%
%ADD24C,0.400000*%
%TD*%
G04 APERTURE END LIST*
D10*
%TO.P,J6,1,In*%
%TO.N,Net-(J6-Pad1)*%
X182397500Y-108375000D03*
%TO.P,J6,2,Ext*%
%TO.N,GND*%
X182397500Y-104125000D03*
X182397500Y-112625000D03*
%TD*%
D11*
%TO.P,R8,1*%
%TO.N,GND*%
X91963750Y-90753000D03*
%TO.P,R8,2*%
%TO.N,Net-(J2-Pad1)*%
X91963750Y-92753000D03*
%TD*%
D12*
%TO.P,C3,1*%
%TO.N,GND*%
X163467500Y-66055000D03*
%TO.P,C3,2*%
%TO.N,3_3V_Pico*%
X161392500Y-66055000D03*
%TD*%
D13*
%TO.P,U3,1*%
%TO.N,N/C*%
X99930000Y-95055000D03*
%TO.P,U3,2*%
%TO.N,Net-(R7-Pad2)*%
X99930000Y-96005000D03*
%TO.P,U3,3,GND*%
%TO.N,GND*%
X99930000Y-96955000D03*
%TO.P,U3,4*%
%TO.N,Net-(U3-Pad4)*%
X102630000Y-96955000D03*
%TO.P,U3,5,VCC*%
%TO.N,3_3V_Pico*%
X102630000Y-95055000D03*
%TD*%
D14*
%TO.P,U2,1,GPIO0*%
%TO.N,unconnected-(U2-Pad1)*%
X130585000Y-112245000D03*
%TO.P,U2,2,GPIO1*%
%TO.N,unconnected-(U2-Pad2)*%
X130585000Y-109705000D03*
%TO.P,U2,3,GND*%
%TO.N,GND*%
X130585000Y-107165000D03*
%TO.P,U2,4,GPIO2*%
%TO.N,unconnected-(U2-Pad4)*%
X130585000Y-104625000D03*
%TO.P,U2,5,GPIO3*%
%TO.N,unconnected-(U2-Pad5)*%
X130585000Y-102085000D03*
%TO.P,U2,6,GPIO4*%
%TO.N,unconnected-(U2-Pad6)*%
X130585000Y-99545000D03*
%TO.P,U2,7,GPIO5*%
%TO.N,unconnected-(U2-Pad7)*%
X130585000Y-97005000D03*
%TO.P,U2,8,GND*%
%TO.N,GND*%
X130585000Y-94465000D03*
%TO.P,U2,9,GPIO6*%
%TO.N,unconnected-(U2-Pad9)*%
X130585000Y-91925000D03*
%TO.P,U2,10,GPIO7*%
%TO.N,unconnected-(U2-Pad10)*%
X130585000Y-89385000D03*
%TO.P,U2,11,GPIO8*%
%TO.N,unconnected-(U2-Pad11)*%
X130585000Y-86845000D03*
%TO.P,U2,12,GPIO9*%
%TO.N,Net-(IC1-Pad8)*%
X130585000Y-84305000D03*
%TO.P,U2,13,GND*%
%TO.N,GND*%
X130585000Y-81765000D03*
%TO.P,U2,14,GPIO10*%
%TO.N,unconnected-(U2-Pad14)*%
X130585000Y-79225000D03*
%TO.P,U2,15,GPIO11*%
%TO.N,Net-(IC1-Pad6)*%
X130585000Y-76685000D03*
%TO.P,U2,16,GPIO12*%
%TO.N,unconnected-(U2-Pad16)*%
X130585000Y-74145000D03*
%TO.P,U2,17,GPIO13*%
%TO.N,Net-(IC1-Pad4)*%
X130585000Y-71605000D03*
%TO.P,U2,18,GND*%
%TO.N,GND*%
X130585000Y-69065000D03*
%TO.P,U2,19,GPIO14*%
%TO.N,unconnected-(U2-Pad19)*%
X130585000Y-66525000D03*
%TO.P,U2,20,GPIO15*%
%TO.N,Net-(IC1-Pad2)*%
X130585000Y-63985000D03*
%TO.P,U2,21,GPIO16*%
%TO.N,unconnected-(U2-Pad21)*%
X111005000Y-63985000D03*
%TO.P,U2,22,GPIO17*%
%TO.N,unconnected-(U2-Pad22)*%
X111005000Y-66525000D03*
%TO.P,U2,23,GND*%
%TO.N,GND*%
X111005000Y-69065000D03*
%TO.P,U2,24,GPIO18*%
%TO.N,unconnected-(U2-Pad24)*%
X111005000Y-71605000D03*
%TO.P,U2,25,GPIO19*%
%TO.N,unconnected-(U2-Pad25)*%
X111005000Y-74145000D03*
%TO.P,U2,26,GPIO20*%
%TO.N,Net-(U1-Pad4)*%
X111005000Y-76685000D03*
%TO.P,U2,27,GPIO21*%
%TO.N,Net-(U2-Pad27)*%
X111005000Y-79225000D03*
%TO.P,U2,28,GND*%
%TO.N,GND*%
X111005000Y-81765000D03*
%TO.P,U2,29,GPIO22*%
%TO.N,Net-(U3-Pad4)*%
X111005000Y-84305000D03*
%TO.P,U2,30,RUN*%
%TO.N,unconnected-(U2-Pad30)*%
X111005000Y-86845000D03*
%TO.P,U2,31,GPIO26_ADC0*%
%TO.N,unconnected-(U2-Pad31)*%
X111005000Y-89385000D03*
%TO.P,U2,32,GPIO27_ADC1*%
%TO.N,unconnected-(U2-Pad32)*%
X111005000Y-91925000D03*
%TO.P,U2,33,AGND*%
%TO.N,GND*%
X111005000Y-94465000D03*
%TO.P,U2,34,GPIO28_ADC2*%
%TO.N,unconnected-(U2-Pad34)*%
X111005000Y-97005000D03*
%TO.P,U2,35,ADC_VREF*%
%TO.N,unconnected-(U2-Pad35)*%
X111005000Y-99545000D03*
%TO.P,U2,36,3V3*%
%TO.N,3_3V_Pico*%
X111005000Y-102085000D03*
%TO.P,U2,37,3V3_EN*%
%TO.N,unconnected-(U2-Pad37)*%
X111005000Y-104625000D03*
%TO.P,U2,38,GND*%
%TO.N,GND*%
X111005000Y-107165000D03*
%TO.P,U2,39,VSYS*%
%TO.N,unconnected-(U2-Pad39)*%
X111005000Y-109705000D03*
%TO.P,U2,40,VBUS*%
%TO.N,unconnected-(U2-Pad40)*%
X111005000Y-112245000D03*
D15*
%TO.P,U2,41,SWCLK*%
%TO.N,unconnected-(U2-Pad41)*%
X123335000Y-63315000D03*
%TO.P,U2,42,GND*%
%TO.N,GND*%
X120795000Y-63315000D03*
%TO.P,U2,43,SWDIO*%
%TO.N,unconnected-(U2-Pad43)*%
X118255000Y-63315000D03*
%TD*%
D16*
%TO.P,R10,1*%
%TO.N,Net-(J3-Pad1)*%
X171546016Y-66088984D03*
%TO.P,R10,2*%
%TO.N,Net-(IC1-Pad17)*%
X169353984Y-68281016D03*
%TD*%
D13*
%TO.P,U1,1*%
%TO.N,N/C*%
X99920000Y-74775000D03*
%TO.P,U1,2*%
%TO.N,Net-(R1-Pad2)*%
X99920000Y-75725000D03*
%TO.P,U1,3,GND*%
%TO.N,GND*%
X99920000Y-76675000D03*
%TO.P,U1,4*%
%TO.N,Net-(U1-Pad4)*%
X102620000Y-76675000D03*
%TO.P,U1,5,VCC*%
%TO.N,3_3V_Pico*%
X102620000Y-74775000D03*
%TD*%
D10*
%TO.P,J2,1,In*%
%TO.N,Net-(J2-Pad1)*%
X84823200Y-96003000D03*
%TO.P,J2,2,Ext*%
%TO.N,GND*%
X84823200Y-100253000D03*
X84823200Y-91753000D03*
%TD*%
D17*
%TO.P,R7,1*%
%TO.N,Net-(J2-Pad1)*%
X91953750Y-96003000D03*
%TO.P,R7,2*%
%TO.N,Net-(R7-Pad2)*%
X93953750Y-96003000D03*
%TD*%
D11*
%TO.P,R3,1*%
%TO.N,Net-(IC1-Pad2)*%
X138430000Y-64055000D03*
%TO.P,R3,2*%
%TO.N,GND*%
X138430000Y-66055000D03*
%TD*%
D18*
%TO.P,R5,1*%
%TO.N,GND*%
X138430000Y-78555000D03*
%TO.P,R5,2*%
%TO.N,Net-(IC1-Pad6)*%
X138430000Y-76555000D03*
%TD*%
D10*
%TO.P,J5,1,In*%
%TO.N,Net-(J5-Pad1)*%
X182517500Y-78425000D03*
%TO.P,J5,2,Ext*%
%TO.N,GND*%
X182517500Y-82675000D03*
X182517500Y-74175000D03*
%TD*%
D19*
%TO.P,R11,1*%
%TO.N,Net-(J5-Pad1)*%
X166650000Y-73660000D03*
%TO.P,R11,2*%
%TO.N,Net-(IC1-Pad15)*%
X163550000Y-73660000D03*
%TD*%
D10*
%TO.P,J3,1,In*%
%TO.N,Net-(J3-Pad1)*%
X182517500Y-63505000D03*
%TO.P,J3,2,Ext*%
%TO.N,GND*%
X182517500Y-67755000D03*
X182517500Y-59255000D03*
%TD*%
D12*
%TO.P,C2,1*%
%TO.N,3_3V_Pico*%
X101297500Y-102015000D03*
%TO.P,C2,2*%
%TO.N,GND*%
X99222500Y-102015000D03*
%TD*%
D10*
%TO.P,J1,1,In*%
%TO.N,Net-(J1-Pad1)*%
X84792500Y-75805000D03*
%TO.P,J1,2,Ext*%
%TO.N,GND*%
X84792500Y-71555000D03*
X84792500Y-80055000D03*
%TD*%
D11*
%TO.P,R4,1*%
%TO.N,GND*%
X138430000Y-82185000D03*
%TO.P,R4,2*%
%TO.N,Net-(IC1-Pad8)*%
X138430000Y-84185000D03*
%TD*%
D20*
%TO.P,TP1,1,1*%
%TO.N,Net-(U2-Pad27)*%
X104370000Y-80630000D03*
%TD*%
D18*
%TO.P,R6,1*%
%TO.N,Net-(IC1-Pad4)*%
X138430000Y-71555000D03*
%TO.P,R6,2*%
%TO.N,GND*%
X138430000Y-69555000D03*
%TD*%
D21*
%TO.P,R12,1*%
%TO.N,Net-(J6-Pad1)*%
X164006016Y-83621016D03*
%TO.P,R12,2*%
%TO.N,Net-(IC1-Pad11)*%
X161813984Y-81428984D03*
%TD*%
D20*
%TO.P,TP2,1,1*%
%TO.N,GND*%
X104320000Y-83720000D03*
%TD*%
D21*
%TO.P,R9,1*%
%TO.N,Net-(J4-Pad1)*%
X167496016Y-79661016D03*
%TO.P,R9,2*%
%TO.N,Net-(IC1-Pad13)*%
X165303984Y-77468984D03*
%TD*%
D10*
%TO.P,J4,1,In*%
%TO.N,Net-(J4-Pad1)*%
X182567500Y-93345000D03*
%TO.P,J4,2,Ext*%
%TO.N,GND*%
X182567500Y-89095000D03*
X182567500Y-97595000D03*
%TD*%
D17*
%TO.P,R1,1*%
%TO.N,Net-(J1-Pad1)*%
X92180000Y-75805000D03*
%TO.P,R1,2*%
%TO.N,Net-(R1-Pad2)*%
X94180000Y-75805000D03*
%TD*%
D18*
%TO.P,R2,1*%
%TO.N,GND*%
X92180000Y-80875000D03*
%TO.P,R2,2*%
%TO.N,Net-(J1-Pad1)*%
X92180000Y-78875000D03*
%TD*%
D22*
%TO.P,C1,1*%
%TO.N,3_3V_Pico*%
X102610000Y-72632500D03*
%TO.P,C1,2*%
%TO.N,GND*%
X102610000Y-70557500D03*
%TD*%
D23*
%TO.P,IC1,1,DIR*%
%TO.N,3_3V_Pico*%
X148310000Y-68580000D03*
%TO.P,IC1,2,A0*%
%TO.N,Net-(IC1-Pad2)*%
X148310000Y-69850000D03*
%TO.P,IC1,3,A1*%
X148310000Y-71120000D03*
%TO.P,IC1,4,A2*%
%TO.N,Net-(IC1-Pad4)*%
X148310000Y-72390000D03*
%TO.P,IC1,5,A3*%
X148310000Y-73660000D03*
%TO.P,IC1,6,A4*%
%TO.N,Net-(IC1-Pad6)*%
X148310000Y-74930000D03*
%TO.P,IC1,7,A5*%
X148310000Y-76200000D03*
%TO.P,IC1,8,A6*%
%TO.N,Net-(IC1-Pad8)*%
X148310000Y-77470000D03*
%TO.P,IC1,9,A7*%
X148310000Y-78740000D03*
%TO.P,IC1,10,GND*%
%TO.N,GND*%
X148310000Y-80010000D03*
%TO.P,IC1,11,B7*%
%TO.N,Net-(IC1-Pad11)*%
X157760000Y-80010000D03*
%TO.P,IC1,12,B6*%
X157760000Y-78740000D03*
%TO.P,IC1,13,B5*%
%TO.N,Net-(IC1-Pad13)*%
X157760000Y-77470000D03*
%TO.P,IC1,14,B4*%
X157760000Y-76200000D03*
%TO.P,IC1,15,B3*%
%TO.N,Net-(IC1-Pad15)*%
X157760000Y-74930000D03*
%TO.P,IC1,16,B2*%
X157760000Y-73660000D03*
%TO.P,IC1,17,B1*%
%TO.N,Net-(IC1-Pad17)*%
X157760000Y-72390000D03*
%TO.P,IC1,18,B0*%
X157760000Y-71120000D03*
%TO.P,IC1,19,~{OE}*%
%TO.N,GND*%
X157760000Y-69850000D03*
%TO.P,IC1,20,VCC*%
%TO.N,3_3V_Pico*%
X157760000Y-68580000D03*
%TD*%
D24*
%TO.N,3_3V_Pico*%
X101270000Y-101987500D02*
X101297500Y-102015000D01*
X105800000Y-73755000D02*
X105800000Y-61685000D01*
X102620000Y-74775000D02*
X102020000Y-74775000D01*
X102620000Y-74775000D02*
X102620000Y-72642500D01*
X111835000Y-102015000D02*
X111905000Y-102085000D01*
X146955000Y-68580000D02*
X148310000Y-68580000D01*
X101270000Y-75525000D02*
X101270000Y-93695000D01*
X161392500Y-66055000D02*
X146930000Y-66055000D01*
X102340000Y-95055000D02*
X101270000Y-96125000D01*
X102630000Y-95055000D02*
X102340000Y-95055000D01*
X146430000Y-68055000D02*
X146955000Y-68580000D01*
X102020000Y-74775000D02*
X101270000Y-75525000D01*
X159905000Y-68580000D02*
X157760000Y-68580000D01*
X105800000Y-61685000D02*
X107795000Y-59690000D01*
X159930000Y-68555000D02*
X159905000Y-68580000D01*
X146430000Y-66555000D02*
X146430000Y-68055000D01*
X161392500Y-67092500D02*
X159930000Y-68555000D01*
X140565000Y-59690000D02*
X146930000Y-66055000D01*
X107795000Y-59690000D02*
X140565000Y-59690000D01*
X101270000Y-96125000D02*
X101270000Y-101987500D01*
X101270000Y-101927500D02*
X101357500Y-102015000D01*
X101297500Y-102015000D02*
X111835000Y-102015000D01*
X161392500Y-66055000D02*
X161392500Y-67092500D01*
X104780000Y-74775000D02*
X105800000Y-73755000D01*
X146930000Y-66055000D02*
X146430000Y-66555000D01*
X102620000Y-72642500D02*
X102610000Y-72632500D01*
X102620000Y-74775000D02*
X104780000Y-74775000D01*
X101270000Y-93695000D02*
X102630000Y-95055000D01*
%TO.N,Net-(IC1-Pad2)*%
X146725000Y-69850000D02*
X148310000Y-69850000D01*
X145930000Y-70555000D02*
X145930000Y-69055000D01*
X138360000Y-63985000D02*
X138430000Y-64055000D01*
X148310000Y-71120000D02*
X146495000Y-71120000D01*
X145930000Y-69055000D02*
X146725000Y-69850000D01*
X140930000Y-64055000D02*
X145930000Y-69055000D01*
X138430000Y-64055000D02*
X140930000Y-64055000D01*
X146495000Y-71120000D02*
X145930000Y-70555000D01*
X129685000Y-63985000D02*
X138360000Y-63985000D01*
%TO.N,Net-(IC1-Pad4)*%
X129685000Y-71605000D02*
X138380000Y-71605000D01*
X146535000Y-73660000D02*
X146430000Y-73555000D01*
X146430000Y-73555000D02*
X145430000Y-72555000D01*
X148310000Y-73660000D02*
X146535000Y-73660000D01*
X139265000Y-72390000D02*
X148310000Y-72390000D01*
X138430000Y-71555000D02*
X139265000Y-72390000D01*
X138380000Y-71605000D02*
X138430000Y-71555000D01*
%TO.N,Net-(IC1-Pad6)*%
X138300000Y-76685000D02*
X138430000Y-76555000D01*
X148310000Y-74930000D02*
X146555000Y-74930000D01*
X146555000Y-74930000D02*
X145285000Y-76200000D01*
X129685000Y-76685000D02*
X138300000Y-76685000D01*
X138785000Y-76200000D02*
X145285000Y-76200000D01*
X145285000Y-76200000D02*
X148310000Y-76200000D01*
X138430000Y-76555000D02*
X138785000Y-76200000D01*
%TO.N,Net-(IC1-Pad8)*%
X129685000Y-84305000D02*
X138310000Y-84305000D01*
X138310000Y-84305000D02*
X138430000Y-84185000D01*
X145745000Y-78240000D02*
X145745000Y-78740000D01*
X146515000Y-77470000D02*
X145745000Y-78240000D01*
X140300000Y-84185000D02*
X145745000Y-78740000D01*
X138430000Y-84185000D02*
X140300000Y-84185000D01*
X145745000Y-78740000D02*
X148310000Y-78740000D01*
X148310000Y-77470000D02*
X146515000Y-77470000D01*
%TO.N,Net-(IC1-Pad11)*%
X159115000Y-78740000D02*
X157760000Y-78740000D01*
X161813984Y-81428984D02*
X161803984Y-81428984D01*
X161803984Y-81428984D02*
X159115000Y-78740000D01*
X160385000Y-80010000D02*
X157760000Y-80010000D01*
%TO.N,Net-(IC1-Pad13)*%
X159075000Y-76200000D02*
X160345000Y-77470000D01*
X157760000Y-77470000D02*
X160345000Y-77470000D01*
X165303984Y-77468984D02*
X160346016Y-77468984D01*
X157760000Y-76200000D02*
X159075000Y-76200000D01*
X160346016Y-77468984D02*
X160345000Y-77470000D01*
%TO.N,Net-(IC1-Pad15)*%
X157760000Y-73660000D02*
X160325000Y-73660000D01*
X157760000Y-74930000D02*
X159055000Y-74930000D01*
X159055000Y-74930000D02*
X160325000Y-73660000D01*
X163550000Y-73660000D02*
X160325000Y-73660000D01*
%TO.N,Net-(IC1-Pad17)*%
X160365000Y-71120000D02*
X166515000Y-71120000D01*
X160365000Y-71120000D02*
X157760000Y-71120000D01*
X159095000Y-72390000D02*
X160365000Y-71120000D01*
X157760000Y-72390000D02*
X159095000Y-72390000D01*
X166515000Y-71120000D02*
X169353984Y-68281016D01*
%TO.N,Net-(J1-Pad1)*%
X92180000Y-75805000D02*
X92180000Y-78875000D01*
X92180000Y-75805000D02*
X84792500Y-75805000D01*
%TO.N,Net-(J2-Pad1)*%
X91953750Y-96003000D02*
X84823200Y-96003000D01*
X91953750Y-92763000D02*
X91963750Y-92753000D01*
X91953750Y-96003000D02*
X91953750Y-92763000D01*
%TO.N,Net-(J3-Pad1)*%
X174130000Y-63505000D02*
X171546016Y-66088984D01*
X182517500Y-63505000D02*
X174130000Y-63505000D01*
%TO.N,Net-(J4-Pad1)*%
X167496016Y-82281016D02*
X167496016Y-79661016D01*
X182567500Y-93345000D02*
X178560000Y-93345000D01*
X178560000Y-93345000D02*
X167496016Y-82281016D01*
%TO.N,Net-(J5-Pad1)*%
X182517500Y-78425000D02*
X175990000Y-78425000D01*
X171225000Y-73660000D02*
X166650000Y-73660000D01*
X175990000Y-78425000D02*
X171225000Y-73660000D01*
%TO.N,Net-(J6-Pad1)*%
X179250000Y-108375000D02*
X164006016Y-93131016D01*
X164006016Y-93131016D02*
X164006016Y-83621016D01*
X182397500Y-108375000D02*
X179250000Y-108375000D01*
%TO.N,Net-(R1-Pad2)*%
X94180000Y-75805000D02*
X94260000Y-75725000D01*
X94260000Y-75725000D02*
X99920000Y-75725000D01*
%TO.N,Net-(R7-Pad2)*%
X93955750Y-96005000D02*
X93953750Y-96003000D01*
X99930000Y-96005000D02*
X93955750Y-96005000D01*
%TO.N,Net-(U1-Pad4)*%
X111895000Y-76675000D02*
X102620000Y-76675000D01*
X111905000Y-76685000D02*
X111895000Y-76675000D01*
%TO.N,Net-(U2-Pad27)*%
X105775000Y-79225000D02*
X104370000Y-80630000D01*
X111905000Y-79225000D02*
X105775000Y-79225000D01*
%TO.N,Net-(U3-Pad4)*%
X102630000Y-96955000D02*
X103955000Y-96955000D01*
X108005000Y-84305000D02*
X111905000Y-84305000D01*
X105660000Y-95250000D02*
X105660000Y-86650000D01*
X103955000Y-96955000D02*
X105660000Y-95250000D01*
X105660000Y-86650000D02*
X108005000Y-84305000D01*
%TD*%
%TA.AperFunction,Conductor*%
%TO.N,GND*%
G36*
X179414944Y-58313502D02*
G01*
X179461437Y-58367158D01*
X179472086Y-58433109D01*
X179469869Y-58453517D01*
X179469500Y-58460328D01*
X179469500Y-58982885D01*
X179473975Y-58998124D01*
X179475365Y-58999329D01*
X179483048Y-59001000D01*
X182645500Y-59001000D01*
X182713621Y-59021002D01*
X182760114Y-59074658D01*
X182771500Y-59127000D01*
X182771500Y-60494884D01*
X182775975Y-60510123D01*
X182777365Y-60511328D01*
X182785048Y-60512999D01*
X184941100Y-60512999D01*
X185009221Y-60533001D01*
X185055714Y-60586657D01*
X185067100Y-60638999D01*
X185067100Y-62120500D01*
X185047098Y-62188621D01*
X184993442Y-62235114D01*
X184941100Y-62246500D01*
X179929366Y-62246500D01*
X179867184Y-62253255D01*
X179730795Y-62304385D01*
X179614239Y-62391739D01*
X179526885Y-62508295D01*
X179475755Y-62644684D01*
X179474902Y-62652540D01*
X179471472Y-62684108D01*
X179444230Y-62749670D01*
X179385866Y-62790096D01*
X179346209Y-62796500D01*
X174158912Y-62796500D01*
X174150342Y-62796208D01*
X174100224Y-62792791D01*
X174100220Y-62792791D01*
X174092648Y-62792275D01*
X174085171Y-62793580D01*
X174085170Y-62793580D01*
X174070113Y-62796208D01*
X174029703Y-62803261D01*
X174023186Y-62804222D01*
X173959758Y-62811898D01*
X173952650Y-62814584D01*
X173950056Y-62815221D01*
X173933750Y-62819682D01*
X173931199Y-62820452D01*
X173923716Y-62821758D01*
X173916764Y-62824810D01*
X173916763Y-62824810D01*
X173865212Y-62847439D01*
X173859105Y-62849931D01*
X173806452Y-62869827D01*
X173799344Y-62872513D01*
X173793083Y-62876816D01*
X173790717Y-62878053D01*
X173775937Y-62886280D01*
X173773652Y-62887631D01*
X173766695Y-62890685D01*
X173760675Y-62895305D01*
X173760669Y-62895308D01*
X173729542Y-62919194D01*
X173715998Y-62929587D01*
X173710668Y-62933459D01*
X173664280Y-62965339D01*
X173664275Y-62965344D01*
X173658019Y-62969643D01*
X173652968Y-62975313D01*
X173652966Y-62975314D01*
X173616565Y-63016170D01*
X173611584Y-63021446D01*
X171937796Y-64695234D01*
X171875484Y-64729260D01*
X171804669Y-64724195D01*
X171792382Y-64718852D01*
X171653394Y-64649404D01*
X171653395Y-64649404D01*
X171646852Y-64646135D01*
X171551326Y-64623642D01*
X171481814Y-64607274D01*
X171481810Y-64607274D01*
X171474690Y-64605597D01*
X171467374Y-64605603D01*
X171467371Y-64605603D01*
X171386064Y-64605674D01*
X171297820Y-64605751D01*
X171275360Y-64611081D01*
X171132849Y-64644900D01*
X171132848Y-64644900D01*
X171125728Y-64646590D01*
X171119189Y-64649872D01*
X171119188Y-64649872D01*
X170975925Y-64721770D01*
X170967648Y-64725924D01*
X170962315Y-64730266D01*
X170962313Y-64730267D01*
X170888709Y-64790190D01*
X170888703Y-64790196D01*
X170886215Y-64792221D01*
X170249253Y-65429183D01*
X170247199Y-65431713D01*
X170247195Y-65431717D01*
X170186571Y-65506377D01*
X170186569Y-65506381D01*
X170182225Y-65511730D01*
X170103167Y-65669950D01*
X170101491Y-65677069D01*
X170067903Y-65819715D01*
X170062629Y-65842112D01*
X170062783Y-66018982D01*
X170103622Y-66191074D01*
X170106904Y-66197613D01*
X170106904Y-66197614D01*
X170179870Y-66343005D01*
X170182956Y-66349154D01*
X170187298Y-66354487D01*
X170187299Y-66354489D01*
X170247222Y-66428093D01*
X170247228Y-66428099D01*
X170249253Y-66430587D01*
X171204413Y-67385747D01*
X171206943Y-67387801D01*
X171206947Y-67387805D01*
X171281607Y-67448429D01*
X171281611Y-67448431D01*
X171286960Y-67452775D01*
X171445180Y-67531833D01*
X171481309Y-67540340D01*
X171610218Y-67570694D01*
X171610222Y-67570694D01*
X171617342Y-67572371D01*
X171624658Y-67572365D01*
X171624661Y-67572365D01*
X171705968Y-67572294D01*
X171794212Y-67572217D01*
X171928539Y-67540340D01*
X171959183Y-67533068D01*
X171959184Y-67533068D01*
X171966304Y-67531378D01*
X171993360Y-67517800D01*
X172062931Y-67482885D01*
X179469500Y-67482885D01*
X179473975Y-67498124D01*
X179475365Y-67499329D01*
X179483048Y-67501000D01*
X182245385Y-67501000D01*
X182260624Y-67496525D01*
X182261829Y-67495135D01*
X182263500Y-67487452D01*
X182263500Y-66515116D01*
X182259025Y-66499877D01*
X182257635Y-66498672D01*
X182249952Y-66497001D01*
X179932831Y-66497001D01*
X179926010Y-66497371D01*
X179875148Y-66502895D01*
X179859896Y-66506521D01*
X179739446Y-66551676D01*
X179723851Y-66560214D01*
X179621776Y-66636715D01*
X179609215Y-66649276D01*
X179532714Y-66751351D01*
X179524176Y-66766946D01*
X179479022Y-66887394D01*
X179475395Y-66902649D01*
X179469869Y-66953514D01*
X179469500Y-66960328D01*
X179469500Y-67482885D01*
X172062931Y-67482885D01*
X172118235Y-67455130D01*
X172124384Y-67452044D01*
X172129719Y-67447701D01*
X172203323Y-67387778D01*
X172203329Y-67387772D01*
X172205817Y-67385747D01*
X172842779Y-66748785D01*
X172844837Y-66746251D01*
X172905461Y-66671591D01*
X172905463Y-66671587D01*
X172909807Y-66666238D01*
X172988865Y-66508018D01*
X173007097Y-66430587D01*
X173027726Y-66342980D01*
X173027726Y-66342976D01*
X173029403Y-66335856D01*
X173029396Y-66327115D01*
X173029287Y-66202383D01*
X173029249Y-66158986D01*
X173001113Y-66040425D01*
X172990100Y-65994015D01*
X172990100Y-65994014D01*
X172988410Y-65986894D01*
X172981175Y-65972477D01*
X172916151Y-65842911D01*
X172903473Y-65773056D01*
X172930574Y-65707435D01*
X172939670Y-65697300D01*
X173644172Y-64992799D01*
X174386566Y-64250405D01*
X174448878Y-64216379D01*
X174475661Y-64213500D01*
X179346209Y-64213500D01*
X179414330Y-64233502D01*
X179460823Y-64287158D01*
X179471472Y-64325892D01*
X179475755Y-64365316D01*
X179526885Y-64501705D01*
X179614239Y-64618261D01*
X179730795Y-64705615D01*
X179867184Y-64756745D01*
X179929366Y-64763500D01*
X184941100Y-64763500D01*
X185009221Y-64783502D01*
X185055714Y-64837158D01*
X185067100Y-64889500D01*
X185067100Y-66371000D01*
X185047098Y-66439121D01*
X184993442Y-66485614D01*
X184941100Y-66497000D01*
X182789615Y-66497000D01*
X182774376Y-66501475D01*
X182773171Y-66502865D01*
X182771500Y-66510548D01*
X182771500Y-68994884D01*
X182775975Y-69010123D01*
X182777365Y-69011328D01*
X182785048Y-69012999D01*
X184941100Y-69012999D01*
X185009221Y-69033001D01*
X185055714Y-69086657D01*
X185067100Y-69138999D01*
X185067100Y-72791000D01*
X185047098Y-72859121D01*
X184993442Y-72905614D01*
X184941100Y-72917000D01*
X182789615Y-72917000D01*
X182774376Y-72921475D01*
X182773171Y-72922865D01*
X182771500Y-72930548D01*
X182771500Y-75414884D01*
X182775975Y-75430123D01*
X182777365Y-75431328D01*
X182785048Y-75432999D01*
X184941100Y-75432999D01*
X185009221Y-75453001D01*
X185055714Y-75506657D01*
X185067100Y-75558999D01*
X185067100Y-77040500D01*
X185047098Y-77108621D01*
X184993442Y-77155114D01*
X184941100Y-77166500D01*
X179929366Y-77166500D01*
X179867184Y-77173255D01*
X179730795Y-77224385D01*
X179614239Y-77311739D01*
X179526885Y-77428295D01*
X179475755Y-77564684D01*
X179474122Y-77579717D01*
X179471472Y-77604108D01*
X179444230Y-77669670D01*
X179385866Y-77710096D01*
X179346209Y-77716500D01*
X176335661Y-77716500D01*
X176267540Y-77696498D01*
X176246566Y-77679595D01*
X173536639Y-74969669D01*
X179469501Y-74969669D01*
X179469871Y-74976490D01*
X179475395Y-75027352D01*
X179479021Y-75042604D01*
X179524176Y-75163054D01*
X179532714Y-75178649D01*
X179609215Y-75280724D01*
X179621776Y-75293285D01*
X179723851Y-75369786D01*
X179739446Y-75378324D01*
X179859894Y-75423478D01*
X179875149Y-75427105D01*
X179926014Y-75432631D01*
X179932828Y-75433000D01*
X182245385Y-75433000D01*
X182260624Y-75428525D01*
X182261829Y-75427135D01*
X182263500Y-75419452D01*
X182263500Y-74447115D01*
X182259025Y-74431876D01*
X182257635Y-74430671D01*
X182249952Y-74429000D01*
X179487616Y-74429000D01*
X179472377Y-74433475D01*
X179471172Y-74434865D01*
X179469501Y-74442548D01*
X179469501Y-74969669D01*
X173536639Y-74969669D01*
X172469855Y-73902885D01*
X179469500Y-73902885D01*
X179473975Y-73918124D01*
X179475365Y-73919329D01*
X179483048Y-73921000D01*
X182245385Y-73921000D01*
X182260624Y-73916525D01*
X182261829Y-73915135D01*
X182263500Y-73907452D01*
X182263500Y-72935116D01*
X182259025Y-72919877D01*
X182257635Y-72918672D01*
X182249952Y-72917001D01*
X179932831Y-72917001D01*
X179926010Y-72917371D01*
X179875148Y-72922895D01*
X179859896Y-72926521D01*
X179739446Y-72971676D01*
X179723851Y-72980214D01*
X179621776Y-73056715D01*
X179609215Y-73069276D01*
X179532714Y-73171351D01*
X179524176Y-73186946D01*
X179479022Y-73307394D01*
X179475395Y-73322649D01*
X179469869Y-73373514D01*
X179469500Y-73380328D01*
X179469500Y-73902885D01*
X172469855Y-73902885D01*
X171746450Y-73179480D01*
X171740596Y-73173215D01*
X171738970Y-73171351D01*
X171702561Y-73129615D01*
X171650280Y-73092871D01*
X171644986Y-73088939D01*
X171600693Y-73054209D01*
X171594718Y-73049524D01*
X171587802Y-73046401D01*
X171585516Y-73045017D01*
X171570835Y-73036643D01*
X171568475Y-73035378D01*
X171562261Y-73031010D01*
X171555182Y-73028250D01*
X171555180Y-73028249D01*
X171513200Y-73011882D01*
X171502723Y-73007797D01*
X171496656Y-73005247D01*
X171438427Y-72978955D01*
X171430960Y-72977571D01*
X171428405Y-72976770D01*
X171412152Y-72972141D01*
X171409572Y-72971478D01*
X171402491Y-72968718D01*
X171394960Y-72967727D01*
X171394958Y-72967726D01*
X171365339Y-72963827D01*
X171339139Y-72960378D01*
X171332641Y-72959348D01*
X171269814Y-72947704D01*
X171262234Y-72948141D01*
X171262233Y-72948141D01*
X171207608Y-72951291D01*
X171200354Y-72951500D01*
X167912560Y-72951500D01*
X167844439Y-72931498D01*
X167797946Y-72877842D01*
X167793036Y-72865376D01*
X167773595Y-72807105D01*
X167741550Y-72711054D01*
X167648478Y-72560652D01*
X167523303Y-72435695D01*
X167418964Y-72371379D01*
X167378968Y-72346725D01*
X167378966Y-72346724D01*
X167372738Y-72342885D01*
X167292995Y-72316436D01*
X167211389Y-72289368D01*
X167211387Y-72289368D01*
X167204861Y-72287203D01*
X167198025Y-72286503D01*
X167198022Y-72286502D01*
X167154969Y-72282091D01*
X167100400Y-72276500D01*
X166199600Y-72276500D01*
X166196354Y-72276837D01*
X166196350Y-72276837D01*
X166100692Y-72286762D01*
X166100688Y-72286763D01*
X166093834Y-72287474D01*
X166087298Y-72289655D01*
X166087296Y-72289655D01*
X165981697Y-72324886D01*
X165926054Y-72343450D01*
X165775652Y-72436522D01*
X165650695Y-72561697D01*
X165646855Y-72567927D01*
X165646854Y-72567928D01*
X165588145Y-72663172D01*
X165557885Y-72712262D01*
X165555581Y-72719209D01*
X165507100Y-72865376D01*
X165502203Y-72880139D01*
X165501503Y-72886975D01*
X165501502Y-72886978D01*
X165498426Y-72917000D01*
X165491500Y-72984600D01*
X165491500Y-74335400D01*
X165491837Y-74338646D01*
X165491837Y-74338650D01*
X165501212Y-74429000D01*
X165502474Y-74441166D01*
X165504655Y-74447702D01*
X165504655Y-74447704D01*
X165509268Y-74461530D01*
X165558450Y-74608946D01*
X165651522Y-74759348D01*
X165776697Y-74884305D01*
X165782927Y-74888145D01*
X165782928Y-74888146D01*
X165920090Y-74972694D01*
X165927262Y-74977115D01*
X165985700Y-74996498D01*
X166088611Y-75030632D01*
X166088613Y-75030632D01*
X166095139Y-75032797D01*
X166101975Y-75033497D01*
X166101978Y-75033498D01*
X166145031Y-75037909D01*
X166199600Y-75043500D01*
X167100400Y-75043500D01*
X167103646Y-75043163D01*
X167103650Y-75043163D01*
X167199308Y-75033238D01*
X167199312Y-75033237D01*
X167206166Y-75032526D01*
X167212702Y-75030345D01*
X167212704Y-75030345D01*
X167351292Y-74984108D01*
X167373946Y-74976550D01*
X167524348Y-74883478D01*
X167649305Y-74758303D01*
X167705755Y-74666725D01*
X167738275Y-74613968D01*
X167738276Y-74613966D01*
X167742115Y-74607738D01*
X167792831Y-74454833D01*
X167833261Y-74396473D01*
X167898826Y-74369236D01*
X167912424Y-74368500D01*
X170879340Y-74368500D01*
X170947461Y-74388502D01*
X170968435Y-74405405D01*
X175468550Y-78905520D01*
X175474404Y-78911785D01*
X175512439Y-78955385D01*
X175518657Y-78959755D01*
X175564697Y-78992112D01*
X175569993Y-78996045D01*
X175620282Y-79035477D01*
X175627204Y-79038602D01*
X175629452Y-79039964D01*
X175644185Y-79048368D01*
X175646524Y-79049622D01*
X175652739Y-79053990D01*
X175659815Y-79056749D01*
X175659819Y-79056751D01*
X175712274Y-79077202D01*
X175718352Y-79079757D01*
X175776574Y-79106045D01*
X175784045Y-79107429D01*
X175786599Y-79108230D01*
X175802878Y-79112867D01*
X175805433Y-79113523D01*
X175812509Y-79116282D01*
X175840962Y-79120028D01*
X175875851Y-79124621D01*
X175882367Y-79125653D01*
X175935865Y-79135568D01*
X175945187Y-79137296D01*
X175952767Y-79136859D01*
X175952768Y-79136859D01*
X176007398Y-79133709D01*
X176014651Y-79133500D01*
X179346209Y-79133500D01*
X179414330Y-79153502D01*
X179460823Y-79207158D01*
X179471472Y-79245892D01*
X179475755Y-79285316D01*
X179526885Y-79421705D01*
X179614239Y-79538261D01*
X179730795Y-79625615D01*
X179867184Y-79676745D01*
X179929366Y-79683500D01*
X184941100Y-79683500D01*
X185009221Y-79703502D01*
X185055714Y-79757158D01*
X185067100Y-79809500D01*
X185067100Y-81291000D01*
X185047098Y-81359121D01*
X184993442Y-81405614D01*
X184941100Y-81417000D01*
X182789615Y-81417000D01*
X182774376Y-81421475D01*
X182773171Y-81422865D01*
X182771500Y-81430548D01*
X182771500Y-83914884D01*
X182775975Y-83930123D01*
X182777365Y-83931328D01*
X182785048Y-83932999D01*
X184941100Y-83932999D01*
X185009221Y-83953001D01*
X185055714Y-84006657D01*
X185067100Y-84058999D01*
X185067100Y-87711000D01*
X185047098Y-87779121D01*
X184993442Y-87825614D01*
X184941100Y-87837000D01*
X182839615Y-87837000D01*
X182824376Y-87841475D01*
X182823171Y-87842865D01*
X182821500Y-87850548D01*
X182821500Y-90334884D01*
X182825975Y-90350123D01*
X182827365Y-90351328D01*
X182835048Y-90352999D01*
X184941100Y-90352999D01*
X185009221Y-90373001D01*
X185055714Y-90426657D01*
X185067100Y-90478999D01*
X185067100Y-91960500D01*
X185047098Y-92028621D01*
X184993442Y-92075114D01*
X184941100Y-92086500D01*
X179979366Y-92086500D01*
X179917184Y-92093255D01*
X179780795Y-92144385D01*
X179664239Y-92231739D01*
X179576885Y-92348295D01*
X179525755Y-92484684D01*
X179524902Y-92492540D01*
X179521472Y-92524108D01*
X179494230Y-92589670D01*
X179435866Y-92630096D01*
X179396209Y-92636500D01*
X178905660Y-92636500D01*
X178837539Y-92616498D01*
X178816565Y-92599595D01*
X176106639Y-89889669D01*
X179519501Y-89889669D01*
X179519871Y-89896490D01*
X179525395Y-89947352D01*
X179529021Y-89962604D01*
X179574176Y-90083054D01*
X179582714Y-90098649D01*
X179659215Y-90200724D01*
X179671776Y-90213285D01*
X179773851Y-90289786D01*
X179789446Y-90298324D01*
X179909894Y-90343478D01*
X179925149Y-90347105D01*
X179976014Y-90352631D01*
X179982828Y-90353000D01*
X182295385Y-90353000D01*
X182310624Y-90348525D01*
X182311829Y-90347135D01*
X182313500Y-90339452D01*
X182313500Y-89367115D01*
X182309025Y-89351876D01*
X182307635Y-89350671D01*
X182299952Y-89349000D01*
X179537616Y-89349000D01*
X179522377Y-89353475D01*
X179521172Y-89354865D01*
X179519501Y-89362548D01*
X179519501Y-89889669D01*
X176106639Y-89889669D01*
X175039855Y-88822885D01*
X179519500Y-88822885D01*
X179523975Y-88838124D01*
X179525365Y-88839329D01*
X179533048Y-88841000D01*
X182295385Y-88841000D01*
X182310624Y-88836525D01*
X182311829Y-88835135D01*
X182313500Y-88827452D01*
X182313500Y-87855116D01*
X182309025Y-87839877D01*
X182307635Y-87838672D01*
X182299952Y-87837001D01*
X179982831Y-87837001D01*
X179976010Y-87837371D01*
X179925148Y-87842895D01*
X179909896Y-87846521D01*
X179789446Y-87891676D01*
X179773851Y-87900214D01*
X179671776Y-87976715D01*
X179659215Y-87989276D01*
X179582714Y-88091351D01*
X179574176Y-88106946D01*
X179529022Y-88227394D01*
X179525395Y-88242649D01*
X179519869Y-88293514D01*
X179519500Y-88300328D01*
X179519500Y-88822885D01*
X175039855Y-88822885D01*
X169686639Y-83469669D01*
X179469501Y-83469669D01*
X179469871Y-83476490D01*
X179475395Y-83527352D01*
X179479021Y-83542604D01*
X179524176Y-83663054D01*
X179532714Y-83678649D01*
X179609215Y-83780724D01*
X179621776Y-83793285D01*
X179723851Y-83869786D01*
X179739446Y-83878324D01*
X179859894Y-83923478D01*
X179875149Y-83927105D01*
X179926014Y-83932631D01*
X179932828Y-83933000D01*
X182245385Y-83933000D01*
X182260624Y-83928525D01*
X182261829Y-83927135D01*
X182263500Y-83919452D01*
X182263500Y-82947115D01*
X182259025Y-82931876D01*
X182257635Y-82930671D01*
X182249952Y-82929000D01*
X179487616Y-82929000D01*
X179472377Y-82933475D01*
X179471172Y-82934865D01*
X179469501Y-82942548D01*
X179469501Y-83469669D01*
X169686639Y-83469669D01*
X168619855Y-82402885D01*
X179469500Y-82402885D01*
X179473975Y-82418124D01*
X179475365Y-82419329D01*
X179483048Y-82421000D01*
X182245385Y-82421000D01*
X182260624Y-82416525D01*
X182261829Y-82415135D01*
X182263500Y-82407452D01*
X182263500Y-81435116D01*
X182259025Y-81419877D01*
X182257635Y-81418672D01*
X182249952Y-81417001D01*
X179932831Y-81417001D01*
X179926010Y-81417371D01*
X179875148Y-81422895D01*
X179859896Y-81426521D01*
X179739446Y-81471676D01*
X179723851Y-81480214D01*
X179621776Y-81556715D01*
X179609215Y-81569276D01*
X179532714Y-81671351D01*
X179524176Y-81686946D01*
X179479022Y-81807394D01*
X179475395Y-81822649D01*
X179469869Y-81873514D01*
X179469500Y-81880328D01*
X179469500Y-82402885D01*
X168619855Y-82402885D01*
X168241421Y-82024451D01*
X168207395Y-81962139D01*
X168204516Y-81935356D01*
X168204516Y-80643072D01*
X168224518Y-80574951D01*
X168241421Y-80553977D01*
X168792779Y-80002619D01*
X168808304Y-79983500D01*
X168855461Y-79925425D01*
X168855463Y-79925421D01*
X168859807Y-79920072D01*
X168938865Y-79761852D01*
X168970202Y-79628767D01*
X168977726Y-79596814D01*
X168977726Y-79596810D01*
X168979403Y-79589690D01*
X168979378Y-79560180D01*
X168979284Y-79453261D01*
X168979249Y-79412820D01*
X168938410Y-79240728D01*
X168884702Y-79133709D01*
X168862162Y-79088797D01*
X168859076Y-79082648D01*
X168854733Y-79077313D01*
X168794810Y-79003709D01*
X168794804Y-79003703D01*
X168792779Y-79001215D01*
X168155817Y-78364253D01*
X168128247Y-78341866D01*
X168078623Y-78301571D01*
X168078619Y-78301569D01*
X168073270Y-78297225D01*
X167915050Y-78218167D01*
X167842372Y-78201054D01*
X167750012Y-78179306D01*
X167750008Y-78179306D01*
X167742888Y-78177629D01*
X167735572Y-78177635D01*
X167735569Y-78177635D01*
X167654262Y-78177706D01*
X167566018Y-78177783D01*
X167494209Y-78194824D01*
X167401047Y-78216932D01*
X167401046Y-78216932D01*
X167393926Y-78218622D01*
X167387387Y-78221904D01*
X167387386Y-78221904D01*
X167265876Y-78282885D01*
X167235846Y-78297956D01*
X167230513Y-78302298D01*
X167230511Y-78302299D01*
X167156907Y-78362222D01*
X167156901Y-78362228D01*
X167154413Y-78364253D01*
X166199253Y-79319413D01*
X166197199Y-79321943D01*
X166197195Y-79321947D01*
X166136571Y-79396607D01*
X166136569Y-79396611D01*
X166132225Y-79401960D01*
X166053167Y-79560180D01*
X166044541Y-79596814D01*
X166019180Y-79704521D01*
X166012629Y-79732342D01*
X166012635Y-79739658D01*
X166012635Y-79739661D01*
X166012659Y-79766739D01*
X166012783Y-79909212D01*
X166021855Y-79947441D01*
X166049068Y-80062112D01*
X166053622Y-80081304D01*
X166056904Y-80087843D01*
X166056904Y-80087844D01*
X166111305Y-80196243D01*
X166132956Y-80239384D01*
X166137298Y-80244717D01*
X166137299Y-80244719D01*
X166197222Y-80318323D01*
X166197228Y-80318329D01*
X166199253Y-80320817D01*
X166750611Y-80872175D01*
X166784637Y-80934487D01*
X166787516Y-80961270D01*
X166787516Y-82252104D01*
X166787224Y-82260674D01*
X166783291Y-82318368D01*
X166784596Y-82325845D01*
X166784596Y-82325846D01*
X166794277Y-82381315D01*
X166795239Y-82387837D01*
X166802914Y-82451258D01*
X166805597Y-82458359D01*
X166806238Y-82460968D01*
X166810701Y-82477278D01*
X166811466Y-82479814D01*
X166812773Y-82487300D01*
X166815827Y-82494257D01*
X166838458Y-82545811D01*
X166840949Y-82551915D01*
X166863529Y-82611672D01*
X166867833Y-82617935D01*
X166869070Y-82620301D01*
X166877315Y-82635113D01*
X166878648Y-82637367D01*
X166881701Y-82644321D01*
X166912307Y-82684206D01*
X166920595Y-82695007D01*
X166924475Y-82700348D01*
X166956355Y-82746736D01*
X166956360Y-82746741D01*
X166960659Y-82752997D01*
X166966329Y-82758048D01*
X166966330Y-82758050D01*
X167007186Y-82794451D01*
X167012462Y-82799432D01*
X178038557Y-93825528D01*
X178044411Y-93831793D01*
X178073591Y-93865242D01*
X178082439Y-93875385D01*
X178134729Y-93912136D01*
X178139971Y-93916028D01*
X178190282Y-93955476D01*
X178197201Y-93958600D01*
X178199493Y-93959988D01*
X178214165Y-93968357D01*
X178216525Y-93969622D01*
X178222739Y-93973990D01*
X178229818Y-93976750D01*
X178229820Y-93976751D01*
X178282275Y-93997202D01*
X178288344Y-93999753D01*
X178346573Y-94026045D01*
X178354046Y-94027430D01*
X178356612Y-94028234D01*
X178372835Y-94032855D01*
X178375427Y-94033520D01*
X178382509Y-94036282D01*
X178390044Y-94037274D01*
X178445861Y-94044622D01*
X178452377Y-94045654D01*
X178490770Y-94052770D01*
X178515186Y-94057295D01*
X178522766Y-94056858D01*
X178522767Y-94056858D01*
X178577380Y-94053709D01*
X178584633Y-94053500D01*
X179396209Y-94053500D01*
X179464330Y-94073502D01*
X179510823Y-94127158D01*
X179521472Y-94165892D01*
X179522225Y-94172825D01*
X179525755Y-94205316D01*
X179576885Y-94341705D01*
X179664239Y-94458261D01*
X179780795Y-94545615D01*
X179917184Y-94596745D01*
X179979366Y-94603500D01*
X184941100Y-94603500D01*
X185009221Y-94623502D01*
X185055714Y-94677158D01*
X185067100Y-94729500D01*
X185067100Y-96211000D01*
X185047098Y-96279121D01*
X184993442Y-96325614D01*
X184941100Y-96337000D01*
X182839615Y-96337000D01*
X182824376Y-96341475D01*
X182823171Y-96342865D01*
X182821500Y-96350548D01*
X182821500Y-98834884D01*
X182825975Y-98850123D01*
X182827365Y-98851328D01*
X182835048Y-98852999D01*
X184941100Y-98852999D01*
X185009221Y-98873001D01*
X185055714Y-98926657D01*
X185067100Y-98978999D01*
X185067100Y-102741000D01*
X185047098Y-102809121D01*
X184993442Y-102855614D01*
X184941100Y-102867000D01*
X182669615Y-102867000D01*
X182654376Y-102871475D01*
X182653171Y-102872865D01*
X182651500Y-102880548D01*
X182651500Y-105364884D01*
X182655975Y-105380123D01*
X182657365Y-105381328D01*
X182665048Y-105382999D01*
X184941100Y-105382999D01*
X185009221Y-105403001D01*
X185055714Y-105456657D01*
X185067100Y-105508999D01*
X185067100Y-106990500D01*
X185047098Y-107058621D01*
X184993442Y-107105114D01*
X184941100Y-107116500D01*
X179809366Y-107116500D01*
X179747184Y-107123255D01*
X179610795Y-107174385D01*
X179494239Y-107261739D01*
X179488858Y-107268919D01*
X179488857Y-107268920D01*
X179429089Y-107348668D01*
X179372230Y-107391183D01*
X179301411Y-107396209D01*
X179239168Y-107362198D01*
X176796639Y-104919669D01*
X179349501Y-104919669D01*
X179349871Y-104926490D01*
X179355395Y-104977352D01*
X179359021Y-104992604D01*
X179404176Y-105113054D01*
X179412714Y-105128649D01*
X179489215Y-105230724D01*
X179501776Y-105243285D01*
X179603851Y-105319786D01*
X179619446Y-105328324D01*
X179739894Y-105373478D01*
X179755149Y-105377105D01*
X179806014Y-105382631D01*
X179812828Y-105383000D01*
X182125385Y-105383000D01*
X182140624Y-105378525D01*
X182141829Y-105377135D01*
X182143500Y-105369452D01*
X182143500Y-104397115D01*
X182139025Y-104381876D01*
X182137635Y-104380671D01*
X182129952Y-104379000D01*
X179367616Y-104379000D01*
X179352377Y-104383475D01*
X179351172Y-104384865D01*
X179349501Y-104392548D01*
X179349501Y-104919669D01*
X176796639Y-104919669D01*
X175729855Y-103852885D01*
X179349500Y-103852885D01*
X179353975Y-103868124D01*
X179355365Y-103869329D01*
X179363048Y-103871000D01*
X182125385Y-103871000D01*
X182140624Y-103866525D01*
X182141829Y-103865135D01*
X182143500Y-103857452D01*
X182143500Y-102885116D01*
X182139025Y-102869877D01*
X182137635Y-102868672D01*
X182129952Y-102867001D01*
X179812831Y-102867001D01*
X179806010Y-102867371D01*
X179755148Y-102872895D01*
X179739896Y-102876521D01*
X179619446Y-102921676D01*
X179603851Y-102930214D01*
X179501776Y-103006715D01*
X179489215Y-103019276D01*
X179412714Y-103121351D01*
X179404176Y-103136946D01*
X179359022Y-103257394D01*
X179355395Y-103272649D01*
X179349869Y-103323514D01*
X179349500Y-103330328D01*
X179349500Y-103852885D01*
X175729855Y-103852885D01*
X170266639Y-98389669D01*
X179519501Y-98389669D01*
X179519871Y-98396490D01*
X179525395Y-98447352D01*
X179529021Y-98462604D01*
X179574176Y-98583054D01*
X179582714Y-98598649D01*
X179659215Y-98700724D01*
X179671776Y-98713285D01*
X179773851Y-98789786D01*
X179789446Y-98798324D01*
X179909894Y-98843478D01*
X179925149Y-98847105D01*
X179976014Y-98852631D01*
X179982828Y-98853000D01*
X182295385Y-98853000D01*
X182310624Y-98848525D01*
X182311829Y-98847135D01*
X182313500Y-98839452D01*
X182313500Y-97867115D01*
X182309025Y-97851876D01*
X182307635Y-97850671D01*
X182299952Y-97849000D01*
X179537616Y-97849000D01*
X179522377Y-97853475D01*
X179521172Y-97854865D01*
X179519501Y-97862548D01*
X179519501Y-98389669D01*
X170266639Y-98389669D01*
X169199855Y-97322885D01*
X179519500Y-97322885D01*
X179523975Y-97338124D01*
X179525365Y-97339329D01*
X179533048Y-97341000D01*
X182295385Y-97341000D01*
X182310624Y-97336525D01*
X182311829Y-97335135D01*
X182313500Y-97327452D01*
X182313500Y-96355116D01*
X182309025Y-96339877D01*
X182307635Y-96338672D01*
X182299952Y-96337001D01*
X179982831Y-96337001D01*
X179976010Y-96337371D01*
X179925148Y-96342895D01*
X179909896Y-96346521D01*
X179789446Y-96391676D01*
X179773851Y-96400214D01*
X179671776Y-96476715D01*
X179659215Y-96489276D01*
X179582714Y-96591351D01*
X179574176Y-96606946D01*
X179529022Y-96727394D01*
X179525395Y-96742649D01*
X179519869Y-96793514D01*
X179519500Y-96800328D01*
X179519500Y-97322885D01*
X169199855Y-97322885D01*
X164751421Y-92874451D01*
X164717395Y-92812139D01*
X164714516Y-92785356D01*
X164714516Y-84603072D01*
X164734518Y-84534951D01*
X164751421Y-84513977D01*
X165302779Y-83962619D01*
X165326830Y-83933000D01*
X165365461Y-83885425D01*
X165365463Y-83885421D01*
X165369807Y-83880072D01*
X165448865Y-83721852D01*
X165479069Y-83593579D01*
X165487726Y-83556814D01*
X165487726Y-83556810D01*
X165489403Y-83549690D01*
X165489394Y-83538621D01*
X165489287Y-83416803D01*
X165489249Y-83372820D01*
X165448410Y-83200728D01*
X165426823Y-83157713D01*
X165372162Y-83048797D01*
X165369076Y-83042648D01*
X165355136Y-83025525D01*
X165304810Y-82963709D01*
X165304804Y-82963703D01*
X165302779Y-82961215D01*
X164665817Y-82324253D01*
X164663283Y-82322195D01*
X164588623Y-82261571D01*
X164588619Y-82261569D01*
X164583270Y-82257225D01*
X164425050Y-82178167D01*
X164358482Y-82162493D01*
X164260012Y-82139306D01*
X164260008Y-82139306D01*
X164252888Y-82137629D01*
X164245572Y-82137635D01*
X164245569Y-82137635D01*
X164164262Y-82137706D01*
X164076018Y-82137783D01*
X163989972Y-82158203D01*
X163911047Y-82176932D01*
X163911046Y-82176932D01*
X163903926Y-82178622D01*
X163897387Y-82181904D01*
X163897386Y-82181904D01*
X163753442Y-82254144D01*
X163745846Y-82257956D01*
X163740513Y-82262298D01*
X163740511Y-82262299D01*
X163666907Y-82322222D01*
X163666901Y-82322228D01*
X163664413Y-82324253D01*
X162709253Y-83279413D01*
X162707199Y-83281943D01*
X162707195Y-83281947D01*
X162646571Y-83356607D01*
X162646569Y-83356611D01*
X162642225Y-83361960D01*
X162563167Y-83520180D01*
X162554541Y-83556814D01*
X162525994Y-83678053D01*
X162522629Y-83692342D01*
X162522635Y-83699658D01*
X162522635Y-83699661D01*
X162522696Y-83769643D01*
X162522783Y-83869212D01*
X162563622Y-84041304D01*
X162642956Y-84199384D01*
X162647298Y-84204717D01*
X162647299Y-84204719D01*
X162707222Y-84278323D01*
X162707228Y-84278329D01*
X162709253Y-84280817D01*
X163260611Y-84832175D01*
X163294637Y-84894487D01*
X163297516Y-84921270D01*
X163297516Y-93102104D01*
X163297224Y-93110674D01*
X163294090Y-93156650D01*
X163293291Y-93168368D01*
X163294596Y-93175845D01*
X163294596Y-93175846D01*
X163304277Y-93231315D01*
X163305239Y-93237837D01*
X163312914Y-93301258D01*
X163315597Y-93308359D01*
X163316238Y-93310968D01*
X163320701Y-93327278D01*
X163321466Y-93329814D01*
X163322773Y-93337300D01*
X163325827Y-93344257D01*
X163348458Y-93395811D01*
X163350949Y-93401915D01*
X163373529Y-93461672D01*
X163377833Y-93467935D01*
X163379070Y-93470301D01*
X163387315Y-93485113D01*
X163388648Y-93487367D01*
X163391701Y-93494321D01*
X163396323Y-93500344D01*
X163430595Y-93545007D01*
X163434475Y-93550348D01*
X163466355Y-93596736D01*
X163466360Y-93596741D01*
X163470659Y-93602997D01*
X163476329Y-93608048D01*
X163476330Y-93608050D01*
X163517186Y-93644451D01*
X163522462Y-93649432D01*
X178728550Y-108855520D01*
X178734404Y-108861785D01*
X178772439Y-108905385D01*
X178810132Y-108931876D01*
X178824719Y-108942128D01*
X178830014Y-108946061D01*
X178880282Y-108985476D01*
X178887198Y-108988599D01*
X178889484Y-108989983D01*
X178904165Y-108998357D01*
X178906525Y-108999622D01*
X178912739Y-109003990D01*
X178919818Y-109006750D01*
X178919820Y-109006751D01*
X178972275Y-109027202D01*
X178978344Y-109029753D01*
X179036573Y-109056045D01*
X179044040Y-109057429D01*
X179046595Y-109058230D01*
X179062848Y-109062859D01*
X179065428Y-109063522D01*
X179072509Y-109066282D01*
X179080040Y-109067273D01*
X179080042Y-109067274D01*
X179109661Y-109071173D01*
X179135861Y-109074622D01*
X179142359Y-109075652D01*
X179205186Y-109087296D01*
X179212768Y-109086859D01*
X179212771Y-109086859D01*
X179219261Y-109086485D01*
X179288420Y-109102534D01*
X179337923Y-109153425D01*
X179351774Y-109198669D01*
X179354901Y-109227460D01*
X179354902Y-109227464D01*
X179355755Y-109235316D01*
X179406885Y-109371705D01*
X179494239Y-109488261D01*
X179610795Y-109575615D01*
X179747184Y-109626745D01*
X179809366Y-109633500D01*
X184941100Y-109633500D01*
X185009221Y-109653502D01*
X185055714Y-109707158D01*
X185067100Y-109759500D01*
X185067100Y-111241000D01*
X185047098Y-111309121D01*
X184993442Y-111355614D01*
X184941100Y-111367000D01*
X182669615Y-111367000D01*
X182654376Y-111371475D01*
X182653171Y-111372865D01*
X182651500Y-111380548D01*
X182651500Y-112753000D01*
X182631498Y-112821121D01*
X182577842Y-112867614D01*
X182525500Y-112879000D01*
X179367616Y-112879000D01*
X179352377Y-112883475D01*
X179351172Y-112884865D01*
X179349501Y-112892548D01*
X179349501Y-113275500D01*
X179329499Y-113343621D01*
X179275843Y-113390114D01*
X179223501Y-113401500D01*
X132944997Y-113401500D01*
X132876876Y-113381498D01*
X132830383Y-113327842D01*
X132820279Y-113257568D01*
X132827014Y-113231274D01*
X132836745Y-113205316D01*
X132843500Y-113143134D01*
X132843500Y-112352885D01*
X179349500Y-112352885D01*
X179353975Y-112368124D01*
X179355365Y-112369329D01*
X179363048Y-112371000D01*
X182125385Y-112371000D01*
X182140624Y-112366525D01*
X182141829Y-112365135D01*
X182143500Y-112357452D01*
X182143500Y-111385116D01*
X182139025Y-111369877D01*
X182137635Y-111368672D01*
X182129952Y-111367001D01*
X179812831Y-111367001D01*
X179806010Y-111367371D01*
X179755148Y-111372895D01*
X179739896Y-111376521D01*
X179619446Y-111421676D01*
X179603851Y-111430214D01*
X179501776Y-111506715D01*
X179489215Y-111519276D01*
X179412714Y-111621351D01*
X179404176Y-111636946D01*
X179359022Y-111757394D01*
X179355395Y-111772649D01*
X179349869Y-111823514D01*
X179349500Y-111830328D01*
X179349500Y-112352885D01*
X132843500Y-112352885D01*
X132843500Y-111346866D01*
X132836745Y-111284684D01*
X132785615Y-111148295D01*
X132712370Y-111050564D01*
X132687522Y-110984059D01*
X132702575Y-110914676D01*
X132712370Y-110899435D01*
X132780229Y-110808891D01*
X132785615Y-110801705D01*
X132836745Y-110665316D01*
X132843500Y-110603134D01*
X132843500Y-108806866D01*
X132836745Y-108744684D01*
X132785615Y-108608295D01*
X132712058Y-108510148D01*
X132687210Y-108443642D01*
X132702263Y-108374259D01*
X132712058Y-108359018D01*
X132779786Y-108268649D01*
X132788324Y-108253054D01*
X132833478Y-108132606D01*
X132837105Y-108117351D01*
X132842631Y-108066486D01*
X132843000Y-108059672D01*
X132843000Y-107437115D01*
X132838525Y-107421876D01*
X132837135Y-107420671D01*
X132829452Y-107419000D01*
X128345116Y-107419000D01*
X128329877Y-107423475D01*
X128328672Y-107424865D01*
X128327001Y-107432548D01*
X128327001Y-108059669D01*
X128327371Y-108066490D01*
X128332895Y-108117352D01*
X128336521Y-108132604D01*
X128381676Y-108253054D01*
X128390214Y-108268649D01*
X128457942Y-108359018D01*
X128482790Y-108425525D01*
X128467737Y-108494907D01*
X128457942Y-108510148D01*
X128384385Y-108608295D01*
X128333255Y-108744684D01*
X128326500Y-108806866D01*
X128326500Y-110603134D01*
X128333255Y-110665316D01*
X128384385Y-110801705D01*
X128389771Y-110808891D01*
X128457630Y-110899435D01*
X128482478Y-110965941D01*
X128467425Y-111035324D01*
X128457632Y-111050562D01*
X128384385Y-111148295D01*
X128333255Y-111284684D01*
X128326500Y-111346866D01*
X128326500Y-113143134D01*
X128333255Y-113205316D01*
X128342985Y-113231271D01*
X128348168Y-113302077D01*
X128314248Y-113364446D01*
X128251993Y-113398575D01*
X128225003Y-113401500D01*
X125306000Y-113401500D01*
X125237879Y-113381498D01*
X125191386Y-113327842D01*
X125180000Y-113275500D01*
X125180000Y-105523134D01*
X128326500Y-105523134D01*
X128333255Y-105585316D01*
X128384385Y-105721705D01*
X128389771Y-105728891D01*
X128457942Y-105819852D01*
X128482790Y-105886358D01*
X128467737Y-105955741D01*
X128457942Y-105970982D01*
X128390214Y-106061351D01*
X128381676Y-106076946D01*
X128336522Y-106197394D01*
X128332895Y-106212649D01*
X128327369Y-106263514D01*
X128327000Y-106270328D01*
X128327000Y-106892885D01*
X128331475Y-106908124D01*
X128332865Y-106909329D01*
X128340548Y-106911000D01*
X132824884Y-106911000D01*
X132840123Y-106906525D01*
X132841328Y-106905135D01*
X132842999Y-106897452D01*
X132842999Y-106270331D01*
X132842629Y-106263510D01*
X132837105Y-106212648D01*
X132833479Y-106197396D01*
X132788324Y-106076946D01*
X132779786Y-106061351D01*
X132712058Y-105970982D01*
X132687210Y-105904475D01*
X132702263Y-105835093D01*
X132712058Y-105819852D01*
X132780229Y-105728891D01*
X132785615Y-105721705D01*
X132836745Y-105585316D01*
X132843500Y-105523134D01*
X132843500Y-103726866D01*
X132836745Y-103664684D01*
X132785615Y-103528295D01*
X132712370Y-103430564D01*
X132687522Y-103364059D01*
X132702575Y-103294676D01*
X132712370Y-103279435D01*
X132735555Y-103248500D01*
X132785615Y-103181705D01*
X132836745Y-103045316D01*
X132843500Y-102983134D01*
X132843500Y-101186866D01*
X132836745Y-101124684D01*
X132785615Y-100988295D01*
X132712370Y-100890564D01*
X132687522Y-100824059D01*
X132702575Y-100754676D01*
X132712370Y-100739435D01*
X132780229Y-100648891D01*
X132785615Y-100641705D01*
X132836745Y-100505316D01*
X132843500Y-100443134D01*
X132843500Y-98646866D01*
X132836745Y-98584684D01*
X132785615Y-98448295D01*
X132712370Y-98350564D01*
X132687522Y-98284059D01*
X132702575Y-98214676D01*
X132712370Y-98199435D01*
X132780229Y-98108891D01*
X132785615Y-98101705D01*
X132836745Y-97965316D01*
X132843500Y-97903134D01*
X132843500Y-96106866D01*
X132836745Y-96044684D01*
X132785615Y-95908295D01*
X132727397Y-95830615D01*
X132712058Y-95810148D01*
X132687210Y-95743642D01*
X132702263Y-95674259D01*
X132712058Y-95659018D01*
X132779786Y-95568649D01*
X132788324Y-95553054D01*
X132833478Y-95432606D01*
X132837105Y-95417351D01*
X132842631Y-95366486D01*
X132843000Y-95359672D01*
X132843000Y-94737115D01*
X132838525Y-94721876D01*
X132837135Y-94720671D01*
X132829452Y-94719000D01*
X128345116Y-94719000D01*
X128329877Y-94723475D01*
X128328672Y-94724865D01*
X128327001Y-94732548D01*
X128327001Y-95359669D01*
X128327371Y-95366490D01*
X128332895Y-95417352D01*
X128336521Y-95432604D01*
X128381676Y-95553054D01*
X128390214Y-95568649D01*
X128457942Y-95659018D01*
X128482790Y-95725525D01*
X128467737Y-95794907D01*
X128457942Y-95810148D01*
X128442603Y-95830615D01*
X128384385Y-95908295D01*
X128333255Y-96044684D01*
X128326500Y-96106866D01*
X128326500Y-97903134D01*
X128333255Y-97965316D01*
X128384385Y-98101705D01*
X128389771Y-98108891D01*
X128457630Y-98199435D01*
X128482478Y-98265941D01*
X128467425Y-98335324D01*
X128457632Y-98350562D01*
X128384385Y-98448295D01*
X128333255Y-98584684D01*
X128326500Y-98646866D01*
X128326500Y-100443134D01*
X128333255Y-100505316D01*
X128384385Y-100641705D01*
X128389771Y-100648891D01*
X128457630Y-100739435D01*
X128482478Y-100805941D01*
X128467425Y-100875324D01*
X128457632Y-100890562D01*
X128384385Y-100988295D01*
X128333255Y-101124684D01*
X128326500Y-101186866D01*
X128326500Y-102983134D01*
X128333255Y-103045316D01*
X128384385Y-103181705D01*
X128434445Y-103248500D01*
X128457630Y-103279435D01*
X128482478Y-103345941D01*
X128467425Y-103415324D01*
X128457632Y-103430562D01*
X128384385Y-103528295D01*
X128333255Y-103664684D01*
X128326500Y-103726866D01*
X128326500Y-105523134D01*
X125180000Y-105523134D01*
X125180000Y-99055000D01*
X116430000Y-99055000D01*
X116430000Y-113275500D01*
X116409998Y-113343621D01*
X116356342Y-113390114D01*
X116304000Y-113401500D01*
X113364997Y-113401500D01*
X113296876Y-113381498D01*
X113250383Y-113327842D01*
X113240279Y-113257568D01*
X113247014Y-113231274D01*
X113256745Y-113205316D01*
X113263500Y-113143134D01*
X113263500Y-111346866D01*
X113256745Y-111284684D01*
X113205615Y-111148295D01*
X113132370Y-111050564D01*
X113107522Y-110984059D01*
X113122575Y-110914676D01*
X113132370Y-110899435D01*
X113200229Y-110808891D01*
X113205615Y-110801705D01*
X113256745Y-110665316D01*
X113263500Y-110603134D01*
X113263500Y-108806866D01*
X113256745Y-108744684D01*
X113205615Y-108608295D01*
X113132058Y-108510148D01*
X113107210Y-108443642D01*
X113122263Y-108374259D01*
X113132058Y-108359018D01*
X113199786Y-108268649D01*
X113208324Y-108253054D01*
X113253478Y-108132606D01*
X113257105Y-108117351D01*
X113262631Y-108066486D01*
X113263000Y-108059672D01*
X113263000Y-107437115D01*
X113258525Y-107421876D01*
X113257135Y-107420671D01*
X113249452Y-107419000D01*
X108765116Y-107419000D01*
X108749877Y-107423475D01*
X108748672Y-107424865D01*
X108747001Y-107432548D01*
X108747001Y-108059669D01*
X108747371Y-108066490D01*
X108752895Y-108117352D01*
X108756521Y-108132604D01*
X108801676Y-108253054D01*
X108810214Y-108268649D01*
X108877942Y-108359018D01*
X108902790Y-108425525D01*
X108887737Y-108494907D01*
X108877942Y-108510148D01*
X108804385Y-108608295D01*
X108753255Y-108744684D01*
X108746500Y-108806866D01*
X108746500Y-110603134D01*
X108753255Y-110665316D01*
X108804385Y-110801705D01*
X108809771Y-110808891D01*
X108877630Y-110899435D01*
X108902478Y-110965941D01*
X108887425Y-111035324D01*
X108877632Y-111050562D01*
X108804385Y-111148295D01*
X108753255Y-111284684D01*
X108746500Y-111346866D01*
X108746500Y-113143134D01*
X108753255Y-113205316D01*
X108762985Y-113231271D01*
X108768168Y-113302077D01*
X108734248Y-113364446D01*
X108671993Y-113398575D01*
X108645003Y-113401500D01*
X82409700Y-113401500D01*
X82341579Y-113381498D01*
X82295086Y-113327842D01*
X82283700Y-113275500D01*
X82283700Y-108642703D01*
X92330743Y-108642703D01*
X92368268Y-108927734D01*
X92444129Y-109205036D01*
X92445813Y-109208984D01*
X92511634Y-109363297D01*
X92556923Y-109469476D01*
X92620446Y-109575615D01*
X92699173Y-109707158D01*
X92704561Y-109716161D01*
X92884313Y-109940528D01*
X93092851Y-110138423D01*
X93326317Y-110306186D01*
X93330112Y-110308195D01*
X93330113Y-110308196D01*
X93351869Y-110319715D01*
X93580392Y-110440712D01*
X93850373Y-110539511D01*
X94131264Y-110600755D01*
X94159841Y-110603004D01*
X94354282Y-110618307D01*
X94354291Y-110618307D01*
X94356739Y-110618500D01*
X94512271Y-110618500D01*
X94514407Y-110618354D01*
X94514418Y-110618354D01*
X94722548Y-110604165D01*
X94722554Y-110604164D01*
X94726825Y-110603873D01*
X94731020Y-110603004D01*
X94731022Y-110603004D01*
X94867583Y-110574724D01*
X95008342Y-110545574D01*
X95279343Y-110449607D01*
X95534812Y-110317750D01*
X95538313Y-110315289D01*
X95538317Y-110315287D01*
X95652417Y-110235096D01*
X95770023Y-110152441D01*
X95980622Y-109956740D01*
X96162713Y-109734268D01*
X96312927Y-109489142D01*
X96428483Y-109225898D01*
X96507244Y-108949406D01*
X96547751Y-108664784D01*
X96547845Y-108646951D01*
X96549235Y-108381583D01*
X96549235Y-108381576D01*
X96549257Y-108377297D01*
X96511732Y-108092266D01*
X96502815Y-108059669D01*
X96437003Y-107819103D01*
X96435871Y-107814964D01*
X96323077Y-107550524D01*
X96175439Y-107303839D01*
X95995687Y-107079472D01*
X95872289Y-106962372D01*
X95790258Y-106884527D01*
X95790255Y-106884525D01*
X95787149Y-106881577D01*
X95553683Y-106713814D01*
X95531843Y-106702250D01*
X95508654Y-106689972D01*
X95299608Y-106579288D01*
X95029627Y-106480489D01*
X94748736Y-106419245D01*
X94717685Y-106416801D01*
X94525718Y-106401693D01*
X94525709Y-106401693D01*
X94523261Y-106401500D01*
X94367729Y-106401500D01*
X94365593Y-106401646D01*
X94365582Y-106401646D01*
X94157452Y-106415835D01*
X94157446Y-106415836D01*
X94153175Y-106416127D01*
X94148980Y-106416996D01*
X94148978Y-106416996D01*
X94012417Y-106445276D01*
X93871658Y-106474426D01*
X93600657Y-106570393D01*
X93345188Y-106702250D01*
X93341687Y-106704711D01*
X93341683Y-106704713D01*
X93331594Y-106711804D01*
X93109977Y-106867559D01*
X92899378Y-107063260D01*
X92717287Y-107285732D01*
X92567073Y-107530858D01*
X92451517Y-107794102D01*
X92372756Y-108070594D01*
X92332249Y-108355216D01*
X92332227Y-108359505D01*
X92332226Y-108359512D01*
X92330923Y-108608295D01*
X92330743Y-108642703D01*
X82283700Y-108642703D01*
X82283700Y-102537095D01*
X98127001Y-102537095D01*
X98127338Y-102543614D01*
X98137257Y-102639206D01*
X98140149Y-102652600D01*
X98191588Y-102806784D01*
X98197761Y-102819962D01*
X98283063Y-102957807D01*
X98292099Y-102969208D01*
X98406829Y-103083739D01*
X98418240Y-103092751D01*
X98556243Y-103177816D01*
X98569424Y-103183963D01*
X98723710Y-103235138D01*
X98737086Y-103238005D01*
X98831438Y-103247672D01*
X98837854Y-103248000D01*
X98950385Y-103248000D01*
X98965624Y-103243525D01*
X98966829Y-103242135D01*
X98968500Y-103234452D01*
X98968500Y-102287115D01*
X98964025Y-102271876D01*
X98962635Y-102270671D01*
X98954952Y-102269000D01*
X98145116Y-102269000D01*
X98129877Y-102273475D01*
X98128672Y-102274865D01*
X98127001Y-102282548D01*
X98127001Y-102537095D01*
X82283700Y-102537095D01*
X82283700Y-101742885D01*
X98127000Y-101742885D01*
X98131475Y-101758124D01*
X98132865Y-101759329D01*
X98140548Y-101761000D01*
X98950385Y-101761000D01*
X98965624Y-101756525D01*
X98966829Y-101755135D01*
X98968500Y-101747452D01*
X98968500Y-100800116D01*
X98964025Y-100784877D01*
X98962635Y-100783672D01*
X98954952Y-100782001D01*
X98837905Y-100782001D01*
X98831386Y-100782338D01*
X98735794Y-100792257D01*
X98722400Y-100795149D01*
X98568216Y-100846588D01*
X98555038Y-100852761D01*
X98417193Y-100938063D01*
X98405792Y-100947099D01*
X98291261Y-101061829D01*
X98282249Y-101073240D01*
X98197184Y-101211243D01*
X98191037Y-101224424D01*
X98139862Y-101378710D01*
X98136995Y-101392086D01*
X98127328Y-101486438D01*
X98127000Y-101492855D01*
X98127000Y-101742885D01*
X82283700Y-101742885D01*
X82283700Y-101637000D01*
X82303702Y-101568879D01*
X82357358Y-101522386D01*
X82409700Y-101511000D01*
X84551085Y-101511000D01*
X84566324Y-101506525D01*
X84567529Y-101505135D01*
X84569200Y-101497452D01*
X84569200Y-101492884D01*
X85077200Y-101492884D01*
X85081675Y-101508123D01*
X85083065Y-101509328D01*
X85090748Y-101510999D01*
X87407869Y-101510999D01*
X87414690Y-101510629D01*
X87465552Y-101505105D01*
X87480804Y-101501479D01*
X87601254Y-101456324D01*
X87616849Y-101447786D01*
X87718924Y-101371285D01*
X87731485Y-101358724D01*
X87807986Y-101256649D01*
X87816524Y-101241054D01*
X87861678Y-101120606D01*
X87865305Y-101105351D01*
X87870831Y-101054486D01*
X87871200Y-101047672D01*
X87871200Y-100525115D01*
X87866725Y-100509876D01*
X87865335Y-100508671D01*
X87857652Y-100507000D01*
X85095315Y-100507000D01*
X85080076Y-100511475D01*
X85078871Y-100512865D01*
X85077200Y-100520548D01*
X85077200Y-101492884D01*
X84569200Y-101492884D01*
X84569200Y-99980885D01*
X85077200Y-99980885D01*
X85081675Y-99996124D01*
X85083065Y-99997329D01*
X85090748Y-99999000D01*
X87853084Y-99999000D01*
X87868323Y-99994525D01*
X87869528Y-99993135D01*
X87871199Y-99985452D01*
X87871199Y-99458331D01*
X87870829Y-99451510D01*
X87865305Y-99400648D01*
X87861679Y-99385396D01*
X87816524Y-99264946D01*
X87807986Y-99249351D01*
X87731485Y-99147276D01*
X87718924Y-99134715D01*
X87616849Y-99058214D01*
X87601254Y-99049676D01*
X87480806Y-99004522D01*
X87465551Y-99000895D01*
X87414686Y-98995369D01*
X87407872Y-98995000D01*
X85095315Y-98995000D01*
X85080076Y-98999475D01*
X85078871Y-99000865D01*
X85077200Y-99008548D01*
X85077200Y-99980885D01*
X84569200Y-99980885D01*
X84569200Y-99013116D01*
X84564725Y-98997877D01*
X84563335Y-98996672D01*
X84555652Y-98995001D01*
X82409700Y-98995001D01*
X82341579Y-98974999D01*
X82295086Y-98921343D01*
X82283700Y-98869001D01*
X82283700Y-97387500D01*
X82302149Y-97324669D01*
X98642001Y-97324669D01*
X98642371Y-97331490D01*
X98647895Y-97382352D01*
X98651521Y-97397604D01*
X98696676Y-97518054D01*
X98705214Y-97533649D01*
X98781715Y-97635724D01*
X98794276Y-97648285D01*
X98896351Y-97724786D01*
X98911946Y-97733324D01*
X99032394Y-97778478D01*
X99047649Y-97782105D01*
X99098514Y-97787631D01*
X99105328Y-97788000D01*
X99657885Y-97788000D01*
X99673124Y-97783525D01*
X99674329Y-97782135D01*
X99676000Y-97774452D01*
X99676000Y-97227115D01*
X99671525Y-97211876D01*
X99670135Y-97210671D01*
X99662452Y-97209000D01*
X98660116Y-97209000D01*
X98644877Y-97213475D01*
X98643672Y-97214865D01*
X98642001Y-97222548D01*
X98642001Y-97324669D01*
X82302149Y-97324669D01*
X82303702Y-97319379D01*
X82357358Y-97272886D01*
X82409700Y-97261500D01*
X87411334Y-97261500D01*
X87473516Y-97254745D01*
X87609905Y-97203615D01*
X87726461Y-97116261D01*
X87813815Y-96999705D01*
X87864945Y-96863316D01*
X87869228Y-96823892D01*
X87896470Y-96758330D01*
X87954834Y-96717904D01*
X87994491Y-96711500D01*
X90802363Y-96711500D01*
X90870484Y-96731502D01*
X90910934Y-96777730D01*
X90912200Y-96776946D01*
X91005272Y-96927348D01*
X91130447Y-97052305D01*
X91136677Y-97056145D01*
X91136678Y-97056146D01*
X91273840Y-97140694D01*
X91281012Y-97145115D01*
X91360755Y-97171564D01*
X91442361Y-97198632D01*
X91442363Y-97198632D01*
X91448889Y-97200797D01*
X91455725Y-97201497D01*
X91455728Y-97201498D01*
X91498781Y-97205909D01*
X91553350Y-97211500D01*
X92354150Y-97211500D01*
X92357396Y-97211163D01*
X92357400Y-97211163D01*
X92453058Y-97201238D01*
X92453062Y-97201237D01*
X92459916Y-97200526D01*
X92466452Y-97198345D01*
X92466454Y-97198345D01*
X92598556Y-97154272D01*
X92627696Y-97144550D01*
X92778098Y-97051478D01*
X92864534Y-96964891D01*
X92926816Y-96930812D01*
X92997636Y-96935815D01*
X93042725Y-96964736D01*
X93077755Y-96999705D01*
X93130447Y-97052305D01*
X93136677Y-97056145D01*
X93136678Y-97056146D01*
X93273840Y-97140694D01*
X93281012Y-97145115D01*
X93360755Y-97171564D01*
X93442361Y-97198632D01*
X93442363Y-97198632D01*
X93448889Y-97200797D01*
X93455725Y-97201497D01*
X93455728Y-97201498D01*
X93498781Y-97205909D01*
X93553350Y-97211500D01*
X94354150Y-97211500D01*
X94357396Y-97211163D01*
X94357400Y-97211163D01*
X94453058Y-97201238D01*
X94453062Y-97201237D01*
X94459916Y-97200526D01*
X94466452Y-97198345D01*
X94466454Y-97198345D01*
X94598556Y-97154272D01*
X94627696Y-97144550D01*
X94778098Y-97051478D01*
X94903055Y-96926303D01*
X94946724Y-96855460D01*
X94995865Y-96775738D01*
X94998079Y-96777103D01*
X95036957Y-96732958D01*
X95104223Y-96713500D01*
X98771768Y-96713500D01*
X98839889Y-96733502D01*
X98847333Y-96738674D01*
X98896108Y-96775229D01*
X98896110Y-96775230D01*
X98903295Y-96780615D01*
X99039684Y-96831745D01*
X99101866Y-96838500D01*
X100058000Y-96838500D01*
X100126121Y-96858502D01*
X100172614Y-96912158D01*
X100184000Y-96964500D01*
X100184000Y-97769884D01*
X100188475Y-97785123D01*
X100189865Y-97786328D01*
X100197548Y-97787999D01*
X100435500Y-97787999D01*
X100503621Y-97808001D01*
X100550114Y-97861657D01*
X100561500Y-97913999D01*
X100561500Y-100824383D01*
X100541498Y-100892504D01*
X100501805Y-100931526D01*
X100485652Y-100941522D01*
X100360695Y-101066697D01*
X100357898Y-101071235D01*
X100300647Y-101111824D01*
X100229724Y-101115054D01*
X100168313Y-101079428D01*
X100160938Y-101070932D01*
X100152902Y-101060793D01*
X100038171Y-100946261D01*
X100026760Y-100937249D01*
X99888757Y-100852184D01*
X99875576Y-100846037D01*
X99721290Y-100794862D01*
X99707914Y-100791995D01*
X99613562Y-100782328D01*
X99607145Y-100782000D01*
X99494615Y-100782000D01*
X99479376Y-100786475D01*
X99478171Y-100787865D01*
X99476500Y-100795548D01*
X99476500Y-103229884D01*
X99480975Y-103245123D01*
X99482365Y-103246328D01*
X99490048Y-103247999D01*
X99607095Y-103247999D01*
X99613614Y-103247662D01*
X99709206Y-103237743D01*
X99722600Y-103234851D01*
X99876784Y-103183412D01*
X99889962Y-103177239D01*
X100027807Y-103091937D01*
X100039208Y-103082901D01*
X100153738Y-102968172D01*
X100160794Y-102959238D01*
X100218712Y-102918177D01*
X100289635Y-102914947D01*
X100351046Y-102950574D01*
X100357846Y-102958407D01*
X100361522Y-102964348D01*
X100486697Y-103089305D01*
X100492927Y-103093145D01*
X100492928Y-103093146D01*
X100630288Y-103177816D01*
X100637262Y-103182115D01*
X100717005Y-103208564D01*
X100798611Y-103235632D01*
X100798613Y-103235632D01*
X100805139Y-103237797D01*
X100811975Y-103238497D01*
X100811978Y-103238498D01*
X100855031Y-103242909D01*
X100909600Y-103248500D01*
X101685400Y-103248500D01*
X101688646Y-103248163D01*
X101688650Y-103248163D01*
X101784308Y-103238238D01*
X101784312Y-103238237D01*
X101791166Y-103237526D01*
X101797702Y-103235345D01*
X101797704Y-103235345D01*
X101936942Y-103188891D01*
X101958946Y-103181550D01*
X102109348Y-103088478D01*
X102234305Y-102963303D01*
X102242151Y-102950574D01*
X102323275Y-102818968D01*
X102323276Y-102818966D01*
X102327115Y-102812738D01*
X102329419Y-102805791D01*
X102332513Y-102799156D01*
X102334749Y-102800199D01*
X102368523Y-102751462D01*
X102434091Y-102724234D01*
X102447672Y-102723500D01*
X108620500Y-102723500D01*
X108688621Y-102743502D01*
X108735114Y-102797158D01*
X108746500Y-102849500D01*
X108746500Y-102983134D01*
X108753255Y-103045316D01*
X108804385Y-103181705D01*
X108854445Y-103248500D01*
X108877630Y-103279435D01*
X108902478Y-103345941D01*
X108887425Y-103415324D01*
X108877632Y-103430562D01*
X108804385Y-103528295D01*
X108753255Y-103664684D01*
X108746500Y-103726866D01*
X108746500Y-105523134D01*
X108753255Y-105585316D01*
X108804385Y-105721705D01*
X108809771Y-105728891D01*
X108877942Y-105819852D01*
X108902790Y-105886358D01*
X108887737Y-105955741D01*
X108877942Y-105970982D01*
X108810214Y-106061351D01*
X108801676Y-106076946D01*
X108756522Y-106197394D01*
X108752895Y-106212649D01*
X108747369Y-106263514D01*
X108747000Y-106270328D01*
X108747000Y-106892885D01*
X108751475Y-106908124D01*
X108752865Y-106909329D01*
X108760548Y-106911000D01*
X113244884Y-106911000D01*
X113260123Y-106906525D01*
X113261328Y-106905135D01*
X113262999Y-106897452D01*
X113262999Y-106270331D01*
X113262629Y-106263510D01*
X113257105Y-106212648D01*
X113253479Y-106197396D01*
X113208324Y-106076946D01*
X113199786Y-106061351D01*
X113132058Y-105970982D01*
X113107210Y-105904475D01*
X113122263Y-105835093D01*
X113132058Y-105819852D01*
X113200229Y-105728891D01*
X113205615Y-105721705D01*
X113256745Y-105585316D01*
X113263500Y-105523134D01*
X113263500Y-103726866D01*
X113256745Y-103664684D01*
X113205615Y-103528295D01*
X113132370Y-103430564D01*
X113107522Y-103364059D01*
X113122575Y-103294676D01*
X113132370Y-103279435D01*
X113155555Y-103248500D01*
X113205615Y-103181705D01*
X113256745Y-103045316D01*
X113263500Y-102983134D01*
X113263500Y-101186866D01*
X113256745Y-101124684D01*
X113205615Y-100988295D01*
X113132370Y-100890564D01*
X113107522Y-100824059D01*
X113122575Y-100754676D01*
X113132370Y-100739435D01*
X113200229Y-100648891D01*
X113205615Y-100641705D01*
X113256745Y-100505316D01*
X113263500Y-100443134D01*
X113263500Y-98646866D01*
X113256745Y-98584684D01*
X113205615Y-98448295D01*
X113132370Y-98350564D01*
X113107522Y-98284059D01*
X113122575Y-98214676D01*
X113132370Y-98199435D01*
X113200229Y-98108891D01*
X113205615Y-98101705D01*
X113256745Y-97965316D01*
X113263500Y-97903134D01*
X113263500Y-96106866D01*
X113256745Y-96044684D01*
X113205615Y-95908295D01*
X113147397Y-95830615D01*
X113132058Y-95810148D01*
X113107210Y-95743642D01*
X113122263Y-95674259D01*
X113132058Y-95659018D01*
X113199786Y-95568649D01*
X113208324Y-95553054D01*
X113253478Y-95432606D01*
X113257105Y-95417351D01*
X113262631Y-95366486D01*
X113263000Y-95359672D01*
X113263000Y-94737115D01*
X113258525Y-94721876D01*
X113257135Y-94720671D01*
X113249452Y-94719000D01*
X108765116Y-94719000D01*
X108749877Y-94723475D01*
X108748672Y-94724865D01*
X108747001Y-94732548D01*
X108747001Y-95359669D01*
X108747371Y-95366490D01*
X108752895Y-95417352D01*
X108756521Y-95432604D01*
X108801676Y-95553054D01*
X108810214Y-95568649D01*
X108877942Y-95659018D01*
X108902790Y-95725525D01*
X108887737Y-95794907D01*
X108877942Y-95810148D01*
X108862603Y-95830615D01*
X108804385Y-95908295D01*
X108753255Y-96044684D01*
X108746500Y-96106866D01*
X108746500Y-97903134D01*
X108753255Y-97965316D01*
X108804385Y-98101705D01*
X108809771Y-98108891D01*
X108877630Y-98199435D01*
X108902478Y-98265941D01*
X108887425Y-98335324D01*
X108877632Y-98350562D01*
X108804385Y-98448295D01*
X108753255Y-98584684D01*
X108746500Y-98646866D01*
X108746500Y-100443134D01*
X108753255Y-100505316D01*
X108804385Y-100641705D01*
X108809771Y-100648891D01*
X108877630Y-100739435D01*
X108902478Y-100805941D01*
X108887425Y-100875324D01*
X108877632Y-100890562D01*
X108804385Y-100988295D01*
X108753255Y-101124684D01*
X108746500Y-101186866D01*
X108746500Y-101187766D01*
X108723006Y-101254250D01*
X108666916Y-101297775D01*
X108620845Y-101306500D01*
X102447516Y-101306500D01*
X102379395Y-101286498D01*
X102332902Y-101232842D01*
X102329863Y-101225126D01*
X102328868Y-101223003D01*
X102326550Y-101216054D01*
X102233478Y-101065652D01*
X102108303Y-100940695D01*
X102038384Y-100897596D01*
X101990890Y-100844823D01*
X101978500Y-100790336D01*
X101978500Y-97914500D01*
X101998502Y-97846379D01*
X102052158Y-97799886D01*
X102104500Y-97788500D01*
X103458134Y-97788500D01*
X103520316Y-97781745D01*
X103656705Y-97730615D01*
X103663890Y-97725230D01*
X103663892Y-97725229D01*
X103712667Y-97688674D01*
X103779174Y-97663826D01*
X103788232Y-97663500D01*
X103926088Y-97663500D01*
X103934658Y-97663792D01*
X103984776Y-97667209D01*
X103984780Y-97667209D01*
X103992352Y-97667725D01*
X103999829Y-97666420D01*
X103999830Y-97666420D01*
X104026308Y-97661799D01*
X104055303Y-97656738D01*
X104061821Y-97655777D01*
X104125242Y-97648102D01*
X104132343Y-97645419D01*
X104134952Y-97644778D01*
X104151262Y-97640315D01*
X104153798Y-97639550D01*
X104161284Y-97638243D01*
X104219800Y-97612556D01*
X104225904Y-97610065D01*
X104278548Y-97590173D01*
X104278549Y-97590172D01*
X104285656Y-97587487D01*
X104291919Y-97583183D01*
X104294285Y-97581946D01*
X104309097Y-97573701D01*
X104311351Y-97572368D01*
X104318305Y-97569315D01*
X104369002Y-97530413D01*
X104374332Y-97526541D01*
X104420720Y-97494661D01*
X104420725Y-97494656D01*
X104426981Y-97490357D01*
X104468436Y-97443829D01*
X104473416Y-97438554D01*
X106140528Y-95771443D01*
X106146793Y-95765589D01*
X106184664Y-95732552D01*
X106184665Y-95732551D01*
X106190385Y-95727561D01*
X106227136Y-95675271D01*
X106231028Y-95670029D01*
X106270476Y-95619718D01*
X106273600Y-95612799D01*
X106274988Y-95610507D01*
X106283357Y-95595835D01*
X106284622Y-95593475D01*
X106288990Y-95587261D01*
X106296247Y-95568649D01*
X106312202Y-95527725D01*
X106314759Y-95521642D01*
X106337918Y-95470352D01*
X106341045Y-95463427D01*
X106342430Y-95455954D01*
X106343234Y-95453388D01*
X106347855Y-95437165D01*
X106348520Y-95434573D01*
X106351282Y-95427491D01*
X106359313Y-95366490D01*
X106359622Y-95364139D01*
X106360654Y-95357623D01*
X106370911Y-95302281D01*
X106372295Y-95294814D01*
X106368709Y-95232620D01*
X106368500Y-95225367D01*
X106368500Y-86995660D01*
X106388502Y-86927539D01*
X106405405Y-86906565D01*
X108261565Y-85050405D01*
X108323877Y-85016379D01*
X108350660Y-85013500D01*
X108620500Y-85013500D01*
X108688621Y-85033502D01*
X108735114Y-85087158D01*
X108746500Y-85139500D01*
X108746500Y-85203134D01*
X108753255Y-85265316D01*
X108804385Y-85401705D01*
X108809771Y-85408891D01*
X108877630Y-85499435D01*
X108902478Y-85565941D01*
X108887425Y-85635324D01*
X108877632Y-85650562D01*
X108804385Y-85748295D01*
X108753255Y-85884684D01*
X108746500Y-85946866D01*
X108746500Y-87743134D01*
X108753255Y-87805316D01*
X108804385Y-87941705D01*
X108856331Y-88011016D01*
X108877630Y-88039435D01*
X108902478Y-88105941D01*
X108887425Y-88175324D01*
X108877632Y-88190562D01*
X108804385Y-88288295D01*
X108753255Y-88424684D01*
X108746500Y-88486866D01*
X108746500Y-90283134D01*
X108753255Y-90345316D01*
X108804385Y-90481705D01*
X108877630Y-90579435D01*
X108902478Y-90645941D01*
X108887425Y-90715324D01*
X108877632Y-90730562D01*
X108804385Y-90828295D01*
X108753255Y-90964684D01*
X108746500Y-91026866D01*
X108746500Y-92823134D01*
X108753255Y-92885316D01*
X108804385Y-93021705D01*
X108809771Y-93028891D01*
X108877942Y-93119852D01*
X108902790Y-93186358D01*
X108887737Y-93255741D01*
X108877942Y-93270982D01*
X108810214Y-93361351D01*
X108801676Y-93376946D01*
X108756522Y-93497394D01*
X108752895Y-93512649D01*
X108747369Y-93563514D01*
X108747000Y-93570328D01*
X108747000Y-94192885D01*
X108751475Y-94208124D01*
X108752865Y-94209329D01*
X108760548Y-94211000D01*
X113244884Y-94211000D01*
X113260123Y-94206525D01*
X113261328Y-94205135D01*
X113262999Y-94197452D01*
X113262999Y-93570331D01*
X113262629Y-93563510D01*
X113257105Y-93512648D01*
X113253479Y-93497396D01*
X113208324Y-93376946D01*
X113199786Y-93361351D01*
X113132058Y-93270982D01*
X113107210Y-93204475D01*
X113122263Y-93135093D01*
X113132058Y-93119852D01*
X113200229Y-93028891D01*
X113205615Y-93021705D01*
X113256745Y-92885316D01*
X113263500Y-92823134D01*
X113263500Y-91026866D01*
X113256745Y-90964684D01*
X113205615Y-90828295D01*
X113132370Y-90730564D01*
X113107522Y-90664059D01*
X113122575Y-90594676D01*
X113132370Y-90579435D01*
X113205615Y-90481705D01*
X113256745Y-90345316D01*
X113263500Y-90283134D01*
X113263500Y-88486866D01*
X113256745Y-88424684D01*
X113205615Y-88288295D01*
X113132370Y-88190564D01*
X113107522Y-88124059D01*
X113122575Y-88054676D01*
X113132370Y-88039435D01*
X113153669Y-88011016D01*
X113205615Y-87941705D01*
X113256745Y-87805316D01*
X113263500Y-87743134D01*
X113263500Y-85946866D01*
X113256745Y-85884684D01*
X113205615Y-85748295D01*
X113132370Y-85650564D01*
X113107522Y-85584059D01*
X113122575Y-85514676D01*
X113132370Y-85499435D01*
X113200229Y-85408891D01*
X113205615Y-85401705D01*
X113256745Y-85265316D01*
X113263500Y-85203134D01*
X113263500Y-83406866D01*
X113256745Y-83344684D01*
X113205615Y-83208295D01*
X113155000Y-83140759D01*
X113132058Y-83110148D01*
X113107210Y-83043642D01*
X113122263Y-82974259D01*
X113132058Y-82959018D01*
X113199786Y-82868649D01*
X113208324Y-82853054D01*
X113253478Y-82732606D01*
X113257105Y-82717351D01*
X113262631Y-82666486D01*
X113263000Y-82659672D01*
X113263000Y-82037115D01*
X113258525Y-82021876D01*
X113257135Y-82020671D01*
X113249452Y-82019000D01*
X108765116Y-82019000D01*
X108749877Y-82023475D01*
X108748672Y-82024865D01*
X108747001Y-82032548D01*
X108747001Y-82659669D01*
X108747371Y-82666490D01*
X108752895Y-82717352D01*
X108756521Y-82732604D01*
X108801676Y-82853054D01*
X108810214Y-82868649D01*
X108877942Y-82959018D01*
X108902790Y-83025525D01*
X108887737Y-83094907D01*
X108877942Y-83110148D01*
X108855000Y-83140759D01*
X108804385Y-83208295D01*
X108753255Y-83344684D01*
X108746500Y-83406866D01*
X108746500Y-83470500D01*
X108726498Y-83538621D01*
X108672842Y-83585114D01*
X108620500Y-83596500D01*
X108033927Y-83596500D01*
X108025358Y-83596208D01*
X107975225Y-83592790D01*
X107975221Y-83592790D01*
X107967648Y-83592274D01*
X107904681Y-83603264D01*
X107898169Y-83604224D01*
X107834758Y-83611898D01*
X107827657Y-83614581D01*
X107825048Y-83615222D01*
X107808715Y-83619691D01*
X107806195Y-83620452D01*
X107798717Y-83621757D01*
X107791765Y-83624809D01*
X107791764Y-83624809D01*
X107740204Y-83647441D01*
X107734099Y-83649932D01*
X107681456Y-83669825D01*
X107681452Y-83669827D01*
X107674344Y-83672513D01*
X107668083Y-83676816D01*
X107665717Y-83678053D01*
X107650937Y-83686280D01*
X107648652Y-83687631D01*
X107641695Y-83690685D01*
X107635675Y-83695305D01*
X107635669Y-83695308D01*
X107604542Y-83719194D01*
X107590998Y-83729587D01*
X107585668Y-83733459D01*
X107539280Y-83765339D01*
X107539275Y-83765344D01*
X107533019Y-83769643D01*
X107527968Y-83775313D01*
X107527966Y-83775314D01*
X107491565Y-83816170D01*
X107486584Y-83821446D01*
X105179480Y-86128550D01*
X105173215Y-86134404D01*
X105129615Y-86172439D01*
X105125248Y-86178653D01*
X105092872Y-86224719D01*
X105088939Y-86230014D01*
X105049524Y-86280282D01*
X105046401Y-86287198D01*
X105045017Y-86289484D01*
X105036643Y-86304165D01*
X105035378Y-86306525D01*
X105031010Y-86312739D01*
X105028250Y-86319818D01*
X105028249Y-86319820D01*
X105007798Y-86372275D01*
X105005247Y-86378344D01*
X104978955Y-86436573D01*
X104977571Y-86444040D01*
X104976770Y-86446595D01*
X104972141Y-86462848D01*
X104971478Y-86465428D01*
X104968718Y-86472509D01*
X104967727Y-86480040D01*
X104967726Y-86480042D01*
X104960379Y-86535852D01*
X104959348Y-86542359D01*
X104947704Y-86605186D01*
X104948141Y-86612766D01*
X104948141Y-86612767D01*
X104951291Y-86667392D01*
X104951500Y-86674646D01*
X104951500Y-94904340D01*
X104931498Y-94972461D01*
X104914595Y-94993435D01*
X103766393Y-96141637D01*
X103704081Y-96175663D01*
X103633068Y-96170524D01*
X103556012Y-96141637D01*
X103520316Y-96128255D01*
X103513010Y-96127461D01*
X103451576Y-96092365D01*
X103418756Y-96029410D01*
X103425182Y-95958705D01*
X103468814Y-95902698D01*
X103512940Y-95882546D01*
X103520316Y-95881745D01*
X103656705Y-95830615D01*
X103773261Y-95743261D01*
X103860615Y-95626705D01*
X103911745Y-95490316D01*
X103918500Y-95428134D01*
X103918500Y-94681866D01*
X103911745Y-94619684D01*
X103860615Y-94483295D01*
X103773261Y-94366739D01*
X103656705Y-94279385D01*
X103520316Y-94228255D01*
X103458134Y-94221500D01*
X102850660Y-94221500D01*
X102782539Y-94201498D01*
X102761565Y-94184595D01*
X102015405Y-93438435D01*
X101981379Y-93376123D01*
X101978500Y-93349340D01*
X101978500Y-84264669D01*
X103312001Y-84264669D01*
X103312371Y-84271490D01*
X103317895Y-84322352D01*
X103321521Y-84337604D01*
X103366676Y-84458054D01*
X103375214Y-84473649D01*
X103451715Y-84575724D01*
X103464276Y-84588285D01*
X103566351Y-84664786D01*
X103581946Y-84673324D01*
X103702394Y-84718478D01*
X103717649Y-84722105D01*
X103768514Y-84727631D01*
X103775328Y-84728000D01*
X104047885Y-84728000D01*
X104063124Y-84723525D01*
X104064329Y-84722135D01*
X104066000Y-84714452D01*
X104066000Y-84709884D01*
X104574000Y-84709884D01*
X104578475Y-84725123D01*
X104579865Y-84726328D01*
X104587548Y-84727999D01*
X104864669Y-84727999D01*
X104871490Y-84727629D01*
X104922352Y-84722105D01*
X104937604Y-84718479D01*
X105058054Y-84673324D01*
X105073649Y-84664786D01*
X105175724Y-84588285D01*
X105188285Y-84575724D01*
X105264786Y-84473649D01*
X105273324Y-84458054D01*
X105318478Y-84337606D01*
X105322105Y-84322351D01*
X105327631Y-84271486D01*
X105328000Y-84264672D01*
X105328000Y-83992115D01*
X105323525Y-83976876D01*
X105322135Y-83975671D01*
X105314452Y-83974000D01*
X104592115Y-83974000D01*
X104576876Y-83978475D01*
X104575671Y-83979865D01*
X104574000Y-83987548D01*
X104574000Y-84709884D01*
X104066000Y-84709884D01*
X104066000Y-83992115D01*
X104061525Y-83976876D01*
X104060135Y-83975671D01*
X104052452Y-83974000D01*
X103330116Y-83974000D01*
X103314877Y-83978475D01*
X103313672Y-83979865D01*
X103312001Y-83987548D01*
X103312001Y-84264669D01*
X101978500Y-84264669D01*
X101978500Y-83447885D01*
X103312000Y-83447885D01*
X103316475Y-83463124D01*
X103317865Y-83464329D01*
X103325548Y-83466000D01*
X104047885Y-83466000D01*
X104063124Y-83461525D01*
X104064329Y-83460135D01*
X104066000Y-83452452D01*
X104066000Y-83447885D01*
X104574000Y-83447885D01*
X104578475Y-83463124D01*
X104579865Y-83464329D01*
X104587548Y-83466000D01*
X105309884Y-83466000D01*
X105325123Y-83461525D01*
X105326328Y-83460135D01*
X105327999Y-83452452D01*
X105327999Y-83175331D01*
X105327629Y-83168510D01*
X105322105Y-83117648D01*
X105318479Y-83102396D01*
X105273324Y-82981946D01*
X105264786Y-82966351D01*
X105188285Y-82864276D01*
X105175724Y-82851715D01*
X105073649Y-82775214D01*
X105058054Y-82766676D01*
X104937606Y-82721522D01*
X104922351Y-82717895D01*
X104871486Y-82712369D01*
X104864672Y-82712000D01*
X104592115Y-82712000D01*
X104576876Y-82716475D01*
X104575671Y-82717865D01*
X104574000Y-82725548D01*
X104574000Y-83447885D01*
X104066000Y-83447885D01*
X104066000Y-82730116D01*
X104061525Y-82714877D01*
X104060135Y-82713672D01*
X104052452Y-82712001D01*
X103775331Y-82712001D01*
X103768510Y-82712371D01*
X103717648Y-82717895D01*
X103702396Y-82721521D01*
X103581946Y-82766676D01*
X103566351Y-82775214D01*
X103464276Y-82851715D01*
X103451715Y-82864276D01*
X103375214Y-82966351D01*
X103366676Y-82981946D01*
X103321522Y-83102394D01*
X103317895Y-83117649D01*
X103312369Y-83168514D01*
X103312000Y-83175328D01*
X103312000Y-83447885D01*
X101978500Y-83447885D01*
X101978500Y-81912885D01*
X137222000Y-81912885D01*
X137226475Y-81928124D01*
X137227865Y-81929329D01*
X137235548Y-81931000D01*
X138157885Y-81931000D01*
X138173124Y-81926525D01*
X138174329Y-81925135D01*
X138176000Y-81917452D01*
X138176000Y-81912885D01*
X138684000Y-81912885D01*
X138688475Y-81928124D01*
X138689865Y-81929329D01*
X138697548Y-81931000D01*
X139619884Y-81931000D01*
X139635123Y-81926525D01*
X139636328Y-81925135D01*
X139637999Y-81917452D01*
X139637999Y-81787905D01*
X139637662Y-81781386D01*
X139627743Y-81685794D01*
X139624851Y-81672400D01*
X139573412Y-81518216D01*
X139567239Y-81505038D01*
X139481937Y-81367193D01*
X139472901Y-81355792D01*
X139358171Y-81241261D01*
X139346760Y-81232249D01*
X139208757Y-81147184D01*
X139195576Y-81141037D01*
X139041290Y-81089862D01*
X139027914Y-81086995D01*
X138933562Y-81077328D01*
X138927145Y-81077000D01*
X138702115Y-81077000D01*
X138686876Y-81081475D01*
X138685671Y-81082865D01*
X138684000Y-81090548D01*
X138684000Y-81912885D01*
X138176000Y-81912885D01*
X138176000Y-81095116D01*
X138171525Y-81079877D01*
X138170135Y-81078672D01*
X138162452Y-81077001D01*
X137932905Y-81077001D01*
X137926386Y-81077338D01*
X137830794Y-81087257D01*
X137817400Y-81090149D01*
X137663216Y-81141588D01*
X137650038Y-81147761D01*
X137512193Y-81233063D01*
X137500792Y-81242099D01*
X137386261Y-81356829D01*
X137377249Y-81368240D01*
X137292184Y-81506243D01*
X137286037Y-81519424D01*
X137234862Y-81673710D01*
X137231995Y-81687086D01*
X137222328Y-81781438D01*
X137222000Y-81787855D01*
X137222000Y-81912885D01*
X101978500Y-81912885D01*
X101978500Y-77634500D01*
X101998502Y-77566379D01*
X102052158Y-77519886D01*
X102104500Y-77508500D01*
X103448134Y-77508500D01*
X103510316Y-77501745D01*
X103646705Y-77450615D01*
X103653890Y-77445230D01*
X103653892Y-77445229D01*
X103702667Y-77408674D01*
X103769174Y-77383826D01*
X103778232Y-77383500D01*
X108620500Y-77383500D01*
X108688621Y-77403502D01*
X108735114Y-77457158D01*
X108746500Y-77509500D01*
X108746500Y-77583134D01*
X108753255Y-77645316D01*
X108804385Y-77781705D01*
X108877630Y-77879435D01*
X108902478Y-77945941D01*
X108887425Y-78015324D01*
X108877632Y-78030562D01*
X108804385Y-78128295D01*
X108753255Y-78264684D01*
X108746500Y-78326866D01*
X108746500Y-78390500D01*
X108726498Y-78458621D01*
X108672842Y-78505114D01*
X108620500Y-78516500D01*
X105803912Y-78516500D01*
X105795342Y-78516208D01*
X105745224Y-78512791D01*
X105745220Y-78512791D01*
X105737648Y-78512275D01*
X105730171Y-78513580D01*
X105730170Y-78513580D01*
X105703692Y-78518201D01*
X105674697Y-78523262D01*
X105668179Y-78524223D01*
X105604758Y-78531898D01*
X105597657Y-78534581D01*
X105595048Y-78535222D01*
X105578738Y-78539685D01*
X105576202Y-78540450D01*
X105568716Y-78541757D01*
X105561759Y-78544811D01*
X105510205Y-78567442D01*
X105504101Y-78569933D01*
X105444344Y-78592513D01*
X105438081Y-78596817D01*
X105435715Y-78598054D01*
X105420903Y-78606299D01*
X105418649Y-78607632D01*
X105411695Y-78610685D01*
X105360998Y-78649587D01*
X105355668Y-78653459D01*
X105309280Y-78685339D01*
X105309275Y-78685344D01*
X105303019Y-78689643D01*
X105297968Y-78695313D01*
X105297966Y-78695314D01*
X105261565Y-78736170D01*
X105256584Y-78741446D01*
X104413435Y-79584595D01*
X104351123Y-79618621D01*
X104324340Y-79621500D01*
X103821866Y-79621500D01*
X103759684Y-79628255D01*
X103623295Y-79679385D01*
X103506739Y-79766739D01*
X103419385Y-79883295D01*
X103368255Y-80019684D01*
X103361500Y-80081866D01*
X103361500Y-81178134D01*
X103368255Y-81240316D01*
X103419385Y-81376705D01*
X103506739Y-81493261D01*
X103623295Y-81580615D01*
X103759684Y-81631745D01*
X103821866Y-81638500D01*
X104918134Y-81638500D01*
X104980316Y-81631745D01*
X105116705Y-81580615D01*
X105233261Y-81493261D01*
X105320615Y-81376705D01*
X105371745Y-81240316D01*
X105378500Y-81178134D01*
X105378500Y-80675660D01*
X105398502Y-80607539D01*
X105415405Y-80586565D01*
X106031565Y-79970405D01*
X106093877Y-79936379D01*
X106120660Y-79933500D01*
X108620500Y-79933500D01*
X108688621Y-79953502D01*
X108735114Y-80007158D01*
X108746500Y-80059500D01*
X108746500Y-80123134D01*
X108753255Y-80185316D01*
X108804385Y-80321705D01*
X108809771Y-80328891D01*
X108877942Y-80419852D01*
X108902790Y-80486358D01*
X108887737Y-80555741D01*
X108877942Y-80570982D01*
X108810214Y-80661351D01*
X108801676Y-80676946D01*
X108756522Y-80797394D01*
X108752895Y-80812649D01*
X108747369Y-80863514D01*
X108747000Y-80870328D01*
X108747000Y-81492885D01*
X108751475Y-81508124D01*
X108752865Y-81509329D01*
X108760548Y-81511000D01*
X113244884Y-81511000D01*
X113260123Y-81506525D01*
X113261328Y-81505135D01*
X113262999Y-81497452D01*
X113262999Y-80870331D01*
X113262629Y-80863510D01*
X113257105Y-80812648D01*
X113253479Y-80797396D01*
X113208324Y-80676946D01*
X113199786Y-80661351D01*
X113132058Y-80570982D01*
X113107210Y-80504475D01*
X113122263Y-80435093D01*
X113132058Y-80419852D01*
X113200229Y-80328891D01*
X113205615Y-80321705D01*
X113256745Y-80185316D01*
X113263500Y-80123134D01*
X113263500Y-78326866D01*
X113256745Y-78264684D01*
X113205615Y-78128295D01*
X113132370Y-78030564D01*
X113107522Y-77964059D01*
X113122575Y-77894676D01*
X113132370Y-77879435D01*
X113205615Y-77781705D01*
X113256745Y-77645316D01*
X113263500Y-77583134D01*
X113263500Y-75786866D01*
X113256745Y-75724684D01*
X113205615Y-75588295D01*
X113132370Y-75490564D01*
X113107522Y-75424059D01*
X113122575Y-75354676D01*
X113132370Y-75339435D01*
X113166958Y-75293285D01*
X113205615Y-75241705D01*
X113256745Y-75105316D01*
X113263500Y-75043134D01*
X113263500Y-73246866D01*
X113256745Y-73184684D01*
X113205615Y-73048295D01*
X113132370Y-72950564D01*
X113107522Y-72884059D01*
X113122575Y-72814676D01*
X113132370Y-72799435D01*
X113174675Y-72742988D01*
X113205615Y-72701705D01*
X113256745Y-72565316D01*
X113263500Y-72503134D01*
X113263500Y-70706866D01*
X113256745Y-70644684D01*
X113205615Y-70508295D01*
X113155422Y-70441323D01*
X113132058Y-70410148D01*
X113107210Y-70343642D01*
X113122263Y-70274259D01*
X113132058Y-70259018D01*
X113199786Y-70168649D01*
X113208324Y-70153054D01*
X113253478Y-70032606D01*
X113257105Y-70017351D01*
X113262631Y-69966486D01*
X113263000Y-69959672D01*
X113263000Y-69337115D01*
X113258525Y-69321876D01*
X113257135Y-69320671D01*
X113249452Y-69319000D01*
X108765116Y-69319000D01*
X108749877Y-69323475D01*
X108748672Y-69324865D01*
X108747001Y-69332548D01*
X108747001Y-69959669D01*
X108747371Y-69966490D01*
X108752895Y-70017352D01*
X108756521Y-70032604D01*
X108801676Y-70153054D01*
X108810214Y-70168649D01*
X108877942Y-70259018D01*
X108902790Y-70325525D01*
X108887737Y-70394907D01*
X108877942Y-70410148D01*
X108854578Y-70441323D01*
X108804385Y-70508295D01*
X108753255Y-70644684D01*
X108746500Y-70706866D01*
X108746500Y-72503134D01*
X108753255Y-72565316D01*
X108804385Y-72701705D01*
X108835325Y-72742988D01*
X108877630Y-72799435D01*
X108902478Y-72865941D01*
X108887425Y-72935324D01*
X108877632Y-72950562D01*
X108804385Y-73048295D01*
X108753255Y-73184684D01*
X108746500Y-73246866D01*
X108746500Y-75043134D01*
X108753255Y-75105316D01*
X108804385Y-75241705D01*
X108843042Y-75293285D01*
X108877630Y-75339435D01*
X108902478Y-75405941D01*
X108887425Y-75475324D01*
X108877632Y-75490562D01*
X108804385Y-75588295D01*
X108753255Y-75724684D01*
X108746500Y-75786866D01*
X108746500Y-75840500D01*
X108726498Y-75908621D01*
X108672842Y-75955114D01*
X108620500Y-75966500D01*
X103778232Y-75966500D01*
X103710111Y-75946498D01*
X103702667Y-75941326D01*
X103653892Y-75904771D01*
X103653890Y-75904770D01*
X103646705Y-75899385D01*
X103510316Y-75848255D01*
X103503010Y-75847461D01*
X103441576Y-75812365D01*
X103408756Y-75749410D01*
X103415182Y-75678705D01*
X103458814Y-75622698D01*
X103502940Y-75602546D01*
X103510316Y-75601745D01*
X103646705Y-75550615D01*
X103653890Y-75545230D01*
X103653892Y-75545229D01*
X103702667Y-75508674D01*
X103769174Y-75483826D01*
X103778232Y-75483500D01*
X104751088Y-75483500D01*
X104759658Y-75483792D01*
X104809776Y-75487209D01*
X104809780Y-75487209D01*
X104817352Y-75487725D01*
X104824829Y-75486420D01*
X104824830Y-75486420D01*
X104851308Y-75481799D01*
X104880303Y-75476738D01*
X104886821Y-75475777D01*
X104950242Y-75468102D01*
X104957343Y-75465419D01*
X104959952Y-75464778D01*
X104976262Y-75460315D01*
X104978798Y-75459550D01*
X104986284Y-75458243D01*
X105044800Y-75432556D01*
X105050904Y-75430065D01*
X105058659Y-75427135D01*
X105110656Y-75407487D01*
X105116919Y-75403183D01*
X105119285Y-75401946D01*
X105134097Y-75393701D01*
X105136351Y-75392368D01*
X105143305Y-75389315D01*
X105194002Y-75350413D01*
X105199332Y-75346541D01*
X105245720Y-75314661D01*
X105245725Y-75314656D01*
X105251981Y-75310357D01*
X105293436Y-75263829D01*
X105298416Y-75258554D01*
X106280520Y-74276450D01*
X106286785Y-74270596D01*
X106304477Y-74255162D01*
X106330385Y-74232561D01*
X106367122Y-74180289D01*
X106371050Y-74175000D01*
X106405791Y-74130694D01*
X106410477Y-74124718D01*
X106413602Y-74117796D01*
X106414964Y-74115548D01*
X106423368Y-74100815D01*
X106424622Y-74098476D01*
X106428990Y-74092261D01*
X106431749Y-74085185D01*
X106431751Y-74085181D01*
X106452200Y-74032731D01*
X106454749Y-74026666D01*
X106481045Y-73968427D01*
X106482429Y-73960962D01*
X106483226Y-73958418D01*
X106487859Y-73942152D01*
X106488521Y-73939572D01*
X106491282Y-73932491D01*
X106493174Y-73918124D01*
X106499621Y-73869147D01*
X106500653Y-73862629D01*
X106512296Y-73799813D01*
X106508709Y-73737607D01*
X106508500Y-73730353D01*
X106508500Y-69282885D01*
X137222000Y-69282885D01*
X137226475Y-69298124D01*
X137227865Y-69299329D01*
X137235548Y-69301000D01*
X138157885Y-69301000D01*
X138173124Y-69296525D01*
X138174329Y-69295135D01*
X138176000Y-69287452D01*
X138176000Y-69282885D01*
X138684000Y-69282885D01*
X138688475Y-69298124D01*
X138689865Y-69299329D01*
X138697548Y-69301000D01*
X139619884Y-69301000D01*
X139635123Y-69296525D01*
X139636328Y-69295135D01*
X139637999Y-69287452D01*
X139637999Y-69157905D01*
X139637662Y-69151386D01*
X139627743Y-69055794D01*
X139624851Y-69042400D01*
X139573412Y-68888216D01*
X139567239Y-68875038D01*
X139481937Y-68737193D01*
X139472901Y-68725792D01*
X139358171Y-68611261D01*
X139346760Y-68602249D01*
X139208757Y-68517184D01*
X139195576Y-68511037D01*
X139041290Y-68459862D01*
X139027914Y-68456995D01*
X138933562Y-68447328D01*
X138927145Y-68447000D01*
X138702115Y-68447000D01*
X138686876Y-68451475D01*
X138685671Y-68452865D01*
X138684000Y-68460548D01*
X138684000Y-69282885D01*
X138176000Y-69282885D01*
X138176000Y-68465116D01*
X138171525Y-68449877D01*
X138170135Y-68448672D01*
X138162452Y-68447001D01*
X137932905Y-68447001D01*
X137926386Y-68447338D01*
X137830794Y-68457257D01*
X137817400Y-68460149D01*
X137663216Y-68511588D01*
X137650038Y-68517761D01*
X137512193Y-68603063D01*
X137500792Y-68612099D01*
X137386261Y-68726829D01*
X137377249Y-68738240D01*
X137292184Y-68876243D01*
X137286037Y-68889424D01*
X137234862Y-69043710D01*
X137231995Y-69057086D01*
X137222328Y-69151438D01*
X137222000Y-69157855D01*
X137222000Y-69282885D01*
X106508500Y-69282885D01*
X106508500Y-67423134D01*
X108746500Y-67423134D01*
X108753255Y-67485316D01*
X108804385Y-67621705D01*
X108836876Y-67665058D01*
X108877942Y-67719852D01*
X108902790Y-67786358D01*
X108887737Y-67855741D01*
X108877942Y-67870982D01*
X108810214Y-67961351D01*
X108801676Y-67976946D01*
X108756522Y-68097394D01*
X108752895Y-68112649D01*
X108747369Y-68163514D01*
X108747000Y-68170328D01*
X108747000Y-68792885D01*
X108751475Y-68808124D01*
X108752865Y-68809329D01*
X108760548Y-68811000D01*
X113244884Y-68811000D01*
X113260123Y-68806525D01*
X113261328Y-68805135D01*
X113262999Y-68797452D01*
X113262999Y-68170331D01*
X113262629Y-68163510D01*
X113257105Y-68112648D01*
X113253479Y-68097396D01*
X113208324Y-67976946D01*
X113199786Y-67961351D01*
X113132058Y-67870982D01*
X113107210Y-67804475D01*
X113122263Y-67735093D01*
X113132058Y-67719852D01*
X113173124Y-67665058D01*
X113205615Y-67621705D01*
X113256745Y-67485316D01*
X113263500Y-67423134D01*
X113263500Y-65626866D01*
X113256745Y-65564684D01*
X113205615Y-65428295D01*
X113132370Y-65330564D01*
X113107522Y-65264059D01*
X113122575Y-65194676D01*
X113132370Y-65179435D01*
X113144313Y-65163500D01*
X113182060Y-65113134D01*
X116896500Y-65113134D01*
X116903255Y-65175316D01*
X116954385Y-65311705D01*
X117041739Y-65428261D01*
X117158295Y-65515615D01*
X117294684Y-65566745D01*
X117356866Y-65573500D01*
X119153134Y-65573500D01*
X119215316Y-65566745D01*
X119351705Y-65515615D01*
X119449851Y-65442058D01*
X119516358Y-65417210D01*
X119585741Y-65432263D01*
X119600982Y-65442058D01*
X119691351Y-65509786D01*
X119706946Y-65518324D01*
X119827394Y-65563478D01*
X119842649Y-65567105D01*
X119893514Y-65572631D01*
X119900328Y-65573000D01*
X120522885Y-65573000D01*
X120538124Y-65568525D01*
X120539329Y-65567135D01*
X120541000Y-65559452D01*
X120541000Y-65554884D01*
X121049000Y-65554884D01*
X121053475Y-65570123D01*
X121054865Y-65571328D01*
X121062548Y-65572999D01*
X121689669Y-65572999D01*
X121696490Y-65572629D01*
X121747352Y-65567105D01*
X121762604Y-65563479D01*
X121883054Y-65518324D01*
X121898649Y-65509786D01*
X121989018Y-65442058D01*
X122055525Y-65417210D01*
X122124907Y-65432263D01*
X122140148Y-65442058D01*
X122238295Y-65515615D01*
X122374684Y-65566745D01*
X122436866Y-65573500D01*
X124233134Y-65573500D01*
X124295316Y-65566745D01*
X124431705Y-65515615D01*
X124548261Y-65428261D01*
X124635615Y-65311705D01*
X124686745Y-65175316D01*
X124693500Y-65113134D01*
X124693500Y-61516866D01*
X124686745Y-61454684D01*
X124635615Y-61318295D01*
X124548261Y-61201739D01*
X124431705Y-61114385D01*
X124295316Y-61063255D01*
X124233134Y-61056500D01*
X122436866Y-61056500D01*
X122374684Y-61063255D01*
X122238295Y-61114385D01*
X122172694Y-61163550D01*
X122140148Y-61187942D01*
X122073642Y-61212790D01*
X122004259Y-61197737D01*
X121989018Y-61187942D01*
X121898649Y-61120214D01*
X121883054Y-61111676D01*
X121762606Y-61066522D01*
X121747351Y-61062895D01*
X121696486Y-61057369D01*
X121689672Y-61057000D01*
X121067115Y-61057000D01*
X121051876Y-61061475D01*
X121050671Y-61062865D01*
X121049000Y-61070548D01*
X121049000Y-65554884D01*
X120541000Y-65554884D01*
X120541000Y-61075116D01*
X120536525Y-61059877D01*
X120535135Y-61058672D01*
X120527452Y-61057001D01*
X119900331Y-61057001D01*
X119893510Y-61057371D01*
X119842648Y-61062895D01*
X119827396Y-61066521D01*
X119706946Y-61111676D01*
X119691351Y-61120214D01*
X119600982Y-61187942D01*
X119534475Y-61212790D01*
X119465093Y-61197737D01*
X119449852Y-61187942D01*
X119417306Y-61163550D01*
X119351705Y-61114385D01*
X119215316Y-61063255D01*
X119153134Y-61056500D01*
X117356866Y-61056500D01*
X117294684Y-61063255D01*
X117158295Y-61114385D01*
X117041739Y-61201739D01*
X116954385Y-61318295D01*
X116903255Y-61454684D01*
X116896500Y-61516866D01*
X116896500Y-65113134D01*
X113182060Y-65113134D01*
X113205615Y-65081705D01*
X113256745Y-64945316D01*
X113263500Y-64883134D01*
X113263500Y-63086866D01*
X113256745Y-63024684D01*
X113205615Y-62888295D01*
X113118261Y-62771739D01*
X113001705Y-62684385D01*
X112865316Y-62633255D01*
X112803134Y-62626500D01*
X109206866Y-62626500D01*
X109144684Y-62633255D01*
X109008295Y-62684385D01*
X108891739Y-62771739D01*
X108804385Y-62888295D01*
X108753255Y-63024684D01*
X108746500Y-63086866D01*
X108746500Y-64883134D01*
X108753255Y-64945316D01*
X108804385Y-65081705D01*
X108865687Y-65163500D01*
X108877630Y-65179435D01*
X108902478Y-65245941D01*
X108887425Y-65315324D01*
X108877632Y-65330562D01*
X108804385Y-65428295D01*
X108753255Y-65564684D01*
X108746500Y-65626866D01*
X108746500Y-67423134D01*
X106508500Y-67423134D01*
X106508500Y-62030660D01*
X106528502Y-61962539D01*
X106545405Y-61941565D01*
X108051565Y-60435405D01*
X108113877Y-60401379D01*
X108140660Y-60398500D01*
X140219340Y-60398500D01*
X140287461Y-60418502D01*
X140308435Y-60435405D01*
X145845506Y-65972477D01*
X145879532Y-66034789D01*
X145874467Y-66105604D01*
X145855565Y-66139317D01*
X145819524Y-66185282D01*
X145816401Y-66192199D01*
X145815017Y-66194484D01*
X145806643Y-66209165D01*
X145805378Y-66211525D01*
X145801010Y-66217739D01*
X145798250Y-66224818D01*
X145798249Y-66224820D01*
X145777798Y-66277275D01*
X145775247Y-66283344D01*
X145748955Y-66341573D01*
X145747571Y-66349040D01*
X145746770Y-66351595D01*
X145742141Y-66367848D01*
X145741478Y-66370428D01*
X145738718Y-66377509D01*
X145737727Y-66385040D01*
X145737726Y-66385042D01*
X145730379Y-66440852D01*
X145729348Y-66447359D01*
X145717704Y-66510186D01*
X145718141Y-66517766D01*
X145718141Y-66517767D01*
X145721291Y-66572392D01*
X145721500Y-66579646D01*
X145721500Y-67540340D01*
X145701498Y-67608461D01*
X145647842Y-67654954D01*
X145577568Y-67665058D01*
X145512988Y-67635564D01*
X145506405Y-67629435D01*
X141451450Y-63574480D01*
X141445596Y-63568215D01*
X141444070Y-63566466D01*
X141407561Y-63524615D01*
X141355280Y-63487871D01*
X141349986Y-63483939D01*
X141305693Y-63449209D01*
X141299718Y-63444524D01*
X141292802Y-63441401D01*
X141290516Y-63440017D01*
X141275835Y-63431643D01*
X141273475Y-63430378D01*
X141267261Y-63426010D01*
X141260182Y-63423250D01*
X141260180Y-63423249D01*
X141207725Y-63402798D01*
X141201656Y-63400247D01*
X141143427Y-63373955D01*
X141135960Y-63372571D01*
X141133405Y-63371770D01*
X141117152Y-63367141D01*
X141114572Y-63366478D01*
X141107491Y-63363718D01*
X141099960Y-63362727D01*
X141099958Y-63362726D01*
X141070339Y-63358827D01*
X141044139Y-63355378D01*
X141037641Y-63354348D01*
X140974814Y-63342704D01*
X140967234Y-63343141D01*
X140967233Y-63343141D01*
X140912608Y-63346291D01*
X140905354Y-63346500D01*
X139620369Y-63346500D01*
X139552248Y-63326498D01*
X139513228Y-63286807D01*
X139478478Y-63230652D01*
X139353303Y-63105695D01*
X139270211Y-63054476D01*
X139208968Y-63016725D01*
X139208966Y-63016724D01*
X139202738Y-63012885D01*
X139122995Y-62986436D01*
X139041389Y-62959368D01*
X139041387Y-62959368D01*
X139034861Y-62957203D01*
X139028025Y-62956503D01*
X139028022Y-62956502D01*
X138984969Y-62952091D01*
X138930400Y-62946500D01*
X137929600Y-62946500D01*
X137926354Y-62946837D01*
X137926350Y-62946837D01*
X137830692Y-62956762D01*
X137830688Y-62956763D01*
X137823834Y-62957474D01*
X137817298Y-62959655D01*
X137817296Y-62959655D01*
X137787359Y-62969643D01*
X137656054Y-63013450D01*
X137505652Y-63106522D01*
X137380695Y-63231697D01*
X137380344Y-63231347D01*
X137326307Y-63269656D01*
X137285345Y-63276500D01*
X132969500Y-63276500D01*
X132901379Y-63256498D01*
X132854886Y-63202842D01*
X132843500Y-63150500D01*
X132843500Y-63086866D01*
X132836745Y-63024684D01*
X132785615Y-62888295D01*
X132698261Y-62771739D01*
X132581705Y-62684385D01*
X132445316Y-62633255D01*
X132383134Y-62626500D01*
X128786866Y-62626500D01*
X128724684Y-62633255D01*
X128588295Y-62684385D01*
X128471739Y-62771739D01*
X128384385Y-62888295D01*
X128333255Y-63024684D01*
X128326500Y-63086866D01*
X128326500Y-64883134D01*
X128333255Y-64945316D01*
X128384385Y-65081705D01*
X128445687Y-65163500D01*
X128457630Y-65179435D01*
X128482478Y-65245941D01*
X128467425Y-65315324D01*
X128457632Y-65330562D01*
X128384385Y-65428295D01*
X128333255Y-65564684D01*
X128326500Y-65626866D01*
X128326500Y-67423134D01*
X128333255Y-67485316D01*
X128384385Y-67621705D01*
X128416876Y-67665058D01*
X128457942Y-67719852D01*
X128482790Y-67786358D01*
X128467737Y-67855741D01*
X128457942Y-67870982D01*
X128390214Y-67961351D01*
X128381676Y-67976946D01*
X128336522Y-68097394D01*
X128332895Y-68112649D01*
X128327369Y-68163514D01*
X128327000Y-68170328D01*
X128327000Y-68792885D01*
X128331475Y-68808124D01*
X128332865Y-68809329D01*
X128340548Y-68811000D01*
X132824884Y-68811000D01*
X132840123Y-68806525D01*
X132841328Y-68805135D01*
X132842999Y-68797452D01*
X132842999Y-68170331D01*
X132842629Y-68163510D01*
X132837105Y-68112648D01*
X132833479Y-68097396D01*
X132788324Y-67976946D01*
X132779786Y-67961351D01*
X132712058Y-67870982D01*
X132687210Y-67804475D01*
X132702263Y-67735093D01*
X132712058Y-67719852D01*
X132753124Y-67665058D01*
X132785615Y-67621705D01*
X132836745Y-67485316D01*
X132843500Y-67423134D01*
X132843500Y-66452095D01*
X137222001Y-66452095D01*
X137222338Y-66458614D01*
X137232257Y-66554206D01*
X137235149Y-66567600D01*
X137286588Y-66721784D01*
X137292761Y-66734962D01*
X137378063Y-66872807D01*
X137387099Y-66884208D01*
X137501829Y-66998739D01*
X137513240Y-67007751D01*
X137651243Y-67092816D01*
X137664424Y-67098963D01*
X137818710Y-67150138D01*
X137832086Y-67153005D01*
X137926438Y-67162672D01*
X137932854Y-67163000D01*
X138157885Y-67163000D01*
X138173124Y-67158525D01*
X138174329Y-67157135D01*
X138176000Y-67149452D01*
X138176000Y-67144884D01*
X138684000Y-67144884D01*
X138688475Y-67160123D01*
X138689865Y-67161328D01*
X138697548Y-67162999D01*
X138927095Y-67162999D01*
X138933614Y-67162662D01*
X139029206Y-67152743D01*
X139042600Y-67149851D01*
X139196784Y-67098412D01*
X139209962Y-67092239D01*
X139347807Y-67006937D01*
X139359208Y-66997901D01*
X139473739Y-66883171D01*
X139482751Y-66871760D01*
X139567816Y-66733757D01*
X139573963Y-66720576D01*
X139625138Y-66566290D01*
X139628005Y-66552914D01*
X139637672Y-66458562D01*
X139638000Y-66452146D01*
X139638000Y-66327115D01*
X139633525Y-66311876D01*
X139632135Y-66310671D01*
X139624452Y-66309000D01*
X138702115Y-66309000D01*
X138686876Y-66313475D01*
X138685671Y-66314865D01*
X138684000Y-66322548D01*
X138684000Y-67144884D01*
X138176000Y-67144884D01*
X138176000Y-66327115D01*
X138171525Y-66311876D01*
X138170135Y-66310671D01*
X138162452Y-66309000D01*
X137240116Y-66309000D01*
X137224877Y-66313475D01*
X137223672Y-66314865D01*
X137222001Y-66322548D01*
X137222001Y-66452095D01*
X132843500Y-66452095D01*
X132843500Y-65626866D01*
X132836745Y-65564684D01*
X132785615Y-65428295D01*
X132712370Y-65330564D01*
X132687522Y-65264059D01*
X132702575Y-65194676D01*
X132712370Y-65179435D01*
X132724313Y-65163500D01*
X132785615Y-65081705D01*
X132836745Y-64945316D01*
X132843500Y-64883134D01*
X132843500Y-64819500D01*
X132863502Y-64751379D01*
X132917158Y-64704886D01*
X132969500Y-64693500D01*
X137196313Y-64693500D01*
X137264434Y-64713502D01*
X137303457Y-64753197D01*
X137381522Y-64879348D01*
X137386704Y-64884521D01*
X137468463Y-64966138D01*
X137502542Y-65028421D01*
X137497539Y-65099241D01*
X137468618Y-65144329D01*
X137386261Y-65226829D01*
X137377249Y-65238240D01*
X137292184Y-65376243D01*
X137286037Y-65389424D01*
X137234862Y-65543710D01*
X137231995Y-65557086D01*
X137222328Y-65651438D01*
X137222000Y-65657855D01*
X137222000Y-65782885D01*
X137226475Y-65798124D01*
X137227865Y-65799329D01*
X137235548Y-65801000D01*
X139619884Y-65801000D01*
X139635123Y-65796525D01*
X139636328Y-65795135D01*
X139637999Y-65787452D01*
X139637999Y-65657905D01*
X139637662Y-65651386D01*
X139627743Y-65555794D01*
X139624851Y-65542400D01*
X139573412Y-65388216D01*
X139567239Y-65375038D01*
X139481937Y-65237193D01*
X139472901Y-65225792D01*
X139391538Y-65144570D01*
X139357459Y-65082287D01*
X139362462Y-65011467D01*
X139391383Y-64966380D01*
X139474130Y-64883488D01*
X139474134Y-64883483D01*
X139479305Y-64878303D01*
X139483144Y-64872075D01*
X139483148Y-64872070D01*
X139513159Y-64823383D01*
X139565931Y-64775890D01*
X139620418Y-64763500D01*
X140584340Y-64763500D01*
X140652461Y-64783502D01*
X140673435Y-64800405D01*
X145184595Y-69311565D01*
X145218621Y-69373877D01*
X145221500Y-69400660D01*
X145221500Y-70526088D01*
X145221208Y-70534658D01*
X145217275Y-70592352D01*
X145218580Y-70599829D01*
X145218580Y-70599830D01*
X145228261Y-70655299D01*
X145229223Y-70661821D01*
X145236898Y-70725242D01*
X145239581Y-70732343D01*
X145240222Y-70734952D01*
X145244685Y-70751262D01*
X145245450Y-70753798D01*
X145246757Y-70761284D01*
X145249811Y-70768241D01*
X145272442Y-70819795D01*
X145274935Y-70825904D01*
X145294053Y-70876498D01*
X145297513Y-70885656D01*
X145301817Y-70891919D01*
X145303054Y-70894285D01*
X145311299Y-70909097D01*
X145312632Y-70911351D01*
X145315685Y-70918305D01*
X145338943Y-70948614D01*
X145354579Y-70968991D01*
X145358459Y-70974332D01*
X145390339Y-71020720D01*
X145390344Y-71020725D01*
X145394643Y-71026981D01*
X145400313Y-71032032D01*
X145400314Y-71032034D01*
X145441170Y-71068435D01*
X145446446Y-71073416D01*
X145839435Y-71466405D01*
X145873461Y-71528717D01*
X145868396Y-71599532D01*
X145825849Y-71656368D01*
X145759329Y-71681179D01*
X145750340Y-71681500D01*
X139764500Y-71681500D01*
X139696379Y-71661498D01*
X139649886Y-71607842D01*
X139638500Y-71555500D01*
X139638500Y-71154600D01*
X139627526Y-71048834D01*
X139618147Y-71020720D01*
X139573868Y-70888002D01*
X139571550Y-70881054D01*
X139478478Y-70730652D01*
X139465505Y-70717702D01*
X139391537Y-70643862D01*
X139357458Y-70581579D01*
X139362461Y-70510759D01*
X139391382Y-70465671D01*
X139473739Y-70383171D01*
X139482751Y-70371760D01*
X139567816Y-70233757D01*
X139573963Y-70220576D01*
X139625138Y-70066290D01*
X139628005Y-70052914D01*
X139637672Y-69958562D01*
X139638000Y-69952146D01*
X139638000Y-69827115D01*
X139633525Y-69811876D01*
X139632135Y-69810671D01*
X139624452Y-69809000D01*
X137240116Y-69809000D01*
X137224877Y-69813475D01*
X137223672Y-69814865D01*
X137222001Y-69822548D01*
X137222001Y-69952095D01*
X137222338Y-69958614D01*
X137232257Y-70054206D01*
X137235149Y-70067600D01*
X137286588Y-70221784D01*
X137292761Y-70234962D01*
X137378063Y-70372807D01*
X137387099Y-70384208D01*
X137468462Y-70465430D01*
X137502541Y-70527713D01*
X137497538Y-70598533D01*
X137468617Y-70643620D01*
X137385870Y-70726512D01*
X137385866Y-70726517D01*
X137380695Y-70731697D01*
X137323153Y-70825048D01*
X137316022Y-70836616D01*
X137263250Y-70884109D01*
X137208762Y-70896500D01*
X132969500Y-70896500D01*
X132901379Y-70876498D01*
X132854886Y-70822842D01*
X132843500Y-70770500D01*
X132843500Y-70706866D01*
X132836745Y-70644684D01*
X132785615Y-70508295D01*
X132735422Y-70441323D01*
X132712058Y-70410148D01*
X132687210Y-70343642D01*
X132702263Y-70274259D01*
X132712058Y-70259018D01*
X132779786Y-70168649D01*
X132788324Y-70153054D01*
X132833478Y-70032606D01*
X132837105Y-70017351D01*
X132842631Y-69966486D01*
X132843000Y-69959672D01*
X132843000Y-69337115D01*
X132838525Y-69321876D01*
X132837135Y-69320671D01*
X132829452Y-69319000D01*
X128345116Y-69319000D01*
X128329877Y-69323475D01*
X128328672Y-69324865D01*
X128327001Y-69332548D01*
X128327001Y-69959669D01*
X128327371Y-69966490D01*
X128332895Y-70017352D01*
X128336521Y-70032604D01*
X128381676Y-70153054D01*
X128390214Y-70168649D01*
X128457942Y-70259018D01*
X128482790Y-70325525D01*
X128467737Y-70394907D01*
X128457942Y-70410148D01*
X128434578Y-70441323D01*
X128384385Y-70508295D01*
X128333255Y-70644684D01*
X128326500Y-70706866D01*
X128326500Y-72503134D01*
X128333255Y-72565316D01*
X128384385Y-72701705D01*
X128415325Y-72742988D01*
X128457630Y-72799435D01*
X128482478Y-72865941D01*
X128467425Y-72935324D01*
X128457632Y-72950562D01*
X128384385Y-73048295D01*
X128333255Y-73184684D01*
X128326500Y-73246866D01*
X128326500Y-75043134D01*
X128333255Y-75105316D01*
X128384385Y-75241705D01*
X128423042Y-75293285D01*
X128457630Y-75339435D01*
X128482478Y-75405941D01*
X128467425Y-75475324D01*
X128457632Y-75490562D01*
X128384385Y-75588295D01*
X128333255Y-75724684D01*
X128326500Y-75786866D01*
X128326500Y-77583134D01*
X128333255Y-77645316D01*
X128384385Y-77781705D01*
X128457630Y-77879435D01*
X128482478Y-77945941D01*
X128467425Y-78015324D01*
X128457632Y-78030562D01*
X128384385Y-78128295D01*
X128333255Y-78264684D01*
X128326500Y-78326866D01*
X128326500Y-80123134D01*
X128333255Y-80185316D01*
X128384385Y-80321705D01*
X128389771Y-80328891D01*
X128457942Y-80419852D01*
X128482790Y-80486358D01*
X128467737Y-80555741D01*
X128457942Y-80570982D01*
X128390214Y-80661351D01*
X128381676Y-80676946D01*
X128336522Y-80797394D01*
X128332895Y-80812649D01*
X128327369Y-80863514D01*
X128327000Y-80870328D01*
X128327000Y-81492885D01*
X128331475Y-81508124D01*
X128332865Y-81509329D01*
X128340548Y-81511000D01*
X132824884Y-81511000D01*
X132840123Y-81506525D01*
X132841328Y-81505135D01*
X132842999Y-81497452D01*
X132842999Y-80870331D01*
X132842629Y-80863510D01*
X132837105Y-80812648D01*
X132833479Y-80797396D01*
X132788324Y-80676946D01*
X132779786Y-80661351D01*
X132712058Y-80570982D01*
X132687210Y-80504475D01*
X132702263Y-80435093D01*
X132712058Y-80419852D01*
X132780229Y-80328891D01*
X132785615Y-80321705D01*
X132836745Y-80185316D01*
X132843500Y-80123134D01*
X132843500Y-78952095D01*
X137222001Y-78952095D01*
X137222338Y-78958614D01*
X137232257Y-79054206D01*
X137235149Y-79067600D01*
X137286588Y-79221784D01*
X137292761Y-79234962D01*
X137378063Y-79372807D01*
X137387099Y-79384208D01*
X137501829Y-79498739D01*
X137513240Y-79507751D01*
X137651243Y-79592816D01*
X137664424Y-79598963D01*
X137818710Y-79650138D01*
X137832086Y-79653005D01*
X137926438Y-79662672D01*
X137932854Y-79663000D01*
X138157885Y-79663000D01*
X138173124Y-79658525D01*
X138174329Y-79657135D01*
X138176000Y-79649452D01*
X138176000Y-79644884D01*
X138684000Y-79644884D01*
X138688475Y-79660123D01*
X138689865Y-79661328D01*
X138697548Y-79662999D01*
X138927095Y-79662999D01*
X138933614Y-79662662D01*
X139029206Y-79652743D01*
X139042600Y-79649851D01*
X139196784Y-79598412D01*
X139209962Y-79592239D01*
X139347807Y-79506937D01*
X139359208Y-79497901D01*
X139473739Y-79383171D01*
X139482751Y-79371760D01*
X139567816Y-79233757D01*
X139573963Y-79220576D01*
X139625138Y-79066290D01*
X139628005Y-79052914D01*
X139637672Y-78958562D01*
X139638000Y-78952146D01*
X139638000Y-78827115D01*
X139633525Y-78811876D01*
X139632135Y-78810671D01*
X139624452Y-78809000D01*
X138702115Y-78809000D01*
X138686876Y-78813475D01*
X138685671Y-78814865D01*
X138684000Y-78822548D01*
X138684000Y-79644884D01*
X138176000Y-79644884D01*
X138176000Y-78827115D01*
X138171525Y-78811876D01*
X138170135Y-78810671D01*
X138162452Y-78809000D01*
X137240116Y-78809000D01*
X137224877Y-78813475D01*
X137223672Y-78814865D01*
X137222001Y-78822548D01*
X137222001Y-78952095D01*
X132843500Y-78952095D01*
X132843500Y-78326866D01*
X132836745Y-78264684D01*
X132785615Y-78128295D01*
X132712370Y-78030564D01*
X132687522Y-77964059D01*
X132702575Y-77894676D01*
X132712370Y-77879435D01*
X132785615Y-77781705D01*
X132836745Y-77645316D01*
X132843500Y-77583134D01*
X132843500Y-77519500D01*
X132863502Y-77451379D01*
X132917158Y-77404886D01*
X132969500Y-77393500D01*
X137343572Y-77393500D01*
X137411693Y-77413502D01*
X137432590Y-77430328D01*
X137468463Y-77466139D01*
X137502542Y-77528421D01*
X137497539Y-77599241D01*
X137468618Y-77644329D01*
X137386261Y-77726829D01*
X137377249Y-77738240D01*
X137292184Y-77876243D01*
X137286037Y-77889424D01*
X137234862Y-78043710D01*
X137231995Y-78057086D01*
X137222328Y-78151438D01*
X137222000Y-78157855D01*
X137222000Y-78282885D01*
X137226475Y-78298124D01*
X137227865Y-78299329D01*
X137235548Y-78301000D01*
X139619884Y-78301000D01*
X139635123Y-78296525D01*
X139636328Y-78295135D01*
X139637999Y-78287452D01*
X139637999Y-78157905D01*
X139637662Y-78151386D01*
X139627743Y-78055794D01*
X139624851Y-78042400D01*
X139573412Y-77888216D01*
X139567239Y-77875038D01*
X139481937Y-77737193D01*
X139472901Y-77725792D01*
X139391538Y-77644570D01*
X139357459Y-77582287D01*
X139362462Y-77511467D01*
X139391383Y-77466380D01*
X139474130Y-77383488D01*
X139474134Y-77383483D01*
X139479305Y-77378303D01*
X139572115Y-77227738D01*
X139598564Y-77147995D01*
X139625632Y-77066389D01*
X139625632Y-77066387D01*
X139627797Y-77059861D01*
X139631711Y-77021659D01*
X139658552Y-76955931D01*
X139716666Y-76915149D01*
X139757055Y-76908500D01*
X145256088Y-76908500D01*
X145264658Y-76908792D01*
X145314775Y-76912209D01*
X145314779Y-76912209D01*
X145322352Y-76912725D01*
X145329829Y-76911420D01*
X145329832Y-76911420D01*
X145335812Y-76910376D01*
X145357474Y-76908500D01*
X145770340Y-76908500D01*
X145838461Y-76928502D01*
X145884954Y-76982158D01*
X145895058Y-77052432D01*
X145865564Y-77117012D01*
X145859435Y-77123595D01*
X145264480Y-77718550D01*
X145258215Y-77724404D01*
X145214615Y-77762439D01*
X145177872Y-77814719D01*
X145173939Y-77820014D01*
X145134524Y-77870282D01*
X145131401Y-77877198D01*
X145130017Y-77879484D01*
X145121643Y-77894165D01*
X145120378Y-77896525D01*
X145116010Y-77902739D01*
X145113250Y-77909818D01*
X145113249Y-77909820D01*
X145092798Y-77962275D01*
X145090247Y-77968344D01*
X145063955Y-78026573D01*
X145062571Y-78034040D01*
X145061770Y-78036595D01*
X145057141Y-78052848D01*
X145056478Y-78055428D01*
X145053718Y-78062509D01*
X145052727Y-78070040D01*
X145052726Y-78070042D01*
X145045379Y-78125852D01*
X145044348Y-78132359D01*
X145032704Y-78195186D01*
X145033141Y-78202766D01*
X145033141Y-78202767D01*
X145036291Y-78257392D01*
X145036500Y-78264646D01*
X145036500Y-78394340D01*
X145016498Y-78462461D01*
X144999595Y-78483435D01*
X140043435Y-83439595D01*
X139981123Y-83473621D01*
X139954340Y-83476500D01*
X139620369Y-83476500D01*
X139552248Y-83456498D01*
X139513228Y-83416807D01*
X139478478Y-83360652D01*
X139399636Y-83281947D01*
X139391537Y-83273862D01*
X139357458Y-83211579D01*
X139362461Y-83140759D01*
X139391382Y-83095671D01*
X139473739Y-83013171D01*
X139482751Y-83001760D01*
X139567816Y-82863757D01*
X139573963Y-82850576D01*
X139625138Y-82696290D01*
X139628005Y-82682914D01*
X139637672Y-82588562D01*
X139638000Y-82582146D01*
X139638000Y-82457115D01*
X139633525Y-82441876D01*
X139632135Y-82440671D01*
X139624452Y-82439000D01*
X137240116Y-82439000D01*
X137224877Y-82443475D01*
X137223672Y-82444865D01*
X137222001Y-82452548D01*
X137222001Y-82582095D01*
X137222338Y-82588614D01*
X137232257Y-82684206D01*
X137235149Y-82697600D01*
X137286588Y-82851784D01*
X137292761Y-82864962D01*
X137378063Y-83002807D01*
X137387099Y-83014208D01*
X137468462Y-83095430D01*
X137502541Y-83157713D01*
X137497538Y-83228533D01*
X137468617Y-83273620D01*
X137385870Y-83356512D01*
X137385866Y-83356517D01*
X137380695Y-83361697D01*
X137376855Y-83367927D01*
X137376854Y-83367928D01*
X137291727Y-83506028D01*
X137291725Y-83506033D01*
X137287885Y-83512262D01*
X137285580Y-83519213D01*
X137283465Y-83523748D01*
X137236548Y-83577034D01*
X137169269Y-83596500D01*
X132969500Y-83596500D01*
X132901379Y-83576498D01*
X132854886Y-83522842D01*
X132843500Y-83470500D01*
X132843500Y-83406866D01*
X132836745Y-83344684D01*
X132785615Y-83208295D01*
X132735000Y-83140759D01*
X132712058Y-83110148D01*
X132687210Y-83043642D01*
X132702263Y-82974259D01*
X132712058Y-82959018D01*
X132779786Y-82868649D01*
X132788324Y-82853054D01*
X132833478Y-82732606D01*
X132837105Y-82717351D01*
X132842631Y-82666486D01*
X132843000Y-82659672D01*
X132843000Y-82037115D01*
X132838525Y-82021876D01*
X132837135Y-82020671D01*
X132829452Y-82019000D01*
X128345116Y-82019000D01*
X128329877Y-82023475D01*
X128328672Y-82024865D01*
X128327001Y-82032548D01*
X128327001Y-82659669D01*
X128327371Y-82666490D01*
X128332895Y-82717352D01*
X128336521Y-82732604D01*
X128381676Y-82853054D01*
X128390214Y-82868649D01*
X128457942Y-82959018D01*
X128482790Y-83025525D01*
X128467737Y-83094907D01*
X128457942Y-83110148D01*
X128435000Y-83140759D01*
X128384385Y-83208295D01*
X128333255Y-83344684D01*
X128326500Y-83406866D01*
X128326500Y-85203134D01*
X128333255Y-85265316D01*
X128384385Y-85401705D01*
X128389771Y-85408891D01*
X128457630Y-85499435D01*
X128482478Y-85565941D01*
X128467425Y-85635324D01*
X128457632Y-85650562D01*
X128384385Y-85748295D01*
X128333255Y-85884684D01*
X128326500Y-85946866D01*
X128326500Y-87743134D01*
X128333255Y-87805316D01*
X128384385Y-87941705D01*
X128436331Y-88011016D01*
X128457630Y-88039435D01*
X128482478Y-88105941D01*
X128467425Y-88175324D01*
X128457632Y-88190562D01*
X128384385Y-88288295D01*
X128333255Y-88424684D01*
X128326500Y-88486866D01*
X128326500Y-90283134D01*
X128333255Y-90345316D01*
X128384385Y-90481705D01*
X128457630Y-90579435D01*
X128482478Y-90645941D01*
X128467425Y-90715324D01*
X128457632Y-90730562D01*
X128384385Y-90828295D01*
X128333255Y-90964684D01*
X128326500Y-91026866D01*
X128326500Y-92823134D01*
X128333255Y-92885316D01*
X128384385Y-93021705D01*
X128389771Y-93028891D01*
X128457942Y-93119852D01*
X128482790Y-93186358D01*
X128467737Y-93255741D01*
X128457942Y-93270982D01*
X128390214Y-93361351D01*
X128381676Y-93376946D01*
X128336522Y-93497394D01*
X128332895Y-93512649D01*
X128327369Y-93563514D01*
X128327000Y-93570328D01*
X128327000Y-94192885D01*
X128331475Y-94208124D01*
X128332865Y-94209329D01*
X128340548Y-94211000D01*
X132824884Y-94211000D01*
X132840123Y-94206525D01*
X132841328Y-94205135D01*
X132842999Y-94197452D01*
X132842999Y-93570331D01*
X132842629Y-93563510D01*
X132837105Y-93512648D01*
X132833479Y-93497396D01*
X132788324Y-93376946D01*
X132779786Y-93361351D01*
X132712058Y-93270982D01*
X132687210Y-93204475D01*
X132702263Y-93135093D01*
X132712058Y-93119852D01*
X132780229Y-93028891D01*
X132785615Y-93021705D01*
X132836745Y-92885316D01*
X132843500Y-92823134D01*
X132843500Y-91026866D01*
X132836745Y-90964684D01*
X132785615Y-90828295D01*
X132712370Y-90730564D01*
X132687522Y-90664059D01*
X132702575Y-90594676D01*
X132712370Y-90579435D01*
X132785615Y-90481705D01*
X132836745Y-90345316D01*
X132843500Y-90283134D01*
X132843500Y-88842703D01*
X151200743Y-88842703D01*
X151238268Y-89127734D01*
X151314129Y-89405036D01*
X151315813Y-89408984D01*
X151422262Y-89658548D01*
X151426923Y-89669476D01*
X151574561Y-89916161D01*
X151754313Y-90140528D01*
X151830983Y-90213285D01*
X151959122Y-90334884D01*
X151962851Y-90338423D01*
X152078246Y-90421343D01*
X152172249Y-90488891D01*
X152196317Y-90506186D01*
X152200112Y-90508195D01*
X152200113Y-90508196D01*
X152221869Y-90519715D01*
X152450392Y-90640712D01*
X152720373Y-90739511D01*
X153001264Y-90800755D01*
X153029841Y-90803004D01*
X153224282Y-90818307D01*
X153224291Y-90818307D01*
X153226739Y-90818500D01*
X153382271Y-90818500D01*
X153384407Y-90818354D01*
X153384418Y-90818354D01*
X153592548Y-90804165D01*
X153592554Y-90804164D01*
X153596825Y-90803873D01*
X153601020Y-90803004D01*
X153601022Y-90803004D01*
X153737583Y-90774724D01*
X153878342Y-90745574D01*
X154149343Y-90649607D01*
X154404812Y-90517750D01*
X154408313Y-90515289D01*
X154408317Y-90515287D01*
X154635165Y-90355855D01*
X154640023Y-90352441D01*
X154760593Y-90240400D01*
X154847479Y-90159661D01*
X154847481Y-90159658D01*
X154850622Y-90156740D01*
X155032713Y-89934268D01*
X155182927Y-89689142D01*
X155197802Y-89655257D01*
X155296757Y-89429830D01*
X155298483Y-89425898D01*
X155377244Y-89149406D01*
X155417751Y-88864784D01*
X155417845Y-88846951D01*
X155419235Y-88581583D01*
X155419235Y-88581576D01*
X155419257Y-88577297D01*
X155381732Y-88292266D01*
X155305871Y-88014964D01*
X155235741Y-87850548D01*
X155194763Y-87754476D01*
X155194761Y-87754472D01*
X155193077Y-87750524D01*
X155045439Y-87503839D01*
X154865687Y-87279472D01*
X154657149Y-87081577D01*
X154423683Y-86913814D01*
X154401843Y-86902250D01*
X154378654Y-86889972D01*
X154169608Y-86779288D01*
X153899627Y-86680489D01*
X153618736Y-86619245D01*
X153587685Y-86616801D01*
X153395718Y-86601693D01*
X153395709Y-86601693D01*
X153393261Y-86601500D01*
X153237729Y-86601500D01*
X153235593Y-86601646D01*
X153235582Y-86601646D01*
X153027452Y-86615835D01*
X153027446Y-86615836D01*
X153023175Y-86616127D01*
X153018980Y-86616996D01*
X153018978Y-86616996D01*
X152882417Y-86645276D01*
X152741658Y-86674426D01*
X152470657Y-86770393D01*
X152215188Y-86902250D01*
X152211687Y-86904711D01*
X152211683Y-86904713D01*
X152209048Y-86906565D01*
X151979977Y-87067559D01*
X151769378Y-87263260D01*
X151587287Y-87485732D01*
X151437073Y-87730858D01*
X151435347Y-87734791D01*
X151435346Y-87734792D01*
X151344518Y-87941705D01*
X151321517Y-87994102D01*
X151320342Y-87998229D01*
X151320341Y-87998230D01*
X151304262Y-88054676D01*
X151242756Y-88270594D01*
X151202249Y-88555216D01*
X151202227Y-88559505D01*
X151202226Y-88559512D01*
X151200775Y-88836525D01*
X151200743Y-88842703D01*
X132843500Y-88842703D01*
X132843500Y-88486866D01*
X132836745Y-88424684D01*
X132785615Y-88288295D01*
X132712370Y-88190564D01*
X132687522Y-88124059D01*
X132702575Y-88054676D01*
X132712370Y-88039435D01*
X132733669Y-88011016D01*
X132785615Y-87941705D01*
X132836745Y-87805316D01*
X132843500Y-87743134D01*
X132843500Y-85946866D01*
X132836745Y-85884684D01*
X132785615Y-85748295D01*
X132712370Y-85650564D01*
X132687522Y-85584059D01*
X132702575Y-85514676D01*
X132712370Y-85499435D01*
X132780229Y-85408891D01*
X132785615Y-85401705D01*
X132836745Y-85265316D01*
X132843500Y-85203134D01*
X132843500Y-85139500D01*
X132863502Y-85071379D01*
X132917158Y-85024886D01*
X132969500Y-85013500D01*
X137333554Y-85013500D01*
X137401675Y-85033502D01*
X137422572Y-85050327D01*
X137501516Y-85129134D01*
X137501521Y-85129138D01*
X137506697Y-85134305D01*
X137512927Y-85138145D01*
X137512928Y-85138146D01*
X137650090Y-85222694D01*
X137657262Y-85227115D01*
X137737005Y-85253564D01*
X137818611Y-85280632D01*
X137818613Y-85280632D01*
X137825139Y-85282797D01*
X137831975Y-85283497D01*
X137831978Y-85283498D01*
X137875031Y-85287909D01*
X137929600Y-85293500D01*
X138930400Y-85293500D01*
X138933646Y-85293163D01*
X138933650Y-85293163D01*
X139029308Y-85283238D01*
X139029312Y-85283237D01*
X139036166Y-85282526D01*
X139042702Y-85280345D01*
X139042704Y-85280345D01*
X139174806Y-85236272D01*
X139203946Y-85226550D01*
X139354348Y-85133478D01*
X139479305Y-85008303D01*
X139483144Y-85002075D01*
X139483148Y-85002070D01*
X139513159Y-84953383D01*
X139565931Y-84905890D01*
X139620418Y-84893500D01*
X140271088Y-84893500D01*
X140279658Y-84893792D01*
X140329776Y-84897209D01*
X140329780Y-84897209D01*
X140337352Y-84897725D01*
X140344829Y-84896420D01*
X140344830Y-84896420D01*
X140371308Y-84891799D01*
X140400303Y-84886738D01*
X140406821Y-84885777D01*
X140470242Y-84878102D01*
X140477343Y-84875419D01*
X140479952Y-84874778D01*
X140496262Y-84870315D01*
X140498798Y-84869550D01*
X140506284Y-84868243D01*
X140564800Y-84842556D01*
X140570904Y-84840065D01*
X140623548Y-84820173D01*
X140623549Y-84820172D01*
X140630656Y-84817487D01*
X140636919Y-84813183D01*
X140639285Y-84811946D01*
X140654097Y-84803701D01*
X140656351Y-84802368D01*
X140663305Y-84799315D01*
X140714002Y-84760413D01*
X140719332Y-84756541D01*
X140765720Y-84724661D01*
X140765725Y-84724656D01*
X140771981Y-84720357D01*
X140813436Y-84673829D01*
X140818416Y-84668554D01*
X145082301Y-80404669D01*
X146827001Y-80404669D01*
X146827371Y-80411490D01*
X146832895Y-80462352D01*
X146836521Y-80477604D01*
X146881676Y-80598054D01*
X146890214Y-80613649D01*
X146966715Y-80715724D01*
X146979276Y-80728285D01*
X147081351Y-80804786D01*
X147096946Y-80813324D01*
X147217394Y-80858478D01*
X147232649Y-80862105D01*
X147283514Y-80867631D01*
X147290328Y-80868000D01*
X148037885Y-80868000D01*
X148053124Y-80863525D01*
X148054329Y-80862135D01*
X148056000Y-80854452D01*
X148056000Y-80849884D01*
X148564000Y-80849884D01*
X148568475Y-80865123D01*
X148569865Y-80866328D01*
X148577548Y-80867999D01*
X149329669Y-80867999D01*
X149336490Y-80867629D01*
X149387352Y-80862105D01*
X149402604Y-80858479D01*
X149523054Y-80813324D01*
X149538649Y-80804786D01*
X149640724Y-80728285D01*
X149653285Y-80715724D01*
X149729786Y-80613649D01*
X149738324Y-80598054D01*
X149783478Y-80477606D01*
X149787105Y-80462351D01*
X149792631Y-80411486D01*
X149792813Y-80408134D01*
X156276500Y-80408134D01*
X156283255Y-80470316D01*
X156334385Y-80606705D01*
X156421739Y-80723261D01*
X156538295Y-80810615D01*
X156674684Y-80861745D01*
X156736866Y-80868500D01*
X158783134Y-80868500D01*
X158845316Y-80861745D01*
X158981705Y-80810615D01*
X159071024Y-80743674D01*
X159137530Y-80718826D01*
X159146589Y-80718500D01*
X160039340Y-80718500D01*
X160107461Y-80738502D01*
X160128435Y-80755405D01*
X160416902Y-81043872D01*
X160450928Y-81106184D01*
X160445863Y-81176999D01*
X160440520Y-81189286D01*
X160418646Y-81233063D01*
X160371135Y-81328148D01*
X160363842Y-81359121D01*
X160348833Y-81422865D01*
X160330597Y-81500310D01*
X160330603Y-81507626D01*
X160330603Y-81507629D01*
X160330646Y-81556715D01*
X160330751Y-81677180D01*
X160371590Y-81849272D01*
X160374872Y-81855811D01*
X160374872Y-81855812D01*
X160432104Y-81969851D01*
X160450924Y-82007352D01*
X160455266Y-82012685D01*
X160455267Y-82012687D01*
X160515190Y-82086291D01*
X160515196Y-82086297D01*
X160517221Y-82088785D01*
X161154183Y-82725747D01*
X161156713Y-82727801D01*
X161156717Y-82727805D01*
X161231377Y-82788429D01*
X161231381Y-82788431D01*
X161236730Y-82792775D01*
X161394950Y-82871833D01*
X161461518Y-82887507D01*
X161559988Y-82910694D01*
X161559992Y-82910694D01*
X161567112Y-82912371D01*
X161574428Y-82912365D01*
X161574431Y-82912365D01*
X161655738Y-82912294D01*
X161743982Y-82912217D01*
X161830028Y-82891797D01*
X161908953Y-82873068D01*
X161908954Y-82873068D01*
X161916074Y-82871378D01*
X161928859Y-82864962D01*
X162068005Y-82795130D01*
X162074154Y-82792044D01*
X162079489Y-82787701D01*
X162153093Y-82727778D01*
X162153099Y-82727772D01*
X162155587Y-82725747D01*
X163110747Y-81770587D01*
X163165489Y-81703171D01*
X163173429Y-81693393D01*
X163173431Y-81693389D01*
X163177775Y-81688040D01*
X163256833Y-81529820D01*
X163278218Y-81439000D01*
X163295694Y-81364782D01*
X163295694Y-81364778D01*
X163297371Y-81357658D01*
X163297346Y-81328148D01*
X163297294Y-81269032D01*
X163297217Y-81180788D01*
X163264726Y-81043872D01*
X163258068Y-81015817D01*
X163258068Y-81015816D01*
X163256378Y-81008696D01*
X163219136Y-80934487D01*
X163180130Y-80856765D01*
X163177044Y-80850616D01*
X163172701Y-80845281D01*
X163112778Y-80771677D01*
X163112772Y-80771671D01*
X163110747Y-80769183D01*
X162473785Y-80132221D01*
X162466778Y-80126531D01*
X162396591Y-80069539D01*
X162396587Y-80069537D01*
X162391238Y-80065193D01*
X162375228Y-80057193D01*
X162285352Y-80012285D01*
X162233018Y-79986135D01*
X162141433Y-79964570D01*
X162067980Y-79947274D01*
X162067976Y-79947274D01*
X162060856Y-79945597D01*
X162053540Y-79945603D01*
X162053537Y-79945603D01*
X161972230Y-79945674D01*
X161883986Y-79945751D01*
X161851324Y-79953502D01*
X161719015Y-79984900D01*
X161719014Y-79984900D01*
X161711894Y-79986590D01*
X161705355Y-79989872D01*
X161705354Y-79989872D01*
X161561254Y-80062190D01*
X161491399Y-80074868D01*
X161425778Y-80047767D01*
X161415643Y-80038672D01*
X160906433Y-79529463D01*
X160900579Y-79523196D01*
X160867554Y-79485338D01*
X160867552Y-79485336D01*
X160862561Y-79479615D01*
X160856351Y-79475250D01*
X160856345Y-79475245D01*
X160851375Y-79471752D01*
X160834733Y-79457762D01*
X160313686Y-78936715D01*
X159770565Y-78393595D01*
X159736540Y-78331283D01*
X159741604Y-78260468D01*
X159784151Y-78203632D01*
X159850671Y-78178821D01*
X159859660Y-78178500D01*
X160268133Y-78178500D01*
X160291093Y-78180610D01*
X160300186Y-78182295D01*
X160307765Y-78181858D01*
X160307766Y-78181858D01*
X160313166Y-78181546D01*
X160333376Y-78180381D01*
X160349189Y-78180464D01*
X160382352Y-78182725D01*
X160401635Y-78179360D01*
X160423295Y-78177484D01*
X164003730Y-78177484D01*
X164071851Y-78197486D01*
X164092825Y-78214389D01*
X164644183Y-78765747D01*
X164646713Y-78767801D01*
X164646717Y-78767805D01*
X164721377Y-78828429D01*
X164721381Y-78828431D01*
X164726730Y-78832775D01*
X164884950Y-78911833D01*
X164951518Y-78927507D01*
X165049988Y-78950694D01*
X165049992Y-78950694D01*
X165057112Y-78952371D01*
X165064428Y-78952365D01*
X165064431Y-78952365D01*
X165145738Y-78952294D01*
X165233982Y-78952217D01*
X165320028Y-78931797D01*
X165398953Y-78913068D01*
X165398954Y-78913068D01*
X165406074Y-78911378D01*
X165564154Y-78832044D01*
X165569489Y-78827701D01*
X165643093Y-78767778D01*
X165643099Y-78767772D01*
X165645587Y-78765747D01*
X166600747Y-77810587D01*
X166616750Y-77790879D01*
X166663429Y-77733393D01*
X166663431Y-77733389D01*
X166667775Y-77728040D01*
X166746833Y-77569820D01*
X166763515Y-77498971D01*
X166785694Y-77404782D01*
X166785694Y-77404778D01*
X166787371Y-77397658D01*
X166787346Y-77368285D01*
X166787294Y-77309032D01*
X166787217Y-77220788D01*
X166763626Y-77121379D01*
X166748068Y-77055817D01*
X166748068Y-77055816D01*
X166746378Y-77048696D01*
X166728546Y-77013163D01*
X166670130Y-76896765D01*
X166667044Y-76890616D01*
X166657774Y-76879229D01*
X166602778Y-76811677D01*
X166602772Y-76811671D01*
X166600747Y-76809183D01*
X165963785Y-76172221D01*
X165961251Y-76170163D01*
X165886591Y-76109539D01*
X165886587Y-76109537D01*
X165881238Y-76105193D01*
X165723018Y-76026135D01*
X165656450Y-76010461D01*
X165557980Y-75987274D01*
X165557976Y-75987274D01*
X165550856Y-75985597D01*
X165543540Y-75985603D01*
X165543537Y-75985603D01*
X165462230Y-75985674D01*
X165373986Y-75985751D01*
X165287940Y-76006170D01*
X165209015Y-76024900D01*
X165209014Y-76024900D01*
X165201894Y-76026590D01*
X165043814Y-76105924D01*
X165038481Y-76110266D01*
X165038479Y-76110267D01*
X164964875Y-76170190D01*
X164964869Y-76170196D01*
X164962381Y-76172221D01*
X164411023Y-76723579D01*
X164348711Y-76757605D01*
X164321928Y-76760484D01*
X160689644Y-76760484D01*
X160621523Y-76740482D01*
X160600549Y-76723579D01*
X159596450Y-75719480D01*
X159590596Y-75713215D01*
X159590201Y-75712762D01*
X159552561Y-75669615D01*
X159539411Y-75660373D01*
X159495179Y-75604840D01*
X159487991Y-75534208D01*
X159520132Y-75470903D01*
X159523122Y-75468009D01*
X159526981Y-75465357D01*
X159568436Y-75418829D01*
X159573416Y-75413554D01*
X160581566Y-74405405D01*
X160643878Y-74371379D01*
X160670661Y-74368500D01*
X162287440Y-74368500D01*
X162355561Y-74388502D01*
X162402054Y-74442158D01*
X162406964Y-74454623D01*
X162458450Y-74608946D01*
X162551522Y-74759348D01*
X162676697Y-74884305D01*
X162682927Y-74888145D01*
X162682928Y-74888146D01*
X162820090Y-74972694D01*
X162827262Y-74977115D01*
X162885700Y-74996498D01*
X162988611Y-75030632D01*
X162988613Y-75030632D01*
X162995139Y-75032797D01*
X163001975Y-75033497D01*
X163001978Y-75033498D01*
X163045031Y-75037909D01*
X163099600Y-75043500D01*
X164000400Y-75043500D01*
X164003646Y-75043163D01*
X164003650Y-75043163D01*
X164099308Y-75033238D01*
X164099312Y-75033237D01*
X164106166Y-75032526D01*
X164112702Y-75030345D01*
X164112704Y-75030345D01*
X164251292Y-74984108D01*
X164273946Y-74976550D01*
X164424348Y-74883478D01*
X164549305Y-74758303D01*
X164605755Y-74666725D01*
X164638275Y-74613968D01*
X164638276Y-74613966D01*
X164642115Y-74607738D01*
X164687905Y-74469684D01*
X164695632Y-74446389D01*
X164695632Y-74446387D01*
X164697797Y-74439861D01*
X164708500Y-74335400D01*
X164708500Y-72984600D01*
X164708045Y-72980214D01*
X164698238Y-72885692D01*
X164698237Y-72885688D01*
X164697526Y-72878834D01*
X164692967Y-72865167D01*
X164643868Y-72718002D01*
X164641550Y-72711054D01*
X164548478Y-72560652D01*
X164423303Y-72435695D01*
X164318964Y-72371379D01*
X164278968Y-72346725D01*
X164278966Y-72346724D01*
X164272738Y-72342885D01*
X164192995Y-72316436D01*
X164111389Y-72289368D01*
X164111387Y-72289368D01*
X164104861Y-72287203D01*
X164098025Y-72286503D01*
X164098022Y-72286502D01*
X164054969Y-72282091D01*
X164000400Y-72276500D01*
X163099600Y-72276500D01*
X163096354Y-72276837D01*
X163096350Y-72276837D01*
X163000692Y-72286762D01*
X163000688Y-72286763D01*
X162993834Y-72287474D01*
X162987298Y-72289655D01*
X162987296Y-72289655D01*
X162881697Y-72324886D01*
X162826054Y-72343450D01*
X162675652Y-72436522D01*
X162550695Y-72561697D01*
X162546855Y-72567927D01*
X162546854Y-72567928D01*
X162488145Y-72663172D01*
X162457885Y-72712262D01*
X162412095Y-72850316D01*
X162407169Y-72865167D01*
X162366739Y-72923527D01*
X162301174Y-72950764D01*
X162287576Y-72951500D01*
X160353912Y-72951500D01*
X160345342Y-72951208D01*
X160295224Y-72947791D01*
X160295220Y-72947791D01*
X160287648Y-72947275D01*
X160280171Y-72948580D01*
X160280170Y-72948580D01*
X160274189Y-72949624D01*
X160252526Y-72951500D01*
X159839660Y-72951500D01*
X159771539Y-72931498D01*
X159725046Y-72877842D01*
X159714942Y-72807568D01*
X159744436Y-72742988D01*
X159750550Y-72736420D01*
X160621568Y-71865403D01*
X160683878Y-71831379D01*
X160710661Y-71828500D01*
X166486088Y-71828500D01*
X166494658Y-71828792D01*
X166544776Y-71832209D01*
X166544780Y-71832209D01*
X166552352Y-71832725D01*
X166559829Y-71831420D01*
X166559830Y-71831420D01*
X166610664Y-71822548D01*
X166615303Y-71821738D01*
X166621821Y-71820777D01*
X166685242Y-71813102D01*
X166692343Y-71810419D01*
X166694952Y-71809778D01*
X166711262Y-71805315D01*
X166713798Y-71804550D01*
X166721284Y-71803243D01*
X166779800Y-71777556D01*
X166785904Y-71775065D01*
X166838548Y-71755173D01*
X166838549Y-71755172D01*
X166845656Y-71752487D01*
X166851919Y-71748183D01*
X166854285Y-71746946D01*
X166869097Y-71738701D01*
X166871351Y-71737368D01*
X166878305Y-71734315D01*
X166929002Y-71695413D01*
X166934332Y-71691541D01*
X166980720Y-71659661D01*
X166980725Y-71659656D01*
X166986981Y-71655357D01*
X167028436Y-71608829D01*
X167033416Y-71603554D01*
X168962204Y-69674766D01*
X169024516Y-69640740D01*
X169095331Y-69645805D01*
X169107618Y-69651148D01*
X169253148Y-69723865D01*
X169319716Y-69739539D01*
X169418186Y-69762726D01*
X169418190Y-69762726D01*
X169425310Y-69764403D01*
X169432626Y-69764397D01*
X169432629Y-69764397D01*
X169513936Y-69764326D01*
X169602180Y-69764249D01*
X169701026Y-69740792D01*
X169767151Y-69725100D01*
X169767152Y-69725100D01*
X169774272Y-69723410D01*
X169871200Y-69674766D01*
X169926203Y-69647162D01*
X169932352Y-69644076D01*
X169953205Y-69627099D01*
X170011291Y-69579810D01*
X170011297Y-69579804D01*
X170013785Y-69577779D01*
X170650747Y-68940817D01*
X170652805Y-68938283D01*
X170713429Y-68863623D01*
X170713431Y-68863619D01*
X170717775Y-68858270D01*
X170796833Y-68700050D01*
X170821141Y-68596816D01*
X170832243Y-68549669D01*
X179469501Y-68549669D01*
X179469871Y-68556490D01*
X179475395Y-68607352D01*
X179479021Y-68622604D01*
X179524176Y-68743054D01*
X179532714Y-68758649D01*
X179609215Y-68860724D01*
X179621776Y-68873285D01*
X179723851Y-68949786D01*
X179739446Y-68958324D01*
X179859894Y-69003478D01*
X179875149Y-69007105D01*
X179926014Y-69012631D01*
X179932828Y-69013000D01*
X182245385Y-69013000D01*
X182260624Y-69008525D01*
X182261829Y-69007135D01*
X182263500Y-68999452D01*
X182263500Y-68027115D01*
X182259025Y-68011876D01*
X182257635Y-68010671D01*
X182249952Y-68009000D01*
X179487616Y-68009000D01*
X179472377Y-68013475D01*
X179471172Y-68014865D01*
X179469501Y-68022548D01*
X179469501Y-68549669D01*
X170832243Y-68549669D01*
X170835694Y-68535012D01*
X170835694Y-68535008D01*
X170837371Y-68527888D01*
X170837363Y-68517761D01*
X170837294Y-68439262D01*
X170837217Y-68351018D01*
X170796378Y-68178926D01*
X170770590Y-68127540D01*
X170720130Y-68026995D01*
X170717044Y-68020846D01*
X170711043Y-68013475D01*
X170652778Y-67941907D01*
X170652772Y-67941901D01*
X170650747Y-67939413D01*
X169695587Y-66984253D01*
X169666123Y-66960328D01*
X169618393Y-66921571D01*
X169618389Y-66921569D01*
X169613040Y-66917225D01*
X169454820Y-66838167D01*
X169388252Y-66822493D01*
X169289782Y-66799306D01*
X169289778Y-66799306D01*
X169282658Y-66797629D01*
X169275342Y-66797635D01*
X169275339Y-66797635D01*
X169194032Y-66797706D01*
X169105788Y-66797783D01*
X169047712Y-66811565D01*
X168940817Y-66836932D01*
X168940816Y-66836932D01*
X168933696Y-66838622D01*
X168927157Y-66841904D01*
X168927156Y-66841904D01*
X168783212Y-66914144D01*
X168775616Y-66917956D01*
X168770283Y-66922298D01*
X168770281Y-66922299D01*
X168696677Y-66982222D01*
X168696671Y-66982228D01*
X168694183Y-66984253D01*
X168057221Y-67621215D01*
X168055167Y-67623745D01*
X168055163Y-67623749D01*
X167994539Y-67698409D01*
X167994537Y-67698413D01*
X167990193Y-67703762D01*
X167911135Y-67861982D01*
X167907659Y-67876745D01*
X167875137Y-68014865D01*
X167870597Y-68034144D01*
X167870751Y-68211014D01*
X167911590Y-68383106D01*
X167914872Y-68389645D01*
X167914872Y-68389646D01*
X167983849Y-68527089D01*
X167996527Y-68596944D01*
X167969426Y-68662565D01*
X167960330Y-68672700D01*
X166258435Y-70374595D01*
X166196123Y-70408621D01*
X166169340Y-70411500D01*
X160393912Y-70411500D01*
X160385342Y-70411208D01*
X160335224Y-70407791D01*
X160335220Y-70407791D01*
X160327648Y-70407275D01*
X160320171Y-70408580D01*
X160320170Y-70408580D01*
X160314189Y-70409624D01*
X160292526Y-70411500D01*
X159365677Y-70411500D01*
X159297556Y-70391498D01*
X159251063Y-70337842D01*
X159240414Y-70271891D01*
X159242631Y-70251483D01*
X159243000Y-70244672D01*
X159243000Y-70122115D01*
X159238525Y-70106876D01*
X159237135Y-70105671D01*
X159229452Y-70104000D01*
X156295116Y-70104000D01*
X156279877Y-70108475D01*
X156278672Y-70109865D01*
X156277001Y-70117548D01*
X156277001Y-70244669D01*
X156277371Y-70251490D01*
X156282895Y-70302352D01*
X156286521Y-70317604D01*
X156332427Y-70440058D01*
X156337610Y-70510866D01*
X156332427Y-70528518D01*
X156283255Y-70659684D01*
X156276500Y-70721866D01*
X156276500Y-71518134D01*
X156283255Y-71580316D01*
X156286027Y-71587712D01*
X156286029Y-71587718D01*
X156332160Y-71710771D01*
X156337343Y-71781578D01*
X156332160Y-71799229D01*
X156286029Y-71922282D01*
X156286027Y-71922288D01*
X156283255Y-71929684D01*
X156276500Y-71991866D01*
X156276500Y-72788134D01*
X156283255Y-72850316D01*
X156286027Y-72857712D01*
X156286029Y-72857718D01*
X156332160Y-72980771D01*
X156337343Y-73051578D01*
X156332160Y-73069229D01*
X156286029Y-73192282D01*
X156286027Y-73192288D01*
X156283255Y-73199684D01*
X156276500Y-73261866D01*
X156276500Y-74058134D01*
X156283255Y-74120316D01*
X156286027Y-74127712D01*
X156286029Y-74127718D01*
X156332160Y-74250771D01*
X156337343Y-74321578D01*
X156332160Y-74339229D01*
X156286029Y-74462282D01*
X156286027Y-74462288D01*
X156283255Y-74469684D01*
X156276500Y-74531866D01*
X156276500Y-75328134D01*
X156283255Y-75390316D01*
X156286027Y-75397712D01*
X156286029Y-75397718D01*
X156332160Y-75520771D01*
X156337343Y-75591578D01*
X156332160Y-75609229D01*
X156286029Y-75732282D01*
X156286027Y-75732288D01*
X156283255Y-75739684D01*
X156276500Y-75801866D01*
X156276500Y-76598134D01*
X156283255Y-76660316D01*
X156286027Y-76667712D01*
X156286029Y-76667718D01*
X156332160Y-76790771D01*
X156337343Y-76861578D01*
X156332160Y-76879229D01*
X156286029Y-77002282D01*
X156286027Y-77002288D01*
X156283255Y-77009684D01*
X156276500Y-77071866D01*
X156276500Y-77868134D01*
X156283255Y-77930316D01*
X156286027Y-77937712D01*
X156286029Y-77937718D01*
X156332160Y-78060771D01*
X156337343Y-78131578D01*
X156332160Y-78149229D01*
X156286029Y-78272282D01*
X156286027Y-78272288D01*
X156283255Y-78279684D01*
X156276500Y-78341866D01*
X156276500Y-79138134D01*
X156283255Y-79200316D01*
X156286027Y-79207712D01*
X156286029Y-79207718D01*
X156332160Y-79330771D01*
X156337343Y-79401578D01*
X156332160Y-79419229D01*
X156286029Y-79542282D01*
X156286027Y-79542288D01*
X156283255Y-79549684D01*
X156276500Y-79611866D01*
X156276500Y-80408134D01*
X149792813Y-80408134D01*
X149793000Y-80404672D01*
X149793000Y-80282115D01*
X149788525Y-80266876D01*
X149787135Y-80265671D01*
X149779452Y-80264000D01*
X148582115Y-80264000D01*
X148566876Y-80268475D01*
X148565671Y-80269865D01*
X148564000Y-80277548D01*
X148564000Y-80849884D01*
X148056000Y-80849884D01*
X148056000Y-80282115D01*
X148051525Y-80266876D01*
X148050135Y-80265671D01*
X148042452Y-80264000D01*
X146845116Y-80264000D01*
X146829877Y-80268475D01*
X146828672Y-80269865D01*
X146827001Y-80277548D01*
X146827001Y-80404669D01*
X145082301Y-80404669D01*
X146001565Y-79485405D01*
X146063877Y-79451379D01*
X146090660Y-79448500D01*
X146704323Y-79448500D01*
X146772444Y-79468502D01*
X146818937Y-79522158D01*
X146829586Y-79588109D01*
X146827369Y-79608517D01*
X146827000Y-79615328D01*
X146827000Y-79737885D01*
X146831475Y-79753124D01*
X146832865Y-79754329D01*
X146840548Y-79756000D01*
X149774884Y-79756000D01*
X149790123Y-79751525D01*
X149791328Y-79750135D01*
X149792999Y-79742452D01*
X149792999Y-79615331D01*
X149792629Y-79608510D01*
X149787105Y-79557648D01*
X149783479Y-79542396D01*
X149737573Y-79419942D01*
X149732390Y-79349134D01*
X149737573Y-79331482D01*
X149737840Y-79330771D01*
X149786745Y-79200316D01*
X149793500Y-79138134D01*
X149793500Y-78341866D01*
X149786745Y-78279684D01*
X149783973Y-78272288D01*
X149783971Y-78272282D01*
X149737840Y-78149229D01*
X149732657Y-78078422D01*
X149737840Y-78060771D01*
X149783971Y-77937718D01*
X149783973Y-77937712D01*
X149786745Y-77930316D01*
X149793500Y-77868134D01*
X149793500Y-77071866D01*
X149786745Y-77009684D01*
X149783973Y-77002288D01*
X149783971Y-77002282D01*
X149737840Y-76879229D01*
X149732657Y-76808422D01*
X149737840Y-76790771D01*
X149783971Y-76667718D01*
X149783973Y-76667712D01*
X149786745Y-76660316D01*
X149793500Y-76598134D01*
X149793500Y-75801866D01*
X149786745Y-75739684D01*
X149783973Y-75732288D01*
X149783971Y-75732282D01*
X149737840Y-75609229D01*
X149732657Y-75538422D01*
X149737840Y-75520771D01*
X149783971Y-75397718D01*
X149783973Y-75397712D01*
X149786745Y-75390316D01*
X149793500Y-75328134D01*
X149793500Y-74531866D01*
X149786745Y-74469684D01*
X149783973Y-74462288D01*
X149783971Y-74462282D01*
X149737840Y-74339229D01*
X149732657Y-74268422D01*
X149737840Y-74250771D01*
X149783971Y-74127718D01*
X149783973Y-74127712D01*
X149786745Y-74120316D01*
X149793500Y-74058134D01*
X149793500Y-73261866D01*
X149786745Y-73199684D01*
X149783973Y-73192288D01*
X149783971Y-73192282D01*
X149737840Y-73069229D01*
X149732657Y-72998422D01*
X149737840Y-72980771D01*
X149783971Y-72857718D01*
X149783973Y-72857712D01*
X149786745Y-72850316D01*
X149793500Y-72788134D01*
X149793500Y-71991866D01*
X149786745Y-71929684D01*
X149783973Y-71922288D01*
X149783971Y-71922282D01*
X149737840Y-71799229D01*
X149732657Y-71728422D01*
X149737840Y-71710771D01*
X149783971Y-71587718D01*
X149783973Y-71587712D01*
X149786745Y-71580316D01*
X149793500Y-71518134D01*
X149793500Y-70721866D01*
X149786745Y-70659684D01*
X149783973Y-70652288D01*
X149783971Y-70652282D01*
X149737840Y-70529229D01*
X149732657Y-70458422D01*
X149737840Y-70440771D01*
X149783971Y-70317718D01*
X149783973Y-70317712D01*
X149786745Y-70310316D01*
X149793500Y-70248134D01*
X149793500Y-69451866D01*
X149786745Y-69389684D01*
X149783973Y-69382288D01*
X149783971Y-69382282D01*
X149737840Y-69259229D01*
X149732657Y-69188422D01*
X149737840Y-69170771D01*
X149783971Y-69047718D01*
X149783973Y-69047712D01*
X149786745Y-69040316D01*
X149793500Y-68978134D01*
X149793500Y-68181866D01*
X149786745Y-68119684D01*
X149735615Y-67983295D01*
X149648261Y-67866739D01*
X149531705Y-67779385D01*
X149395316Y-67728255D01*
X149333134Y-67721500D01*
X147286866Y-67721500D01*
X147278761Y-67722381D01*
X147278102Y-67722452D01*
X147208220Y-67709920D01*
X147156207Y-67661597D01*
X147138500Y-67597188D01*
X147138500Y-66900660D01*
X147158502Y-66832539D01*
X147175405Y-66811565D01*
X147186565Y-66800405D01*
X147248877Y-66766379D01*
X147275660Y-66763500D01*
X160242484Y-66763500D01*
X160310605Y-66783502D01*
X160357098Y-66837158D01*
X160360137Y-66844874D01*
X160361132Y-66846998D01*
X160363450Y-66853946D01*
X160367306Y-66860177D01*
X160412489Y-66933192D01*
X160431327Y-67001644D01*
X160410166Y-67069414D01*
X160394440Y-67088590D01*
X159648435Y-67834595D01*
X159586123Y-67868621D01*
X159559340Y-67871500D01*
X159146589Y-67871500D01*
X159078468Y-67851498D01*
X159071024Y-67846326D01*
X158991009Y-67786358D01*
X158981705Y-67779385D01*
X158845316Y-67728255D01*
X158783134Y-67721500D01*
X156736866Y-67721500D01*
X156674684Y-67728255D01*
X156538295Y-67779385D01*
X156421739Y-67866739D01*
X156334385Y-67983295D01*
X156283255Y-68119684D01*
X156276500Y-68181866D01*
X156276500Y-68978134D01*
X156283255Y-69040316D01*
X156326406Y-69155421D01*
X156332427Y-69171482D01*
X156337610Y-69242290D01*
X156332427Y-69259942D01*
X156286522Y-69382394D01*
X156282895Y-69397649D01*
X156277369Y-69448514D01*
X156277000Y-69455328D01*
X156277000Y-69577885D01*
X156281475Y-69593124D01*
X156282865Y-69594329D01*
X156290548Y-69596000D01*
X159224884Y-69596000D01*
X159240123Y-69591525D01*
X159241328Y-69590135D01*
X159242999Y-69582452D01*
X159242999Y-69455331D01*
X159242630Y-69448514D01*
X159240413Y-69428107D01*
X159252942Y-69358224D01*
X159301263Y-69306209D01*
X159365676Y-69288500D01*
X159876088Y-69288500D01*
X159884658Y-69288792D01*
X159934776Y-69292209D01*
X159934780Y-69292209D01*
X159942352Y-69292725D01*
X159949829Y-69291420D01*
X159949830Y-69291420D01*
X159998733Y-69282885D01*
X160005303Y-69281738D01*
X160011821Y-69280777D01*
X160075242Y-69273102D01*
X160082343Y-69270419D01*
X160084952Y-69269778D01*
X160101262Y-69265315D01*
X160103798Y-69264550D01*
X160111284Y-69263243D01*
X160169800Y-69237556D01*
X160175904Y-69235065D01*
X160228548Y-69215173D01*
X160228549Y-69215172D01*
X160235656Y-69212487D01*
X160241919Y-69208183D01*
X160244285Y-69206946D01*
X160259097Y-69198701D01*
X160261351Y-69197368D01*
X160268305Y-69194315D01*
X160319002Y-69155413D01*
X160324332Y-69151541D01*
X160370720Y-69119661D01*
X160370725Y-69119656D01*
X160376981Y-69115357D01*
X160382036Y-69109684D01*
X160418439Y-69068827D01*
X160423420Y-69063551D01*
X160461393Y-69025578D01*
X160461396Y-69025574D01*
X161873028Y-67613943D01*
X161879293Y-67608089D01*
X161917164Y-67575052D01*
X161917165Y-67575051D01*
X161922885Y-67570061D01*
X161959636Y-67517771D01*
X161963528Y-67512529D01*
X162002976Y-67462218D01*
X162006100Y-67455299D01*
X162007488Y-67453007D01*
X162015857Y-67438335D01*
X162017122Y-67435975D01*
X162021490Y-67429761D01*
X162044703Y-67370223D01*
X162047259Y-67364142D01*
X162070418Y-67312852D01*
X162073545Y-67305927D01*
X162074930Y-67298454D01*
X162075734Y-67295888D01*
X162080355Y-67279665D01*
X162081021Y-67277073D01*
X162083782Y-67269991D01*
X162085571Y-67256401D01*
X162114295Y-67191474D01*
X162144190Y-67165705D01*
X162148562Y-67163000D01*
X162204348Y-67128478D01*
X162329305Y-67003303D01*
X162332102Y-66998765D01*
X162389353Y-66958176D01*
X162460276Y-66954946D01*
X162521687Y-66990572D01*
X162529062Y-66999068D01*
X162537098Y-67009207D01*
X162651829Y-67123739D01*
X162663240Y-67132751D01*
X162801243Y-67217816D01*
X162814424Y-67223963D01*
X162968710Y-67275138D01*
X162982086Y-67278005D01*
X163076438Y-67287672D01*
X163082854Y-67288000D01*
X163195385Y-67288000D01*
X163210624Y-67283525D01*
X163211829Y-67282135D01*
X163213500Y-67274452D01*
X163213500Y-67269884D01*
X163721500Y-67269884D01*
X163725975Y-67285123D01*
X163727365Y-67286328D01*
X163735048Y-67287999D01*
X163852095Y-67287999D01*
X163858614Y-67287662D01*
X163954206Y-67277743D01*
X163967600Y-67274851D01*
X164121784Y-67223412D01*
X164134962Y-67217239D01*
X164272807Y-67131937D01*
X164284208Y-67122901D01*
X164398739Y-67008171D01*
X164407751Y-66996760D01*
X164492816Y-66858757D01*
X164498963Y-66845576D01*
X164550138Y-66691290D01*
X164553005Y-66677914D01*
X164562672Y-66583562D01*
X164563000Y-66577146D01*
X164563000Y-66327115D01*
X164558525Y-66311876D01*
X164557135Y-66310671D01*
X164549452Y-66309000D01*
X163739615Y-66309000D01*
X163724376Y-66313475D01*
X163723171Y-66314865D01*
X163721500Y-66322548D01*
X163721500Y-67269884D01*
X163213500Y-67269884D01*
X163213500Y-65782885D01*
X163721500Y-65782885D01*
X163725975Y-65798124D01*
X163727365Y-65799329D01*
X163735048Y-65801000D01*
X164544884Y-65801000D01*
X164560123Y-65796525D01*
X164561328Y-65795135D01*
X164562999Y-65787452D01*
X164562999Y-65532905D01*
X164562662Y-65526386D01*
X164552743Y-65430794D01*
X164549851Y-65417400D01*
X164498412Y-65263216D01*
X164492239Y-65250038D01*
X164406937Y-65112193D01*
X164397901Y-65100792D01*
X164283171Y-64986261D01*
X164271760Y-64977249D01*
X164133757Y-64892184D01*
X164120576Y-64886037D01*
X163966290Y-64834862D01*
X163952914Y-64831995D01*
X163858562Y-64822328D01*
X163852145Y-64822000D01*
X163739615Y-64822000D01*
X163724376Y-64826475D01*
X163723171Y-64827865D01*
X163721500Y-64835548D01*
X163721500Y-65782885D01*
X163213500Y-65782885D01*
X163213500Y-64840116D01*
X163209025Y-64824877D01*
X163207635Y-64823672D01*
X163199952Y-64822001D01*
X163082905Y-64822001D01*
X163076386Y-64822338D01*
X162980794Y-64832257D01*
X162967400Y-64835149D01*
X162813216Y-64886588D01*
X162800038Y-64892761D01*
X162662193Y-64978063D01*
X162650792Y-64987099D01*
X162536262Y-65101828D01*
X162529206Y-65110762D01*
X162471288Y-65151823D01*
X162400365Y-65155053D01*
X162338954Y-65119426D01*
X162332154Y-65111593D01*
X162328478Y-65105652D01*
X162203303Y-64980695D01*
X162191084Y-64973163D01*
X162058968Y-64891725D01*
X162058966Y-64891724D01*
X162052738Y-64887885D01*
X161972995Y-64861436D01*
X161891389Y-64834368D01*
X161891387Y-64834368D01*
X161884861Y-64832203D01*
X161878025Y-64831503D01*
X161878022Y-64831502D01*
X161834969Y-64827091D01*
X161780400Y-64821500D01*
X161004600Y-64821500D01*
X161001354Y-64821837D01*
X161001350Y-64821837D01*
X160905692Y-64831762D01*
X160905688Y-64831763D01*
X160898834Y-64832474D01*
X160892298Y-64834655D01*
X160892296Y-64834655D01*
X160884794Y-64837158D01*
X160731054Y-64888450D01*
X160580652Y-64981522D01*
X160455695Y-65106697D01*
X160451855Y-65112927D01*
X160451854Y-65112928D01*
X160375014Y-65237586D01*
X160362885Y-65257262D01*
X160360581Y-65264209D01*
X160357487Y-65270844D01*
X160355251Y-65269801D01*
X160321477Y-65318538D01*
X160255909Y-65345766D01*
X160242328Y-65346500D01*
X147275660Y-65346500D01*
X147207539Y-65326498D01*
X147186565Y-65309595D01*
X141926639Y-60049669D01*
X179469501Y-60049669D01*
X179469871Y-60056490D01*
X179475395Y-60107352D01*
X179479021Y-60122604D01*
X179524176Y-60243054D01*
X179532714Y-60258649D01*
X179609215Y-60360724D01*
X179621776Y-60373285D01*
X179723851Y-60449786D01*
X179739446Y-60458324D01*
X179859894Y-60503478D01*
X179875149Y-60507105D01*
X179926014Y-60512631D01*
X179932828Y-60513000D01*
X182245385Y-60513000D01*
X182260624Y-60508525D01*
X182261829Y-60507135D01*
X182263500Y-60499452D01*
X182263500Y-59527115D01*
X182259025Y-59511876D01*
X182257635Y-59510671D01*
X182249952Y-59509000D01*
X179487616Y-59509000D01*
X179472377Y-59513475D01*
X179471172Y-59514865D01*
X179469501Y-59522548D01*
X179469501Y-60049669D01*
X141926639Y-60049669D01*
X141086450Y-59209480D01*
X141080596Y-59203215D01*
X141078812Y-59201170D01*
X141042561Y-59159615D01*
X140990280Y-59122871D01*
X140984986Y-59118939D01*
X140940693Y-59084209D01*
X140934718Y-59079524D01*
X140927802Y-59076401D01*
X140925516Y-59075017D01*
X140910835Y-59066643D01*
X140908475Y-59065378D01*
X140902261Y-59061010D01*
X140895182Y-59058250D01*
X140895180Y-59058249D01*
X140842725Y-59037798D01*
X140836656Y-59035247D01*
X140778427Y-59008955D01*
X140770960Y-59007571D01*
X140768405Y-59006770D01*
X140752152Y-59002141D01*
X140749572Y-59001478D01*
X140742491Y-58998718D01*
X140734960Y-58997727D01*
X140734958Y-58997726D01*
X140705339Y-58993827D01*
X140679139Y-58990378D01*
X140672641Y-58989348D01*
X140609814Y-58977704D01*
X140602234Y-58978141D01*
X140602233Y-58978141D01*
X140547608Y-58981291D01*
X140540354Y-58981500D01*
X107823912Y-58981500D01*
X107815342Y-58981208D01*
X107765224Y-58977791D01*
X107765220Y-58977791D01*
X107757648Y-58977275D01*
X107750171Y-58978580D01*
X107750170Y-58978580D01*
X107725504Y-58982885D01*
X107694697Y-58988262D01*
X107688179Y-58989223D01*
X107624758Y-58996898D01*
X107617657Y-58999581D01*
X107615048Y-59000222D01*
X107598738Y-59004685D01*
X107596202Y-59005450D01*
X107588716Y-59006757D01*
X107556266Y-59021002D01*
X107530205Y-59032442D01*
X107524101Y-59034933D01*
X107464344Y-59057513D01*
X107458081Y-59061817D01*
X107455715Y-59063054D01*
X107440903Y-59071299D01*
X107438649Y-59072632D01*
X107431695Y-59075685D01*
X107380998Y-59114587D01*
X107375668Y-59118459D01*
X107329280Y-59150339D01*
X107329275Y-59150344D01*
X107323019Y-59154643D01*
X107317968Y-59160313D01*
X107317966Y-59160314D01*
X107281565Y-59201170D01*
X107276584Y-59206446D01*
X105319480Y-61163550D01*
X105313215Y-61169404D01*
X105269615Y-61207439D01*
X105265248Y-61213653D01*
X105232872Y-61259719D01*
X105228939Y-61265014D01*
X105189524Y-61315282D01*
X105186401Y-61322198D01*
X105185017Y-61324484D01*
X105176643Y-61339165D01*
X105175378Y-61341525D01*
X105171010Y-61347739D01*
X105168250Y-61354818D01*
X105168249Y-61354820D01*
X105147798Y-61407275D01*
X105145247Y-61413344D01*
X105118955Y-61471573D01*
X105117571Y-61479040D01*
X105116770Y-61481595D01*
X105112141Y-61497848D01*
X105111478Y-61500428D01*
X105108718Y-61507509D01*
X105107727Y-61515040D01*
X105107726Y-61515042D01*
X105100379Y-61570852D01*
X105099348Y-61577359D01*
X105087704Y-61640186D01*
X105088141Y-61647766D01*
X105088141Y-61647767D01*
X105091291Y-61702392D01*
X105091500Y-61709646D01*
X105091500Y-73409340D01*
X105071498Y-73477461D01*
X105054595Y-73498435D01*
X104523435Y-74029595D01*
X104461123Y-74063621D01*
X104434340Y-74066500D01*
X103778232Y-74066500D01*
X103710111Y-74046498D01*
X103702667Y-74041326D01*
X103653892Y-74004771D01*
X103653890Y-74004770D01*
X103646705Y-73999385D01*
X103510316Y-73948255D01*
X103448134Y-73941500D01*
X103447234Y-73941500D01*
X103380750Y-73918006D01*
X103337225Y-73861916D01*
X103328500Y-73815845D01*
X103328500Y-73778414D01*
X103348502Y-73710293D01*
X103401049Y-73664313D01*
X103402001Y-73663867D01*
X103408946Y-73661550D01*
X103559348Y-73568478D01*
X103684305Y-73443303D01*
X103777115Y-73292738D01*
X103810435Y-73192282D01*
X103830632Y-73131389D01*
X103830632Y-73131387D01*
X103832797Y-73124861D01*
X103836269Y-73090980D01*
X103840036Y-73054209D01*
X103843500Y-73020400D01*
X103843500Y-72244600D01*
X103832526Y-72138834D01*
X103776550Y-71971054D01*
X103683478Y-71820652D01*
X103676289Y-71813475D01*
X103563486Y-71700869D01*
X103558303Y-71695695D01*
X103553765Y-71692898D01*
X103513176Y-71635647D01*
X103509946Y-71564724D01*
X103545572Y-71503313D01*
X103554068Y-71495938D01*
X103564207Y-71487902D01*
X103678739Y-71373171D01*
X103687751Y-71361760D01*
X103772816Y-71223757D01*
X103778963Y-71210576D01*
X103830138Y-71056290D01*
X103833005Y-71042914D01*
X103842672Y-70948562D01*
X103843000Y-70942146D01*
X103843000Y-70829615D01*
X103838525Y-70814376D01*
X103837135Y-70813171D01*
X103829452Y-70811500D01*
X101395116Y-70811500D01*
X101379877Y-70815975D01*
X101378672Y-70817365D01*
X101377001Y-70825048D01*
X101377001Y-70942095D01*
X101377338Y-70948614D01*
X101387257Y-71044206D01*
X101390149Y-71057600D01*
X101441588Y-71211784D01*
X101447761Y-71224962D01*
X101533063Y-71362807D01*
X101542099Y-71374208D01*
X101656828Y-71488738D01*
X101665762Y-71495794D01*
X101706823Y-71553712D01*
X101710053Y-71624635D01*
X101674426Y-71686046D01*
X101666593Y-71692846D01*
X101660652Y-71696522D01*
X101535695Y-71821697D01*
X101531855Y-71827927D01*
X101531854Y-71827928D01*
X101469131Y-71929684D01*
X101442885Y-71972262D01*
X101387203Y-72140139D01*
X101376500Y-72244600D01*
X101376500Y-73020400D01*
X101376837Y-73023646D01*
X101376837Y-73023650D01*
X101386679Y-73118502D01*
X101387474Y-73126166D01*
X101389655Y-73132702D01*
X101389655Y-73132704D01*
X101426609Y-73243469D01*
X101443450Y-73293946D01*
X101536522Y-73444348D01*
X101661697Y-73569305D01*
X101812262Y-73662115D01*
X101819213Y-73664421D01*
X101819214Y-73664421D01*
X101825170Y-73666397D01*
X101883529Y-73706828D01*
X101910764Y-73772393D01*
X101911500Y-73785989D01*
X101911500Y-73815845D01*
X101891498Y-73883966D01*
X101837842Y-73930459D01*
X101792964Y-73941500D01*
X101791866Y-73941500D01*
X101729684Y-73948255D01*
X101593295Y-73999385D01*
X101476739Y-74086739D01*
X101389385Y-74203295D01*
X101386233Y-74211703D01*
X101381923Y-74219575D01*
X101379543Y-74218272D01*
X101345336Y-74263804D01*
X101278773Y-74288501D01*
X101209425Y-74273291D01*
X101159309Y-74223003D01*
X101156067Y-74215903D01*
X101153766Y-74211701D01*
X101150615Y-74203295D01*
X101063261Y-74086739D01*
X100946705Y-73999385D01*
X100810316Y-73948255D01*
X100748134Y-73941500D01*
X99091866Y-73941500D01*
X99029684Y-73948255D01*
X98893295Y-73999385D01*
X98776739Y-74086739D01*
X98689385Y-74203295D01*
X98638255Y-74339684D01*
X98631500Y-74401866D01*
X98631500Y-74890500D01*
X98611498Y-74958621D01*
X98557842Y-75005114D01*
X98505500Y-75016500D01*
X95282746Y-75016500D01*
X95214625Y-74996498D01*
X95175602Y-74956803D01*
X95168103Y-74944684D01*
X95128478Y-74880652D01*
X95003303Y-74755695D01*
X94890818Y-74686358D01*
X94858968Y-74666725D01*
X94858966Y-74666724D01*
X94852738Y-74662885D01*
X94772995Y-74636436D01*
X94691389Y-74609368D01*
X94691387Y-74609368D01*
X94684861Y-74607203D01*
X94678025Y-74606503D01*
X94678022Y-74606502D01*
X94634060Y-74601998D01*
X94580400Y-74596500D01*
X93779600Y-74596500D01*
X93776354Y-74596837D01*
X93776350Y-74596837D01*
X93680692Y-74606762D01*
X93680688Y-74606763D01*
X93673834Y-74607474D01*
X93667298Y-74609655D01*
X93667296Y-74609655D01*
X93650748Y-74615176D01*
X93506054Y-74663450D01*
X93355652Y-74756522D01*
X93350479Y-74761704D01*
X93269216Y-74843109D01*
X93206934Y-74877188D01*
X93136114Y-74872185D01*
X93091025Y-74843264D01*
X93008483Y-74760866D01*
X93003303Y-74755695D01*
X92890818Y-74686358D01*
X92858968Y-74666725D01*
X92858966Y-74666724D01*
X92852738Y-74662885D01*
X92772995Y-74636436D01*
X92691389Y-74609368D01*
X92691387Y-74609368D01*
X92684861Y-74607203D01*
X92678025Y-74606503D01*
X92678022Y-74606502D01*
X92634060Y-74601998D01*
X92580400Y-74596500D01*
X91779600Y-74596500D01*
X91776354Y-74596837D01*
X91776350Y-74596837D01*
X91680692Y-74606762D01*
X91680688Y-74606763D01*
X91673834Y-74607474D01*
X91667298Y-74609655D01*
X91667296Y-74609655D01*
X91650748Y-74615176D01*
X91506054Y-74663450D01*
X91355652Y-74756522D01*
X91230695Y-74881697D01*
X91226855Y-74887927D01*
X91226854Y-74887928D01*
X91171878Y-74977115D01*
X91137885Y-75032262D01*
X91136205Y-75031226D01*
X91095879Y-75077031D01*
X91028595Y-75096500D01*
X87963791Y-75096500D01*
X87895670Y-75076498D01*
X87849177Y-75022842D01*
X87838528Y-74984108D01*
X87835759Y-74958621D01*
X87834245Y-74944684D01*
X87783115Y-74808295D01*
X87695761Y-74691739D01*
X87579205Y-74604385D01*
X87442816Y-74553255D01*
X87380634Y-74546500D01*
X82409700Y-74546500D01*
X82341579Y-74526498D01*
X82295086Y-74472842D01*
X82283700Y-74420500D01*
X82283700Y-72939000D01*
X82303702Y-72870879D01*
X82357358Y-72824386D01*
X82409700Y-72813000D01*
X84520385Y-72813000D01*
X84535624Y-72808525D01*
X84536829Y-72807135D01*
X84538500Y-72799452D01*
X84538500Y-72794884D01*
X85046500Y-72794884D01*
X85050975Y-72810123D01*
X85052365Y-72811328D01*
X85060048Y-72812999D01*
X87377169Y-72812999D01*
X87383990Y-72812629D01*
X87434852Y-72807105D01*
X87450104Y-72803479D01*
X87570554Y-72758324D01*
X87586149Y-72749786D01*
X87688224Y-72673285D01*
X87700785Y-72660724D01*
X87777286Y-72558649D01*
X87785824Y-72543054D01*
X87830978Y-72422606D01*
X87834605Y-72407351D01*
X87840131Y-72356486D01*
X87840500Y-72349672D01*
X87840500Y-71827115D01*
X87836025Y-71811876D01*
X87834635Y-71810671D01*
X87826952Y-71809000D01*
X85064615Y-71809000D01*
X85049376Y-71813475D01*
X85048171Y-71814865D01*
X85046500Y-71822548D01*
X85046500Y-72794884D01*
X84538500Y-72794884D01*
X84538500Y-71282885D01*
X85046500Y-71282885D01*
X85050975Y-71298124D01*
X85052365Y-71299329D01*
X85060048Y-71301000D01*
X87822384Y-71301000D01*
X87837623Y-71296525D01*
X87838828Y-71295135D01*
X87840499Y-71287452D01*
X87840499Y-70760331D01*
X87840129Y-70753510D01*
X87834605Y-70702648D01*
X87830979Y-70687396D01*
X87785824Y-70566946D01*
X87777286Y-70551351D01*
X87700785Y-70449276D01*
X87688224Y-70436715D01*
X87586149Y-70360214D01*
X87570554Y-70351676D01*
X87450106Y-70306522D01*
X87434851Y-70302895D01*
X87383986Y-70297369D01*
X87377172Y-70297000D01*
X85064615Y-70297000D01*
X85049376Y-70301475D01*
X85048171Y-70302865D01*
X85046500Y-70310548D01*
X85046500Y-71282885D01*
X84538500Y-71282885D01*
X84538500Y-70315116D01*
X84534025Y-70299877D01*
X84532635Y-70298672D01*
X84524952Y-70297001D01*
X82409700Y-70297001D01*
X82370139Y-70285385D01*
X101377000Y-70285385D01*
X101381475Y-70300624D01*
X101382865Y-70301829D01*
X101390548Y-70303500D01*
X102337885Y-70303500D01*
X102353124Y-70299025D01*
X102354329Y-70297635D01*
X102356000Y-70289952D01*
X102356000Y-70285385D01*
X102864000Y-70285385D01*
X102868475Y-70300624D01*
X102869865Y-70301829D01*
X102877548Y-70303500D01*
X103824884Y-70303500D01*
X103840123Y-70299025D01*
X103841328Y-70297635D01*
X103842999Y-70289952D01*
X103842999Y-70172905D01*
X103842662Y-70166386D01*
X103832743Y-70070794D01*
X103829851Y-70057400D01*
X103778412Y-69903216D01*
X103772239Y-69890038D01*
X103686937Y-69752193D01*
X103677901Y-69740792D01*
X103563171Y-69626261D01*
X103551760Y-69617249D01*
X103413757Y-69532184D01*
X103400576Y-69526037D01*
X103246290Y-69474862D01*
X103232914Y-69471995D01*
X103138562Y-69462328D01*
X103132145Y-69462000D01*
X102882115Y-69462000D01*
X102866876Y-69466475D01*
X102865671Y-69467865D01*
X102864000Y-69475548D01*
X102864000Y-70285385D01*
X102356000Y-70285385D01*
X102356000Y-69480116D01*
X102351525Y-69464877D01*
X102350135Y-69463672D01*
X102342452Y-69462001D01*
X102087905Y-69462001D01*
X102081386Y-69462338D01*
X101985794Y-69472257D01*
X101972400Y-69475149D01*
X101818216Y-69526588D01*
X101805038Y-69532761D01*
X101667193Y-69618063D01*
X101655792Y-69627099D01*
X101541261Y-69741829D01*
X101532249Y-69753240D01*
X101447184Y-69891243D01*
X101441037Y-69904424D01*
X101389862Y-70058710D01*
X101386995Y-70072086D01*
X101377328Y-70166438D01*
X101377000Y-70172855D01*
X101377000Y-70285385D01*
X82370139Y-70285385D01*
X82341579Y-70276999D01*
X82295086Y-70223343D01*
X82283700Y-70171001D01*
X82283700Y-64142703D01*
X92370743Y-64142703D01*
X92371302Y-64146947D01*
X92371302Y-64146951D01*
X92380443Y-64216379D01*
X92408268Y-64427734D01*
X92484129Y-64705036D01*
X92485813Y-64708984D01*
X92589774Y-64952715D01*
X92596923Y-64969476D01*
X92606969Y-64986261D01*
X92707989Y-65155053D01*
X92744561Y-65216161D01*
X92924313Y-65440528D01*
X93021658Y-65532905D01*
X93117093Y-65623469D01*
X93132851Y-65638423D01*
X93214787Y-65697300D01*
X93356775Y-65799329D01*
X93366317Y-65806186D01*
X93370112Y-65808195D01*
X93370113Y-65808196D01*
X93391869Y-65819715D01*
X93620392Y-65940712D01*
X93644699Y-65949607D01*
X93877470Y-66034789D01*
X93890373Y-66039511D01*
X94171264Y-66100755D01*
X94199841Y-66103004D01*
X94394282Y-66118307D01*
X94394291Y-66118307D01*
X94396739Y-66118500D01*
X94552271Y-66118500D01*
X94554407Y-66118354D01*
X94554418Y-66118354D01*
X94762548Y-66104165D01*
X94762554Y-66104164D01*
X94766825Y-66103873D01*
X94771020Y-66103004D01*
X94771022Y-66103004D01*
X94907583Y-66074724D01*
X95048342Y-66045574D01*
X95319343Y-65949607D01*
X95574812Y-65817750D01*
X95578313Y-65815289D01*
X95578317Y-65815287D01*
X95785110Y-65669950D01*
X95810023Y-65652441D01*
X95888403Y-65579606D01*
X96017479Y-65459661D01*
X96017481Y-65459658D01*
X96020622Y-65456740D01*
X96202713Y-65234268D01*
X96352927Y-64989142D01*
X96468483Y-64725898D01*
X96474469Y-64704886D01*
X96546068Y-64453534D01*
X96547244Y-64449406D01*
X96587751Y-64164784D01*
X96587845Y-64146951D01*
X96589235Y-63881583D01*
X96589235Y-63881576D01*
X96589257Y-63877297D01*
X96551732Y-63592266D01*
X96545153Y-63568215D01*
X96523173Y-63487872D01*
X96475871Y-63314964D01*
X96439031Y-63228595D01*
X96364763Y-63054476D01*
X96364761Y-63054472D01*
X96363077Y-63050524D01*
X96227990Y-62824810D01*
X96217643Y-62807521D01*
X96217640Y-62807517D01*
X96215439Y-62803839D01*
X96035687Y-62579472D01*
X95827149Y-62381577D01*
X95593683Y-62213814D01*
X95571843Y-62202250D01*
X95546102Y-62188621D01*
X95339608Y-62079288D01*
X95069627Y-61980489D01*
X94788736Y-61919245D01*
X94757685Y-61916801D01*
X94565718Y-61901693D01*
X94565709Y-61901693D01*
X94563261Y-61901500D01*
X94407729Y-61901500D01*
X94405593Y-61901646D01*
X94405582Y-61901646D01*
X94197452Y-61915835D01*
X94197446Y-61915836D01*
X94193175Y-61916127D01*
X94188980Y-61916996D01*
X94188978Y-61916996D01*
X94070339Y-61941565D01*
X93911658Y-61974426D01*
X93640657Y-62070393D01*
X93385188Y-62202250D01*
X93381687Y-62204711D01*
X93381683Y-62204713D01*
X93313829Y-62252402D01*
X93149977Y-62367559D01*
X92939378Y-62563260D01*
X92757287Y-62785732D01*
X92607073Y-63030858D01*
X92605347Y-63034791D01*
X92605346Y-63034792D01*
X92518911Y-63231697D01*
X92491517Y-63294102D01*
X92490342Y-63298229D01*
X92490341Y-63298230D01*
X92474062Y-63355379D01*
X92412756Y-63570594D01*
X92372249Y-63855216D01*
X92372227Y-63859505D01*
X92372226Y-63859512D01*
X92370765Y-64138417D01*
X92370743Y-64142703D01*
X82283700Y-64142703D01*
X82283700Y-58419500D01*
X82303702Y-58351379D01*
X82357358Y-58304886D01*
X82409700Y-58293500D01*
X179346823Y-58293500D01*
X179414944Y-58313502D01*
G37*
%TD.AperFunction*%
%TA.AperFunction,Conductor*%
G36*
X98829889Y-76453502D02*
G01*
X98837333Y-76458674D01*
X98886108Y-76495229D01*
X98886110Y-76495230D01*
X98893295Y-76500615D01*
X99029684Y-76551745D01*
X99091866Y-76558500D01*
X100048000Y-76558500D01*
X100116121Y-76578502D01*
X100162614Y-76632158D01*
X100174000Y-76684500D01*
X100174000Y-77489884D01*
X100178475Y-77505123D01*
X100179865Y-77506328D01*
X100187548Y-77507999D01*
X100435500Y-77507999D01*
X100503621Y-77528001D01*
X100550114Y-77581657D01*
X100561500Y-77633999D01*
X100561500Y-93666088D01*
X100561208Y-93674658D01*
X100559380Y-93701478D01*
X100557275Y-93732352D01*
X100567622Y-93791635D01*
X100568261Y-93795299D01*
X100569223Y-93801821D01*
X100576898Y-93865242D01*
X100579581Y-93872343D01*
X100580222Y-93874952D01*
X100584685Y-93891262D01*
X100585450Y-93893798D01*
X100586757Y-93901284D01*
X100592347Y-93914017D01*
X100612442Y-93959795D01*
X100614933Y-93965899D01*
X100637513Y-94025656D01*
X100641815Y-94031916D01*
X100644540Y-94037129D01*
X100658371Y-94106765D01*
X100632359Y-94172825D01*
X100574762Y-94214334D01*
X100532876Y-94221500D01*
X99101866Y-94221500D01*
X99039684Y-94228255D01*
X98903295Y-94279385D01*
X98786739Y-94366739D01*
X98699385Y-94483295D01*
X98648255Y-94619684D01*
X98641500Y-94681866D01*
X98641500Y-95170500D01*
X98621498Y-95238621D01*
X98567842Y-95285114D01*
X98515500Y-95296500D01*
X95106074Y-95296500D01*
X95037953Y-95276498D01*
X94996039Y-95228597D01*
X94995300Y-95229054D01*
X94992549Y-95224608D01*
X94992548Y-95224607D01*
X94902228Y-95078652D01*
X94777053Y-94953695D01*
X94722132Y-94919841D01*
X94632718Y-94864725D01*
X94632716Y-94864724D01*
X94626488Y-94860885D01*
X94481006Y-94812631D01*
X94465139Y-94807368D01*
X94465137Y-94807368D01*
X94458611Y-94805203D01*
X94451775Y-94804503D01*
X94451772Y-94804502D01*
X94408719Y-94800091D01*
X94354150Y-94794500D01*
X93553350Y-94794500D01*
X93550104Y-94794837D01*
X93550100Y-94794837D01*
X93454442Y-94804762D01*
X93454438Y-94804763D01*
X93447584Y-94805474D01*
X93441048Y-94807655D01*
X93441046Y-94807655D01*
X93308944Y-94851728D01*
X93279804Y-94861450D01*
X93129402Y-94954522D01*
X93124229Y-94959704D01*
X93042966Y-95041109D01*
X92980684Y-95075188D01*
X92909864Y-95070185D01*
X92864775Y-95041264D01*
X92782233Y-94958866D01*
X92777053Y-94953695D01*
X92770825Y-94949856D01*
X92770820Y-94949852D01*
X92722133Y-94919841D01*
X92674640Y-94867069D01*
X92662250Y-94812582D01*
X92662250Y-93909071D01*
X92682252Y-93840950D01*
X92733792Y-93795852D01*
X92737696Y-93794550D01*
X92838207Y-93732352D01*
X92881870Y-93705332D01*
X92888098Y-93701478D01*
X93013055Y-93576303D01*
X93061694Y-93497396D01*
X93102025Y-93431968D01*
X93102026Y-93431966D01*
X93105865Y-93425738D01*
X93153043Y-93283500D01*
X93159382Y-93264389D01*
X93159382Y-93264387D01*
X93161547Y-93257861D01*
X93172250Y-93153400D01*
X93172250Y-92352600D01*
X93171913Y-92349350D01*
X93161988Y-92253692D01*
X93161987Y-92253688D01*
X93161276Y-92246834D01*
X93158636Y-92238919D01*
X93107618Y-92086002D01*
X93105300Y-92079054D01*
X93012228Y-91928652D01*
X92925287Y-91841862D01*
X92891208Y-91779579D01*
X92896211Y-91708759D01*
X92925132Y-91663671D01*
X93007489Y-91581171D01*
X93016501Y-91569760D01*
X93101566Y-91431757D01*
X93107713Y-91418576D01*
X93158888Y-91264290D01*
X93161755Y-91250914D01*
X93171422Y-91156562D01*
X93171750Y-91150146D01*
X93171750Y-91025115D01*
X93167275Y-91009876D01*
X93165885Y-91008671D01*
X93158202Y-91007000D01*
X90773866Y-91007000D01*
X90758627Y-91011475D01*
X90757422Y-91012865D01*
X90755751Y-91020548D01*
X90755751Y-91150095D01*
X90756088Y-91156614D01*
X90766007Y-91252206D01*
X90768899Y-91265600D01*
X90820338Y-91419784D01*
X90826511Y-91432962D01*
X90911813Y-91570807D01*
X90920849Y-91582208D01*
X91002212Y-91663430D01*
X91036291Y-91725713D01*
X91031288Y-91796533D01*
X91002367Y-91841620D01*
X90919620Y-91924512D01*
X90919616Y-91924517D01*
X90914445Y-91929697D01*
X90910605Y-91935927D01*
X90910604Y-91935928D01*
X90865765Y-92008671D01*
X90821635Y-92080262D01*
X90798580Y-92149771D01*
X90771393Y-92231739D01*
X90765953Y-92248139D01*
X90755250Y-92352600D01*
X90755250Y-93153400D01*
X90755587Y-93156646D01*
X90755587Y-93156650D01*
X90762743Y-93225615D01*
X90766224Y-93259166D01*
X90768405Y-93265702D01*
X90768405Y-93265704D01*
X90800316Y-93361351D01*
X90822200Y-93426946D01*
X90915272Y-93577348D01*
X91040447Y-93702305D01*
X91046677Y-93706145D01*
X91046678Y-93706146D01*
X91185366Y-93791635D01*
X91232860Y-93844408D01*
X91245250Y-93898895D01*
X91245250Y-94812631D01*
X91225248Y-94880752D01*
X91185557Y-94919772D01*
X91129402Y-94954522D01*
X91004445Y-95079697D01*
X91000605Y-95085927D01*
X91000604Y-95085928D01*
X90953759Y-95161925D01*
X90911635Y-95230262D01*
X90909955Y-95229226D01*
X90869629Y-95275031D01*
X90802345Y-95294500D01*
X87994491Y-95294500D01*
X87926370Y-95274498D01*
X87879877Y-95220842D01*
X87869228Y-95182108D01*
X87865798Y-95150540D01*
X87864945Y-95142684D01*
X87813815Y-95006295D01*
X87726461Y-94889739D01*
X87609905Y-94802385D01*
X87473516Y-94751255D01*
X87411334Y-94744500D01*
X82409700Y-94744500D01*
X82341579Y-94724498D01*
X82295086Y-94670842D01*
X82283700Y-94618500D01*
X82283700Y-93137000D01*
X82303702Y-93068879D01*
X82357358Y-93022386D01*
X82409700Y-93011000D01*
X84551085Y-93011000D01*
X84566324Y-93006525D01*
X84567529Y-93005135D01*
X84569200Y-92997452D01*
X84569200Y-92992884D01*
X85077200Y-92992884D01*
X85081675Y-93008123D01*
X85083065Y-93009328D01*
X85090748Y-93010999D01*
X87407869Y-93010999D01*
X87414690Y-93010629D01*
X87465552Y-93005105D01*
X87480804Y-93001479D01*
X87601254Y-92956324D01*
X87616849Y-92947786D01*
X87718924Y-92871285D01*
X87731485Y-92858724D01*
X87807986Y-92756649D01*
X87816524Y-92741054D01*
X87861678Y-92620606D01*
X87865305Y-92605351D01*
X87870831Y-92554486D01*
X87871200Y-92547672D01*
X87871200Y-92025115D01*
X87866725Y-92009876D01*
X87865335Y-92008671D01*
X87857652Y-92007000D01*
X85095315Y-92007000D01*
X85080076Y-92011475D01*
X85078871Y-92012865D01*
X85077200Y-92020548D01*
X85077200Y-92992884D01*
X84569200Y-92992884D01*
X84569200Y-91480885D01*
X85077200Y-91480885D01*
X85081675Y-91496124D01*
X85083065Y-91497329D01*
X85090748Y-91499000D01*
X87853084Y-91499000D01*
X87868323Y-91494525D01*
X87869528Y-91493135D01*
X87871199Y-91485452D01*
X87871199Y-90958331D01*
X87870829Y-90951510D01*
X87865305Y-90900648D01*
X87861679Y-90885396D01*
X87816524Y-90764946D01*
X87807986Y-90749351D01*
X87731485Y-90647276D01*
X87718924Y-90634715D01*
X87616849Y-90558214D01*
X87601254Y-90549676D01*
X87480806Y-90504522D01*
X87465551Y-90500895D01*
X87414686Y-90495369D01*
X87407872Y-90495000D01*
X85095315Y-90495000D01*
X85080076Y-90499475D01*
X85078871Y-90500865D01*
X85077200Y-90508548D01*
X85077200Y-91480885D01*
X84569200Y-91480885D01*
X84569200Y-90513116D01*
X84564725Y-90497877D01*
X84563335Y-90496672D01*
X84555652Y-90495001D01*
X82409700Y-90495001D01*
X82361625Y-90480885D01*
X90755750Y-90480885D01*
X90760225Y-90496124D01*
X90761615Y-90497329D01*
X90769298Y-90499000D01*
X91691635Y-90499000D01*
X91706874Y-90494525D01*
X91708079Y-90493135D01*
X91709750Y-90485452D01*
X91709750Y-90480885D01*
X92217750Y-90480885D01*
X92222225Y-90496124D01*
X92223615Y-90497329D01*
X92231298Y-90499000D01*
X93153634Y-90499000D01*
X93168873Y-90494525D01*
X93170078Y-90493135D01*
X93171749Y-90485452D01*
X93171749Y-90355905D01*
X93171412Y-90349386D01*
X93161493Y-90253794D01*
X93158601Y-90240400D01*
X93107162Y-90086216D01*
X93100989Y-90073038D01*
X93015687Y-89935193D01*
X93006651Y-89923792D01*
X92891921Y-89809261D01*
X92880510Y-89800249D01*
X92742507Y-89715184D01*
X92729326Y-89709037D01*
X92575040Y-89657862D01*
X92561664Y-89654995D01*
X92467312Y-89645328D01*
X92460895Y-89645000D01*
X92235865Y-89645000D01*
X92220626Y-89649475D01*
X92219421Y-89650865D01*
X92217750Y-89658548D01*
X92217750Y-90480885D01*
X91709750Y-90480885D01*
X91709750Y-89663116D01*
X91705275Y-89647877D01*
X91703885Y-89646672D01*
X91696202Y-89645001D01*
X91466655Y-89645001D01*
X91460136Y-89645338D01*
X91364544Y-89655257D01*
X91351150Y-89658149D01*
X91196966Y-89709588D01*
X91183788Y-89715761D01*
X91045943Y-89801063D01*
X91034542Y-89810099D01*
X90920011Y-89924829D01*
X90910999Y-89936240D01*
X90825934Y-90074243D01*
X90819787Y-90087424D01*
X90768612Y-90241710D01*
X90765745Y-90255086D01*
X90756078Y-90349438D01*
X90755750Y-90355855D01*
X90755750Y-90480885D01*
X82361625Y-90480885D01*
X82341579Y-90474999D01*
X82295086Y-90421343D01*
X82283700Y-90369001D01*
X82283700Y-81439000D01*
X82303702Y-81370879D01*
X82357358Y-81324386D01*
X82409700Y-81313000D01*
X84520385Y-81313000D01*
X84535624Y-81308525D01*
X84536829Y-81307135D01*
X84538500Y-81299452D01*
X84538500Y-81294884D01*
X85046500Y-81294884D01*
X85050975Y-81310123D01*
X85052365Y-81311328D01*
X85060048Y-81312999D01*
X87377169Y-81312999D01*
X87383990Y-81312629D01*
X87434852Y-81307105D01*
X87450104Y-81303479D01*
X87533820Y-81272095D01*
X90972001Y-81272095D01*
X90972338Y-81278614D01*
X90982257Y-81374206D01*
X90985149Y-81387600D01*
X91036588Y-81541784D01*
X91042761Y-81554962D01*
X91128063Y-81692807D01*
X91137099Y-81704208D01*
X91251829Y-81818739D01*
X91263240Y-81827751D01*
X91401243Y-81912816D01*
X91414424Y-81918963D01*
X91568710Y-81970138D01*
X91582086Y-81973005D01*
X91676438Y-81982672D01*
X91682854Y-81983000D01*
X91907885Y-81983000D01*
X91923124Y-81978525D01*
X91924329Y-81977135D01*
X91926000Y-81969452D01*
X91926000Y-81964884D01*
X92434000Y-81964884D01*
X92438475Y-81980123D01*
X92439865Y-81981328D01*
X92447548Y-81982999D01*
X92677095Y-81982999D01*
X92683614Y-81982662D01*
X92779206Y-81972743D01*
X92792600Y-81969851D01*
X92946784Y-81918412D01*
X92959962Y-81912239D01*
X93097807Y-81826937D01*
X93109208Y-81817901D01*
X93223739Y-81703171D01*
X93232751Y-81691760D01*
X93317816Y-81553757D01*
X93323963Y-81540576D01*
X93375138Y-81386290D01*
X93378005Y-81372914D01*
X93387672Y-81278562D01*
X93388000Y-81272146D01*
X93388000Y-81147115D01*
X93383525Y-81131876D01*
X93382135Y-81130671D01*
X93374452Y-81129000D01*
X92452115Y-81129000D01*
X92436876Y-81133475D01*
X92435671Y-81134865D01*
X92434000Y-81142548D01*
X92434000Y-81964884D01*
X91926000Y-81964884D01*
X91926000Y-81147115D01*
X91921525Y-81131876D01*
X91920135Y-81130671D01*
X91912452Y-81129000D01*
X90990116Y-81129000D01*
X90974877Y-81133475D01*
X90973672Y-81134865D01*
X90972001Y-81142548D01*
X90972001Y-81272095D01*
X87533820Y-81272095D01*
X87570554Y-81258324D01*
X87586149Y-81249786D01*
X87688224Y-81173285D01*
X87700785Y-81160724D01*
X87777286Y-81058649D01*
X87785824Y-81043054D01*
X87830978Y-80922606D01*
X87834605Y-80907351D01*
X87840131Y-80856486D01*
X87840500Y-80849672D01*
X87840500Y-80327115D01*
X87836025Y-80311876D01*
X87834635Y-80310671D01*
X87826952Y-80309000D01*
X85064615Y-80309000D01*
X85049376Y-80313475D01*
X85048171Y-80314865D01*
X85046500Y-80322548D01*
X85046500Y-81294884D01*
X84538500Y-81294884D01*
X84538500Y-79782885D01*
X85046500Y-79782885D01*
X85050975Y-79798124D01*
X85052365Y-79799329D01*
X85060048Y-79801000D01*
X87822384Y-79801000D01*
X87837623Y-79796525D01*
X87838828Y-79795135D01*
X87840499Y-79787452D01*
X87840499Y-79260331D01*
X87840129Y-79253510D01*
X87834605Y-79202648D01*
X87830979Y-79187396D01*
X87785824Y-79066946D01*
X87777286Y-79051351D01*
X87700785Y-78949276D01*
X87688224Y-78936715D01*
X87586149Y-78860214D01*
X87570554Y-78851676D01*
X87450106Y-78806522D01*
X87434851Y-78802895D01*
X87383986Y-78797369D01*
X87377172Y-78797000D01*
X85064615Y-78797000D01*
X85049376Y-78801475D01*
X85048171Y-78802865D01*
X85046500Y-78810548D01*
X85046500Y-79782885D01*
X84538500Y-79782885D01*
X84538500Y-78815116D01*
X84534025Y-78799877D01*
X84532635Y-78798672D01*
X84524952Y-78797001D01*
X82409700Y-78797001D01*
X82341579Y-78776999D01*
X82295086Y-78723343D01*
X82283700Y-78671001D01*
X82283700Y-77189500D01*
X82303702Y-77121379D01*
X82357358Y-77074886D01*
X82409700Y-77063500D01*
X87380634Y-77063500D01*
X87442816Y-77056745D01*
X87579205Y-77005615D01*
X87695761Y-76918261D01*
X87783115Y-76801705D01*
X87834245Y-76665316D01*
X87838528Y-76625892D01*
X87865770Y-76560330D01*
X87924134Y-76519904D01*
X87963791Y-76513500D01*
X91028613Y-76513500D01*
X91096734Y-76533502D01*
X91137184Y-76579730D01*
X91138450Y-76578946D01*
X91231522Y-76729348D01*
X91356697Y-76854305D01*
X91362925Y-76858144D01*
X91362930Y-76858148D01*
X91411617Y-76888159D01*
X91459110Y-76940931D01*
X91471500Y-76995418D01*
X91471500Y-77723613D01*
X91451498Y-77791734D01*
X91405270Y-77832184D01*
X91406054Y-77833450D01*
X91255652Y-77926522D01*
X91130695Y-78051697D01*
X91126855Y-78057927D01*
X91126854Y-78057928D01*
X91042247Y-78195186D01*
X91037885Y-78202262D01*
X91033019Y-78216932D01*
X90995423Y-78330283D01*
X90982203Y-78370139D01*
X90971500Y-78474600D01*
X90971500Y-79275400D01*
X90971837Y-79278646D01*
X90971837Y-79278650D01*
X90981607Y-79372807D01*
X90982474Y-79381166D01*
X90984655Y-79387702D01*
X90984655Y-79387704D01*
X91010604Y-79465483D01*
X91038450Y-79548946D01*
X91131522Y-79699348D01*
X91136704Y-79704521D01*
X91218463Y-79786138D01*
X91252542Y-79848421D01*
X91247539Y-79919241D01*
X91218618Y-79964329D01*
X91136261Y-80046829D01*
X91127249Y-80058240D01*
X91042184Y-80196243D01*
X91036037Y-80209424D01*
X90984862Y-80363710D01*
X90981995Y-80377086D01*
X90972328Y-80471438D01*
X90972000Y-80477855D01*
X90972000Y-80602885D01*
X90976475Y-80618124D01*
X90977865Y-80619329D01*
X90985548Y-80621000D01*
X93369884Y-80621000D01*
X93385123Y-80616525D01*
X93386328Y-80615135D01*
X93387999Y-80607452D01*
X93387999Y-80477905D01*
X93387662Y-80471386D01*
X93377743Y-80375794D01*
X93374851Y-80362400D01*
X93323412Y-80208216D01*
X93317239Y-80195038D01*
X93231937Y-80057193D01*
X93222901Y-80045792D01*
X93141538Y-79964570D01*
X93107459Y-79902287D01*
X93112462Y-79831467D01*
X93141383Y-79786380D01*
X93224130Y-79703488D01*
X93224134Y-79703483D01*
X93229305Y-79698303D01*
X93251067Y-79662999D01*
X93318275Y-79553968D01*
X93318276Y-79553966D01*
X93322115Y-79547738D01*
X93377797Y-79379861D01*
X93388500Y-79275400D01*
X93388500Y-78474600D01*
X93388163Y-78471350D01*
X93378238Y-78375692D01*
X93378237Y-78375688D01*
X93377526Y-78368834D01*
X93367396Y-78338469D01*
X93323868Y-78208002D01*
X93321550Y-78201054D01*
X93228478Y-78050652D01*
X93103303Y-77925695D01*
X92952738Y-77832885D01*
X92953774Y-77831205D01*
X92907969Y-77790879D01*
X92888500Y-77723595D01*
X92888500Y-77044669D01*
X98632001Y-77044669D01*
X98632371Y-77051490D01*
X98637895Y-77102352D01*
X98641521Y-77117604D01*
X98686676Y-77238054D01*
X98695214Y-77253649D01*
X98771715Y-77355724D01*
X98784276Y-77368285D01*
X98886351Y-77444786D01*
X98901946Y-77453324D01*
X99022394Y-77498478D01*
X99037649Y-77502105D01*
X99088514Y-77507631D01*
X99095328Y-77508000D01*
X99647885Y-77508000D01*
X99663124Y-77503525D01*
X99664329Y-77502135D01*
X99666000Y-77494452D01*
X99666000Y-76947115D01*
X99661525Y-76931876D01*
X99660135Y-76930671D01*
X99652452Y-76929000D01*
X98650116Y-76929000D01*
X98634877Y-76933475D01*
X98633672Y-76934865D01*
X98632001Y-76942548D01*
X98632001Y-77044669D01*
X92888500Y-77044669D01*
X92888500Y-76995369D01*
X92908502Y-76927248D01*
X92948193Y-76888228D01*
X93004348Y-76853478D01*
X93090784Y-76766891D01*
X93153066Y-76732812D01*
X93223886Y-76737815D01*
X93268975Y-76766736D01*
X93304005Y-76801705D01*
X93356697Y-76854305D01*
X93362927Y-76858145D01*
X93362928Y-76858146D01*
X93500090Y-76942694D01*
X93507262Y-76947115D01*
X93532241Y-76955400D01*
X93668611Y-77000632D01*
X93668613Y-77000632D01*
X93675139Y-77002797D01*
X93681975Y-77003497D01*
X93681978Y-77003498D01*
X93725031Y-77007909D01*
X93779600Y-77013500D01*
X94580400Y-77013500D01*
X94583646Y-77013163D01*
X94583650Y-77013163D01*
X94679308Y-77003238D01*
X94679312Y-77003237D01*
X94686166Y-77002526D01*
X94692702Y-77000345D01*
X94692704Y-77000345D01*
X94827419Y-76955400D01*
X94853946Y-76946550D01*
X95004348Y-76853478D01*
X95129305Y-76728303D01*
X95171213Y-76660316D01*
X95218275Y-76583968D01*
X95218276Y-76583966D01*
X95222115Y-76577738D01*
X95241321Y-76519833D01*
X95281751Y-76461473D01*
X95347315Y-76434236D01*
X95360914Y-76433500D01*
X98761768Y-76433500D01*
X98829889Y-76453502D01*
G37*
%TD.AperFunction*%
%TD*%
M02*
