%TF.GenerationSoftware,KiCad,Pcbnew,(6.0.5)*%
%TF.CreationDate,2022-05-16T15:03:43-04:00*%
%TF.ProjectId,PrawnBlaster_Connectorized,50726177-6e42-46c6-9173-7465725f436f,rev?*%
%TF.SameCoordinates,Original*%
%TF.FileFunction,Legend,Top*%
%TF.FilePolarity,Positive*%
%FSLAX46Y46*%
G04 Gerber Fmt 4.6, Leading zero omitted, Abs format (unit mm)*
G04 Created by KiCad (PCBNEW (6.0.5)) date 2022-05-16 15:03:43*
%MOMM*%
%LPD*%
G01*
G04 APERTURE LIST*
%ADD10C,0.150000*%
%ADD11C,0.254000*%
%ADD12C,0.120000*%
%ADD13C,0.200000*%
G04 APERTURE END LIST*
D10*
X83430000Y-67733571D02*
X83763333Y-67733571D01*
X83906190Y-68257380D02*
X83430000Y-68257380D01*
X83430000Y-67257380D01*
X83906190Y-67257380D01*
X84239523Y-68257380D02*
X84763333Y-67590714D01*
X84239523Y-67590714D02*
X84763333Y-68257380D01*
X85001428Y-67590714D02*
X85382380Y-67590714D01*
X85144285Y-67257380D02*
X85144285Y-68114523D01*
X85191904Y-68209761D01*
X85287142Y-68257380D01*
X85382380Y-68257380D01*
X87049047Y-68257380D02*
X86715714Y-67781190D01*
X86477619Y-68257380D02*
X86477619Y-67257380D01*
X86858571Y-67257380D01*
X86953809Y-67305000D01*
X87001428Y-67352619D01*
X87049047Y-67447857D01*
X87049047Y-67590714D01*
X87001428Y-67685952D01*
X86953809Y-67733571D01*
X86858571Y-67781190D01*
X86477619Y-67781190D01*
X87858571Y-68209761D02*
X87763333Y-68257380D01*
X87572857Y-68257380D01*
X87477619Y-68209761D01*
X87430000Y-68114523D01*
X87430000Y-67733571D01*
X87477619Y-67638333D01*
X87572857Y-67590714D01*
X87763333Y-67590714D01*
X87858571Y-67638333D01*
X87906190Y-67733571D01*
X87906190Y-67828809D01*
X87430000Y-67924047D01*
X88191904Y-67590714D02*
X88572857Y-67590714D01*
X88334761Y-68257380D02*
X88334761Y-67400238D01*
X88382380Y-67305000D01*
X88477619Y-67257380D01*
X88572857Y-67257380D01*
X175105714Y-66222142D02*
X175058095Y-66269761D01*
X174915238Y-66317380D01*
X174820000Y-66317380D01*
X174677142Y-66269761D01*
X174581904Y-66174523D01*
X174534285Y-66079285D01*
X174486666Y-65888809D01*
X174486666Y-65745952D01*
X174534285Y-65555476D01*
X174581904Y-65460238D01*
X174677142Y-65365000D01*
X174820000Y-65317380D01*
X174915238Y-65317380D01*
X175058095Y-65365000D01*
X175105714Y-65412619D01*
X175677142Y-66317380D02*
X175581904Y-66269761D01*
X175534285Y-66174523D01*
X175534285Y-65317380D01*
X176058095Y-66317380D02*
X176058095Y-65317380D01*
X176153333Y-65936428D02*
X176439047Y-66317380D01*
X176439047Y-65650714D02*
X176058095Y-66031666D01*
X177534285Y-65317380D02*
X178153333Y-65317380D01*
X177820000Y-65698333D01*
X177962857Y-65698333D01*
X178058095Y-65745952D01*
X178105714Y-65793571D01*
X178153333Y-65888809D01*
X178153333Y-66126904D01*
X178105714Y-66222142D01*
X178058095Y-66269761D01*
X177962857Y-66317380D01*
X177677142Y-66317380D01*
X177581904Y-66269761D01*
X177534285Y-66222142D01*
X174675714Y-110472142D02*
X174628095Y-110519761D01*
X174485238Y-110567380D01*
X174390000Y-110567380D01*
X174247142Y-110519761D01*
X174151904Y-110424523D01*
X174104285Y-110329285D01*
X174056666Y-110138809D01*
X174056666Y-109995952D01*
X174104285Y-109805476D01*
X174151904Y-109710238D01*
X174247142Y-109615000D01*
X174390000Y-109567380D01*
X174485238Y-109567380D01*
X174628095Y-109615000D01*
X174675714Y-109662619D01*
X175247142Y-110567380D02*
X175151904Y-110519761D01*
X175104285Y-110424523D01*
X175104285Y-109567380D01*
X175628095Y-110567380D02*
X175628095Y-109567380D01*
X175723333Y-110186428D02*
X176009047Y-110567380D01*
X176009047Y-109900714D02*
X175628095Y-110281666D01*
X177390000Y-109567380D02*
X177485238Y-109567380D01*
X177580476Y-109615000D01*
X177628095Y-109662619D01*
X177675714Y-109757857D01*
X177723333Y-109948333D01*
X177723333Y-110186428D01*
X177675714Y-110376904D01*
X177628095Y-110472142D01*
X177580476Y-110519761D01*
X177485238Y-110567380D01*
X177390000Y-110567380D01*
X177294761Y-110519761D01*
X177247142Y-110472142D01*
X177199523Y-110376904D01*
X177151904Y-110186428D01*
X177151904Y-109948333D01*
X177199523Y-109757857D01*
X177247142Y-109662619D01*
X177294761Y-109615000D01*
X177390000Y-109567380D01*
X83677083Y-102821571D02*
X84010416Y-102821571D01*
X84153273Y-103345380D02*
X83677083Y-103345380D01*
X83677083Y-102345380D01*
X84153273Y-102345380D01*
X84486607Y-103345380D02*
X85010416Y-102678714D01*
X84486607Y-102678714D02*
X85010416Y-103345380D01*
X85248511Y-102678714D02*
X85629464Y-102678714D01*
X85391369Y-102345380D02*
X85391369Y-103202523D01*
X85438988Y-103297761D01*
X85534226Y-103345380D01*
X85629464Y-103345380D01*
X86581845Y-102345380D02*
X87153273Y-102345380D01*
X86867559Y-103345380D02*
X86867559Y-102345380D01*
X87486607Y-103345380D02*
X87486607Y-102678714D01*
X87486607Y-102869190D02*
X87534226Y-102773952D01*
X87581845Y-102726333D01*
X87677083Y-102678714D01*
X87772321Y-102678714D01*
X88105654Y-103345380D02*
X88105654Y-102678714D01*
X88105654Y-102345380D02*
X88058035Y-102393000D01*
X88105654Y-102440619D01*
X88153273Y-102393000D01*
X88105654Y-102345380D01*
X88105654Y-102440619D01*
X89010416Y-102678714D02*
X89010416Y-103488238D01*
X88962797Y-103583476D01*
X88915178Y-103631095D01*
X88819940Y-103678714D01*
X88677083Y-103678714D01*
X88581845Y-103631095D01*
X89010416Y-103297761D02*
X88915178Y-103345380D01*
X88724702Y-103345380D01*
X88629464Y-103297761D01*
X88581845Y-103250142D01*
X88534226Y-103154904D01*
X88534226Y-102869190D01*
X88581845Y-102773952D01*
X88629464Y-102726333D01*
X88724702Y-102678714D01*
X88915178Y-102678714D01*
X89010416Y-102726333D01*
X174995714Y-95842142D02*
X174948095Y-95889761D01*
X174805238Y-95937380D01*
X174710000Y-95937380D01*
X174567142Y-95889761D01*
X174471904Y-95794523D01*
X174424285Y-95699285D01*
X174376666Y-95508809D01*
X174376666Y-95365952D01*
X174424285Y-95175476D01*
X174471904Y-95080238D01*
X174567142Y-94985000D01*
X174710000Y-94937380D01*
X174805238Y-94937380D01*
X174948095Y-94985000D01*
X174995714Y-95032619D01*
X175567142Y-95937380D02*
X175471904Y-95889761D01*
X175424285Y-95794523D01*
X175424285Y-94937380D01*
X175948095Y-95937380D02*
X175948095Y-94937380D01*
X176043333Y-95556428D02*
X176329047Y-95937380D01*
X176329047Y-95270714D02*
X175948095Y-95651666D01*
X178043333Y-95937380D02*
X177471904Y-95937380D01*
X177757619Y-95937380D02*
X177757619Y-94937380D01*
X177662380Y-95080238D01*
X177567142Y-95175476D01*
X177471904Y-95223095D01*
X174885714Y-81142142D02*
X174838095Y-81189761D01*
X174695238Y-81237380D01*
X174600000Y-81237380D01*
X174457142Y-81189761D01*
X174361904Y-81094523D01*
X174314285Y-80999285D01*
X174266666Y-80808809D01*
X174266666Y-80665952D01*
X174314285Y-80475476D01*
X174361904Y-80380238D01*
X174457142Y-80285000D01*
X174600000Y-80237380D01*
X174695238Y-80237380D01*
X174838095Y-80285000D01*
X174885714Y-80332619D01*
X175457142Y-81237380D02*
X175361904Y-81189761D01*
X175314285Y-81094523D01*
X175314285Y-80237380D01*
X175838095Y-81237380D02*
X175838095Y-80237380D01*
X175933333Y-80856428D02*
X176219047Y-81237380D01*
X176219047Y-80570714D02*
X175838095Y-80951666D01*
X177361904Y-80332619D02*
X177409523Y-80285000D01*
X177504761Y-80237380D01*
X177742857Y-80237380D01*
X177838095Y-80285000D01*
X177885714Y-80332619D01*
X177933333Y-80427857D01*
X177933333Y-80523095D01*
X177885714Y-80665952D01*
X177314285Y-81237380D01*
X177933333Y-81237380D01*
%TO.C,J6*%
X177889880Y-105708333D02*
X178604166Y-105708333D01*
X178747023Y-105755952D01*
X178842261Y-105851190D01*
X178889880Y-105994047D01*
X178889880Y-106089285D01*
X177889880Y-104803571D02*
X177889880Y-104994047D01*
X177937500Y-105089285D01*
X177985119Y-105136904D01*
X178127976Y-105232142D01*
X178318452Y-105279761D01*
X178699404Y-105279761D01*
X178794642Y-105232142D01*
X178842261Y-105184523D01*
X178889880Y-105089285D01*
X178889880Y-104898809D01*
X178842261Y-104803571D01*
X178794642Y-104755952D01*
X178699404Y-104708333D01*
X178461309Y-104708333D01*
X178366071Y-104755952D01*
X178318452Y-104803571D01*
X178270833Y-104898809D01*
X178270833Y-105089285D01*
X178318452Y-105184523D01*
X178366071Y-105232142D01*
X178461309Y-105279761D01*
%TO.C,R8*%
X94066130Y-91919666D02*
X93589940Y-92253000D01*
X94066130Y-92491095D02*
X93066130Y-92491095D01*
X93066130Y-92110142D01*
X93113750Y-92014904D01*
X93161369Y-91967285D01*
X93256607Y-91919666D01*
X93399464Y-91919666D01*
X93494702Y-91967285D01*
X93542321Y-92014904D01*
X93589940Y-92110142D01*
X93589940Y-92491095D01*
X93494702Y-91348238D02*
X93447083Y-91443476D01*
X93399464Y-91491095D01*
X93304226Y-91538714D01*
X93256607Y-91538714D01*
X93161369Y-91491095D01*
X93113750Y-91443476D01*
X93066130Y-91348238D01*
X93066130Y-91157761D01*
X93113750Y-91062523D01*
X93161369Y-91014904D01*
X93256607Y-90967285D01*
X93304226Y-90967285D01*
X93399464Y-91014904D01*
X93447083Y-91062523D01*
X93494702Y-91157761D01*
X93494702Y-91348238D01*
X93542321Y-91443476D01*
X93589940Y-91491095D01*
X93685178Y-91538714D01*
X93875654Y-91538714D01*
X93970892Y-91491095D01*
X94018511Y-91443476D01*
X94066130Y-91348238D01*
X94066130Y-91157761D01*
X94018511Y-91062523D01*
X93970892Y-91014904D01*
X93875654Y-90967285D01*
X93685178Y-90967285D01*
X93589940Y-91014904D01*
X93542321Y-91062523D01*
X93494702Y-91157761D01*
%TO.C,C3*%
X162833333Y-68502142D02*
X162785714Y-68549761D01*
X162642857Y-68597380D01*
X162547619Y-68597380D01*
X162404761Y-68549761D01*
X162309523Y-68454523D01*
X162261904Y-68359285D01*
X162214285Y-68168809D01*
X162214285Y-68025952D01*
X162261904Y-67835476D01*
X162309523Y-67740238D01*
X162404761Y-67645000D01*
X162547619Y-67597380D01*
X162642857Y-67597380D01*
X162785714Y-67645000D01*
X162833333Y-67692619D01*
X163166666Y-67597380D02*
X163785714Y-67597380D01*
X163452380Y-67978333D01*
X163595238Y-67978333D01*
X163690476Y-68025952D01*
X163738095Y-68073571D01*
X163785714Y-68168809D01*
X163785714Y-68406904D01*
X163738095Y-68502142D01*
X163690476Y-68549761D01*
X163595238Y-68597380D01*
X163309523Y-68597380D01*
X163214285Y-68549761D01*
X163166666Y-68502142D01*
%TO.C,U3*%
X98768095Y-92827380D02*
X98768095Y-93636904D01*
X98815714Y-93732142D01*
X98863333Y-93779761D01*
X98958571Y-93827380D01*
X99149047Y-93827380D01*
X99244285Y-93779761D01*
X99291904Y-93732142D01*
X99339523Y-93636904D01*
X99339523Y-92827380D01*
X99720476Y-92827380D02*
X100339523Y-92827380D01*
X100006190Y-93208333D01*
X100149047Y-93208333D01*
X100244285Y-93255952D01*
X100291904Y-93303571D01*
X100339523Y-93398809D01*
X100339523Y-93636904D01*
X100291904Y-93732142D01*
X100244285Y-93779761D01*
X100149047Y-93827380D01*
X99863333Y-93827380D01*
X99768095Y-93779761D01*
X99720476Y-93732142D01*
%TO.C,U2*%
X120033095Y-87567380D02*
X120033095Y-88376904D01*
X120080714Y-88472142D01*
X120128333Y-88519761D01*
X120223571Y-88567380D01*
X120414047Y-88567380D01*
X120509285Y-88519761D01*
X120556904Y-88472142D01*
X120604523Y-88376904D01*
X120604523Y-87567380D01*
X121033095Y-87662619D02*
X121080714Y-87615000D01*
X121175952Y-87567380D01*
X121414047Y-87567380D01*
X121509285Y-87615000D01*
X121556904Y-87662619D01*
X121604523Y-87757857D01*
X121604523Y-87853095D01*
X121556904Y-87995952D01*
X120985476Y-88567380D01*
X121604523Y-88567380D01*
X106784722Y-71995592D02*
X106703910Y-72022529D01*
X106623097Y-72103341D01*
X106569223Y-72211091D01*
X106569223Y-72318841D01*
X106596160Y-72399653D01*
X106676972Y-72534340D01*
X106757784Y-72615152D01*
X106892471Y-72695964D01*
X106973284Y-72722902D01*
X107081033Y-72722902D01*
X107188783Y-72669027D01*
X107242658Y-72615152D01*
X107296532Y-72507402D01*
X107296532Y-72453528D01*
X107107971Y-72264966D01*
X107000221Y-72372715D01*
X107592844Y-72264966D02*
X107027158Y-71699280D01*
X107242658Y-71483781D01*
X107323470Y-71456844D01*
X107377345Y-71456844D01*
X107458157Y-71483781D01*
X107538969Y-71564593D01*
X107565906Y-71645406D01*
X107565906Y-71699280D01*
X107538969Y-71780093D01*
X107323470Y-71995592D01*
X108454841Y-71402969D02*
X108131592Y-71726218D01*
X108293216Y-71564593D02*
X107727531Y-70998908D01*
X107754468Y-71133595D01*
X107754468Y-71241345D01*
X107727531Y-71322157D01*
X108454841Y-70756471D02*
X108374028Y-70783409D01*
X108320154Y-70783409D01*
X108239341Y-70756471D01*
X108212404Y-70729534D01*
X108185467Y-70648722D01*
X108185467Y-70594847D01*
X108212404Y-70514035D01*
X108320154Y-70406285D01*
X108400966Y-70379348D01*
X108454841Y-70379348D01*
X108535653Y-70406285D01*
X108562590Y-70433223D01*
X108589528Y-70514035D01*
X108589528Y-70567910D01*
X108562590Y-70648722D01*
X108454841Y-70756471D01*
X108427903Y-70837284D01*
X108427903Y-70891158D01*
X108454841Y-70971971D01*
X108562590Y-71079720D01*
X108643402Y-71106658D01*
X108697277Y-71106658D01*
X108778089Y-71079720D01*
X108885839Y-70971971D01*
X108912776Y-70891158D01*
X108912776Y-70837284D01*
X108885839Y-70756471D01*
X108778089Y-70648722D01*
X108697277Y-70621784D01*
X108643402Y-70621784D01*
X108562590Y-70648722D01*
X132908096Y-112366218D02*
X132827284Y-112393155D01*
X132746471Y-112473967D01*
X132692597Y-112581717D01*
X132692597Y-112689467D01*
X132719534Y-112770279D01*
X132800346Y-112904966D01*
X132881158Y-112985778D01*
X133015845Y-113066590D01*
X133096658Y-113093528D01*
X133204407Y-113093528D01*
X133312157Y-113039653D01*
X133366032Y-112985778D01*
X133419906Y-112878028D01*
X133419906Y-112824154D01*
X133231345Y-112635592D01*
X133123595Y-112743341D01*
X133716218Y-112635592D02*
X133150532Y-112069906D01*
X133366032Y-111854407D01*
X133446844Y-111827470D01*
X133500719Y-111827470D01*
X133581531Y-111854407D01*
X133662343Y-111935219D01*
X133689280Y-112016032D01*
X133689280Y-112069906D01*
X133662343Y-112150719D01*
X133446844Y-112366218D01*
X133823967Y-111396471D02*
X133877842Y-111342597D01*
X133958654Y-111315659D01*
X134012529Y-111315659D01*
X134093341Y-111342597D01*
X134228028Y-111423409D01*
X134362715Y-111558096D01*
X134443528Y-111692783D01*
X134470465Y-111773595D01*
X134470465Y-111827470D01*
X134443528Y-111908282D01*
X134389653Y-111962157D01*
X134308841Y-111989094D01*
X134254966Y-111989094D01*
X134174154Y-111962157D01*
X134039467Y-111881345D01*
X133904780Y-111746658D01*
X133823967Y-111611971D01*
X133797030Y-111531158D01*
X133797030Y-111477284D01*
X133823967Y-111396471D01*
X132881158Y-69213155D02*
X132800346Y-69240093D01*
X132719534Y-69320905D01*
X132665659Y-69428654D01*
X132665659Y-69536404D01*
X132692597Y-69617216D01*
X132773409Y-69751903D01*
X132854221Y-69832715D01*
X132988908Y-69913528D01*
X133069720Y-69940465D01*
X133177470Y-69940465D01*
X133285219Y-69886590D01*
X133339094Y-69832715D01*
X133392969Y-69724966D01*
X133392969Y-69671091D01*
X133204407Y-69482529D01*
X133096658Y-69590279D01*
X133689280Y-69482529D02*
X133123595Y-68916844D01*
X134012529Y-69159280D01*
X133446844Y-68593595D01*
X134281903Y-68889906D02*
X133716218Y-68324221D01*
X133850905Y-68189534D01*
X133958654Y-68135659D01*
X134066404Y-68135659D01*
X134147216Y-68162597D01*
X134281903Y-68243409D01*
X134362715Y-68324221D01*
X134443528Y-68458908D01*
X134470465Y-68539720D01*
X134470465Y-68647470D01*
X134416590Y-68755219D01*
X134281903Y-68889906D01*
X132881158Y-94613155D02*
X132800346Y-94640093D01*
X132719534Y-94720905D01*
X132665659Y-94828654D01*
X132665659Y-94936404D01*
X132692597Y-95017216D01*
X132773409Y-95151903D01*
X132854221Y-95232715D01*
X132988908Y-95313528D01*
X133069720Y-95340465D01*
X133177470Y-95340465D01*
X133285219Y-95286590D01*
X133339094Y-95232715D01*
X133392969Y-95124966D01*
X133392969Y-95071091D01*
X133204407Y-94882529D01*
X133096658Y-94990279D01*
X133689280Y-94882529D02*
X133123595Y-94316844D01*
X134012529Y-94559280D01*
X133446844Y-93993595D01*
X134281903Y-94289906D02*
X133716218Y-93724221D01*
X133850905Y-93589534D01*
X133958654Y-93535659D01*
X134066404Y-93535659D01*
X134147216Y-93562597D01*
X134281903Y-93643409D01*
X134362715Y-93724221D01*
X134443528Y-93858908D01*
X134470465Y-93939720D01*
X134470465Y-94047470D01*
X134416590Y-94155219D01*
X134281903Y-94289906D01*
X113499761Y-62238809D02*
X113614047Y-62276904D01*
X113804523Y-62276904D01*
X113880714Y-62238809D01*
X113918809Y-62200714D01*
X113956904Y-62124523D01*
X113956904Y-62048333D01*
X113918809Y-61972142D01*
X113880714Y-61934047D01*
X113804523Y-61895952D01*
X113652142Y-61857857D01*
X113575952Y-61819761D01*
X113537857Y-61781666D01*
X113499761Y-61705476D01*
X113499761Y-61629285D01*
X113537857Y-61553095D01*
X113575952Y-61515000D01*
X113652142Y-61476904D01*
X113842619Y-61476904D01*
X113956904Y-61515000D01*
X114223571Y-61476904D02*
X114414047Y-62276904D01*
X114566428Y-61705476D01*
X114718809Y-62276904D01*
X114909285Y-61476904D01*
X115214047Y-62276904D02*
X115214047Y-61476904D01*
X115404523Y-61476904D01*
X115518809Y-61515000D01*
X115595000Y-61591190D01*
X115633095Y-61667380D01*
X115671190Y-61819761D01*
X115671190Y-61934047D01*
X115633095Y-62086428D01*
X115595000Y-62162619D01*
X115518809Y-62238809D01*
X115404523Y-62276904D01*
X115214047Y-62276904D01*
X116014047Y-62276904D02*
X116014047Y-61476904D01*
X116547380Y-61476904D02*
X116699761Y-61476904D01*
X116775952Y-61515000D01*
X116852142Y-61591190D01*
X116890238Y-61743571D01*
X116890238Y-62010238D01*
X116852142Y-62162619D01*
X116775952Y-62238809D01*
X116699761Y-62276904D01*
X116547380Y-62276904D01*
X116471190Y-62238809D01*
X116395000Y-62162619D01*
X116356904Y-62010238D01*
X116356904Y-61743571D01*
X116395000Y-61591190D01*
X116471190Y-61515000D01*
X116547380Y-61476904D01*
X107633375Y-87518435D02*
X107175439Y-87437622D01*
X107310126Y-87841683D02*
X106744441Y-87275998D01*
X106959940Y-87060499D01*
X107040752Y-87033561D01*
X107094627Y-87033561D01*
X107175439Y-87060499D01*
X107256251Y-87141311D01*
X107283189Y-87222123D01*
X107283189Y-87275998D01*
X107256251Y-87356810D01*
X107040752Y-87572309D01*
X107310126Y-86710312D02*
X107768062Y-87168248D01*
X107848874Y-87195186D01*
X107902749Y-87195186D01*
X107983561Y-87168248D01*
X108091311Y-87060499D01*
X108118248Y-86979687D01*
X108118248Y-86925812D01*
X108091311Y-86845000D01*
X107633375Y-86387064D01*
X108468435Y-86683375D02*
X107902749Y-86117690D01*
X108791683Y-86360126D01*
X108225998Y-85794441D01*
X132892722Y-64375592D02*
X132811910Y-64402529D01*
X132731097Y-64483341D01*
X132677223Y-64591091D01*
X132677223Y-64698841D01*
X132704160Y-64779653D01*
X132784972Y-64914340D01*
X132865784Y-64995152D01*
X133000471Y-65075964D01*
X133081284Y-65102902D01*
X133189033Y-65102902D01*
X133296783Y-65049027D01*
X133350658Y-64995152D01*
X133404532Y-64887402D01*
X133404532Y-64833528D01*
X133215971Y-64644966D01*
X133108221Y-64752715D01*
X133700844Y-64644966D02*
X133135158Y-64079280D01*
X133350658Y-63863781D01*
X133431470Y-63836844D01*
X133485345Y-63836844D01*
X133566157Y-63863781D01*
X133646969Y-63944593D01*
X133673906Y-64025406D01*
X133673906Y-64079280D01*
X133646969Y-64160093D01*
X133431470Y-64375592D01*
X134562841Y-63782969D02*
X134239592Y-64106218D01*
X134401216Y-63944593D02*
X133835531Y-63378908D01*
X133862468Y-63513595D01*
X133862468Y-63621345D01*
X133835531Y-63702157D01*
X134508966Y-62705473D02*
X134239592Y-62974847D01*
X134482028Y-63271158D01*
X134482028Y-63217284D01*
X134508966Y-63136471D01*
X134643653Y-63001784D01*
X134724465Y-62974847D01*
X134778340Y-62974847D01*
X134859152Y-63001784D01*
X134993839Y-63136471D01*
X135020776Y-63217284D01*
X135020776Y-63271158D01*
X134993839Y-63351971D01*
X134859152Y-63486658D01*
X134778340Y-63513595D01*
X134724465Y-63513595D01*
X132908096Y-92046218D02*
X132827284Y-92073155D01*
X132746471Y-92153967D01*
X132692597Y-92261717D01*
X132692597Y-92369467D01*
X132719534Y-92450279D01*
X132800346Y-92584966D01*
X132881158Y-92665778D01*
X133015845Y-92746590D01*
X133096658Y-92773528D01*
X133204407Y-92773528D01*
X133312157Y-92719653D01*
X133366032Y-92665778D01*
X133419906Y-92558028D01*
X133419906Y-92504154D01*
X133231345Y-92315592D01*
X133123595Y-92423341D01*
X133716218Y-92315592D02*
X133150532Y-91749906D01*
X133366032Y-91534407D01*
X133446844Y-91507470D01*
X133500719Y-91507470D01*
X133581531Y-91534407D01*
X133662343Y-91615219D01*
X133689280Y-91696032D01*
X133689280Y-91749906D01*
X133662343Y-91830719D01*
X133446844Y-92046218D01*
X133958654Y-90941784D02*
X133850905Y-91049534D01*
X133823967Y-91130346D01*
X133823967Y-91184221D01*
X133850905Y-91318908D01*
X133931717Y-91453595D01*
X134147216Y-91669094D01*
X134228028Y-91696032D01*
X134281903Y-91696032D01*
X134362715Y-91669094D01*
X134470465Y-91561345D01*
X134497402Y-91480532D01*
X134497402Y-91426658D01*
X134470465Y-91345845D01*
X134335778Y-91211158D01*
X134254966Y-91184221D01*
X134201091Y-91184221D01*
X134120279Y-91211158D01*
X134012529Y-91318908D01*
X133985592Y-91399720D01*
X133985592Y-91453595D01*
X134012529Y-91534407D01*
X107281158Y-81913155D02*
X107200346Y-81940093D01*
X107119534Y-82020905D01*
X107065659Y-82128654D01*
X107065659Y-82236404D01*
X107092597Y-82317216D01*
X107173409Y-82451903D01*
X107254221Y-82532715D01*
X107388908Y-82613528D01*
X107469720Y-82640465D01*
X107577470Y-82640465D01*
X107685219Y-82586590D01*
X107739094Y-82532715D01*
X107792969Y-82424966D01*
X107792969Y-82371091D01*
X107604407Y-82182529D01*
X107496658Y-82290279D01*
X108089280Y-82182529D02*
X107523595Y-81616844D01*
X108412529Y-81859280D01*
X107846844Y-81293595D01*
X108681903Y-81589906D02*
X108116218Y-81024221D01*
X108250905Y-80889534D01*
X108358654Y-80835659D01*
X108466404Y-80835659D01*
X108547216Y-80862597D01*
X108681903Y-80943409D01*
X108762715Y-81024221D01*
X108843528Y-81158908D01*
X108870465Y-81239720D01*
X108870465Y-81347470D01*
X108816590Y-81455219D01*
X108681903Y-81589906D01*
X132908096Y-102206218D02*
X132827284Y-102233155D01*
X132746471Y-102313967D01*
X132692597Y-102421717D01*
X132692597Y-102529467D01*
X132719534Y-102610279D01*
X132800346Y-102744966D01*
X132881158Y-102825778D01*
X133015845Y-102906590D01*
X133096658Y-102933528D01*
X133204407Y-102933528D01*
X133312157Y-102879653D01*
X133366032Y-102825778D01*
X133419906Y-102718028D01*
X133419906Y-102664154D01*
X133231345Y-102475592D01*
X133123595Y-102583341D01*
X133716218Y-102475592D02*
X133150532Y-101909906D01*
X133366032Y-101694407D01*
X133446844Y-101667470D01*
X133500719Y-101667470D01*
X133581531Y-101694407D01*
X133662343Y-101775219D01*
X133689280Y-101856032D01*
X133689280Y-101909906D01*
X133662343Y-101990719D01*
X133446844Y-102206218D01*
X133662343Y-101398096D02*
X134012529Y-101047910D01*
X134039467Y-101451971D01*
X134120279Y-101371158D01*
X134201091Y-101344221D01*
X134254966Y-101344221D01*
X134335778Y-101371158D01*
X134470465Y-101505845D01*
X134497402Y-101586658D01*
X134497402Y-101640532D01*
X134470465Y-101721345D01*
X134308841Y-101882969D01*
X134228028Y-101909906D01*
X134174154Y-101909906D01*
X106884847Y-102405592D02*
X107235033Y-102055406D01*
X107261971Y-102459467D01*
X107342783Y-102378654D01*
X107423595Y-102351717D01*
X107477470Y-102351717D01*
X107558282Y-102378654D01*
X107692969Y-102513341D01*
X107719906Y-102594154D01*
X107719906Y-102648028D01*
X107692969Y-102728841D01*
X107531345Y-102890465D01*
X107450532Y-102917402D01*
X107396658Y-102917402D01*
X107396658Y-101893781D02*
X108150905Y-102270905D01*
X107773781Y-101516658D01*
X107908468Y-101381971D02*
X108258654Y-101031784D01*
X108285592Y-101435845D01*
X108366404Y-101355033D01*
X108447216Y-101328096D01*
X108501091Y-101328096D01*
X108581903Y-101355033D01*
X108716590Y-101489720D01*
X108743528Y-101570532D01*
X108743528Y-101624407D01*
X108716590Y-101705219D01*
X108554966Y-101866844D01*
X108474154Y-101893781D01*
X108420279Y-101893781D01*
X133038722Y-74535592D02*
X132957910Y-74562529D01*
X132877097Y-74643341D01*
X132823223Y-74751091D01*
X132823223Y-74858841D01*
X132850160Y-74939653D01*
X132930972Y-75074340D01*
X133011784Y-75155152D01*
X133146471Y-75235964D01*
X133227284Y-75262902D01*
X133335033Y-75262902D01*
X133442783Y-75209027D01*
X133496658Y-75155152D01*
X133550532Y-75047402D01*
X133550532Y-74993528D01*
X133361971Y-74804966D01*
X133254221Y-74912715D01*
X133846844Y-74804966D02*
X133281158Y-74239280D01*
X133496658Y-74023781D01*
X133577470Y-73996844D01*
X133631345Y-73996844D01*
X133712157Y-74023781D01*
X133792969Y-74104593D01*
X133819906Y-74185406D01*
X133819906Y-74239280D01*
X133792969Y-74320093D01*
X133577470Y-74535592D01*
X134708841Y-73942969D02*
X134385592Y-74266218D01*
X134547216Y-74104593D02*
X133981531Y-73538908D01*
X134008468Y-73673595D01*
X134008468Y-73781345D01*
X133981531Y-73862157D01*
X134412529Y-73215659D02*
X134412529Y-73161784D01*
X134439467Y-73080972D01*
X134574154Y-72946285D01*
X134654966Y-72919348D01*
X134708841Y-72919348D01*
X134789653Y-72946285D01*
X134843528Y-73000160D01*
X134897402Y-73107910D01*
X134897402Y-73754407D01*
X135247589Y-73404221D01*
X106784722Y-66915592D02*
X106703910Y-66942529D01*
X106623097Y-67023341D01*
X106569223Y-67131091D01*
X106569223Y-67238841D01*
X106596160Y-67319653D01*
X106676972Y-67454340D01*
X106757784Y-67535152D01*
X106892471Y-67615964D01*
X106973284Y-67642902D01*
X107081033Y-67642902D01*
X107188783Y-67589027D01*
X107242658Y-67535152D01*
X107296532Y-67427402D01*
X107296532Y-67373528D01*
X107107971Y-67184966D01*
X107000221Y-67292715D01*
X107592844Y-67184966D02*
X107027158Y-66619280D01*
X107242658Y-66403781D01*
X107323470Y-66376844D01*
X107377345Y-66376844D01*
X107458157Y-66403781D01*
X107538969Y-66484593D01*
X107565906Y-66565406D01*
X107565906Y-66619280D01*
X107538969Y-66700093D01*
X107323470Y-66915592D01*
X108454841Y-66322969D02*
X108131592Y-66646218D01*
X108293216Y-66484593D02*
X107727531Y-65918908D01*
X107754468Y-66053595D01*
X107754468Y-66161345D01*
X107727531Y-66242157D01*
X108077717Y-65568722D02*
X108454841Y-65191598D01*
X108778089Y-65999720D01*
X132908096Y-99666218D02*
X132827284Y-99693155D01*
X132746471Y-99773967D01*
X132692597Y-99881717D01*
X132692597Y-99989467D01*
X132719534Y-100070279D01*
X132800346Y-100204966D01*
X132881158Y-100285778D01*
X133015845Y-100366590D01*
X133096658Y-100393528D01*
X133204407Y-100393528D01*
X133312157Y-100339653D01*
X133366032Y-100285778D01*
X133419906Y-100178028D01*
X133419906Y-100124154D01*
X133231345Y-99935592D01*
X133123595Y-100043341D01*
X133716218Y-99935592D02*
X133150532Y-99369906D01*
X133366032Y-99154407D01*
X133446844Y-99127470D01*
X133500719Y-99127470D01*
X133581531Y-99154407D01*
X133662343Y-99235219D01*
X133689280Y-99316032D01*
X133689280Y-99369906D01*
X133662343Y-99450719D01*
X133446844Y-99666218D01*
X134147216Y-98750346D02*
X134524340Y-99127470D01*
X133797030Y-98669534D02*
X134066404Y-99208282D01*
X134416590Y-98858096D01*
X106784722Y-84695592D02*
X106703910Y-84722529D01*
X106623097Y-84803341D01*
X106569223Y-84911091D01*
X106569223Y-85018841D01*
X106596160Y-85099653D01*
X106676972Y-85234340D01*
X106757784Y-85315152D01*
X106892471Y-85395964D01*
X106973284Y-85422902D01*
X107081033Y-85422902D01*
X107188783Y-85369027D01*
X107242658Y-85315152D01*
X107296532Y-85207402D01*
X107296532Y-85153528D01*
X107107971Y-84964966D01*
X107000221Y-85072715D01*
X107592844Y-84964966D02*
X107027158Y-84399280D01*
X107242658Y-84183781D01*
X107323470Y-84156844D01*
X107377345Y-84156844D01*
X107458157Y-84183781D01*
X107538969Y-84264593D01*
X107565906Y-84345406D01*
X107565906Y-84399280D01*
X107538969Y-84480093D01*
X107323470Y-84695592D01*
X107619781Y-83914407D02*
X107619781Y-83860532D01*
X107646719Y-83779720D01*
X107781406Y-83645033D01*
X107862218Y-83618096D01*
X107916093Y-83618096D01*
X107996905Y-83645033D01*
X108050780Y-83698908D01*
X108104654Y-83806658D01*
X108104654Y-84453155D01*
X108454841Y-84102969D01*
X108158529Y-83375659D02*
X108158529Y-83321784D01*
X108185467Y-83240972D01*
X108320154Y-83106285D01*
X108400966Y-83079348D01*
X108454841Y-83079348D01*
X108535653Y-83106285D01*
X108589528Y-83160160D01*
X108643402Y-83267910D01*
X108643402Y-83914407D01*
X108993589Y-83564221D01*
X105317131Y-106473308D02*
X105667317Y-106123122D01*
X105694255Y-106527183D01*
X105775067Y-106446370D01*
X105855879Y-106419433D01*
X105909754Y-106419433D01*
X105990566Y-106446370D01*
X106125253Y-106581057D01*
X106152190Y-106661870D01*
X106152190Y-106715744D01*
X106125253Y-106796557D01*
X105963629Y-106958181D01*
X105882816Y-106985118D01*
X105828942Y-106985118D01*
X105828942Y-105961497D02*
X106583189Y-106338621D01*
X106206065Y-105584374D01*
X106340752Y-105449687D02*
X106690938Y-105099500D01*
X106717876Y-105503561D01*
X106798688Y-105422749D01*
X106879500Y-105395812D01*
X106933375Y-105395812D01*
X107014187Y-105422749D01*
X107148874Y-105557436D01*
X107175812Y-105638248D01*
X107175812Y-105692123D01*
X107148874Y-105772935D01*
X106987250Y-105934560D01*
X106906438Y-105961497D01*
X106852563Y-105961497D01*
X107418248Y-105611311D02*
X107849247Y-105180312D01*
X107633748Y-104695439D02*
X107822309Y-104506877D01*
X108199433Y-104722377D02*
X107930059Y-104991751D01*
X107364374Y-104426065D01*
X107633748Y-104156691D01*
X108441870Y-104479940D02*
X107876184Y-103914255D01*
X108765118Y-104156691D01*
X108199433Y-103591006D01*
X106148129Y-113042309D02*
X106902377Y-113419433D01*
X106525253Y-112665186D01*
X107171751Y-112557436D02*
X107279500Y-112503561D01*
X107333375Y-112503561D01*
X107414187Y-112530499D01*
X107494999Y-112611311D01*
X107521937Y-112692123D01*
X107521937Y-112745998D01*
X107495000Y-112826810D01*
X107279500Y-113042309D01*
X106713815Y-112476624D01*
X106902377Y-112288062D01*
X106983189Y-112261125D01*
X107037064Y-112261125D01*
X107117876Y-112288062D01*
X107171751Y-112341937D01*
X107198688Y-112422749D01*
X107198688Y-112476624D01*
X107171751Y-112557436D01*
X106983189Y-112745998D01*
X107279500Y-111910938D02*
X107737436Y-112368874D01*
X107818248Y-112395812D01*
X107872123Y-112395812D01*
X107952935Y-112368874D01*
X108060685Y-112261125D01*
X108087622Y-112180312D01*
X108087622Y-112126438D01*
X108060685Y-112045625D01*
X107602749Y-111587690D01*
X108383934Y-111884001D02*
X108491683Y-111830126D01*
X108626370Y-111695439D01*
X108653308Y-111614627D01*
X108653308Y-111560752D01*
X108626370Y-111479940D01*
X108572496Y-111426065D01*
X108491683Y-111399128D01*
X108437809Y-111399128D01*
X108356996Y-111426065D01*
X108222309Y-111506877D01*
X108141497Y-111533815D01*
X108087622Y-111533815D01*
X108006810Y-111506877D01*
X107952935Y-111453003D01*
X107925998Y-111372190D01*
X107925998Y-111318316D01*
X107952935Y-111237503D01*
X108087622Y-111102816D01*
X108195372Y-111048942D01*
X132892722Y-79615592D02*
X132811910Y-79642529D01*
X132731097Y-79723341D01*
X132677223Y-79831091D01*
X132677223Y-79938841D01*
X132704160Y-80019653D01*
X132784972Y-80154340D01*
X132865784Y-80235152D01*
X133000471Y-80315964D01*
X133081284Y-80342902D01*
X133189033Y-80342902D01*
X133296783Y-80289027D01*
X133350658Y-80235152D01*
X133404532Y-80127402D01*
X133404532Y-80073528D01*
X133215971Y-79884966D01*
X133108221Y-79992715D01*
X133700844Y-79884966D02*
X133135158Y-79319280D01*
X133350658Y-79103781D01*
X133431470Y-79076844D01*
X133485345Y-79076844D01*
X133566157Y-79103781D01*
X133646969Y-79184593D01*
X133673906Y-79265406D01*
X133673906Y-79319280D01*
X133646969Y-79400093D01*
X133431470Y-79615592D01*
X134562841Y-79022969D02*
X134239592Y-79346218D01*
X134401216Y-79184593D02*
X133835531Y-78618908D01*
X133862468Y-78753595D01*
X133862468Y-78861345D01*
X133835531Y-78942157D01*
X134347341Y-78107097D02*
X134401216Y-78053223D01*
X134482028Y-78026285D01*
X134535903Y-78026285D01*
X134616715Y-78053223D01*
X134751402Y-78134035D01*
X134886089Y-78268722D01*
X134966902Y-78403409D01*
X134993839Y-78484221D01*
X134993839Y-78538096D01*
X134966902Y-78618908D01*
X134913027Y-78672783D01*
X134832215Y-78699720D01*
X134778340Y-78699720D01*
X134697528Y-78672783D01*
X134562841Y-78591971D01*
X134428154Y-78457284D01*
X134347341Y-78322597D01*
X134320404Y-78241784D01*
X134320404Y-78187910D01*
X134347341Y-78107097D01*
X106784722Y-92305592D02*
X106703910Y-92332529D01*
X106623097Y-92413341D01*
X106569223Y-92521091D01*
X106569223Y-92628841D01*
X106596160Y-92709653D01*
X106676972Y-92844340D01*
X106757784Y-92925152D01*
X106892471Y-93005964D01*
X106973284Y-93032902D01*
X107081033Y-93032902D01*
X107188783Y-92979027D01*
X107242658Y-92925152D01*
X107296532Y-92817402D01*
X107296532Y-92763528D01*
X107107971Y-92574966D01*
X107000221Y-92682715D01*
X107592844Y-92574966D02*
X107027158Y-92009280D01*
X107242658Y-91793781D01*
X107323470Y-91766844D01*
X107377345Y-91766844D01*
X107458157Y-91793781D01*
X107538969Y-91874593D01*
X107565906Y-91955406D01*
X107565906Y-92009280D01*
X107538969Y-92090093D01*
X107323470Y-92305592D01*
X107619781Y-91524407D02*
X107619781Y-91470532D01*
X107646719Y-91389720D01*
X107781406Y-91255033D01*
X107862218Y-91228096D01*
X107916093Y-91228096D01*
X107996905Y-91255033D01*
X108050780Y-91308908D01*
X108104654Y-91416658D01*
X108104654Y-92063155D01*
X108454841Y-91712969D01*
X108077717Y-90958722D02*
X108454841Y-90581598D01*
X108778089Y-91389720D01*
X106784722Y-89775592D02*
X106703910Y-89802529D01*
X106623097Y-89883341D01*
X106569223Y-89991091D01*
X106569223Y-90098841D01*
X106596160Y-90179653D01*
X106676972Y-90314340D01*
X106757784Y-90395152D01*
X106892471Y-90475964D01*
X106973284Y-90502902D01*
X107081033Y-90502902D01*
X107188783Y-90449027D01*
X107242658Y-90395152D01*
X107296532Y-90287402D01*
X107296532Y-90233528D01*
X107107971Y-90044966D01*
X107000221Y-90152715D01*
X107592844Y-90044966D02*
X107027158Y-89479280D01*
X107242658Y-89263781D01*
X107323470Y-89236844D01*
X107377345Y-89236844D01*
X107458157Y-89263781D01*
X107538969Y-89344593D01*
X107565906Y-89425406D01*
X107565906Y-89479280D01*
X107538969Y-89560093D01*
X107323470Y-89775592D01*
X107619781Y-88994407D02*
X107619781Y-88940532D01*
X107646719Y-88859720D01*
X107781406Y-88725033D01*
X107862218Y-88698096D01*
X107916093Y-88698096D01*
X107996905Y-88725033D01*
X108050780Y-88778908D01*
X108104654Y-88886658D01*
X108104654Y-89533155D01*
X108454841Y-89182969D01*
X108374028Y-88132410D02*
X108266279Y-88240160D01*
X108239341Y-88320972D01*
X108239341Y-88374847D01*
X108266279Y-88509534D01*
X108347091Y-88644221D01*
X108562590Y-88859720D01*
X108643402Y-88886658D01*
X108697277Y-88886658D01*
X108778089Y-88859720D01*
X108885839Y-88751971D01*
X108912776Y-88671158D01*
X108912776Y-88617284D01*
X108885839Y-88536471D01*
X108751152Y-88401784D01*
X108670340Y-88374847D01*
X108616465Y-88374847D01*
X108535653Y-88401784D01*
X108427903Y-88509534D01*
X108400966Y-88590346D01*
X108400966Y-88644221D01*
X108427903Y-88725033D01*
X104949788Y-102648773D02*
X105219162Y-102379399D01*
X105057537Y-102864272D02*
X104680414Y-102110025D01*
X105434661Y-102487149D01*
X105623223Y-102298587D02*
X105057537Y-101732902D01*
X105192224Y-101598215D01*
X105299974Y-101544340D01*
X105407723Y-101544340D01*
X105488536Y-101571277D01*
X105623223Y-101652089D01*
X105704035Y-101732902D01*
X105784847Y-101867589D01*
X105811784Y-101948401D01*
X105811784Y-102056150D01*
X105757910Y-102163900D01*
X105623223Y-102298587D01*
X106458282Y-101355778D02*
X106458282Y-101409653D01*
X106404407Y-101517402D01*
X106350532Y-101571277D01*
X106242783Y-101625152D01*
X106135033Y-101625152D01*
X106054221Y-101598215D01*
X105919534Y-101517402D01*
X105838722Y-101436590D01*
X105757910Y-101301903D01*
X105730972Y-101221091D01*
X105730972Y-101113341D01*
X105784847Y-101005592D01*
X105838722Y-100951717D01*
X105946471Y-100897842D01*
X106000346Y-100897842D01*
X106673781Y-101355778D02*
X107104780Y-100924780D01*
X106539094Y-100251345D02*
X107293341Y-100628468D01*
X106916218Y-99874221D01*
X107993714Y-99928096D02*
X107535778Y-99847284D01*
X107670465Y-100251345D02*
X107104780Y-99685659D01*
X107320279Y-99470160D01*
X107401091Y-99443223D01*
X107454966Y-99443223D01*
X107535778Y-99470160D01*
X107616590Y-99550972D01*
X107643528Y-99631784D01*
X107643528Y-99685659D01*
X107616590Y-99766471D01*
X107401091Y-99981971D01*
X107939839Y-99389348D02*
X108128401Y-99200786D01*
X108505524Y-99416285D02*
X108236150Y-99685659D01*
X107670465Y-99119974D01*
X107939839Y-98850600D01*
X108640211Y-98688975D02*
X108451650Y-98877537D01*
X108747961Y-99173849D02*
X108182276Y-98608163D01*
X108451650Y-98338789D01*
X133038722Y-77075592D02*
X132957910Y-77102529D01*
X132877097Y-77183341D01*
X132823223Y-77291091D01*
X132823223Y-77398841D01*
X132850160Y-77479653D01*
X132930972Y-77614340D01*
X133011784Y-77695152D01*
X133146471Y-77775964D01*
X133227284Y-77802902D01*
X133335033Y-77802902D01*
X133442783Y-77749027D01*
X133496658Y-77695152D01*
X133550532Y-77587402D01*
X133550532Y-77533528D01*
X133361971Y-77344966D01*
X133254221Y-77452715D01*
X133846844Y-77344966D02*
X133281158Y-76779280D01*
X133496658Y-76563781D01*
X133577470Y-76536844D01*
X133631345Y-76536844D01*
X133712157Y-76563781D01*
X133792969Y-76644593D01*
X133819906Y-76725406D01*
X133819906Y-76779280D01*
X133792969Y-76860093D01*
X133577470Y-77075592D01*
X134708841Y-76482969D02*
X134385592Y-76806218D01*
X134547216Y-76644593D02*
X133981531Y-76078908D01*
X134008468Y-76213595D01*
X134008468Y-76321345D01*
X133981531Y-76402157D01*
X135247589Y-75944221D02*
X134924340Y-76267470D01*
X135085964Y-76105845D02*
X134520279Y-75540160D01*
X134547216Y-75674847D01*
X134547216Y-75782597D01*
X134520279Y-75863409D01*
X106315473Y-110364966D02*
X107069720Y-110742089D01*
X106692597Y-109987842D01*
X107392969Y-110364966D02*
X107500719Y-110311091D01*
X107635406Y-110176404D01*
X107662343Y-110095592D01*
X107662343Y-110041717D01*
X107635406Y-109960905D01*
X107581531Y-109907030D01*
X107500719Y-109880093D01*
X107446844Y-109880093D01*
X107366032Y-109907030D01*
X107231345Y-109987842D01*
X107150532Y-110014780D01*
X107096658Y-110014780D01*
X107015845Y-109987842D01*
X106961971Y-109933967D01*
X106935033Y-109853155D01*
X106935033Y-109799280D01*
X106961971Y-109718468D01*
X107096658Y-109583781D01*
X107204407Y-109529906D01*
X107823967Y-109449094D02*
X108093341Y-109718468D01*
X107339094Y-109341345D02*
X107823967Y-109449094D01*
X107716218Y-108964221D01*
X108416590Y-109341345D02*
X108524340Y-109287470D01*
X108659027Y-109152783D01*
X108685964Y-109071971D01*
X108685964Y-109018096D01*
X108659027Y-108937284D01*
X108605152Y-108883409D01*
X108524340Y-108856471D01*
X108470465Y-108856471D01*
X108389653Y-108883409D01*
X108254966Y-108964221D01*
X108174154Y-108991158D01*
X108120279Y-108991158D01*
X108039467Y-108964221D01*
X107985592Y-108910346D01*
X107958654Y-108829534D01*
X107958654Y-108775659D01*
X107985592Y-108694847D01*
X108120279Y-108560160D01*
X108228028Y-108506285D01*
X133008096Y-104746218D02*
X132927284Y-104773155D01*
X132846471Y-104853967D01*
X132792597Y-104961717D01*
X132792597Y-105069467D01*
X132819534Y-105150279D01*
X132900346Y-105284966D01*
X132981158Y-105365778D01*
X133115845Y-105446590D01*
X133196658Y-105473528D01*
X133304407Y-105473528D01*
X133412157Y-105419653D01*
X133466032Y-105365778D01*
X133519906Y-105258028D01*
X133519906Y-105204154D01*
X133331345Y-105015592D01*
X133223595Y-105123341D01*
X133816218Y-105015592D02*
X133250532Y-104449906D01*
X133466032Y-104234407D01*
X133546844Y-104207470D01*
X133600719Y-104207470D01*
X133681531Y-104234407D01*
X133762343Y-104315219D01*
X133789280Y-104396032D01*
X133789280Y-104449906D01*
X133762343Y-104530719D01*
X133546844Y-104746218D01*
X133843155Y-103965033D02*
X133843155Y-103911158D01*
X133870093Y-103830346D01*
X134004780Y-103695659D01*
X134085592Y-103668722D01*
X134139467Y-103668722D01*
X134220279Y-103695659D01*
X134274154Y-103749534D01*
X134328028Y-103857284D01*
X134328028Y-104503781D01*
X134678215Y-104153595D01*
X106784722Y-79605592D02*
X106703910Y-79632529D01*
X106623097Y-79713341D01*
X106569223Y-79821091D01*
X106569223Y-79928841D01*
X106596160Y-80009653D01*
X106676972Y-80144340D01*
X106757784Y-80225152D01*
X106892471Y-80305964D01*
X106973284Y-80332902D01*
X107081033Y-80332902D01*
X107188783Y-80279027D01*
X107242658Y-80225152D01*
X107296532Y-80117402D01*
X107296532Y-80063528D01*
X107107971Y-79874966D01*
X107000221Y-79982715D01*
X107592844Y-79874966D02*
X107027158Y-79309280D01*
X107242658Y-79093781D01*
X107323470Y-79066844D01*
X107377345Y-79066844D01*
X107458157Y-79093781D01*
X107538969Y-79174593D01*
X107565906Y-79255406D01*
X107565906Y-79309280D01*
X107538969Y-79390093D01*
X107323470Y-79605592D01*
X107619781Y-78824407D02*
X107619781Y-78770532D01*
X107646719Y-78689720D01*
X107781406Y-78555033D01*
X107862218Y-78528096D01*
X107916093Y-78528096D01*
X107996905Y-78555033D01*
X108050780Y-78608908D01*
X108104654Y-78716658D01*
X108104654Y-79363155D01*
X108454841Y-79012969D01*
X108993589Y-78474221D02*
X108670340Y-78797470D01*
X108831964Y-78635845D02*
X108266279Y-78070160D01*
X108293216Y-78204847D01*
X108293216Y-78312597D01*
X108266279Y-78393409D01*
X132908096Y-86966218D02*
X132827284Y-86993155D01*
X132746471Y-87073967D01*
X132692597Y-87181717D01*
X132692597Y-87289467D01*
X132719534Y-87370279D01*
X132800346Y-87504966D01*
X132881158Y-87585778D01*
X133015845Y-87666590D01*
X133096658Y-87693528D01*
X133204407Y-87693528D01*
X133312157Y-87639653D01*
X133366032Y-87585778D01*
X133419906Y-87478028D01*
X133419906Y-87424154D01*
X133231345Y-87235592D01*
X133123595Y-87343341D01*
X133716218Y-87235592D02*
X133150532Y-86669906D01*
X133366032Y-86454407D01*
X133446844Y-86427470D01*
X133500719Y-86427470D01*
X133581531Y-86454407D01*
X133662343Y-86535219D01*
X133689280Y-86616032D01*
X133689280Y-86669906D01*
X133662343Y-86750719D01*
X133446844Y-86966218D01*
X134039467Y-86265845D02*
X133958654Y-86292783D01*
X133904780Y-86292783D01*
X133823967Y-86265845D01*
X133797030Y-86238908D01*
X133770093Y-86158096D01*
X133770093Y-86104221D01*
X133797030Y-86023409D01*
X133904780Y-85915659D01*
X133985592Y-85888722D01*
X134039467Y-85888722D01*
X134120279Y-85915659D01*
X134147216Y-85942597D01*
X134174154Y-86023409D01*
X134174154Y-86077284D01*
X134147216Y-86158096D01*
X134039467Y-86265845D01*
X134012529Y-86346658D01*
X134012529Y-86400532D01*
X134039467Y-86481345D01*
X134147216Y-86589094D01*
X134228028Y-86616032D01*
X134281903Y-86616032D01*
X134362715Y-86589094D01*
X134470465Y-86481345D01*
X134497402Y-86400532D01*
X134497402Y-86346658D01*
X134470465Y-86265845D01*
X134362715Y-86158096D01*
X134281903Y-86131158D01*
X134228028Y-86131158D01*
X134147216Y-86158096D01*
X132808096Y-89536218D02*
X132727284Y-89563155D01*
X132646471Y-89643967D01*
X132592597Y-89751717D01*
X132592597Y-89859467D01*
X132619534Y-89940279D01*
X132700346Y-90074966D01*
X132781158Y-90155778D01*
X132915845Y-90236590D01*
X132996658Y-90263528D01*
X133104407Y-90263528D01*
X133212157Y-90209653D01*
X133266032Y-90155778D01*
X133319906Y-90048028D01*
X133319906Y-89994154D01*
X133131345Y-89805592D01*
X133023595Y-89913341D01*
X133616218Y-89805592D02*
X133050532Y-89239906D01*
X133266032Y-89024407D01*
X133346844Y-88997470D01*
X133400719Y-88997470D01*
X133481531Y-89024407D01*
X133562343Y-89105219D01*
X133589280Y-89186032D01*
X133589280Y-89239906D01*
X133562343Y-89320719D01*
X133346844Y-89536218D01*
X133562343Y-88728096D02*
X133939467Y-88350972D01*
X134262715Y-89159094D01*
X107281158Y-69213155D02*
X107200346Y-69240093D01*
X107119534Y-69320905D01*
X107065659Y-69428654D01*
X107065659Y-69536404D01*
X107092597Y-69617216D01*
X107173409Y-69751903D01*
X107254221Y-69832715D01*
X107388908Y-69913528D01*
X107469720Y-69940465D01*
X107577470Y-69940465D01*
X107685219Y-69886590D01*
X107739094Y-69832715D01*
X107792969Y-69724966D01*
X107792969Y-69671091D01*
X107604407Y-69482529D01*
X107496658Y-69590279D01*
X108089280Y-69482529D02*
X107523595Y-68916844D01*
X108412529Y-69159280D01*
X107846844Y-68593595D01*
X108681903Y-68889906D02*
X108116218Y-68324221D01*
X108250905Y-68189534D01*
X108358654Y-68135659D01*
X108466404Y-68135659D01*
X108547216Y-68162597D01*
X108681903Y-68243409D01*
X108762715Y-68324221D01*
X108843528Y-68458908D01*
X108870465Y-68539720D01*
X108870465Y-68647470D01*
X108816590Y-68755219D01*
X108681903Y-68889906D01*
X132881158Y-107313155D02*
X132800346Y-107340093D01*
X132719534Y-107420905D01*
X132665659Y-107528654D01*
X132665659Y-107636404D01*
X132692597Y-107717216D01*
X132773409Y-107851903D01*
X132854221Y-107932715D01*
X132988908Y-108013528D01*
X133069720Y-108040465D01*
X133177470Y-108040465D01*
X133285219Y-107986590D01*
X133339094Y-107932715D01*
X133392969Y-107824966D01*
X133392969Y-107771091D01*
X133204407Y-107582529D01*
X133096658Y-107690279D01*
X133689280Y-107582529D02*
X133123595Y-107016844D01*
X134012529Y-107259280D01*
X133446844Y-106693595D01*
X134281903Y-106989906D02*
X133716218Y-106424221D01*
X133850905Y-106289534D01*
X133958654Y-106235659D01*
X134066404Y-106235659D01*
X134147216Y-106262597D01*
X134281903Y-106343409D01*
X134362715Y-106424221D01*
X134443528Y-106558908D01*
X134470465Y-106639720D01*
X134470465Y-106747470D01*
X134416590Y-106855219D01*
X134281903Y-106989906D01*
X132908096Y-97126218D02*
X132827284Y-97153155D01*
X132746471Y-97233967D01*
X132692597Y-97341717D01*
X132692597Y-97449467D01*
X132719534Y-97530279D01*
X132800346Y-97664966D01*
X132881158Y-97745778D01*
X133015845Y-97826590D01*
X133096658Y-97853528D01*
X133204407Y-97853528D01*
X133312157Y-97799653D01*
X133366032Y-97745778D01*
X133419906Y-97638028D01*
X133419906Y-97584154D01*
X133231345Y-97395592D01*
X133123595Y-97503341D01*
X133716218Y-97395592D02*
X133150532Y-96829906D01*
X133366032Y-96614407D01*
X133446844Y-96587470D01*
X133500719Y-96587470D01*
X133581531Y-96614407D01*
X133662343Y-96695219D01*
X133689280Y-96776032D01*
X133689280Y-96829906D01*
X133662343Y-96910719D01*
X133446844Y-97126218D01*
X133985592Y-95994847D02*
X133716218Y-96264221D01*
X133958654Y-96560532D01*
X133958654Y-96506658D01*
X133985592Y-96425845D01*
X134120279Y-96291158D01*
X134201091Y-96264221D01*
X134254966Y-96264221D01*
X134335778Y-96291158D01*
X134470465Y-96425845D01*
X134497402Y-96506658D01*
X134497402Y-96560532D01*
X134470465Y-96641345D01*
X134335778Y-96776032D01*
X134254966Y-96802969D01*
X134201091Y-96802969D01*
X132881158Y-81913155D02*
X132800346Y-81940093D01*
X132719534Y-82020905D01*
X132665659Y-82128654D01*
X132665659Y-82236404D01*
X132692597Y-82317216D01*
X132773409Y-82451903D01*
X132854221Y-82532715D01*
X132988908Y-82613528D01*
X133069720Y-82640465D01*
X133177470Y-82640465D01*
X133285219Y-82586590D01*
X133339094Y-82532715D01*
X133392969Y-82424966D01*
X133392969Y-82371091D01*
X133204407Y-82182529D01*
X133096658Y-82290279D01*
X133689280Y-82182529D02*
X133123595Y-81616844D01*
X134012529Y-81859280D01*
X133446844Y-81293595D01*
X134281903Y-81589906D02*
X133716218Y-81024221D01*
X133850905Y-80889534D01*
X133958654Y-80835659D01*
X134066404Y-80835659D01*
X134147216Y-80862597D01*
X134281903Y-80943409D01*
X134362715Y-81024221D01*
X134443528Y-81158908D01*
X134470465Y-81239720D01*
X134470465Y-81347470D01*
X134416590Y-81455219D01*
X134281903Y-81589906D01*
X106784722Y-74535592D02*
X106703910Y-74562529D01*
X106623097Y-74643341D01*
X106569223Y-74751091D01*
X106569223Y-74858841D01*
X106596160Y-74939653D01*
X106676972Y-75074340D01*
X106757784Y-75155152D01*
X106892471Y-75235964D01*
X106973284Y-75262902D01*
X107081033Y-75262902D01*
X107188783Y-75209027D01*
X107242658Y-75155152D01*
X107296532Y-75047402D01*
X107296532Y-74993528D01*
X107107971Y-74804966D01*
X107000221Y-74912715D01*
X107592844Y-74804966D02*
X107027158Y-74239280D01*
X107242658Y-74023781D01*
X107323470Y-73996844D01*
X107377345Y-73996844D01*
X107458157Y-74023781D01*
X107538969Y-74104593D01*
X107565906Y-74185406D01*
X107565906Y-74239280D01*
X107538969Y-74320093D01*
X107323470Y-74535592D01*
X108454841Y-73942969D02*
X108131592Y-74266218D01*
X108293216Y-74104593D02*
X107727531Y-73538908D01*
X107754468Y-73673595D01*
X107754468Y-73781345D01*
X107727531Y-73862157D01*
X108724215Y-73673595D02*
X108831964Y-73565845D01*
X108858902Y-73485033D01*
X108858902Y-73431158D01*
X108831964Y-73296471D01*
X108751152Y-73161784D01*
X108535653Y-72946285D01*
X108454841Y-72919348D01*
X108400966Y-72919348D01*
X108320154Y-72946285D01*
X108212404Y-73054035D01*
X108185467Y-73134847D01*
X108185467Y-73188722D01*
X108212404Y-73269534D01*
X108347091Y-73404221D01*
X108427903Y-73431158D01*
X108481778Y-73431158D01*
X108562590Y-73404221D01*
X108670340Y-73296471D01*
X108697277Y-73215659D01*
X108697277Y-73161784D01*
X108670340Y-73080972D01*
X106784722Y-77075592D02*
X106703910Y-77102529D01*
X106623097Y-77183341D01*
X106569223Y-77291091D01*
X106569223Y-77398841D01*
X106596160Y-77479653D01*
X106676972Y-77614340D01*
X106757784Y-77695152D01*
X106892471Y-77775964D01*
X106973284Y-77802902D01*
X107081033Y-77802902D01*
X107188783Y-77749027D01*
X107242658Y-77695152D01*
X107296532Y-77587402D01*
X107296532Y-77533528D01*
X107107971Y-77344966D01*
X107000221Y-77452715D01*
X107592844Y-77344966D02*
X107027158Y-76779280D01*
X107242658Y-76563781D01*
X107323470Y-76536844D01*
X107377345Y-76536844D01*
X107458157Y-76563781D01*
X107538969Y-76644593D01*
X107565906Y-76725406D01*
X107565906Y-76779280D01*
X107538969Y-76860093D01*
X107323470Y-77075592D01*
X107619781Y-76294407D02*
X107619781Y-76240532D01*
X107646719Y-76159720D01*
X107781406Y-76025033D01*
X107862218Y-75998096D01*
X107916093Y-75998096D01*
X107996905Y-76025033D01*
X108050780Y-76078908D01*
X108104654Y-76186658D01*
X108104654Y-76833155D01*
X108454841Y-76482969D01*
X108239341Y-75567097D02*
X108293216Y-75513223D01*
X108374028Y-75486285D01*
X108427903Y-75486285D01*
X108508715Y-75513223D01*
X108643402Y-75594035D01*
X108778089Y-75728722D01*
X108858902Y-75863409D01*
X108885839Y-75944221D01*
X108885839Y-75998096D01*
X108858902Y-76078908D01*
X108805027Y-76132783D01*
X108724215Y-76159720D01*
X108670340Y-76159720D01*
X108589528Y-76132783D01*
X108454841Y-76051971D01*
X108320154Y-75917284D01*
X108239341Y-75782597D01*
X108212404Y-75701784D01*
X108212404Y-75647910D01*
X108239341Y-75567097D01*
X106784722Y-64375592D02*
X106703910Y-64402529D01*
X106623097Y-64483341D01*
X106569223Y-64591091D01*
X106569223Y-64698841D01*
X106596160Y-64779653D01*
X106676972Y-64914340D01*
X106757784Y-64995152D01*
X106892471Y-65075964D01*
X106973284Y-65102902D01*
X107081033Y-65102902D01*
X107188783Y-65049027D01*
X107242658Y-64995152D01*
X107296532Y-64887402D01*
X107296532Y-64833528D01*
X107107971Y-64644966D01*
X107000221Y-64752715D01*
X107592844Y-64644966D02*
X107027158Y-64079280D01*
X107242658Y-63863781D01*
X107323470Y-63836844D01*
X107377345Y-63836844D01*
X107458157Y-63863781D01*
X107538969Y-63944593D01*
X107565906Y-64025406D01*
X107565906Y-64079280D01*
X107538969Y-64160093D01*
X107323470Y-64375592D01*
X108454841Y-63782969D02*
X108131592Y-64106218D01*
X108293216Y-63944593D02*
X107727531Y-63378908D01*
X107754468Y-63513595D01*
X107754468Y-63621345D01*
X107727531Y-63702157D01*
X108374028Y-62732410D02*
X108266279Y-62840160D01*
X108239341Y-62920972D01*
X108239341Y-62974847D01*
X108266279Y-63109534D01*
X108347091Y-63244221D01*
X108562590Y-63459720D01*
X108643402Y-63486658D01*
X108697277Y-63486658D01*
X108778089Y-63459720D01*
X108885839Y-63351971D01*
X108912776Y-63271158D01*
X108912776Y-63217284D01*
X108885839Y-63136471D01*
X108751152Y-63001784D01*
X108670340Y-62974847D01*
X108616465Y-62974847D01*
X108535653Y-63001784D01*
X108427903Y-63109534D01*
X108400966Y-63190346D01*
X108400966Y-63244221D01*
X108427903Y-63325033D01*
X132938722Y-66915592D02*
X132857910Y-66942529D01*
X132777097Y-67023341D01*
X132723223Y-67131091D01*
X132723223Y-67238841D01*
X132750160Y-67319653D01*
X132830972Y-67454340D01*
X132911784Y-67535152D01*
X133046471Y-67615964D01*
X133127284Y-67642902D01*
X133235033Y-67642902D01*
X133342783Y-67589027D01*
X133396658Y-67535152D01*
X133450532Y-67427402D01*
X133450532Y-67373528D01*
X133261971Y-67184966D01*
X133154221Y-67292715D01*
X133746844Y-67184966D02*
X133181158Y-66619280D01*
X133396658Y-66403781D01*
X133477470Y-66376844D01*
X133531345Y-66376844D01*
X133612157Y-66403781D01*
X133692969Y-66484593D01*
X133719906Y-66565406D01*
X133719906Y-66619280D01*
X133692969Y-66700093D01*
X133477470Y-66915592D01*
X134608841Y-66322969D02*
X134285592Y-66646218D01*
X134447216Y-66484593D02*
X133881531Y-65918908D01*
X133908468Y-66053595D01*
X133908468Y-66161345D01*
X133881531Y-66242157D01*
X134716590Y-65460972D02*
X135093714Y-65838096D01*
X134366404Y-65380160D02*
X134635778Y-65918908D01*
X134985964Y-65568722D01*
X124685476Y-62238809D02*
X124799761Y-62276904D01*
X124990238Y-62276904D01*
X125066428Y-62238809D01*
X125104523Y-62200714D01*
X125142619Y-62124523D01*
X125142619Y-62048333D01*
X125104523Y-61972142D01*
X125066428Y-61934047D01*
X124990238Y-61895952D01*
X124837857Y-61857857D01*
X124761666Y-61819761D01*
X124723571Y-61781666D01*
X124685476Y-61705476D01*
X124685476Y-61629285D01*
X124723571Y-61553095D01*
X124761666Y-61515000D01*
X124837857Y-61476904D01*
X125028333Y-61476904D01*
X125142619Y-61515000D01*
X125409285Y-61476904D02*
X125599761Y-62276904D01*
X125752142Y-61705476D01*
X125904523Y-62276904D01*
X126095000Y-61476904D01*
X126856904Y-62200714D02*
X126818809Y-62238809D01*
X126704523Y-62276904D01*
X126628333Y-62276904D01*
X126514047Y-62238809D01*
X126437857Y-62162619D01*
X126399761Y-62086428D01*
X126361666Y-61934047D01*
X126361666Y-61819761D01*
X126399761Y-61667380D01*
X126437857Y-61591190D01*
X126514047Y-61515000D01*
X126628333Y-61476904D01*
X126704523Y-61476904D01*
X126818809Y-61515000D01*
X126856904Y-61553095D01*
X127580714Y-62276904D02*
X127199761Y-62276904D01*
X127199761Y-61476904D01*
X127847380Y-62276904D02*
X127847380Y-61476904D01*
X128304523Y-62276904D02*
X127961666Y-61819761D01*
X128304523Y-61476904D02*
X127847380Y-61934047D01*
X106784722Y-97649592D02*
X106703910Y-97676529D01*
X106623097Y-97757341D01*
X106569223Y-97865091D01*
X106569223Y-97972841D01*
X106596160Y-98053653D01*
X106676972Y-98188340D01*
X106757784Y-98269152D01*
X106892471Y-98349964D01*
X106973284Y-98376902D01*
X107081033Y-98376902D01*
X107188783Y-98323027D01*
X107242658Y-98269152D01*
X107296532Y-98161402D01*
X107296532Y-98107528D01*
X107107971Y-97918966D01*
X107000221Y-98026715D01*
X107592844Y-97918966D02*
X107027158Y-97353280D01*
X107242658Y-97137781D01*
X107323470Y-97110844D01*
X107377345Y-97110844D01*
X107458157Y-97137781D01*
X107538969Y-97218593D01*
X107565906Y-97299406D01*
X107565906Y-97353280D01*
X107538969Y-97434093D01*
X107323470Y-97649592D01*
X107619781Y-96868407D02*
X107619781Y-96814532D01*
X107646719Y-96733720D01*
X107781406Y-96599033D01*
X107862218Y-96572096D01*
X107916093Y-96572096D01*
X107996905Y-96599033D01*
X108050780Y-96652908D01*
X108104654Y-96760658D01*
X108104654Y-97407155D01*
X108454841Y-97056969D01*
X108454841Y-96410471D02*
X108374028Y-96437409D01*
X108320154Y-96437409D01*
X108239341Y-96410471D01*
X108212404Y-96383534D01*
X108185467Y-96302722D01*
X108185467Y-96248847D01*
X108212404Y-96168035D01*
X108320154Y-96060285D01*
X108400966Y-96033348D01*
X108454841Y-96033348D01*
X108535653Y-96060285D01*
X108562590Y-96087223D01*
X108589528Y-96168035D01*
X108589528Y-96221910D01*
X108562590Y-96302722D01*
X108454841Y-96410471D01*
X108427903Y-96491284D01*
X108427903Y-96545158D01*
X108454841Y-96625971D01*
X108562590Y-96733720D01*
X108643402Y-96760658D01*
X108697277Y-96760658D01*
X108778089Y-96733720D01*
X108885839Y-96625971D01*
X108912776Y-96545158D01*
X108912776Y-96491284D01*
X108885839Y-96410471D01*
X108778089Y-96302722D01*
X108697277Y-96275784D01*
X108643402Y-96275784D01*
X108562590Y-96302722D01*
X106838597Y-95555964D02*
X107107971Y-95286590D01*
X106946346Y-95771463D02*
X106569223Y-95017216D01*
X107323470Y-95394340D01*
X107269595Y-94370719D02*
X107188783Y-94397656D01*
X107107971Y-94478468D01*
X107054096Y-94586218D01*
X107054096Y-94693967D01*
X107081033Y-94774780D01*
X107161845Y-94909467D01*
X107242658Y-94990279D01*
X107377345Y-95071091D01*
X107458157Y-95098028D01*
X107565906Y-95098028D01*
X107673656Y-95044154D01*
X107727531Y-94990279D01*
X107781406Y-94882529D01*
X107781406Y-94828654D01*
X107592844Y-94640093D01*
X107485094Y-94747842D01*
X108077717Y-94640093D02*
X107512032Y-94074407D01*
X108400966Y-94316844D01*
X107835280Y-93751158D01*
X108670340Y-94047470D02*
X108104654Y-93481784D01*
X108239341Y-93347097D01*
X108347091Y-93293223D01*
X108454841Y-93293223D01*
X108535653Y-93320160D01*
X108670340Y-93400972D01*
X108751152Y-93481784D01*
X108831964Y-93616471D01*
X108858902Y-93697284D01*
X108858902Y-93805033D01*
X108805027Y-93912783D01*
X108670340Y-94047470D01*
X132908096Y-84426218D02*
X132827284Y-84453155D01*
X132746471Y-84533967D01*
X132692597Y-84641717D01*
X132692597Y-84749467D01*
X132719534Y-84830279D01*
X132800346Y-84964966D01*
X132881158Y-85045778D01*
X133015845Y-85126590D01*
X133096658Y-85153528D01*
X133204407Y-85153528D01*
X133312157Y-85099653D01*
X133366032Y-85045778D01*
X133419906Y-84938028D01*
X133419906Y-84884154D01*
X133231345Y-84695592D01*
X133123595Y-84803341D01*
X133716218Y-84695592D02*
X133150532Y-84129906D01*
X133366032Y-83914407D01*
X133446844Y-83887470D01*
X133500719Y-83887470D01*
X133581531Y-83914407D01*
X133662343Y-83995219D01*
X133689280Y-84076032D01*
X133689280Y-84129906D01*
X133662343Y-84210719D01*
X133446844Y-84426218D01*
X134308841Y-84102969D02*
X134416590Y-83995219D01*
X134443528Y-83914407D01*
X134443528Y-83860532D01*
X134416590Y-83725845D01*
X134335778Y-83591158D01*
X134120279Y-83375659D01*
X134039467Y-83348722D01*
X133985592Y-83348722D01*
X133904780Y-83375659D01*
X133797030Y-83483409D01*
X133770093Y-83564221D01*
X133770093Y-83618096D01*
X133797030Y-83698908D01*
X133931717Y-83833595D01*
X134012529Y-83860532D01*
X134066404Y-83860532D01*
X134147216Y-83833595D01*
X134254966Y-83725845D01*
X134281903Y-83645033D01*
X134281903Y-83591158D01*
X134254966Y-83510346D01*
X133008096Y-109836218D02*
X132927284Y-109863155D01*
X132846471Y-109943967D01*
X132792597Y-110051717D01*
X132792597Y-110159467D01*
X132819534Y-110240279D01*
X132900346Y-110374966D01*
X132981158Y-110455778D01*
X133115845Y-110536590D01*
X133196658Y-110563528D01*
X133304407Y-110563528D01*
X133412157Y-110509653D01*
X133466032Y-110455778D01*
X133519906Y-110348028D01*
X133519906Y-110294154D01*
X133331345Y-110105592D01*
X133223595Y-110213341D01*
X133816218Y-110105592D02*
X133250532Y-109539906D01*
X133466032Y-109324407D01*
X133546844Y-109297470D01*
X133600719Y-109297470D01*
X133681531Y-109324407D01*
X133762343Y-109405219D01*
X133789280Y-109486032D01*
X133789280Y-109539906D01*
X133762343Y-109620719D01*
X133546844Y-109836218D01*
X134678215Y-109243595D02*
X134354966Y-109566844D01*
X134516590Y-109405219D02*
X133950905Y-108839534D01*
X133977842Y-108974221D01*
X133977842Y-109081971D01*
X133950905Y-109162783D01*
X132892722Y-71995592D02*
X132811910Y-72022529D01*
X132731097Y-72103341D01*
X132677223Y-72211091D01*
X132677223Y-72318841D01*
X132704160Y-72399653D01*
X132784972Y-72534340D01*
X132865784Y-72615152D01*
X133000471Y-72695964D01*
X133081284Y-72722902D01*
X133189033Y-72722902D01*
X133296783Y-72669027D01*
X133350658Y-72615152D01*
X133404532Y-72507402D01*
X133404532Y-72453528D01*
X133215971Y-72264966D01*
X133108221Y-72372715D01*
X133700844Y-72264966D02*
X133135158Y-71699280D01*
X133350658Y-71483781D01*
X133431470Y-71456844D01*
X133485345Y-71456844D01*
X133566157Y-71483781D01*
X133646969Y-71564593D01*
X133673906Y-71645406D01*
X133673906Y-71699280D01*
X133646969Y-71780093D01*
X133431470Y-71995592D01*
X134562841Y-71402969D02*
X134239592Y-71726218D01*
X134401216Y-71564593D02*
X133835531Y-70998908D01*
X133862468Y-71133595D01*
X133862468Y-71241345D01*
X133835531Y-71322157D01*
X134185717Y-70648722D02*
X134535903Y-70298536D01*
X134562841Y-70702597D01*
X134643653Y-70621784D01*
X134724465Y-70594847D01*
X134778340Y-70594847D01*
X134859152Y-70621784D01*
X134993839Y-70756471D01*
X135020776Y-70837284D01*
X135020776Y-70891158D01*
X134993839Y-70971971D01*
X134832215Y-71133595D01*
X134751402Y-71160532D01*
X134697528Y-71160532D01*
X107281158Y-107313155D02*
X107200346Y-107340093D01*
X107119534Y-107420905D01*
X107065659Y-107528654D01*
X107065659Y-107636404D01*
X107092597Y-107717216D01*
X107173409Y-107851903D01*
X107254221Y-107932715D01*
X107388908Y-108013528D01*
X107469720Y-108040465D01*
X107577470Y-108040465D01*
X107685219Y-107986590D01*
X107739094Y-107932715D01*
X107792969Y-107824966D01*
X107792969Y-107771091D01*
X107604407Y-107582529D01*
X107496658Y-107690279D01*
X108089280Y-107582529D02*
X107523595Y-107016844D01*
X108412529Y-107259280D01*
X107846844Y-106693595D01*
X108681903Y-106989906D02*
X108116218Y-106424221D01*
X108250905Y-106289534D01*
X108358654Y-106235659D01*
X108466404Y-106235659D01*
X108547216Y-106262597D01*
X108681903Y-106343409D01*
X108762715Y-106424221D01*
X108843528Y-106558908D01*
X108870465Y-106639720D01*
X108870465Y-106747470D01*
X108816590Y-106855219D01*
X108681903Y-106989906D01*
%TO.C,R10*%
X169000093Y-66594734D02*
X168427674Y-66493719D01*
X168596032Y-66998795D02*
X167888926Y-66291688D01*
X168158300Y-66022314D01*
X168259315Y-65988642D01*
X168326658Y-65988642D01*
X168427674Y-66022314D01*
X168528689Y-66123329D01*
X168562361Y-66224345D01*
X168562361Y-66291688D01*
X168528689Y-66392703D01*
X168259315Y-66662077D01*
X169673529Y-65921299D02*
X169269468Y-66325360D01*
X169471498Y-66123329D02*
X168764391Y-65416222D01*
X168798063Y-65584581D01*
X168798063Y-65719268D01*
X168764391Y-65820284D01*
X169404155Y-64776459D02*
X169471498Y-64709116D01*
X169572513Y-64675444D01*
X169639857Y-64675444D01*
X169740872Y-64709116D01*
X169909231Y-64810131D01*
X170077590Y-64978490D01*
X170178605Y-65146848D01*
X170212277Y-65247864D01*
X170212277Y-65315207D01*
X170178605Y-65416222D01*
X170111261Y-65483566D01*
X170010246Y-65517238D01*
X169942903Y-65517238D01*
X169841887Y-65483566D01*
X169673529Y-65382551D01*
X169505170Y-65214192D01*
X169404155Y-65045833D01*
X169370483Y-64944818D01*
X169370483Y-64877474D01*
X169404155Y-64776459D01*
%TO.C,U1*%
X98968095Y-72537380D02*
X98968095Y-73346904D01*
X99015714Y-73442142D01*
X99063333Y-73489761D01*
X99158571Y-73537380D01*
X99349047Y-73537380D01*
X99444285Y-73489761D01*
X99491904Y-73442142D01*
X99539523Y-73346904D01*
X99539523Y-72537380D01*
X100539523Y-73537380D02*
X99968095Y-73537380D01*
X100253809Y-73537380D02*
X100253809Y-72537380D01*
X100158571Y-72680238D01*
X100063333Y-72775476D01*
X99968095Y-72823095D01*
%TO.C,J2*%
X88235580Y-99336333D02*
X88949866Y-99336333D01*
X89092723Y-99383952D01*
X89187961Y-99479190D01*
X89235580Y-99622047D01*
X89235580Y-99717285D01*
X88330819Y-98907761D02*
X88283200Y-98860142D01*
X88235580Y-98764904D01*
X88235580Y-98526809D01*
X88283200Y-98431571D01*
X88330819Y-98383952D01*
X88426057Y-98336333D01*
X88521295Y-98336333D01*
X88664152Y-98383952D01*
X89235580Y-98955380D01*
X89235580Y-98336333D01*
%TO.C,R7*%
X93997083Y-94635380D02*
X93663750Y-94159190D01*
X93425654Y-94635380D02*
X93425654Y-93635380D01*
X93806607Y-93635380D01*
X93901845Y-93683000D01*
X93949464Y-93730619D01*
X93997083Y-93825857D01*
X93997083Y-93968714D01*
X93949464Y-94063952D01*
X93901845Y-94111571D01*
X93806607Y-94159190D01*
X93425654Y-94159190D01*
X94330416Y-93635380D02*
X94997083Y-93635380D01*
X94568511Y-94635380D01*
%TO.C,R3*%
X140812380Y-66331666D02*
X140336190Y-66665000D01*
X140812380Y-66903095D02*
X139812380Y-66903095D01*
X139812380Y-66522142D01*
X139860000Y-66426904D01*
X139907619Y-66379285D01*
X140002857Y-66331666D01*
X140145714Y-66331666D01*
X140240952Y-66379285D01*
X140288571Y-66426904D01*
X140336190Y-66522142D01*
X140336190Y-66903095D01*
X139812380Y-65998333D02*
X139812380Y-65379285D01*
X140193333Y-65712619D01*
X140193333Y-65569761D01*
X140240952Y-65474523D01*
X140288571Y-65426904D01*
X140383809Y-65379285D01*
X140621904Y-65379285D01*
X140717142Y-65426904D01*
X140764761Y-65474523D01*
X140812380Y-65569761D01*
X140812380Y-65855476D01*
X140764761Y-65950714D01*
X140717142Y-65998333D01*
%TO.C,R5*%
X137072380Y-78721666D02*
X136596190Y-79055000D01*
X137072380Y-79293095D02*
X136072380Y-79293095D01*
X136072380Y-78912142D01*
X136120000Y-78816904D01*
X136167619Y-78769285D01*
X136262857Y-78721666D01*
X136405714Y-78721666D01*
X136500952Y-78769285D01*
X136548571Y-78816904D01*
X136596190Y-78912142D01*
X136596190Y-79293095D01*
X136072380Y-77816904D02*
X136072380Y-78293095D01*
X136548571Y-78340714D01*
X136500952Y-78293095D01*
X136453333Y-78197857D01*
X136453333Y-77959761D01*
X136500952Y-77864523D01*
X136548571Y-77816904D01*
X136643809Y-77769285D01*
X136881904Y-77769285D01*
X136977142Y-77816904D01*
X137024761Y-77864523D01*
X137072380Y-77959761D01*
X137072380Y-78197857D01*
X137024761Y-78293095D01*
X136977142Y-78340714D01*
%TO.C,J5*%
X178009880Y-75758333D02*
X178724166Y-75758333D01*
X178867023Y-75805952D01*
X178962261Y-75901190D01*
X179009880Y-76044047D01*
X179009880Y-76139285D01*
X178009880Y-74805952D02*
X178009880Y-75282142D01*
X178486071Y-75329761D01*
X178438452Y-75282142D01*
X178390833Y-75186904D01*
X178390833Y-74948809D01*
X178438452Y-74853571D01*
X178486071Y-74805952D01*
X178581309Y-74758333D01*
X178819404Y-74758333D01*
X178914642Y-74805952D01*
X178962261Y-74853571D01*
X179009880Y-74948809D01*
X179009880Y-75186904D01*
X178962261Y-75282142D01*
X178914642Y-75329761D01*
%TO.C,R11*%
X164457142Y-75932380D02*
X164123809Y-75456190D01*
X163885714Y-75932380D02*
X163885714Y-74932380D01*
X164266666Y-74932380D01*
X164361904Y-74980000D01*
X164409523Y-75027619D01*
X164457142Y-75122857D01*
X164457142Y-75265714D01*
X164409523Y-75360952D01*
X164361904Y-75408571D01*
X164266666Y-75456190D01*
X163885714Y-75456190D01*
X165409523Y-75932380D02*
X164838095Y-75932380D01*
X165123809Y-75932380D02*
X165123809Y-74932380D01*
X165028571Y-75075238D01*
X164933333Y-75170476D01*
X164838095Y-75218095D01*
X166361904Y-75932380D02*
X165790476Y-75932380D01*
X166076190Y-75932380D02*
X166076190Y-74932380D01*
X165980952Y-75075238D01*
X165885714Y-75170476D01*
X165790476Y-75218095D01*
%TO.C,J3*%
X178009880Y-60838333D02*
X178724166Y-60838333D01*
X178867023Y-60885952D01*
X178962261Y-60981190D01*
X179009880Y-61124047D01*
X179009880Y-61219285D01*
X178009880Y-60457380D02*
X178009880Y-59838333D01*
X178390833Y-60171666D01*
X178390833Y-60028809D01*
X178438452Y-59933571D01*
X178486071Y-59885952D01*
X178581309Y-59838333D01*
X178819404Y-59838333D01*
X178914642Y-59885952D01*
X178962261Y-59933571D01*
X179009880Y-60028809D01*
X179009880Y-60314523D01*
X178962261Y-60409761D01*
X178914642Y-60457380D01*
%TO.C,C2*%
X100093333Y-104052142D02*
X100045714Y-104099761D01*
X99902857Y-104147380D01*
X99807619Y-104147380D01*
X99664761Y-104099761D01*
X99569523Y-104004523D01*
X99521904Y-103909285D01*
X99474285Y-103718809D01*
X99474285Y-103575952D01*
X99521904Y-103385476D01*
X99569523Y-103290238D01*
X99664761Y-103195000D01*
X99807619Y-103147380D01*
X99902857Y-103147380D01*
X100045714Y-103195000D01*
X100093333Y-103242619D01*
X100474285Y-103242619D02*
X100521904Y-103195000D01*
X100617142Y-103147380D01*
X100855238Y-103147380D01*
X100950476Y-103195000D01*
X100998095Y-103242619D01*
X101045714Y-103337857D01*
X101045714Y-103433095D01*
X100998095Y-103575952D01*
X100426666Y-104147380D01*
X101045714Y-104147380D01*
%TO.C,J1*%
X88204880Y-79138333D02*
X88919166Y-79138333D01*
X89062023Y-79185952D01*
X89157261Y-79281190D01*
X89204880Y-79424047D01*
X89204880Y-79519285D01*
X89204880Y-78138333D02*
X89204880Y-78709761D01*
X89204880Y-78424047D02*
X88204880Y-78424047D01*
X88347738Y-78519285D01*
X88442976Y-78614523D01*
X88490595Y-78709761D01*
%TO.C,R4*%
X140812380Y-81571666D02*
X140336190Y-81905000D01*
X140812380Y-82143095D02*
X139812380Y-82143095D01*
X139812380Y-81762142D01*
X139860000Y-81666904D01*
X139907619Y-81619285D01*
X140002857Y-81571666D01*
X140145714Y-81571666D01*
X140240952Y-81619285D01*
X140288571Y-81666904D01*
X140336190Y-81762142D01*
X140336190Y-82143095D01*
X140145714Y-80714523D02*
X140812380Y-80714523D01*
X139764761Y-80952619D02*
X140479047Y-81190714D01*
X140479047Y-80571666D01*
%TO.C,R6*%
X136962380Y-69681666D02*
X136486190Y-70015000D01*
X136962380Y-70253095D02*
X135962380Y-70253095D01*
X135962380Y-69872142D01*
X136010000Y-69776904D01*
X136057619Y-69729285D01*
X136152857Y-69681666D01*
X136295714Y-69681666D01*
X136390952Y-69729285D01*
X136438571Y-69776904D01*
X136486190Y-69872142D01*
X136486190Y-70253095D01*
X135962380Y-68824523D02*
X135962380Y-69015000D01*
X136010000Y-69110238D01*
X136057619Y-69157857D01*
X136200476Y-69253095D01*
X136390952Y-69300714D01*
X136771904Y-69300714D01*
X136867142Y-69253095D01*
X136914761Y-69205476D01*
X136962380Y-69110238D01*
X136962380Y-68919761D01*
X136914761Y-68824523D01*
X136867142Y-68776904D01*
X136771904Y-68729285D01*
X136533809Y-68729285D01*
X136438571Y-68776904D01*
X136390952Y-68824523D01*
X136343333Y-68919761D01*
X136343333Y-69110238D01*
X136390952Y-69205476D01*
X136438571Y-69253095D01*
X136533809Y-69300714D01*
%TO.C,R12*%
X162984414Y-84590089D02*
X162883399Y-85162508D01*
X163388475Y-84994150D02*
X162681368Y-85701256D01*
X162411994Y-85431882D01*
X162378322Y-85330867D01*
X162378322Y-85263524D01*
X162411994Y-85162508D01*
X162513009Y-85061493D01*
X162614025Y-85027821D01*
X162681368Y-85027821D01*
X162782383Y-85061493D01*
X163051757Y-85330867D01*
X162310979Y-83916653D02*
X162715040Y-84320714D01*
X162513009Y-84118684D02*
X161805902Y-84825791D01*
X161974261Y-84792119D01*
X162108948Y-84792119D01*
X162209964Y-84825791D01*
X161401841Y-84287043D02*
X161334498Y-84287043D01*
X161233483Y-84253371D01*
X161065124Y-84085012D01*
X161031452Y-83983997D01*
X161031452Y-83916653D01*
X161065124Y-83815638D01*
X161132467Y-83748295D01*
X161267154Y-83680951D01*
X162075276Y-83680951D01*
X161637544Y-83243218D01*
%TO.C,R9*%
X165550798Y-79649903D02*
X165449783Y-80222323D01*
X165954859Y-80053964D02*
X165247753Y-80761071D01*
X164978378Y-80491697D01*
X164944707Y-80390682D01*
X164944707Y-80323338D01*
X164978378Y-80222323D01*
X165079394Y-80121308D01*
X165180409Y-80087636D01*
X165247753Y-80087636D01*
X165348768Y-80121308D01*
X165618142Y-80390682D01*
X165214081Y-79313185D02*
X165079394Y-79178498D01*
X164978378Y-79144827D01*
X164911035Y-79144827D01*
X164742676Y-79178498D01*
X164574317Y-79279514D01*
X164304943Y-79548888D01*
X164271272Y-79649903D01*
X164271272Y-79717246D01*
X164304943Y-79818262D01*
X164439630Y-79952949D01*
X164540646Y-79986621D01*
X164607989Y-79986621D01*
X164709004Y-79952949D01*
X164877363Y-79784590D01*
X164911035Y-79683575D01*
X164911035Y-79616231D01*
X164877363Y-79515216D01*
X164742676Y-79380529D01*
X164641661Y-79346857D01*
X164574317Y-79346857D01*
X164473302Y-79380529D01*
%TO.C,J4*%
X178059880Y-90678333D02*
X178774166Y-90678333D01*
X178917023Y-90725952D01*
X179012261Y-90821190D01*
X179059880Y-90964047D01*
X179059880Y-91059285D01*
X178393214Y-89773571D02*
X179059880Y-89773571D01*
X178012261Y-90011666D02*
X178726547Y-90249761D01*
X178726547Y-89630714D01*
%TO.C,R1*%
X93013333Y-74607380D02*
X92680000Y-74131190D01*
X92441904Y-74607380D02*
X92441904Y-73607380D01*
X92822857Y-73607380D01*
X92918095Y-73655000D01*
X92965714Y-73702619D01*
X93013333Y-73797857D01*
X93013333Y-73940714D01*
X92965714Y-74035952D01*
X92918095Y-74083571D01*
X92822857Y-74131190D01*
X92441904Y-74131190D01*
X93965714Y-74607380D02*
X93394285Y-74607380D01*
X93680000Y-74607380D02*
X93680000Y-73607380D01*
X93584761Y-73750238D01*
X93489523Y-73845476D01*
X93394285Y-73893095D01*
%TO.C,R2*%
X90982380Y-80041666D02*
X90506190Y-80375000D01*
X90982380Y-80613095D02*
X89982380Y-80613095D01*
X89982380Y-80232142D01*
X90030000Y-80136904D01*
X90077619Y-80089285D01*
X90172857Y-80041666D01*
X90315714Y-80041666D01*
X90410952Y-80089285D01*
X90458571Y-80136904D01*
X90506190Y-80232142D01*
X90506190Y-80613095D01*
X90077619Y-79660714D02*
X90030000Y-79613095D01*
X89982380Y-79517857D01*
X89982380Y-79279761D01*
X90030000Y-79184523D01*
X90077619Y-79136904D01*
X90172857Y-79089285D01*
X90268095Y-79089285D01*
X90410952Y-79136904D01*
X90982380Y-79708333D01*
X90982380Y-79089285D01*
%TO.C,C1*%
X101287142Y-71761666D02*
X101334761Y-71809285D01*
X101382380Y-71952142D01*
X101382380Y-72047380D01*
X101334761Y-72190238D01*
X101239523Y-72285476D01*
X101144285Y-72333095D01*
X100953809Y-72380714D01*
X100810952Y-72380714D01*
X100620476Y-72333095D01*
X100525238Y-72285476D01*
X100430000Y-72190238D01*
X100382380Y-72047380D01*
X100382380Y-71952142D01*
X100430000Y-71809285D01*
X100477619Y-71761666D01*
X101382380Y-70809285D02*
X101382380Y-71380714D01*
X101382380Y-71095000D02*
X100382380Y-71095000D01*
X100525238Y-71190238D01*
X100620476Y-71285476D01*
X100668095Y-71380714D01*
D11*
%TO.C,IC1*%
X151795238Y-74869523D02*
X151795238Y-73599523D01*
X153125714Y-74748571D02*
X153065238Y-74809047D01*
X152883809Y-74869523D01*
X152762857Y-74869523D01*
X152581428Y-74809047D01*
X152460476Y-74688095D01*
X152400000Y-74567142D01*
X152339523Y-74325238D01*
X152339523Y-74143809D01*
X152400000Y-73901904D01*
X152460476Y-73780952D01*
X152581428Y-73660000D01*
X152762857Y-73599523D01*
X152883809Y-73599523D01*
X153065238Y-73660000D01*
X153125714Y-73720476D01*
X154335238Y-74869523D02*
X153609523Y-74869523D01*
X153972380Y-74869523D02*
X153972380Y-73599523D01*
X153851428Y-73780952D01*
X153730476Y-73901904D01*
X153609523Y-73962380D01*
D12*
%TO.C,J6*%
X178687500Y-108125000D02*
X178687500Y-108625000D01*
X179187500Y-108375000D02*
X178687500Y-108125000D01*
X178687500Y-108625000D02*
X179187500Y-108375000D01*
%TO.C,R8*%
X91228750Y-91525936D02*
X91228750Y-91980064D01*
X92698750Y-91525936D02*
X92698750Y-91980064D01*
%TO.C,G\u002A\u002A\u002A*%
G36*
X149046682Y-99671844D02*
G01*
X149169156Y-99672849D01*
X149271444Y-99674556D01*
X149355514Y-99677082D01*
X149423333Y-99680540D01*
X149476868Y-99685046D01*
X149518088Y-99690715D01*
X149548958Y-99697661D01*
X149571448Y-99706000D01*
X149587523Y-99715846D01*
X149599152Y-99727313D01*
X149608302Y-99740518D01*
X149616940Y-99755574D01*
X149622006Y-99764383D01*
X149642378Y-99819821D01*
X149646610Y-99892377D01*
X149634579Y-99985647D01*
X149611028Y-100085554D01*
X149574254Y-100221512D01*
X148240206Y-100229509D01*
X148001374Y-100230980D01*
X147792449Y-100232376D01*
X147611348Y-100233753D01*
X147455990Y-100235162D01*
X147324292Y-100236659D01*
X147214171Y-100238296D01*
X147123545Y-100240127D01*
X147050332Y-100242206D01*
X146992450Y-100244587D01*
X146947815Y-100247323D01*
X146914345Y-100250467D01*
X146889958Y-100254074D01*
X146872572Y-100258198D01*
X146860104Y-100262890D01*
X146855587Y-100265178D01*
X146784307Y-100321666D01*
X146732324Y-100399875D01*
X146725078Y-100416795D01*
X146715359Y-100446569D01*
X146698566Y-100503858D01*
X146675410Y-100585964D01*
X146646603Y-100690186D01*
X146612854Y-100813826D01*
X146574876Y-100954184D01*
X146533379Y-101108562D01*
X146489074Y-101274258D01*
X146442672Y-101448576D01*
X146394883Y-101628813D01*
X146346420Y-101812273D01*
X146297993Y-101996255D01*
X146250313Y-102178060D01*
X146204090Y-102354988D01*
X146160037Y-102524340D01*
X146118863Y-102683418D01*
X146081280Y-102829520D01*
X146047999Y-102959950D01*
X146019731Y-103072006D01*
X145997186Y-103162989D01*
X145981076Y-103230201D01*
X145972112Y-103270941D01*
X145970453Y-103281859D01*
X145976327Y-103331613D01*
X145999351Y-103368337D01*
X146019665Y-103387092D01*
X146068877Y-103428501D01*
X147387235Y-103428501D01*
X147632185Y-103428592D01*
X147846860Y-103428882D01*
X148032972Y-103429396D01*
X148192236Y-103430161D01*
X148326363Y-103431203D01*
X148437069Y-103432547D01*
X148526066Y-103434221D01*
X148595067Y-103436249D01*
X148645788Y-103438657D01*
X148679939Y-103441473D01*
X148699236Y-103444721D01*
X148705392Y-103448428D01*
X148705393Y-103448495D01*
X148700472Y-103479157D01*
X148687811Y-103531099D01*
X148670055Y-103595345D01*
X148649849Y-103662916D01*
X148629837Y-103724837D01*
X148612666Y-103772130D01*
X148604870Y-103789666D01*
X148549477Y-103864243D01*
X148469771Y-103927332D01*
X148417683Y-103955041D01*
X148404591Y-103960683D01*
X148390460Y-103965633D01*
X148373225Y-103969936D01*
X148350822Y-103973638D01*
X148321185Y-103976784D01*
X148282248Y-103979419D01*
X148231949Y-103981588D01*
X148168220Y-103983337D01*
X148088997Y-103984711D01*
X147992216Y-103985755D01*
X147875811Y-103986514D01*
X147737717Y-103987034D01*
X147575870Y-103987360D01*
X147388204Y-103987536D01*
X147172654Y-103987609D01*
X146930151Y-103987623D01*
X146684505Y-103987597D01*
X146468797Y-103987494D01*
X146280971Y-103987272D01*
X146118976Y-103986890D01*
X145980759Y-103986305D01*
X145864265Y-103985478D01*
X145767442Y-103984367D01*
X145688237Y-103982930D01*
X145624596Y-103981126D01*
X145574466Y-103978915D01*
X145535795Y-103976253D01*
X145506528Y-103973102D01*
X145484613Y-103969418D01*
X145467997Y-103965162D01*
X145454626Y-103960290D01*
X145449035Y-103957848D01*
X145375902Y-103909537D01*
X145327914Y-103841967D01*
X145304401Y-103754113D01*
X145302540Y-103733452D01*
X145302538Y-103716446D01*
X145304676Y-103693257D01*
X145309374Y-103662228D01*
X145317052Y-103621697D01*
X145328127Y-103570005D01*
X145343021Y-103505492D01*
X145362153Y-103426500D01*
X145385941Y-103331368D01*
X145414805Y-103218436D01*
X145449166Y-103086046D01*
X145489441Y-102932537D01*
X145536051Y-102756250D01*
X145589415Y-102555524D01*
X145649952Y-102328702D01*
X145718083Y-102074122D01*
X145784437Y-101826610D01*
X145847785Y-101590939D01*
X145909269Y-101363129D01*
X145968339Y-101145176D01*
X146024443Y-100939075D01*
X146077029Y-100746821D01*
X146125547Y-100570409D01*
X146169445Y-100411834D01*
X146208170Y-100273092D01*
X146241173Y-100156178D01*
X146267901Y-100063086D01*
X146287803Y-99995813D01*
X146300327Y-99956353D01*
X146303884Y-99947202D01*
X146354485Y-99873333D01*
X146425334Y-99801265D01*
X146505744Y-99740932D01*
X146554269Y-99714437D01*
X146634244Y-99677683D01*
X148062671Y-99673350D01*
X148315584Y-99672561D01*
X148538474Y-99671901D01*
X148733308Y-99671485D01*
X148902056Y-99671428D01*
X149046682Y-99671844D01*
G37*
G36*
X155017345Y-104698672D02*
G01*
X155066126Y-104617731D01*
X155131810Y-104544533D01*
X155211858Y-104483054D01*
X155303731Y-104437271D01*
X155404892Y-104411161D01*
X155432847Y-104408050D01*
X155529476Y-104408349D01*
X155606830Y-104428360D01*
X155672573Y-104470547D01*
X155695793Y-104492582D01*
X155726451Y-104527923D01*
X155743878Y-104562022D01*
X155752785Y-104607224D01*
X155756433Y-104651433D01*
X155757645Y-104720295D01*
X155749211Y-104773205D01*
X155728675Y-104825383D01*
X155728193Y-104826382D01*
X155666931Y-104921058D01*
X155585027Y-105000928D01*
X155488826Y-105062347D01*
X155384670Y-105101667D01*
X155278901Y-105115243D01*
X155231536Y-105111852D01*
X155139840Y-105088914D01*
X155069907Y-105047698D01*
X155042021Y-105020317D01*
X154997805Y-104948177D01*
X154980646Y-104867872D01*
X154982689Y-104844410D01*
X155154248Y-104844410D01*
X155175916Y-104903678D01*
X155220225Y-104948435D01*
X155247531Y-104962295D01*
X155294230Y-104976328D01*
X155337993Y-104976453D01*
X155390681Y-104964249D01*
X155447675Y-104935950D01*
X155506087Y-104888108D01*
X155555447Y-104830875D01*
X155584761Y-104776031D01*
X155596769Y-104699330D01*
X155581476Y-104633871D01*
X155541936Y-104584108D01*
X155481203Y-104554499D01*
X155428522Y-104548149D01*
X155346096Y-104559652D01*
X155275001Y-104596674D01*
X155228555Y-104638692D01*
X155180220Y-104706003D01*
X155155567Y-104776547D01*
X155154248Y-104844410D01*
X154982689Y-104844410D01*
X154988005Y-104783378D01*
X155017345Y-104698672D01*
G37*
G36*
X157495543Y-100833319D02*
G01*
X157465773Y-100942580D01*
X157435181Y-101025310D01*
X157400716Y-101086890D01*
X157359333Y-101132702D01*
X157307982Y-101168126D01*
X157304978Y-101169788D01*
X157289012Y-101176897D01*
X157267382Y-101182800D01*
X157236921Y-101187667D01*
X157194464Y-101191664D01*
X157136845Y-101194961D01*
X157060898Y-101197724D01*
X156963459Y-101200122D01*
X156841361Y-101202323D01*
X156691439Y-101204495D01*
X156637814Y-101205202D01*
X156020729Y-101213199D01*
X155962010Y-101258012D01*
X155920318Y-101295636D01*
X155887461Y-101335216D01*
X155880883Y-101346158D01*
X155871130Y-101372344D01*
X155854520Y-101425176D01*
X155832294Y-101500351D01*
X155805695Y-101593568D01*
X155775964Y-101700524D01*
X155744344Y-101816917D01*
X155736105Y-101847675D01*
X155701129Y-101979007D01*
X155673795Y-102083152D01*
X155653395Y-102163803D01*
X155639217Y-102224652D01*
X155630553Y-102269392D01*
X155626692Y-102301717D01*
X155626924Y-102325319D01*
X155630540Y-102343891D01*
X155636828Y-102361127D01*
X155637214Y-102362052D01*
X155661159Y-102403967D01*
X155689137Y-102433181D01*
X155692985Y-102435526D01*
X155719882Y-102440890D01*
X155778577Y-102445266D01*
X155868890Y-102448650D01*
X155990645Y-102451037D01*
X156143661Y-102452423D01*
X156302942Y-102452809D01*
X156458845Y-102452993D01*
X156585922Y-102453627D01*
X156687336Y-102454834D01*
X156766250Y-102456735D01*
X156825825Y-102459453D01*
X156869224Y-102463110D01*
X156899610Y-102467830D01*
X156920145Y-102473733D01*
X156927323Y-102476967D01*
X156970847Y-102507107D01*
X156996700Y-102546387D01*
X157005803Y-102599801D01*
X156999074Y-102672340D01*
X156979576Y-102760712D01*
X156951907Y-102868678D01*
X155206325Y-102868678D01*
X155135023Y-102832689D01*
X155065617Y-102781173D01*
X155016647Y-102710656D01*
X154993183Y-102629178D01*
X154991875Y-102605744D01*
X154995951Y-102577746D01*
X155007613Y-102522755D01*
X155025852Y-102444592D01*
X155049656Y-102347076D01*
X155078012Y-102234028D01*
X155109912Y-102109268D01*
X155144342Y-101976615D01*
X155180292Y-101839891D01*
X155216750Y-101702915D01*
X155252706Y-101569507D01*
X155287147Y-101443487D01*
X155319063Y-101328676D01*
X155347443Y-101228893D01*
X155371275Y-101147959D01*
X155389548Y-101089693D01*
X155401250Y-101057916D01*
X155402048Y-101056289D01*
X155447435Y-100991151D01*
X155512886Y-100925107D01*
X155588039Y-100867134D01*
X155662534Y-100826210D01*
X155671813Y-100822541D01*
X155692062Y-100815331D01*
X155712931Y-100809247D01*
X155737185Y-100804194D01*
X155767588Y-100800076D01*
X155806904Y-100796797D01*
X155857898Y-100794263D01*
X155923334Y-100792377D01*
X156005976Y-100791044D01*
X156108587Y-100790169D01*
X156233933Y-100789656D01*
X156384778Y-100789410D01*
X156563885Y-100789336D01*
X156633430Y-100789333D01*
X157506289Y-100789333D01*
X157495543Y-100833319D01*
G37*
G36*
X158257991Y-103426716D02*
G01*
X158340541Y-103450543D01*
X158395405Y-103486130D01*
X158438526Y-103524741D01*
X158375265Y-103579342D01*
X158312003Y-103633943D01*
X158267451Y-103602218D01*
X158193909Y-103566740D01*
X158116652Y-103562862D01*
X158041468Y-103587088D01*
X157967943Y-103638660D01*
X157911694Y-103709987D01*
X157879147Y-103792203D01*
X157875066Y-103816753D01*
X157873584Y-103867380D01*
X157886810Y-103905267D01*
X157910402Y-103937078D01*
X157943359Y-103970123D01*
X157977730Y-103984963D01*
X158027027Y-103988325D01*
X158096790Y-103979297D01*
X158166860Y-103956139D01*
X158172133Y-103953663D01*
X158243736Y-103919000D01*
X158279894Y-103964345D01*
X158316051Y-104009691D01*
X158276396Y-104040883D01*
X158192578Y-104089612D01*
X158094241Y-104119694D01*
X157991418Y-104129741D01*
X157894145Y-104118364D01*
X157843044Y-104100869D01*
X157775498Y-104056774D01*
X157732664Y-103995518D01*
X157712764Y-103914020D01*
X157710815Y-103871848D01*
X157720684Y-103773222D01*
X157753037Y-103685766D01*
X157811786Y-103598993D01*
X157813235Y-103597220D01*
X157885287Y-103528539D01*
X157972138Y-103475937D01*
X158067439Y-103440625D01*
X158164841Y-103423814D01*
X158257991Y-103426716D01*
G37*
G36*
X155907828Y-104622788D02*
G01*
X155925432Y-104556358D01*
X155925488Y-104556146D01*
X155959307Y-104428187D01*
X156175239Y-104424002D01*
X156264801Y-104422766D01*
X156328755Y-104423542D01*
X156373452Y-104426976D01*
X156405244Y-104433716D01*
X156430483Y-104444410D01*
X156442287Y-104451230D01*
X156483652Y-104493397D01*
X156502885Y-104550519D01*
X156501734Y-104616260D01*
X156481945Y-104684289D01*
X156445267Y-104748272D01*
X156393445Y-104801875D01*
X156336242Y-104835622D01*
X156314376Y-104844988D01*
X156301842Y-104855127D01*
X156299322Y-104871787D01*
X156307495Y-104900719D01*
X156327040Y-104947670D01*
X156357566Y-105016001D01*
X156398765Y-105107973D01*
X156212315Y-105107973D01*
X156167242Y-104996008D01*
X156143767Y-104939194D01*
X156126224Y-104905833D01*
X156108645Y-104889680D01*
X156085065Y-104884493D01*
X156060229Y-104884043D01*
X156017578Y-104888820D01*
X155993234Y-104900971D01*
X155991536Y-104904037D01*
X155983760Y-104929513D01*
X155970630Y-104974736D01*
X155958914Y-105016001D01*
X155933045Y-105107973D01*
X155778468Y-105107973D01*
X155835068Y-104896039D01*
X155859688Y-104803748D01*
X155875516Y-104744301D01*
X156036742Y-104744301D01*
X156051423Y-104752752D01*
X156088174Y-104755823D01*
X156115792Y-104756083D01*
X156176114Y-104752723D01*
X156231827Y-104744180D01*
X156253165Y-104738406D01*
X156305335Y-104707431D01*
X156331345Y-104658645D01*
X156335189Y-104621740D01*
X156325915Y-104585837D01*
X156295703Y-104562755D01*
X156240965Y-104550812D01*
X156178190Y-104548149D01*
X156083067Y-104548149D01*
X156064450Y-104624125D01*
X156051660Y-104675104D01*
X156040792Y-104716383D01*
X156037481Y-104728092D01*
X156036742Y-104744301D01*
X155875516Y-104744301D01*
X155884927Y-104708958D01*
X155907828Y-104622788D01*
G37*
G36*
X152152203Y-104682762D02*
G01*
X152153848Y-104679427D01*
X152211338Y-104591669D01*
X152285716Y-104519416D01*
X152372058Y-104463806D01*
X152465442Y-104425980D01*
X152560945Y-104407077D01*
X152653644Y-104408236D01*
X152738616Y-104430599D01*
X152810938Y-104475304D01*
X152849845Y-104518294D01*
X152881419Y-104588614D01*
X152889455Y-104671938D01*
X152875542Y-104761467D01*
X152841265Y-104850403D01*
X152788213Y-104931948D01*
X152742078Y-104979835D01*
X152650093Y-105044330D01*
X152546920Y-105089368D01*
X152441266Y-105112191D01*
X152341841Y-105110040D01*
X152334930Y-105108805D01*
X152245578Y-105077848D01*
X152177568Y-105025613D01*
X152132562Y-104956044D01*
X152112224Y-104873083D01*
X152116344Y-104809547D01*
X152282019Y-104809547D01*
X152293095Y-104881936D01*
X152327083Y-104935227D01*
X152379804Y-104967329D01*
X152447075Y-104976153D01*
X152524717Y-104959609D01*
X152555763Y-104946386D01*
X152635760Y-104892289D01*
X152689181Y-104820772D01*
X152715291Y-104732873D01*
X152716770Y-104718785D01*
X152718887Y-104666717D01*
X152711776Y-104632934D01*
X152691579Y-104604187D01*
X152679821Y-104591979D01*
X152623550Y-104555843D01*
X152558088Y-104545051D01*
X152488997Y-104556563D01*
X152421837Y-104587335D01*
X152362168Y-104634328D01*
X152315553Y-104694499D01*
X152287552Y-104764808D01*
X152282019Y-104809547D01*
X152116344Y-104809547D01*
X152118216Y-104780675D01*
X152152203Y-104682762D01*
G37*
G36*
X157592470Y-102189106D02*
G01*
X157625595Y-102059629D01*
X157661326Y-101923253D01*
X157698611Y-101783887D01*
X157736395Y-101645442D01*
X157773626Y-101511828D01*
X157809249Y-101386954D01*
X157842211Y-101274730D01*
X157871460Y-101179068D01*
X157895940Y-101103876D01*
X157914599Y-101053064D01*
X157923740Y-101033926D01*
X157991942Y-100949604D01*
X158081627Y-100873879D01*
X158147063Y-100833417D01*
X158162438Y-100825456D01*
X158178107Y-100818747D01*
X158196826Y-100813166D01*
X158221349Y-100808590D01*
X158254433Y-100804897D01*
X158298830Y-100801964D01*
X158357298Y-100799666D01*
X158432591Y-100797882D01*
X158527464Y-100796488D01*
X158644672Y-100795362D01*
X158786970Y-100794380D01*
X158957113Y-100793419D01*
X159054332Y-100792903D01*
X159894068Y-100788476D01*
X159966045Y-100824893D01*
X160032125Y-100875003D01*
X160081206Y-100945359D01*
X160107318Y-101026177D01*
X160110000Y-101060774D01*
X160105866Y-101088102D01*
X160094141Y-101142421D01*
X160075841Y-101219908D01*
X160051982Y-101316745D01*
X160023580Y-101429109D01*
X159991650Y-101553181D01*
X159957208Y-101685139D01*
X159921270Y-101821164D01*
X159884853Y-101957435D01*
X159848971Y-102090130D01*
X159814641Y-102215430D01*
X159782878Y-102329514D01*
X159754698Y-102428562D01*
X159731118Y-102508752D01*
X159713153Y-102566264D01*
X159701818Y-102597278D01*
X159701055Y-102598839D01*
X159657494Y-102661911D01*
X159594386Y-102727271D01*
X159521928Y-102785429D01*
X159461787Y-102821531D01*
X159382229Y-102860680D01*
X158542494Y-102863880D01*
X158337574Y-102864342D01*
X158157558Y-102864085D01*
X158003549Y-102863125D01*
X157876653Y-102861478D01*
X157777975Y-102859162D01*
X157708618Y-102856191D01*
X157669688Y-102852582D01*
X157662779Y-102850923D01*
X157588487Y-102804711D01*
X157535830Y-102736849D01*
X157507314Y-102651326D01*
X157502821Y-102596146D01*
X157507109Y-102559817D01*
X157519272Y-102497039D01*
X157538255Y-102411721D01*
X157561120Y-102315694D01*
X158126625Y-102315694D01*
X158140413Y-102362373D01*
X158174116Y-102406791D01*
X158221608Y-102454283D01*
X159080886Y-102444811D01*
X159139603Y-102399998D01*
X159181530Y-102361998D01*
X159214774Y-102321636D01*
X159221395Y-102310564D01*
X159234212Y-102278132D01*
X159252660Y-102221083D01*
X159275516Y-102144137D01*
X159301557Y-102052012D01*
X159329559Y-101949426D01*
X159358298Y-101841099D01*
X159386552Y-101731748D01*
X159413097Y-101626093D01*
X159436709Y-101528853D01*
X159456165Y-101444744D01*
X159470241Y-101378488D01*
X159477715Y-101334801D01*
X159478278Y-101319788D01*
X159460333Y-101282086D01*
X159430337Y-101243858D01*
X159391681Y-101205202D01*
X158974290Y-101205202D01*
X158840542Y-101205380D01*
X158734683Y-101206368D01*
X158652613Y-101208844D01*
X158590232Y-101213488D01*
X158543441Y-101220978D01*
X158508139Y-101231993D01*
X158480226Y-101247213D01*
X158455601Y-101267316D01*
X158430165Y-101292982D01*
X158427548Y-101295745D01*
X158394455Y-101337322D01*
X158370487Y-101378787D01*
X158368777Y-101383003D01*
X158357046Y-101418891D01*
X158339532Y-101478724D01*
X158317507Y-101557593D01*
X158292248Y-101650586D01*
X158265029Y-101752792D01*
X158237126Y-101859301D01*
X158209813Y-101965201D01*
X158184366Y-102065582D01*
X158162059Y-102155532D01*
X158144167Y-102230142D01*
X158131966Y-102284499D01*
X158126731Y-102313694D01*
X158126625Y-102315694D01*
X157561120Y-102315694D01*
X157563006Y-102307773D01*
X157592470Y-102189106D01*
G37*
G36*
X157288555Y-103431582D02*
G01*
X157397837Y-103429980D01*
X157480756Y-103433529D01*
X157542661Y-103443173D01*
X157588901Y-103459860D01*
X157624827Y-103484537D01*
X157633381Y-103492621D01*
X157669200Y-103546144D01*
X157677487Y-103609513D01*
X157658456Y-103685904D01*
X157648165Y-103710270D01*
X157608378Y-103771011D01*
X157551654Y-103825658D01*
X157490296Y-103862653D01*
X157482976Y-103865438D01*
X157470512Y-103872975D01*
X157467640Y-103887835D01*
X157475641Y-103916179D01*
X157495794Y-103964168D01*
X157510058Y-103995763D01*
X157564981Y-104116285D01*
X157378461Y-104116285D01*
X157333940Y-104011532D01*
X157289419Y-103906778D01*
X157224175Y-103911563D01*
X157158932Y-103916348D01*
X157133669Y-104012318D01*
X157108406Y-104108287D01*
X157033699Y-104113163D01*
X156984255Y-104113314D01*
X156961713Y-104104790D01*
X156959239Y-104097168D01*
X156963288Y-104075994D01*
X156974454Y-104028885D01*
X156991493Y-103960787D01*
X157013163Y-103876644D01*
X157038221Y-103781400D01*
X157044879Y-103756398D01*
X157046033Y-103752076D01*
X157204210Y-103752076D01*
X157217475Y-103759982D01*
X157251205Y-103763582D01*
X157307013Y-103764396D01*
X157373788Y-103762139D01*
X157418800Y-103753929D01*
X157452052Y-103737609D01*
X157460677Y-103731245D01*
X157494484Y-103690656D01*
X157502821Y-103644984D01*
X157499513Y-103611041D01*
X157485717Y-103589608D01*
X157455630Y-103577903D01*
X157403445Y-103573144D01*
X157351460Y-103572456D01*
X157250699Y-103572456D01*
X157233094Y-103642374D01*
X157220041Y-103691265D01*
X157208451Y-103729909D01*
X157205491Y-103738344D01*
X157204210Y-103752076D01*
X157046033Y-103752076D01*
X157130272Y-103436499D01*
X157288555Y-103431582D01*
G37*
G36*
X153073700Y-104479005D02*
G01*
X153090072Y-104417860D01*
X153322492Y-104423023D01*
X153413047Y-104425192D01*
X153477268Y-104427700D01*
X153520805Y-104431592D01*
X153549306Y-104437911D01*
X153568419Y-104447699D01*
X153583794Y-104461999D01*
X153593476Y-104473065D01*
X153624957Y-104532456D01*
X153631300Y-104602011D01*
X153614407Y-104674792D01*
X153576175Y-104743861D01*
X153518505Y-104802281D01*
X153499766Y-104815381D01*
X153459725Y-104841076D01*
X153432317Y-104858755D01*
X153425801Y-104863022D01*
X153428838Y-104878514D01*
X153442564Y-104915691D01*
X153464214Y-104967213D01*
X153469787Y-104979791D01*
X153493696Y-105034310D01*
X153511443Y-105076774D01*
X153519811Y-105099434D01*
X153520075Y-105100914D01*
X153505618Y-105104825D01*
X153468220Y-105105987D01*
X153429503Y-105104772D01*
X153338931Y-105099975D01*
X153294972Y-104996008D01*
X153271130Y-104941667D01*
X153252632Y-104910184D01*
X153232736Y-104894794D01*
X153204701Y-104888736D01*
X153186460Y-104887164D01*
X153144691Y-104885982D01*
X153123150Y-104896270D01*
X153110251Y-104926140D01*
X153105285Y-104944018D01*
X153091257Y-104999632D01*
X153079308Y-105052590D01*
X153078440Y-105056860D01*
X153070229Y-105087474D01*
X153055347Y-105102520D01*
X153024284Y-105107510D01*
X152990242Y-105107973D01*
X152945279Y-105105762D01*
X152917118Y-105100124D01*
X152912296Y-105095976D01*
X152915601Y-105079602D01*
X152925684Y-105038624D01*
X152942832Y-104971949D01*
X152967330Y-104878484D01*
X152999464Y-104757135D01*
X153005072Y-104736090D01*
X153168495Y-104736090D01*
X153182337Y-104749284D01*
X153218434Y-104755620D01*
X153267866Y-104755418D01*
X153321712Y-104748999D01*
X153371055Y-104736683D01*
X153391944Y-104728067D01*
X153438413Y-104693458D01*
X153463599Y-104654441D01*
X153471113Y-104618411D01*
X153457928Y-104592707D01*
X153441147Y-104577770D01*
X153410091Y-104559355D01*
X153369652Y-104551249D01*
X153308992Y-104551334D01*
X153306497Y-104551453D01*
X153210143Y-104556146D01*
X153189473Y-104636121D01*
X153177513Y-104685849D01*
X153169898Y-104724126D01*
X153168495Y-104736090D01*
X153005072Y-104736090D01*
X153039522Y-104606809D01*
X153073700Y-104479005D01*
G37*
G36*
X154053109Y-104404194D02*
G01*
X154121408Y-104404194D01*
X154168989Y-104408070D01*
X154192834Y-104421528D01*
X154198052Y-104432185D01*
X154203259Y-104456326D01*
X154212687Y-104506515D01*
X154225350Y-104577239D01*
X154240261Y-104662985D01*
X154256069Y-104756083D01*
X154272210Y-104851186D01*
X154287049Y-104936660D01*
X154299603Y-105006992D01*
X154308887Y-105056669D01*
X154313860Y-105079981D01*
X154314465Y-105096031D01*
X154299912Y-105104494D01*
X154263579Y-105107659D01*
X154232929Y-105107973D01*
X154182219Y-105107082D01*
X154155660Y-105101837D01*
X154145417Y-105088376D01*
X154143661Y-105063986D01*
X154141999Y-105012254D01*
X154133812Y-104978766D01*
X154113372Y-104959561D01*
X154074954Y-104950674D01*
X154012827Y-104948144D01*
X153976053Y-104948023D01*
X153827953Y-104948023D01*
X153773983Y-105027585D01*
X153742342Y-105071950D01*
X153717483Y-105095781D01*
X153688965Y-105105505D01*
X153646347Y-105107546D01*
X153644036Y-105107560D01*
X153599734Y-105105991D01*
X153572354Y-105101536D01*
X153568060Y-105098391D01*
X153576940Y-105083292D01*
X153601958Y-105045675D01*
X153640682Y-104989069D01*
X153690679Y-104917002D01*
X153749516Y-104833005D01*
X153758653Y-104820063D01*
X153919743Y-104820063D01*
X154016894Y-104820063D01*
X154070464Y-104818965D01*
X154098535Y-104814318D01*
X154107564Y-104804090D01*
X154105881Y-104792072D01*
X154098782Y-104759765D01*
X154090373Y-104710825D01*
X154086992Y-104688105D01*
X154078844Y-104643988D01*
X154070112Y-104616747D01*
X154066087Y-104612462D01*
X154053110Y-104625040D01*
X154027904Y-104658065D01*
X153995402Y-104704988D01*
X153987825Y-104716429D01*
X153919743Y-104820063D01*
X153758653Y-104820063D01*
X153810585Y-104746501D01*
X154053109Y-104404194D01*
G37*
G36*
X155391773Y-103433680D02*
G01*
X155453916Y-103446043D01*
X155509245Y-103463363D01*
X155549706Y-103483063D01*
X155567246Y-103502568D01*
X155567431Y-103504557D01*
X155556853Y-103522904D01*
X155530057Y-103553764D01*
X155513586Y-103570384D01*
X155459742Y-103622571D01*
X155405620Y-103589576D01*
X155348629Y-103565528D01*
X155290359Y-103558143D01*
X155238396Y-103566120D01*
X155200327Y-103588161D01*
X155183739Y-103622965D01*
X155183552Y-103627623D01*
X155189558Y-103648533D01*
X155210921Y-103667529D01*
X155252657Y-103687595D01*
X155319783Y-103711712D01*
X155331513Y-103715589D01*
X155407081Y-103745654D01*
X155455223Y-103779328D01*
X155480492Y-103821196D01*
X155487456Y-103872716D01*
X155472900Y-103952173D01*
X155432196Y-104019890D01*
X155369788Y-104073481D01*
X155290120Y-104110555D01*
X155197636Y-104128726D01*
X155096782Y-104125605D01*
X155038823Y-104113806D01*
X154985149Y-104092268D01*
X154935939Y-104061856D01*
X154889811Y-104025075D01*
X154944710Y-103975179D01*
X154988584Y-103939351D01*
X155019162Y-103926730D01*
X155043275Y-103935654D01*
X155055497Y-103948223D01*
X155094739Y-103976474D01*
X155148471Y-103991818D01*
X155207361Y-103994561D01*
X155262078Y-103985013D01*
X155303291Y-103963481D01*
X155319777Y-103939495D01*
X155324569Y-103914810D01*
X155317562Y-103895594D01*
X155293942Y-103878211D01*
X155248896Y-103859024D01*
X155183061Y-103836210D01*
X155101136Y-103804264D01*
X155047918Y-103770623D01*
X155020206Y-103731325D01*
X155014795Y-103682405D01*
X155023110Y-103638262D01*
X155060984Y-103552071D01*
X155121538Y-103487934D01*
X155203465Y-103446742D01*
X155305457Y-103429383D01*
X155330868Y-103428853D01*
X155391773Y-103433680D01*
G37*
G36*
X156807040Y-104548149D02*
G01*
X156827778Y-104606352D01*
X156846160Y-104650706D01*
X156859156Y-104674149D01*
X156861953Y-104676109D01*
X156876866Y-104664731D01*
X156907539Y-104633975D01*
X156949099Y-104588908D01*
X156984600Y-104548626D01*
X157094950Y-104421144D01*
X157188469Y-104420667D01*
X157281989Y-104420189D01*
X157089969Y-104624271D01*
X156897949Y-104828352D01*
X156861280Y-104968162D01*
X156824611Y-105107973D01*
X156745982Y-105107973D01*
X156699491Y-105106830D01*
X156677803Y-105100912D01*
X156673748Y-105086487D01*
X156676850Y-105071984D01*
X156685678Y-105037963D01*
X156699234Y-104985100D01*
X156712757Y-104932028D01*
X156739166Y-104828061D01*
X156659002Y-104624125D01*
X156578839Y-104420189D01*
X156764426Y-104420189D01*
X156807040Y-104548149D01*
G37*
G36*
X154934274Y-103564459D02*
G01*
X154547402Y-103573411D01*
X154531283Y-103636914D01*
X154515165Y-103700416D01*
X154681411Y-103700416D01*
X154749963Y-103701490D01*
X154804754Y-103704393D01*
X154839149Y-103708645D01*
X154847568Y-103712412D01*
X154843562Y-103734364D01*
X154833749Y-103773667D01*
X154830821Y-103784389D01*
X154814164Y-103844371D01*
X154647912Y-103844371D01*
X154578354Y-103845466D01*
X154521566Y-103848425D01*
X154484593Y-103852757D01*
X154474172Y-103856489D01*
X154466551Y-103878976D01*
X154457283Y-103919045D01*
X154455453Y-103928466D01*
X154444223Y-103988325D01*
X154827218Y-103988325D01*
X154793064Y-104116285D01*
X154524454Y-104116285D01*
X154420835Y-104115369D01*
X154340109Y-104112728D01*
X154284963Y-104108519D01*
X154258086Y-104102902D01*
X154255844Y-104100454D01*
X154259847Y-104080425D01*
X154270931Y-104034993D01*
X154287704Y-103969603D01*
X154308777Y-103889699D01*
X154326291Y-103824541D01*
X154351249Y-103732341D01*
X154374644Y-103645805D01*
X154394599Y-103571882D01*
X154409240Y-103517520D01*
X154414880Y-103496480D01*
X154433021Y-103428501D01*
X154973586Y-103428501D01*
X154934274Y-103564459D01*
G37*
G36*
X151000869Y-104403584D02*
G01*
X151072846Y-104407888D01*
X151144824Y-104412192D01*
X151195059Y-104697957D01*
X151211970Y-104794458D01*
X151227615Y-104884308D01*
X151240872Y-104961015D01*
X151250618Y-105018085D01*
X151255230Y-105045847D01*
X151265164Y-105107973D01*
X151185305Y-105107973D01*
X151137186Y-105106341D01*
X151111908Y-105098697D01*
X151100379Y-105080916D01*
X151097143Y-105067985D01*
X151086849Y-105018405D01*
X151080539Y-104988010D01*
X151075344Y-104969376D01*
X151064911Y-104957671D01*
X151042867Y-104951284D01*
X151002841Y-104948607D01*
X150938460Y-104948028D01*
X150922257Y-104948023D01*
X150772277Y-104948023D01*
X150720957Y-105027998D01*
X150690987Y-105072595D01*
X150667315Y-105096480D01*
X150639356Y-105106117D01*
X150596528Y-105107967D01*
X150589997Y-105107973D01*
X150545714Y-105105659D01*
X150519290Y-105099737D01*
X150515688Y-105094985D01*
X150526020Y-105078910D01*
X150552361Y-105040350D01*
X150592204Y-104982907D01*
X150643042Y-104910181D01*
X150702366Y-104825774D01*
X150714658Y-104808361D01*
X150889318Y-104808361D01*
X150907270Y-104817630D01*
X150945844Y-104819991D01*
X150966862Y-104820063D01*
X151056239Y-104820063D01*
X151046169Y-104744087D01*
X151036061Y-104676322D01*
X151025618Y-104638502D01*
X151011517Y-104628725D01*
X150990432Y-104645085D01*
X150959038Y-104685681D01*
X150954692Y-104691712D01*
X150913478Y-104750141D01*
X150891537Y-104787445D01*
X150889318Y-104808361D01*
X150714658Y-104808361D01*
X150760944Y-104742791D01*
X151000869Y-104403584D01*
G37*
G36*
X152743788Y-100789518D02*
G01*
X152819135Y-100790447D01*
X152872613Y-100792684D01*
X152909284Y-100796790D01*
X152934207Y-100803329D01*
X152952443Y-100812863D01*
X152968775Y-100825715D01*
X152979253Y-100836415D01*
X152989402Y-100851619D01*
X152999983Y-100874101D01*
X153011760Y-100906636D01*
X153025492Y-100951999D01*
X153041944Y-101012962D01*
X153061877Y-101092302D01*
X153086052Y-101192793D01*
X153115232Y-101317209D01*
X153150178Y-101468324D01*
X153175367Y-101577909D01*
X153209052Y-101724220D01*
X153240679Y-101860725D01*
X153269512Y-101984310D01*
X153294816Y-102091859D01*
X153315853Y-102180257D01*
X153331888Y-102246390D01*
X153342184Y-102287143D01*
X153345895Y-102299521D01*
X153356468Y-102288266D01*
X153384651Y-102253804D01*
X153428687Y-102198390D01*
X153486820Y-102124277D01*
X153557294Y-102033720D01*
X153638352Y-101928975D01*
X153728238Y-101812296D01*
X153825195Y-101685937D01*
X153895957Y-101593425D01*
X153998486Y-101459729D01*
X154096653Y-101332718D01*
X154188497Y-101214860D01*
X154272058Y-101108626D01*
X154345377Y-101016485D01*
X154406492Y-100940905D01*
X154453446Y-100884355D01*
X154484276Y-100849307D01*
X154494469Y-100839430D01*
X154514689Y-100824592D01*
X154534578Y-100813636D01*
X154559253Y-100805872D01*
X154593834Y-100800610D01*
X154643440Y-100797161D01*
X154713188Y-100794834D01*
X154808198Y-100792939D01*
X154844028Y-100792325D01*
X154937580Y-100791446D01*
X155018014Y-100792056D01*
X155080587Y-100794010D01*
X155120558Y-100797161D01*
X155133236Y-100801256D01*
X155122832Y-100815816D01*
X155094388Y-100853810D01*
X155049369Y-100913319D01*
X154989243Y-100992423D01*
X154915474Y-101089200D01*
X154829528Y-101201731D01*
X154732872Y-101328095D01*
X154626971Y-101466373D01*
X154513291Y-101614643D01*
X154393299Y-101770986D01*
X154338806Y-101841935D01*
X153550043Y-102868678D01*
X152839087Y-102868678D01*
X152626860Y-101952966D01*
X152587383Y-101782657D01*
X152549293Y-101618373D01*
X152513340Y-101463348D01*
X152480274Y-101320818D01*
X152450847Y-101194017D01*
X152425809Y-101086179D01*
X152405910Y-101000540D01*
X152391901Y-100940333D01*
X152385589Y-100913294D01*
X152356546Y-100789333D01*
X152641512Y-100789333D01*
X152743788Y-100789518D01*
G37*
G36*
X156626743Y-103426898D02*
G01*
X156700896Y-103431698D01*
X156775050Y-103436499D01*
X156825918Y-103732406D01*
X156842560Y-103828865D01*
X156857884Y-103917039D01*
X156870860Y-103991042D01*
X156880455Y-104044990D01*
X156885499Y-104072299D01*
X156889064Y-104097480D01*
X156882130Y-104110564D01*
X156857597Y-104115513D01*
X156808364Y-104116285D01*
X156806640Y-104116285D01*
X156756488Y-104115435D01*
X156730434Y-104110082D01*
X156720591Y-104096022D01*
X156719068Y-104069608D01*
X156717475Y-104026390D01*
X156708918Y-103998328D01*
X156687728Y-103982158D01*
X156648239Y-103974614D01*
X156584781Y-103972433D01*
X156550178Y-103972330D01*
X156400705Y-103972330D01*
X156351184Y-104044308D01*
X156320658Y-104085932D01*
X156295296Y-104107328D01*
X156263007Y-104115206D01*
X156221512Y-104116285D01*
X156173473Y-104114216D01*
X156152868Y-104107156D01*
X156153671Y-104096291D01*
X156166021Y-104078157D01*
X156194235Y-104037740D01*
X156235646Y-103978829D01*
X156287585Y-103905215D01*
X156347384Y-103820688D01*
X156348636Y-103818922D01*
X156511133Y-103818922D01*
X156525599Y-103824110D01*
X156562898Y-103827544D01*
X156598706Y-103828376D01*
X156686278Y-103828376D01*
X156676739Y-103776392D01*
X156666449Y-103721096D01*
X156656850Y-103670449D01*
X156646499Y-103616490D01*
X156578816Y-103712979D01*
X156545991Y-103760969D01*
X156521939Y-103798408D01*
X156511292Y-103818049D01*
X156511133Y-103818922D01*
X156348636Y-103818922D01*
X156396362Y-103751598D01*
X156626743Y-103426898D01*
G37*
G36*
X150434766Y-103704577D02*
G01*
X150440540Y-103696417D01*
X150630118Y-103428501D01*
X150779245Y-103428501D01*
X150831154Y-103736405D01*
X150847764Y-103834139D01*
X150863112Y-103922978D01*
X150876213Y-103997346D01*
X150886086Y-104051667D01*
X150891748Y-104080366D01*
X150891944Y-104081200D01*
X150895081Y-104102325D01*
X150886559Y-104112664D01*
X150859326Y-104115146D01*
X150814889Y-104113190D01*
X150728955Y-104108287D01*
X150720957Y-104044308D01*
X150712960Y-103980328D01*
X150560109Y-103975787D01*
X150407259Y-103971247D01*
X150355180Y-104043766D01*
X150323402Y-104085400D01*
X150297410Y-104106992D01*
X150265217Y-104115098D01*
X150222619Y-104116285D01*
X150142138Y-104116285D01*
X150196550Y-104040309D01*
X150222763Y-104003549D01*
X150263567Y-103946133D01*
X150315087Y-103873523D01*
X150355587Y-103816379D01*
X150515688Y-103816379D01*
X150527107Y-103822864D01*
X150562159Y-103827220D01*
X150599851Y-103828376D01*
X150689345Y-103828376D01*
X150678588Y-103760397D01*
X150667018Y-103690626D01*
X150656881Y-103650535D01*
X150644566Y-103638217D01*
X150626461Y-103651762D01*
X150598954Y-103689261D01*
X150584444Y-103710638D01*
X150552265Y-103758746D01*
X150527710Y-103796476D01*
X150515860Y-103816012D01*
X150515688Y-103816379D01*
X150355587Y-103816379D01*
X150373445Y-103791183D01*
X150434766Y-103704577D01*
G37*
G36*
X150246921Y-104419831D02*
G01*
X150260068Y-104425294D01*
X150265756Y-104439789D01*
X150263946Y-104467265D01*
X150254602Y-104511668D01*
X150237688Y-104576948D01*
X150213167Y-104667053D01*
X150195486Y-104732091D01*
X150134918Y-104956020D01*
X150309654Y-104960559D01*
X150484390Y-104965097D01*
X150473262Y-105024417D01*
X150464134Y-105066240D01*
X150455876Y-105093406D01*
X150454644Y-105095854D01*
X150436912Y-105099953D01*
X150392747Y-105103458D01*
X150327704Y-105106117D01*
X150247338Y-105107673D01*
X150190468Y-105107973D01*
X150090518Y-105107417D01*
X150019055Y-105105563D01*
X149972594Y-105102133D01*
X149947649Y-105096846D01*
X149940734Y-105089422D01*
X149941082Y-105087979D01*
X149947243Y-105067090D01*
X149960272Y-105020182D01*
X149978835Y-104952158D01*
X150001595Y-104867919D01*
X150027219Y-104772368D01*
X150034765Y-104744104D01*
X150121146Y-104420222D01*
X150198393Y-104420206D01*
X150226350Y-104419450D01*
X150246921Y-104419831D01*
G37*
G36*
X149654411Y-98553208D02*
G01*
X149913725Y-98553734D01*
X150141509Y-98554528D01*
X150337700Y-98555590D01*
X150502235Y-98556920D01*
X150635054Y-98558517D01*
X150736093Y-98560381D01*
X150805290Y-98562511D01*
X150842583Y-98564908D01*
X150848203Y-98565841D01*
X150933562Y-98603018D01*
X150995292Y-98661433D01*
X151032296Y-98739614D01*
X151043559Y-98827727D01*
X151039033Y-98870804D01*
X151026305Y-98939291D01*
X151006696Y-99028370D01*
X150981526Y-99133220D01*
X150952116Y-99249020D01*
X150919786Y-99370951D01*
X150885857Y-99494193D01*
X150851650Y-99613925D01*
X150818485Y-99725327D01*
X150787682Y-99823578D01*
X150760562Y-99903860D01*
X150738446Y-99961350D01*
X150726167Y-99986243D01*
X150663600Y-100064231D01*
X150581298Y-100134169D01*
X150490720Y-100187200D01*
X150442141Y-100205767D01*
X150389566Y-100217577D01*
X150327917Y-100225491D01*
X150264463Y-100229426D01*
X150206474Y-100229302D01*
X150161220Y-100225033D01*
X150135970Y-100216539D01*
X150133484Y-100209278D01*
X150139436Y-100189190D01*
X150152496Y-100142206D01*
X150171574Y-100072350D01*
X150195576Y-99983646D01*
X150223412Y-99880118D01*
X150253989Y-99765791D01*
X150263568Y-99729859D01*
X150301309Y-99585549D01*
X150331905Y-99462998D01*
X150354919Y-99364137D01*
X150369914Y-99290897D01*
X150376455Y-99245211D01*
X150376125Y-99231771D01*
X150357539Y-99193336D01*
X150326528Y-99155448D01*
X150326439Y-99155365D01*
X150286516Y-99117859D01*
X146088079Y-99117859D01*
X146020800Y-99162383D01*
X145959269Y-99217541D01*
X145922089Y-99274347D01*
X145915257Y-99295477D01*
X145900721Y-99345514D01*
X145879020Y-99422455D01*
X145850694Y-99524296D01*
X145816281Y-99649035D01*
X145776321Y-99794670D01*
X145731353Y-99959196D01*
X145681916Y-100140611D01*
X145628550Y-100336912D01*
X145571792Y-100546096D01*
X145512183Y-100766161D01*
X145450262Y-100995102D01*
X145386567Y-101230918D01*
X145321638Y-101471605D01*
X145256015Y-101715160D01*
X145190235Y-101959581D01*
X145124839Y-102202864D01*
X145060365Y-102443007D01*
X144997352Y-102678006D01*
X144936341Y-102905858D01*
X144877869Y-103124561D01*
X144822477Y-103332112D01*
X144770702Y-103526507D01*
X144723085Y-103705744D01*
X144680164Y-103867820D01*
X144642479Y-104010732D01*
X144610568Y-104132476D01*
X144584971Y-104231050D01*
X144566228Y-104304452D01*
X144554876Y-104350677D01*
X144551627Y-104365730D01*
X144555407Y-104427383D01*
X144582438Y-104484171D01*
X144626654Y-104524571D01*
X144638118Y-104530128D01*
X144653821Y-104532976D01*
X144687115Y-104535510D01*
X144739137Y-104537736D01*
X144811020Y-104539664D01*
X144903901Y-104541299D01*
X145018915Y-104542651D01*
X145157195Y-104543726D01*
X145319877Y-104544532D01*
X145508097Y-104545077D01*
X145722988Y-104545369D01*
X145965687Y-104545414D01*
X146237328Y-104545221D01*
X146539045Y-104544797D01*
X146763574Y-104544377D01*
X148844290Y-104540151D01*
X148910336Y-104494380D01*
X148964049Y-104445607D01*
X149004314Y-104387817D01*
X149006924Y-104382415D01*
X149018929Y-104349848D01*
X149037559Y-104290986D01*
X149061456Y-104210510D01*
X149089262Y-104113103D01*
X149119620Y-104003447D01*
X149151171Y-103886224D01*
X149154843Y-103872362D01*
X149272220Y-103428501D01*
X149384887Y-103428501D01*
X149451073Y-103430781D01*
X149512511Y-103436728D01*
X149552393Y-103444229D01*
X149625615Y-103480832D01*
X149684703Y-103540455D01*
X149725024Y-103615575D01*
X149741947Y-103698666D01*
X149739188Y-103747729D01*
X149730609Y-103789688D01*
X149714820Y-103855901D01*
X149693127Y-103941643D01*
X149666832Y-104042188D01*
X149637243Y-104152808D01*
X149605662Y-104268779D01*
X149573394Y-104385373D01*
X149541745Y-104497865D01*
X149512019Y-104601527D01*
X149485521Y-104691635D01*
X149463554Y-104763462D01*
X149447425Y-104812282D01*
X149440429Y-104829983D01*
X149393027Y-104901172D01*
X149323212Y-104971807D01*
X149239676Y-105033856D01*
X149188901Y-105062478D01*
X149113463Y-105099975D01*
X146618249Y-105103400D01*
X146280090Y-105103828D01*
X145972509Y-105104131D01*
X145694098Y-105104301D01*
X145443445Y-105104326D01*
X145219140Y-105104197D01*
X145019773Y-105103903D01*
X144843934Y-105103434D01*
X144690212Y-105102779D01*
X144557196Y-105101929D01*
X144443477Y-105100873D01*
X144347644Y-105099600D01*
X144268286Y-105098101D01*
X144203993Y-105096366D01*
X144153355Y-105094383D01*
X144114962Y-105092143D01*
X144087402Y-105089635D01*
X144069267Y-105086850D01*
X144061538Y-105084770D01*
X143980002Y-105040102D01*
X143921150Y-104975057D01*
X143887401Y-104894010D01*
X143881176Y-104801337D01*
X143885905Y-104767189D01*
X143892606Y-104738339D01*
X143907075Y-104680864D01*
X143928812Y-104596624D01*
X143957316Y-104487479D01*
X143992087Y-104355290D01*
X144032624Y-104201918D01*
X144078427Y-104029221D01*
X144128994Y-103839060D01*
X144183827Y-103633296D01*
X144242424Y-103413789D01*
X144304284Y-103182399D01*
X144368908Y-102940987D01*
X144435794Y-102691411D01*
X144504442Y-102435534D01*
X144574352Y-102175215D01*
X144645022Y-101912313D01*
X144715954Y-101648691D01*
X144786645Y-101386207D01*
X144856595Y-101126721D01*
X144925305Y-100872095D01*
X144992273Y-100624189D01*
X145056999Y-100384862D01*
X145118982Y-100155974D01*
X145177722Y-99939387D01*
X145232719Y-99736960D01*
X145283471Y-99550554D01*
X145329478Y-99382028D01*
X145370241Y-99233244D01*
X145405257Y-99106060D01*
X145434028Y-99002338D01*
X145456051Y-98923938D01*
X145470827Y-98872720D01*
X145477856Y-98850544D01*
X145477865Y-98850523D01*
X145519962Y-98780165D01*
X145583287Y-98708350D01*
X145658770Y-98643888D01*
X145737342Y-98595592D01*
X145743049Y-98592893D01*
X145818501Y-98558035D01*
X148303094Y-98553790D01*
X148687907Y-98553241D01*
X149041440Y-98552961D01*
X149363628Y-98552950D01*
X149654411Y-98553208D01*
G37*
G36*
X161035282Y-100792971D02*
G01*
X161316688Y-100797330D01*
X161544646Y-101491342D01*
X161591454Y-101633587D01*
X161635285Y-101766280D01*
X161675119Y-101886374D01*
X161709938Y-101990820D01*
X161738725Y-102076573D01*
X161760459Y-102140585D01*
X161774124Y-102179808D01*
X161778624Y-102191374D01*
X161789933Y-102180776D01*
X161820381Y-102148139D01*
X161868106Y-102095556D01*
X161931245Y-102025119D01*
X162007936Y-101938919D01*
X162096317Y-101839050D01*
X162194525Y-101727603D01*
X162300700Y-101606671D01*
X162398865Y-101494500D01*
X163013086Y-100791605D01*
X163298074Y-100790469D01*
X163399783Y-100790235D01*
X163473702Y-100790753D01*
X163524030Y-100792458D01*
X163554964Y-100795780D01*
X163570704Y-100801154D01*
X163575447Y-100809011D01*
X163573686Y-100818876D01*
X163568019Y-100839100D01*
X163554807Y-100887564D01*
X163534767Y-100961602D01*
X163508617Y-101058550D01*
X163477074Y-101175742D01*
X163440854Y-101310513D01*
X163400675Y-101460198D01*
X163357253Y-101622131D01*
X163311307Y-101793649D01*
X163295004Y-101854550D01*
X163025698Y-102860680D01*
X162743840Y-102865047D01*
X162639232Y-102866213D01*
X162563047Y-102865858D01*
X162511744Y-102863775D01*
X162481783Y-102859758D01*
X162469623Y-102853600D01*
X162469300Y-102849052D01*
X162476031Y-102826437D01*
X162489435Y-102778274D01*
X162508306Y-102709099D01*
X162531437Y-102623453D01*
X162557623Y-102525872D01*
X162585659Y-102420895D01*
X162614337Y-102313060D01*
X162642453Y-102206905D01*
X162668800Y-102106969D01*
X162692174Y-102017789D01*
X162711366Y-101943904D01*
X162725173Y-101889852D01*
X162732388Y-101860171D01*
X162733164Y-101856012D01*
X162723021Y-101864859D01*
X162694023Y-101895440D01*
X162648318Y-101945361D01*
X162588057Y-102012229D01*
X162515389Y-102093652D01*
X162432463Y-102187235D01*
X162341430Y-102290586D01*
X162283816Y-102356285D01*
X161834459Y-102869538D01*
X161381599Y-102860680D01*
X161213652Y-102362121D01*
X161173038Y-102242082D01*
X161135413Y-102131889D01*
X161102044Y-102035170D01*
X161074196Y-101955555D01*
X161053136Y-101896673D01*
X161040129Y-101862154D01*
X161036599Y-101854505D01*
X161030458Y-101867147D01*
X161017225Y-101907201D01*
X160997925Y-101971137D01*
X160973585Y-102055424D01*
X160945230Y-102156532D01*
X160913886Y-102270929D01*
X160891773Y-102353064D01*
X160756054Y-102860680D01*
X160195404Y-102869394D01*
X160432042Y-101985314D01*
X160477034Y-101817276D01*
X160520745Y-101654116D01*
X160562257Y-101499252D01*
X160600655Y-101356104D01*
X160635019Y-101228088D01*
X160664433Y-101118622D01*
X160687980Y-101031124D01*
X160704742Y-100969013D01*
X160711278Y-100944923D01*
X160753876Y-100788611D01*
X161035282Y-100792971D01*
G37*
G36*
X151428685Y-104805245D02*
G01*
X151453959Y-104710325D01*
X151461990Y-104680107D01*
X151616764Y-104680107D01*
X151630894Y-104688963D01*
X151667268Y-104692880D01*
X151716608Y-104692365D01*
X151769637Y-104687924D01*
X151817074Y-104680065D01*
X151849642Y-104669294D01*
X151853040Y-104667204D01*
X151879210Y-104636090D01*
X151887793Y-104599123D01*
X151877677Y-104568181D01*
X151863289Y-104557858D01*
X151834058Y-104552548D01*
X151785149Y-104549021D01*
X151744078Y-104548149D01*
X151650169Y-104548149D01*
X151633511Y-104608130D01*
X151622751Y-104649641D01*
X151617039Y-104677067D01*
X151616764Y-104680107D01*
X151461990Y-104680107D01*
X151476897Y-104624018D01*
X151494566Y-104557344D01*
X151494883Y-104556146D01*
X151528703Y-104428187D01*
X151742713Y-104423709D01*
X151842509Y-104422779D01*
X151915761Y-104425710D01*
X151967819Y-104433874D01*
X152004033Y-104448645D01*
X152029750Y-104471395D01*
X152049801Y-104502523D01*
X152059021Y-104550406D01*
X152046386Y-104607628D01*
X152015390Y-104664014D01*
X151982066Y-104699745D01*
X151932165Y-104741733D01*
X151974357Y-104785772D01*
X152004924Y-104825493D01*
X152014376Y-104864816D01*
X152003289Y-104913355D01*
X151984558Y-104956023D01*
X151933793Y-105024824D01*
X151884589Y-105060721D01*
X151854945Y-105076060D01*
X151824600Y-105087002D01*
X151787134Y-105094493D01*
X151736127Y-105099479D01*
X151665160Y-105102907D01*
X151581781Y-105105369D01*
X151346951Y-105111406D01*
X151386311Y-104964018D01*
X151541138Y-104964018D01*
X151669618Y-104964018D01*
X151742482Y-104962071D01*
X151790433Y-104955461D01*
X151820357Y-104943031D01*
X151827349Y-104937546D01*
X151850263Y-104906805D01*
X151856599Y-104884763D01*
X151849403Y-104854100D01*
X151824775Y-104834326D01*
X151778153Y-104823602D01*
X151704975Y-104820089D01*
X151696146Y-104820063D01*
X151574080Y-104820063D01*
X151557609Y-104892041D01*
X151541138Y-104964018D01*
X151386311Y-104964018D01*
X151404007Y-104897756D01*
X151428685Y-104805245D01*
G37*
G36*
X151079869Y-103646047D02*
G01*
X151099893Y-103571670D01*
X151114622Y-103516786D01*
X151120365Y-103495258D01*
X151138717Y-103426058D01*
X151352595Y-103431279D01*
X151441767Y-103433997D01*
X151505161Y-103437690D01*
X151548989Y-103443289D01*
X151579461Y-103451727D01*
X151602789Y-103463934D01*
X151611568Y-103470123D01*
X151647162Y-103505061D01*
X151670568Y-103542783D01*
X151670894Y-103543674D01*
X151678875Y-103610536D01*
X151661537Y-103683652D01*
X151622408Y-103755449D01*
X151565013Y-103818351D01*
X151531191Y-103843696D01*
X151500672Y-103864652D01*
X151484038Y-103883530D01*
X151481109Y-103907536D01*
X151491710Y-103943876D01*
X151515663Y-103999756D01*
X151526739Y-104024314D01*
X151568287Y-104116285D01*
X151382397Y-104116285D01*
X151341388Y-104016316D01*
X151300380Y-103916348D01*
X151161459Y-103916348D01*
X151138364Y-104016316D01*
X151115269Y-104116285D01*
X151038075Y-104116285D01*
X150993372Y-104113502D01*
X150965505Y-104106412D01*
X150960881Y-104101325D01*
X150964876Y-104081601D01*
X150975938Y-104036437D01*
X150992681Y-103971245D01*
X151013723Y-103891437D01*
X151031447Y-103825412D01*
X151047932Y-103764396D01*
X151204155Y-103764396D01*
X151315675Y-103764396D01*
X151376529Y-103763155D01*
X151415861Y-103757377D01*
X151444107Y-103743980D01*
X151471702Y-103719880D01*
X151473951Y-103717641D01*
X151512028Y-103668493D01*
X151519891Y-103628491D01*
X151498235Y-103598547D01*
X151447759Y-103579574D01*
X151369158Y-103572484D01*
X151363009Y-103572456D01*
X151255582Y-103572456D01*
X151229869Y-103668426D01*
X151204155Y-103764396D01*
X151047932Y-103764396D01*
X151056428Y-103732950D01*
X151079869Y-103646047D01*
G37*
G36*
X153168353Y-103635612D02*
G01*
X152973483Y-103842722D01*
X152937317Y-103975505D01*
X152901151Y-104108287D01*
X152821037Y-104113042D01*
X152740922Y-104117797D01*
X152812794Y-103848651D01*
X152744779Y-103674565D01*
X152708614Y-103582543D01*
X152683257Y-103516477D01*
X152668723Y-103472207D01*
X152665030Y-103445573D01*
X152672191Y-103432418D01*
X152690223Y-103428580D01*
X152719142Y-103429903D01*
X152745692Y-103431662D01*
X152837723Y-103436499D01*
X152878994Y-103559340D01*
X152899298Y-103617628D01*
X152916601Y-103663430D01*
X152927882Y-103688858D01*
X152929524Y-103691228D01*
X152943041Y-103683610D01*
X152972736Y-103656080D01*
X153014077Y-103613111D01*
X153057484Y-103564949D01*
X153176184Y-103429624D01*
X153269703Y-103429063D01*
X153363223Y-103428501D01*
X153168353Y-103635612D01*
G37*
G36*
X158686399Y-103430761D02*
G01*
X158713999Y-103436514D01*
X158718438Y-103440549D01*
X158714317Y-103460855D01*
X158703459Y-103503117D01*
X158688122Y-103558590D01*
X158686448Y-103564459D01*
X158670791Y-103620762D01*
X158659389Y-103664720D01*
X158654502Y-103687586D01*
X158654458Y-103688369D01*
X158669259Y-103693684D01*
X158708892Y-103697801D01*
X158766206Y-103700119D01*
X158797796Y-103700416D01*
X158941135Y-103700416D01*
X158956896Y-103640435D01*
X158970874Y-103586216D01*
X158986706Y-103523405D01*
X158991401Y-103504478D01*
X159010145Y-103428501D01*
X159088221Y-103428501D01*
X159133228Y-103430266D01*
X159161442Y-103434768D01*
X159166297Y-103438088D01*
X159162304Y-103455689D01*
X159151131Y-103499548D01*
X159133989Y-103565054D01*
X159112089Y-103647596D01*
X159086642Y-103742561D01*
X159076015Y-103781979D01*
X158985732Y-104116285D01*
X158907763Y-104116285D01*
X158870656Y-104116169D01*
X158847856Y-104112144D01*
X158838148Y-104098696D01*
X158840321Y-104070310D01*
X158853159Y-104021473D01*
X158872575Y-103956335D01*
X158887419Y-103904498D01*
X158891331Y-103871780D01*
X158879610Y-103853786D01*
X158847558Y-103846119D01*
X158790474Y-103844386D01*
X158752851Y-103844371D01*
X158611319Y-103844371D01*
X158539487Y-104116285D01*
X158459304Y-104116285D01*
X158409115Y-104113634D01*
X158387102Y-104105058D01*
X158386126Y-104096291D01*
X158392186Y-104075399D01*
X158405106Y-104028486D01*
X158423557Y-103960453D01*
X158446212Y-103876204D01*
X158471743Y-103780641D01*
X158479260Y-103752399D01*
X158565390Y-103428501D01*
X158641914Y-103428501D01*
X158686399Y-103430761D01*
G37*
G36*
X152490890Y-103431548D02*
G01*
X152572087Y-103436499D01*
X152392431Y-104108287D01*
X152316455Y-104113163D01*
X152272289Y-104113580D01*
X152244994Y-104109180D01*
X152240689Y-104105165D01*
X152244652Y-104085715D01*
X152255359Y-104041477D01*
X152271283Y-103978564D01*
X152290898Y-103903089D01*
X152295834Y-103884358D01*
X152350769Y-103676423D01*
X152215055Y-103818984D01*
X152160794Y-103873827D01*
X152115112Y-103915885D01*
X152082250Y-103941510D01*
X152066448Y-103947051D01*
X152066345Y-103946944D01*
X152052718Y-103923767D01*
X152034377Y-103883487D01*
X152028247Y-103868363D01*
X152004355Y-103808976D01*
X151978848Y-103747654D01*
X151975757Y-103740403D01*
X151948371Y-103676423D01*
X151832607Y-104108287D01*
X151756631Y-104113163D01*
X151712408Y-104113794D01*
X151685015Y-104109936D01*
X151680655Y-104106308D01*
X151684596Y-104087751D01*
X151695530Y-104043510D01*
X151712126Y-103978786D01*
X151733053Y-103898783D01*
X151753552Y-103821521D01*
X151778486Y-103728058D01*
X151801638Y-103641149D01*
X151821287Y-103567263D01*
X151835712Y-103512873D01*
X151842141Y-103488483D01*
X151852575Y-103453814D01*
X151866660Y-103436006D01*
X151893863Y-103429441D01*
X151943227Y-103428501D01*
X152028621Y-103428501D01*
X152081635Y-103575524D01*
X152134649Y-103722546D01*
X152409693Y-103426596D01*
X152490890Y-103431548D01*
G37*
G36*
X146800901Y-102200613D02*
G01*
X146844211Y-102038561D01*
X146890111Y-101866834D01*
X146907679Y-101801104D01*
X147178073Y-100789513D01*
X148142283Y-100789423D01*
X148349533Y-100789523D01*
X148527067Y-100789899D01*
X148677156Y-100790598D01*
X148802074Y-100791671D01*
X148904092Y-100793166D01*
X148985485Y-100795133D01*
X149048523Y-100797620D01*
X149095480Y-100800676D01*
X149128628Y-100804351D01*
X149150240Y-100808694D01*
X149157963Y-100811355D01*
X149228919Y-100857448D01*
X149283361Y-100923790D01*
X149316755Y-101002215D01*
X149324567Y-101084557D01*
X149321725Y-101106276D01*
X149312911Y-101146621D01*
X149296950Y-101211912D01*
X149274896Y-101298315D01*
X149247797Y-101401994D01*
X149216706Y-101519116D01*
X149182673Y-101645844D01*
X149146751Y-101778345D01*
X149109988Y-101912784D01*
X149073438Y-102045326D01*
X149038151Y-102172137D01*
X149005177Y-102289382D01*
X148975569Y-102393226D01*
X148950377Y-102479835D01*
X148930652Y-102545374D01*
X148917446Y-102586008D01*
X148913232Y-102596566D01*
X148870487Y-102658723D01*
X148808210Y-102724164D01*
X148736269Y-102783565D01*
X148673602Y-102823019D01*
X148601625Y-102860680D01*
X147611947Y-102865150D01*
X147409402Y-102866029D01*
X147236528Y-102866658D01*
X147091004Y-102866981D01*
X146970513Y-102866940D01*
X146872734Y-102866480D01*
X146795348Y-102865543D01*
X146736036Y-102864073D01*
X146692480Y-102862013D01*
X146662359Y-102859307D01*
X146643355Y-102855897D01*
X146633149Y-102851728D01*
X146629421Y-102846742D01*
X146629778Y-102841157D01*
X146635112Y-102821136D01*
X146647999Y-102772864D01*
X146667729Y-102698994D01*
X146693593Y-102602180D01*
X146724883Y-102485077D01*
X146733506Y-102452809D01*
X147294304Y-102452809D01*
X147777839Y-102452809D01*
X147915129Y-102452735D01*
X148024248Y-102452347D01*
X148109013Y-102451395D01*
X148173242Y-102449628D01*
X148220754Y-102446798D01*
X148255367Y-102442654D01*
X148280900Y-102436947D01*
X148301170Y-102429425D01*
X148319995Y-102419841D01*
X148325102Y-102416992D01*
X148376475Y-102377425D01*
X148420074Y-102326179D01*
X148425729Y-102317024D01*
X148439971Y-102283749D01*
X148460260Y-102224736D01*
X148485201Y-102145114D01*
X148513402Y-102050013D01*
X148543468Y-101944563D01*
X148574006Y-101833894D01*
X148603622Y-101723133D01*
X148630921Y-101617413D01*
X148654511Y-101521860D01*
X148672998Y-101441607D01*
X148684987Y-101381781D01*
X148689088Y-101347780D01*
X148677505Y-101285419D01*
X148641322Y-101240699D01*
X148614672Y-101223809D01*
X148589850Y-101217709D01*
X148539796Y-101212879D01*
X148463091Y-101209268D01*
X148358318Y-101206824D01*
X148224058Y-101205496D01*
X148102564Y-101205202D01*
X147625392Y-101205202D01*
X147468802Y-101793017D01*
X147433347Y-101926173D01*
X147400233Y-102050650D01*
X147370427Y-102162813D01*
X147344891Y-102259027D01*
X147324591Y-102335659D01*
X147310492Y-102389074D01*
X147303557Y-102415637D01*
X147303259Y-102416820D01*
X147294304Y-102452809D01*
X146733506Y-102452809D01*
X146760888Y-102350336D01*
X146800901Y-102200613D01*
G37*
G36*
X153661938Y-103610954D02*
G01*
X153685358Y-103526322D01*
X153689248Y-103512475D01*
X153712909Y-103428501D01*
X153904915Y-103428501D01*
X154012791Y-103430797D01*
X154093959Y-103438525D01*
X154153428Y-103452948D01*
X154196208Y-103475328D01*
X154227307Y-103506926D01*
X154229761Y-103510346D01*
X154251738Y-103567627D01*
X154249613Y-103634652D01*
X154226644Y-103704587D01*
X154186090Y-103770600D01*
X154131209Y-103825859D01*
X154065261Y-103863531D01*
X154060485Y-103865273D01*
X154048301Y-103872901D01*
X154045770Y-103888204D01*
X154054187Y-103917303D01*
X154074847Y-103966317D01*
X154088073Y-103995598D01*
X154143071Y-104116285D01*
X153956739Y-104116285D01*
X153867673Y-103906721D01*
X153803048Y-103911534D01*
X153767409Y-103915407D01*
X153745747Y-103925341D01*
X153731283Y-103948840D01*
X153717238Y-103993410D01*
X153712008Y-104012318D01*
X153685593Y-104108287D01*
X153610832Y-104113163D01*
X153559617Y-104112762D01*
X153537039Y-104103299D01*
X153536070Y-104099532D01*
X153540056Y-104078867D01*
X153551068Y-104032776D01*
X153567689Y-103966688D01*
X153588503Y-103886032D01*
X153612094Y-103796238D01*
X153620591Y-103764396D01*
X153779567Y-103764396D01*
X153888854Y-103764396D01*
X153952023Y-103762529D01*
X153993465Y-103755295D01*
X154023307Y-103740246D01*
X154037727Y-103728407D01*
X154080533Y-103678789D01*
X154092926Y-103636960D01*
X154075852Y-103604380D01*
X154030258Y-103582511D01*
X153957088Y-103572812D01*
X153936770Y-103572456D01*
X153827917Y-103572456D01*
X153779567Y-103764396D01*
X153620591Y-103764396D01*
X153637044Y-103702736D01*
X153661938Y-103610954D01*
G37*
G36*
X152009939Y-100843543D02*
G01*
X151976330Y-100970887D01*
X151928631Y-101070490D01*
X151867146Y-101141901D01*
X151792177Y-101184669D01*
X151777979Y-101189096D01*
X151747928Y-101192957D01*
X151688882Y-101196406D01*
X151603836Y-101199377D01*
X151495782Y-101201801D01*
X151367714Y-101203610D01*
X151222625Y-101204737D01*
X151072600Y-101205113D01*
X150424559Y-101205202D01*
X150388764Y-101345158D01*
X150372901Y-101408453D01*
X150360654Y-101459740D01*
X150353836Y-101491319D01*
X150353021Y-101497110D01*
X150368500Y-101499555D01*
X150412812Y-101501833D01*
X150482798Y-101503892D01*
X150575301Y-101505681D01*
X150687163Y-101507147D01*
X150815227Y-101508241D01*
X150956335Y-101508910D01*
X151088841Y-101509106D01*
X151264624Y-101509232D01*
X151410945Y-101509661D01*
X151530334Y-101510470D01*
X151625317Y-101511735D01*
X151698424Y-101513534D01*
X151752181Y-101515942D01*
X151789118Y-101519036D01*
X151811762Y-101522894D01*
X151822641Y-101527591D01*
X151824609Y-101531414D01*
X151820106Y-101557302D01*
X151808314Y-101603507D01*
X151792203Y-101658641D01*
X151751644Y-101757825D01*
X151699315Y-101834454D01*
X151642941Y-101881349D01*
X151623786Y-101886681D01*
X151584894Y-101891368D01*
X151524396Y-101895483D01*
X151440427Y-101899097D01*
X151331119Y-101902282D01*
X151194605Y-101905109D01*
X151029018Y-101907650D01*
X150922463Y-101908980D01*
X150236248Y-101916978D01*
X150166793Y-102172897D01*
X150143623Y-102258914D01*
X150123719Y-102334026D01*
X150108482Y-102392855D01*
X150099310Y-102430023D01*
X150097246Y-102440309D01*
X150112669Y-102442863D01*
X150156776Y-102445431D01*
X150226259Y-102447934D01*
X150317811Y-102450293D01*
X150428125Y-102452430D01*
X150553896Y-102454266D01*
X150691816Y-102455721D01*
X150767668Y-102456304D01*
X151438182Y-102460806D01*
X151478090Y-102498312D01*
X151509799Y-102535657D01*
X151525718Y-102577574D01*
X151526598Y-102631244D01*
X151513187Y-102703848D01*
X151503494Y-102741640D01*
X151469216Y-102868678D01*
X150595244Y-102868665D01*
X150405765Y-102868632D01*
X150245579Y-102868475D01*
X150111990Y-102868098D01*
X150002299Y-102867406D01*
X149913810Y-102866302D01*
X149843827Y-102864690D01*
X149789652Y-102862475D01*
X149748588Y-102859561D01*
X149717939Y-102855852D01*
X149695007Y-102851252D01*
X149677095Y-102845665D01*
X149661507Y-102838996D01*
X149653684Y-102835197D01*
X149604474Y-102802992D01*
X149563429Y-102763061D01*
X149554426Y-102750498D01*
X149538975Y-102724517D01*
X149526854Y-102699581D01*
X149518513Y-102672831D01*
X149514400Y-102641414D01*
X149514965Y-102602471D01*
X149520655Y-102553148D01*
X149531920Y-102490587D01*
X149549208Y-102411934D01*
X149572967Y-102314332D01*
X149603647Y-102194925D01*
X149641697Y-102050857D01*
X149687564Y-101879271D01*
X149696587Y-101845610D01*
X149736813Y-101696682D01*
X149775497Y-101555603D01*
X149811678Y-101425726D01*
X149844396Y-101310402D01*
X149872690Y-101212985D01*
X149895601Y-101136828D01*
X149912167Y-101085285D01*
X149920766Y-101062889D01*
X149964405Y-100999280D01*
X150027652Y-100932809D01*
X150100574Y-100872893D01*
X150161133Y-100834992D01*
X150233111Y-100797330D01*
X152020303Y-100788300D01*
X152009939Y-100843543D01*
G37*
G36*
X156101811Y-103428724D02*
G01*
X156172962Y-103429698D01*
X156220698Y-103431880D01*
X156249309Y-103435729D01*
X156263080Y-103441702D01*
X156266300Y-103450258D01*
X156265049Y-103456493D01*
X156255006Y-103493365D01*
X156246242Y-103528470D01*
X156235751Y-103572456D01*
X156045150Y-103572456D01*
X155964529Y-103572661D01*
X155910108Y-103574045D01*
X155876095Y-103577759D01*
X155856699Y-103584956D01*
X155846131Y-103596789D01*
X155838949Y-103613485D01*
X155826008Y-103651093D01*
X155824289Y-103675915D01*
X155838251Y-103690604D01*
X155872355Y-103697814D01*
X155931060Y-103700198D01*
X155985080Y-103700416D01*
X156146809Y-103700416D01*
X156135580Y-103760275D01*
X156126430Y-103802275D01*
X156118157Y-103829652D01*
X156116861Y-103832252D01*
X156098727Y-103837273D01*
X156055653Y-103841279D01*
X155994684Y-103843779D01*
X155943120Y-103844371D01*
X155776869Y-103844371D01*
X155760211Y-103904352D01*
X155749452Y-103945863D01*
X155743739Y-103973289D01*
X155743464Y-103976329D01*
X155758395Y-103980948D01*
X155799152Y-103984742D01*
X155859577Y-103987328D01*
X155933509Y-103988324D01*
X155936393Y-103988325D01*
X156018335Y-103988165D01*
X156072918Y-103989378D01*
X156104752Y-103994500D01*
X156118447Y-104006071D01*
X156118613Y-104026627D01*
X156109859Y-104058707D01*
X156103453Y-104080296D01*
X156098718Y-104093401D01*
X156090106Y-104102862D01*
X156072965Y-104109274D01*
X156042643Y-104113228D01*
X155994486Y-104115320D01*
X155923844Y-104116141D01*
X155826064Y-104116285D01*
X155821194Y-104116285D01*
X155722021Y-104116063D01*
X155650558Y-104115096D01*
X155602525Y-104112929D01*
X155573643Y-104109108D01*
X155559634Y-104103179D01*
X155556217Y-104094687D01*
X155557437Y-104088294D01*
X155563876Y-104064801D01*
X155577103Y-104015514D01*
X155595749Y-103945572D01*
X155618444Y-103860113D01*
X155643820Y-103764277D01*
X155649073Y-103744402D01*
X155732553Y-103428501D01*
X156002959Y-103428501D01*
X156101811Y-103428724D01*
G37*
G36*
X155031408Y-104456178D02*
G01*
X155019513Y-104497921D01*
X155013257Y-104520158D01*
X155003587Y-104535436D01*
X154980555Y-104544034D01*
X154937078Y-104547656D01*
X154896811Y-104548149D01*
X154788171Y-104548149D01*
X154727368Y-104776077D01*
X154704563Y-104861488D01*
X154683580Y-104939934D01*
X154666335Y-105004263D01*
X154654744Y-105047320D01*
X154652392Y-105055989D01*
X154641884Y-105086825D01*
X154625854Y-105102177D01*
X154594524Y-105107427D01*
X154557918Y-105107973D01*
X154510674Y-105106563D01*
X154488559Y-105100489D01*
X154484766Y-105086977D01*
X154486808Y-105079016D01*
X154497047Y-105044312D01*
X154512472Y-104989079D01*
X154531394Y-104919691D01*
X154552123Y-104842521D01*
X154572967Y-104763942D01*
X154592238Y-104690327D01*
X154608246Y-104628050D01*
X154619300Y-104583483D01*
X154623711Y-104562999D01*
X154623728Y-104562663D01*
X154609132Y-104555305D01*
X154570912Y-104550083D01*
X154518683Y-104548149D01*
X154462654Y-104547380D01*
X154432163Y-104543640D01*
X154420767Y-104534784D01*
X154422024Y-104518662D01*
X154422713Y-104516159D01*
X154435244Y-104471989D01*
X154440864Y-104452179D01*
X154445587Y-104440926D01*
X154455381Y-104432674D01*
X154474663Y-104426958D01*
X154507855Y-104423315D01*
X154559374Y-104421282D01*
X154633640Y-104420395D01*
X154735072Y-104420190D01*
X154745846Y-104420189D01*
X155041753Y-104420189D01*
X155031408Y-104456178D01*
G37*
%TO.C,C3*%
X162691252Y-66790000D02*
X162168748Y-66790000D01*
X162691252Y-65320000D02*
X162168748Y-65320000D01*
%TO.C,U3*%
X102180000Y-94395000D02*
X99730000Y-94395000D01*
X100380000Y-97615000D02*
X102180000Y-97615000D01*
%TO.C,U2*%
X110295000Y-93415000D02*
X110295000Y-93015000D01*
X131295000Y-98515000D02*
X131295000Y-98115000D01*
X110295000Y-78115000D02*
X110295000Y-77715000D01*
X110295000Y-90815000D02*
X110295000Y-90415000D01*
X131295000Y-83215000D02*
X131295000Y-82815000D01*
X131295000Y-90815000D02*
X131295000Y-90415000D01*
X131295000Y-80715000D02*
X131295000Y-80315000D01*
X110295000Y-95915000D02*
X110295000Y-95515000D01*
X110295000Y-73015000D02*
X110295000Y-72615000D01*
X131295000Y-110948000D02*
X128288000Y-110948000D01*
X110295000Y-108615000D02*
X110295000Y-108215000D01*
X110295000Y-101015000D02*
X110295000Y-100615000D01*
X110295000Y-111215000D02*
X110295000Y-110815000D01*
X131295000Y-93415000D02*
X131295000Y-93015000D01*
X110295000Y-70515000D02*
X110295000Y-70115000D01*
X131295000Y-108615000D02*
X131295000Y-108215000D01*
X110295000Y-98515000D02*
X110295000Y-98115000D01*
X131295000Y-113615000D02*
X110295000Y-113615000D01*
X131295000Y-65415000D02*
X131295000Y-65015000D01*
X110295000Y-62615000D02*
X117095000Y-62615000D01*
X110295000Y-83215000D02*
X110295000Y-82815000D01*
X131295000Y-101015000D02*
X131295000Y-100615000D01*
X131295000Y-103515000D02*
X131295000Y-103115000D01*
X131295000Y-111215000D02*
X131295000Y-110815000D01*
X110295000Y-68015000D02*
X110295000Y-67615000D01*
X110295000Y-75615000D02*
X110295000Y-75215000D01*
X131295000Y-95915000D02*
X131295000Y-95515000D01*
X131295000Y-70515000D02*
X131295000Y-70115000D01*
X110295000Y-106115000D02*
X110295000Y-105715000D01*
X131295000Y-73015000D02*
X131295000Y-72615000D01*
X110295000Y-85815000D02*
X110295000Y-85415000D01*
X131295000Y-88315000D02*
X131295000Y-87915000D01*
X124495000Y-62615000D02*
X131295000Y-62615000D01*
X110295000Y-88315000D02*
X110295000Y-87915000D01*
X110295000Y-113615000D02*
X110295000Y-113315000D01*
X119695000Y-62615000D02*
X119295000Y-62615000D01*
X110295000Y-80715000D02*
X110295000Y-80315000D01*
X131295000Y-78115000D02*
X131295000Y-77715000D01*
X110295000Y-65415000D02*
X110295000Y-65015000D01*
X131295000Y-75615000D02*
X131295000Y-75215000D01*
X122295000Y-62615000D02*
X121895000Y-62615000D01*
X128288000Y-110948000D02*
X128288000Y-113615000D01*
X131295000Y-68015000D02*
X131295000Y-67615000D01*
X131295000Y-106115000D02*
X131295000Y-105715000D01*
X131295000Y-85815000D02*
X131295000Y-85415000D01*
X131295000Y-113615000D02*
X131295000Y-113315000D01*
X110295000Y-103515000D02*
X110295000Y-103115000D01*
%TO.C,R10*%
X171607579Y-67314355D02*
X170579355Y-68342579D01*
X170320645Y-66027421D02*
X169292421Y-67055645D01*
%TO.C,U1*%
X102170000Y-74115000D02*
X99720000Y-74115000D01*
X100370000Y-77335000D02*
X102170000Y-77335000D01*
%TO.C,J2*%
X88533200Y-95753000D02*
X88033200Y-96003000D01*
X88033200Y-96003000D02*
X88533200Y-96253000D01*
X88533200Y-96253000D02*
X88533200Y-95753000D01*
%TO.C,R7*%
X92726686Y-95268000D02*
X93180814Y-95268000D01*
X92726686Y-96738000D02*
X93180814Y-96738000D01*
%TO.C,R3*%
X137695000Y-64827936D02*
X137695000Y-65282064D01*
X139165000Y-64827936D02*
X139165000Y-65282064D01*
%TO.C,R5*%
X139165000Y-77782064D02*
X139165000Y-77327936D01*
X137695000Y-77782064D02*
X137695000Y-77327936D01*
%TO.C,J5*%
X179307500Y-78425000D02*
X178807500Y-78175000D01*
X178807500Y-78175000D02*
X178807500Y-78675000D01*
X178807500Y-78675000D02*
X179307500Y-78425000D01*
%TO.C,R11*%
X165827064Y-72750000D02*
X164372936Y-72750000D01*
X165827064Y-74570000D02*
X164372936Y-74570000D01*
%TO.C,J3*%
X179307500Y-63505000D02*
X178807500Y-63255000D01*
X178807500Y-63255000D02*
X178807500Y-63755000D01*
X178807500Y-63755000D02*
X179307500Y-63505000D01*
%TO.C,C2*%
X100521252Y-102750000D02*
X99998748Y-102750000D01*
X100521252Y-101280000D02*
X99998748Y-101280000D01*
%TO.C,J1*%
X88002500Y-75805000D02*
X88502500Y-76055000D01*
X88502500Y-76055000D02*
X88502500Y-75555000D01*
X88502500Y-75555000D02*
X88002500Y-75805000D01*
%TO.C,R4*%
X137695000Y-82957936D02*
X137695000Y-83412064D01*
X139165000Y-82957936D02*
X139165000Y-83412064D01*
%TO.C,R6*%
X139165000Y-70782064D02*
X139165000Y-70327936D01*
X137695000Y-70782064D02*
X137695000Y-70327936D01*
%TO.C,R12*%
X162780645Y-83682579D02*
X161752421Y-82654355D01*
X164067579Y-82395645D02*
X163039355Y-81367421D01*
%TO.C,R9*%
X167557579Y-78435645D02*
X166529355Y-77407421D01*
X166270645Y-79722579D02*
X165242421Y-78694355D01*
%TO.C,J4*%
X178857500Y-93595000D02*
X179357500Y-93345000D01*
X178857500Y-93095000D02*
X178857500Y-93595000D01*
X179357500Y-93345000D02*
X178857500Y-93095000D01*
%TO.C,R1*%
X92952936Y-76540000D02*
X93407064Y-76540000D01*
X92952936Y-75070000D02*
X93407064Y-75070000D01*
%TO.C,R2*%
X92915000Y-80102064D02*
X92915000Y-79647936D01*
X91445000Y-80102064D02*
X91445000Y-79647936D01*
%TO.C,C1*%
X101875000Y-71856252D02*
X101875000Y-71333748D01*
X103345000Y-71856252D02*
X103345000Y-71333748D01*
D13*
%TO.C,IC1*%
X156435000Y-67895000D02*
X156435000Y-80695000D01*
X149635000Y-67895000D02*
X156435000Y-67895000D01*
X156435000Y-80695000D02*
X149635000Y-80695000D01*
X147335000Y-67880000D02*
X149285000Y-67880000D01*
X149635000Y-80695000D02*
X149635000Y-67895000D01*
%TD*%
M02*
