%TF.GenerationSoftware,KiCad,Pcbnew,7.0.5*%
%TF.CreationDate,2024-04-11T19:00:16-04:00*%
%TF.ProjectId,PrawnBlaster_Connectorized,50726177-6e42-46c6-9173-7465725f436f,rev?*%
%TF.SameCoordinates,Original*%
%TF.FileFunction,Drillmap*%
%TF.FilePolarity,Positive*%
%FSLAX45Y45*%
G04 Gerber Fmt 4.5, Leading zero omitted, Abs format (unit mm)*
G04 Created by KiCad (PCBNEW 7.0.5) date 2024-04-11 19:00:16*
%MOMM*%
%LPD*%
G01*
G04 APERTURE LIST*
%ADD10C,0.100000*%
%ADD11C,0.200000*%
%ADD12C,0.109000*%
%ADD13C,0.320000*%
G04 APERTURE END LIST*
D10*
X8704200Y-5716380D02*
X18004200Y-5716380D01*
X18004200Y-11553320D01*
X8704200Y-11553320D01*
X8704200Y-5716380D01*
D11*
D10*
X10647020Y-5980540D02*
X10747020Y-6080540D01*
X10747020Y-5980540D02*
X10647020Y-6080540D01*
X10647020Y-6234540D02*
X10747020Y-6334540D01*
X10747020Y-6234540D02*
X10647020Y-6334540D01*
X10647020Y-6488540D02*
X10747020Y-6588540D01*
X10747020Y-6488540D02*
X10647020Y-6588540D01*
X10909120Y-8168340D02*
X11009120Y-8268340D01*
X11009120Y-8168340D02*
X10909120Y-8268340D01*
X10909120Y-8422340D02*
X11009120Y-8522340D01*
X11009120Y-8422340D02*
X10909120Y-8522340D01*
X10909120Y-8676340D02*
X11009120Y-8776340D01*
X11009120Y-8676340D02*
X10909120Y-8776340D01*
D12*
X9755320Y-6230940D02*
G75*
G03*
X9755320Y-6230940I-54500J0D01*
G01*
X10009320Y-6230940D02*
G75*
G03*
X10009320Y-6230940I-54500J0D01*
G01*
D13*
X9274200Y-8634120D02*
X9274200Y-8954120D01*
X9114200Y-8794120D02*
X9434200Y-8794120D01*
X9274200Y-10694120D02*
X9274200Y-11014120D01*
X9114200Y-10854120D02*
X9434200Y-10854120D01*
X15774200Y-9130220D02*
X15774200Y-9450220D01*
X15614200Y-9290220D02*
X15934200Y-9290220D01*
X15774200Y-11035220D02*
X15774200Y-11355220D01*
X15614200Y-11195220D02*
X15934200Y-11195220D01*
D11*
X8959977Y-11869804D02*
X8959977Y-11669804D01*
X8959977Y-11669804D02*
X9007596Y-11669804D01*
X9007596Y-11669804D02*
X9036167Y-11679328D01*
X9036167Y-11679328D02*
X9055215Y-11698375D01*
X9055215Y-11698375D02*
X9064739Y-11717423D01*
X9064739Y-11717423D02*
X9074263Y-11755518D01*
X9074263Y-11755518D02*
X9074263Y-11784089D01*
X9074263Y-11784089D02*
X9064739Y-11822185D01*
X9064739Y-11822185D02*
X9055215Y-11841232D01*
X9055215Y-11841232D02*
X9036167Y-11860280D01*
X9036167Y-11860280D02*
X9007596Y-11869804D01*
X9007596Y-11869804D02*
X8959977Y-11869804D01*
X9159977Y-11869804D02*
X9159977Y-11736470D01*
X9159977Y-11774566D02*
X9169501Y-11755518D01*
X9169501Y-11755518D02*
X9179024Y-11745994D01*
X9179024Y-11745994D02*
X9198072Y-11736470D01*
X9198072Y-11736470D02*
X9217120Y-11736470D01*
X9283786Y-11869804D02*
X9283786Y-11736470D01*
X9283786Y-11669804D02*
X9274263Y-11679328D01*
X9274263Y-11679328D02*
X9283786Y-11688851D01*
X9283786Y-11688851D02*
X9293310Y-11679328D01*
X9293310Y-11679328D02*
X9283786Y-11669804D01*
X9283786Y-11669804D02*
X9283786Y-11688851D01*
X9407596Y-11869804D02*
X9388548Y-11860280D01*
X9388548Y-11860280D02*
X9379024Y-11841232D01*
X9379024Y-11841232D02*
X9379024Y-11669804D01*
X9512358Y-11869804D02*
X9493310Y-11860280D01*
X9493310Y-11860280D02*
X9483786Y-11841232D01*
X9483786Y-11841232D02*
X9483786Y-11669804D01*
X9740929Y-11869804D02*
X9740929Y-11669804D01*
X9740929Y-11669804D02*
X9807596Y-11812661D01*
X9807596Y-11812661D02*
X9874263Y-11669804D01*
X9874263Y-11669804D02*
X9874263Y-11869804D01*
X10055215Y-11869804D02*
X10055215Y-11765042D01*
X10055215Y-11765042D02*
X10045691Y-11745994D01*
X10045691Y-11745994D02*
X10026644Y-11736470D01*
X10026644Y-11736470D02*
X9988548Y-11736470D01*
X9988548Y-11736470D02*
X9969501Y-11745994D01*
X10055215Y-11860280D02*
X10036167Y-11869804D01*
X10036167Y-11869804D02*
X9988548Y-11869804D01*
X9988548Y-11869804D02*
X9969501Y-11860280D01*
X9969501Y-11860280D02*
X9959977Y-11841232D01*
X9959977Y-11841232D02*
X9959977Y-11822185D01*
X9959977Y-11822185D02*
X9969501Y-11803137D01*
X9969501Y-11803137D02*
X9988548Y-11793613D01*
X9988548Y-11793613D02*
X10036167Y-11793613D01*
X10036167Y-11793613D02*
X10055215Y-11784089D01*
X10150453Y-11736470D02*
X10150453Y-11936470D01*
X10150453Y-11745994D02*
X10169501Y-11736470D01*
X10169501Y-11736470D02*
X10207596Y-11736470D01*
X10207596Y-11736470D02*
X10226644Y-11745994D01*
X10226644Y-11745994D02*
X10236167Y-11755518D01*
X10236167Y-11755518D02*
X10245691Y-11774566D01*
X10245691Y-11774566D02*
X10245691Y-11831708D01*
X10245691Y-11831708D02*
X10236167Y-11850756D01*
X10236167Y-11850756D02*
X10226644Y-11860280D01*
X10226644Y-11860280D02*
X10207596Y-11869804D01*
X10207596Y-11869804D02*
X10169501Y-11869804D01*
X10169501Y-11869804D02*
X10150453Y-11860280D01*
X10331405Y-11850756D02*
X10340929Y-11860280D01*
X10340929Y-11860280D02*
X10331405Y-11869804D01*
X10331405Y-11869804D02*
X10321882Y-11860280D01*
X10321882Y-11860280D02*
X10331405Y-11850756D01*
X10331405Y-11850756D02*
X10331405Y-11869804D01*
X10331405Y-11745994D02*
X10340929Y-11755518D01*
X10340929Y-11755518D02*
X10331405Y-11765042D01*
X10331405Y-11765042D02*
X10321882Y-11755518D01*
X10321882Y-11755518D02*
X10331405Y-11745994D01*
X10331405Y-11745994D02*
X10331405Y-11765042D01*
D10*
X8599200Y-12148320D02*
X8699200Y-12248320D01*
X8699200Y-12148320D02*
X8599200Y-12248320D01*
D11*
X9064739Y-12289804D02*
X8950453Y-12289804D01*
X9007596Y-12289804D02*
X9007596Y-12089804D01*
X9007596Y-12089804D02*
X8988548Y-12118375D01*
X8988548Y-12118375D02*
X8969501Y-12137423D01*
X8969501Y-12137423D02*
X8950453Y-12146947D01*
X9150453Y-12270756D02*
X9159977Y-12280280D01*
X9159977Y-12280280D02*
X9150453Y-12289804D01*
X9150453Y-12289804D02*
X9140929Y-12280280D01*
X9140929Y-12280280D02*
X9150453Y-12270756D01*
X9150453Y-12270756D02*
X9150453Y-12289804D01*
X9283786Y-12089804D02*
X9302834Y-12089804D01*
X9302834Y-12089804D02*
X9321882Y-12099328D01*
X9321882Y-12099328D02*
X9331405Y-12108851D01*
X9331405Y-12108851D02*
X9340929Y-12127899D01*
X9340929Y-12127899D02*
X9350453Y-12165994D01*
X9350453Y-12165994D02*
X9350453Y-12213613D01*
X9350453Y-12213613D02*
X9340929Y-12251708D01*
X9340929Y-12251708D02*
X9331405Y-12270756D01*
X9331405Y-12270756D02*
X9321882Y-12280280D01*
X9321882Y-12280280D02*
X9302834Y-12289804D01*
X9302834Y-12289804D02*
X9283786Y-12289804D01*
X9283786Y-12289804D02*
X9264739Y-12280280D01*
X9264739Y-12280280D02*
X9255215Y-12270756D01*
X9255215Y-12270756D02*
X9245691Y-12251708D01*
X9245691Y-12251708D02*
X9236167Y-12213613D01*
X9236167Y-12213613D02*
X9236167Y-12165994D01*
X9236167Y-12165994D02*
X9245691Y-12127899D01*
X9245691Y-12127899D02*
X9255215Y-12108851D01*
X9255215Y-12108851D02*
X9264739Y-12099328D01*
X9264739Y-12099328D02*
X9283786Y-12089804D01*
X9474263Y-12089804D02*
X9493310Y-12089804D01*
X9493310Y-12089804D02*
X9512358Y-12099328D01*
X9512358Y-12099328D02*
X9521882Y-12108851D01*
X9521882Y-12108851D02*
X9531405Y-12127899D01*
X9531405Y-12127899D02*
X9540929Y-12165994D01*
X9540929Y-12165994D02*
X9540929Y-12213613D01*
X9540929Y-12213613D02*
X9531405Y-12251708D01*
X9531405Y-12251708D02*
X9521882Y-12270756D01*
X9521882Y-12270756D02*
X9512358Y-12280280D01*
X9512358Y-12280280D02*
X9493310Y-12289804D01*
X9493310Y-12289804D02*
X9474263Y-12289804D01*
X9474263Y-12289804D02*
X9455215Y-12280280D01*
X9455215Y-12280280D02*
X9445691Y-12270756D01*
X9445691Y-12270756D02*
X9436167Y-12251708D01*
X9436167Y-12251708D02*
X9426644Y-12213613D01*
X9426644Y-12213613D02*
X9426644Y-12165994D01*
X9426644Y-12165994D02*
X9436167Y-12127899D01*
X9436167Y-12127899D02*
X9445691Y-12108851D01*
X9445691Y-12108851D02*
X9455215Y-12099328D01*
X9455215Y-12099328D02*
X9474263Y-12089804D01*
X9664739Y-12089804D02*
X9683786Y-12089804D01*
X9683786Y-12089804D02*
X9702834Y-12099328D01*
X9702834Y-12099328D02*
X9712358Y-12108851D01*
X9712358Y-12108851D02*
X9721882Y-12127899D01*
X9721882Y-12127899D02*
X9731405Y-12165994D01*
X9731405Y-12165994D02*
X9731405Y-12213613D01*
X9731405Y-12213613D02*
X9721882Y-12251708D01*
X9721882Y-12251708D02*
X9712358Y-12270756D01*
X9712358Y-12270756D02*
X9702834Y-12280280D01*
X9702834Y-12280280D02*
X9683786Y-12289804D01*
X9683786Y-12289804D02*
X9664739Y-12289804D01*
X9664739Y-12289804D02*
X9645691Y-12280280D01*
X9645691Y-12280280D02*
X9636167Y-12270756D01*
X9636167Y-12270756D02*
X9626644Y-12251708D01*
X9626644Y-12251708D02*
X9617120Y-12213613D01*
X9617120Y-12213613D02*
X9617120Y-12165994D01*
X9617120Y-12165994D02*
X9626644Y-12127899D01*
X9626644Y-12127899D02*
X9636167Y-12108851D01*
X9636167Y-12108851D02*
X9645691Y-12099328D01*
X9645691Y-12099328D02*
X9664739Y-12089804D01*
X9817120Y-12289804D02*
X9817120Y-12156470D01*
X9817120Y-12175518D02*
X9826644Y-12165994D01*
X9826644Y-12165994D02*
X9845691Y-12156470D01*
X9845691Y-12156470D02*
X9874263Y-12156470D01*
X9874263Y-12156470D02*
X9893310Y-12165994D01*
X9893310Y-12165994D02*
X9902834Y-12185042D01*
X9902834Y-12185042D02*
X9902834Y-12289804D01*
X9902834Y-12185042D02*
X9912358Y-12165994D01*
X9912358Y-12165994D02*
X9931405Y-12156470D01*
X9931405Y-12156470D02*
X9959977Y-12156470D01*
X9959977Y-12156470D02*
X9979025Y-12165994D01*
X9979025Y-12165994D02*
X9988548Y-12185042D01*
X9988548Y-12185042D02*
X9988548Y-12289804D01*
X10083786Y-12289804D02*
X10083786Y-12156470D01*
X10083786Y-12175518D02*
X10093310Y-12165994D01*
X10093310Y-12165994D02*
X10112358Y-12156470D01*
X10112358Y-12156470D02*
X10140929Y-12156470D01*
X10140929Y-12156470D02*
X10159977Y-12165994D01*
X10159977Y-12165994D02*
X10169501Y-12185042D01*
X10169501Y-12185042D02*
X10169501Y-12289804D01*
X10169501Y-12185042D02*
X10179025Y-12165994D01*
X10179025Y-12165994D02*
X10198072Y-12156470D01*
X10198072Y-12156470D02*
X10226644Y-12156470D01*
X10226644Y-12156470D02*
X10245691Y-12165994D01*
X10245691Y-12165994D02*
X10255215Y-12185042D01*
X10255215Y-12185042D02*
X10255215Y-12289804D01*
X10645691Y-12080280D02*
X10474263Y-12337423D01*
X10902834Y-12089804D02*
X10921882Y-12089804D01*
X10921882Y-12089804D02*
X10940929Y-12099328D01*
X10940929Y-12099328D02*
X10950453Y-12108851D01*
X10950453Y-12108851D02*
X10959977Y-12127899D01*
X10959977Y-12127899D02*
X10969501Y-12165994D01*
X10969501Y-12165994D02*
X10969501Y-12213613D01*
X10969501Y-12213613D02*
X10959977Y-12251708D01*
X10959977Y-12251708D02*
X10950453Y-12270756D01*
X10950453Y-12270756D02*
X10940929Y-12280280D01*
X10940929Y-12280280D02*
X10921882Y-12289804D01*
X10921882Y-12289804D02*
X10902834Y-12289804D01*
X10902834Y-12289804D02*
X10883787Y-12280280D01*
X10883787Y-12280280D02*
X10874263Y-12270756D01*
X10874263Y-12270756D02*
X10864739Y-12251708D01*
X10864739Y-12251708D02*
X10855215Y-12213613D01*
X10855215Y-12213613D02*
X10855215Y-12165994D01*
X10855215Y-12165994D02*
X10864739Y-12127899D01*
X10864739Y-12127899D02*
X10874263Y-12108851D01*
X10874263Y-12108851D02*
X10883787Y-12099328D01*
X10883787Y-12099328D02*
X10902834Y-12089804D01*
X11055215Y-12270756D02*
X11064739Y-12280280D01*
X11064739Y-12280280D02*
X11055215Y-12289804D01*
X11055215Y-12289804D02*
X11045691Y-12280280D01*
X11045691Y-12280280D02*
X11055215Y-12270756D01*
X11055215Y-12270756D02*
X11055215Y-12289804D01*
X11188548Y-12089804D02*
X11207596Y-12089804D01*
X11207596Y-12089804D02*
X11226644Y-12099328D01*
X11226644Y-12099328D02*
X11236167Y-12108851D01*
X11236167Y-12108851D02*
X11245691Y-12127899D01*
X11245691Y-12127899D02*
X11255215Y-12165994D01*
X11255215Y-12165994D02*
X11255215Y-12213613D01*
X11255215Y-12213613D02*
X11245691Y-12251708D01*
X11245691Y-12251708D02*
X11236167Y-12270756D01*
X11236167Y-12270756D02*
X11226644Y-12280280D01*
X11226644Y-12280280D02*
X11207596Y-12289804D01*
X11207596Y-12289804D02*
X11188548Y-12289804D01*
X11188548Y-12289804D02*
X11169501Y-12280280D01*
X11169501Y-12280280D02*
X11159977Y-12270756D01*
X11159977Y-12270756D02*
X11150453Y-12251708D01*
X11150453Y-12251708D02*
X11140929Y-12213613D01*
X11140929Y-12213613D02*
X11140929Y-12165994D01*
X11140929Y-12165994D02*
X11150453Y-12127899D01*
X11150453Y-12127899D02*
X11159977Y-12108851D01*
X11159977Y-12108851D02*
X11169501Y-12099328D01*
X11169501Y-12099328D02*
X11188548Y-12089804D01*
X11321882Y-12089804D02*
X11445691Y-12089804D01*
X11445691Y-12089804D02*
X11379025Y-12165994D01*
X11379025Y-12165994D02*
X11407596Y-12165994D01*
X11407596Y-12165994D02*
X11426644Y-12175518D01*
X11426644Y-12175518D02*
X11436167Y-12185042D01*
X11436167Y-12185042D02*
X11445691Y-12204089D01*
X11445691Y-12204089D02*
X11445691Y-12251708D01*
X11445691Y-12251708D02*
X11436167Y-12270756D01*
X11436167Y-12270756D02*
X11426644Y-12280280D01*
X11426644Y-12280280D02*
X11407596Y-12289804D01*
X11407596Y-12289804D02*
X11350453Y-12289804D01*
X11350453Y-12289804D02*
X11331406Y-12280280D01*
X11331406Y-12280280D02*
X11321882Y-12270756D01*
X11540929Y-12289804D02*
X11579025Y-12289804D01*
X11579025Y-12289804D02*
X11598072Y-12280280D01*
X11598072Y-12280280D02*
X11607596Y-12270756D01*
X11607596Y-12270756D02*
X11626644Y-12242185D01*
X11626644Y-12242185D02*
X11636167Y-12204089D01*
X11636167Y-12204089D02*
X11636167Y-12127899D01*
X11636167Y-12127899D02*
X11626644Y-12108851D01*
X11626644Y-12108851D02*
X11617120Y-12099328D01*
X11617120Y-12099328D02*
X11598072Y-12089804D01*
X11598072Y-12089804D02*
X11559977Y-12089804D01*
X11559977Y-12089804D02*
X11540929Y-12099328D01*
X11540929Y-12099328D02*
X11531406Y-12108851D01*
X11531406Y-12108851D02*
X11521882Y-12127899D01*
X11521882Y-12127899D02*
X11521882Y-12175518D01*
X11521882Y-12175518D02*
X11531406Y-12194566D01*
X11531406Y-12194566D02*
X11540929Y-12204089D01*
X11540929Y-12204089D02*
X11559977Y-12213613D01*
X11559977Y-12213613D02*
X11598072Y-12213613D01*
X11598072Y-12213613D02*
X11617120Y-12204089D01*
X11617120Y-12204089D02*
X11626644Y-12194566D01*
X11626644Y-12194566D02*
X11636167Y-12175518D01*
X11807596Y-12156470D02*
X11807596Y-12289804D01*
X11759977Y-12080280D02*
X11712358Y-12223137D01*
X11712358Y-12223137D02*
X11836167Y-12223137D01*
X11902834Y-12089804D02*
X11902834Y-12127899D01*
X11979025Y-12089804D02*
X11979025Y-12127899D01*
X12274263Y-12365994D02*
X12264739Y-12356470D01*
X12264739Y-12356470D02*
X12245691Y-12327899D01*
X12245691Y-12327899D02*
X12236168Y-12308851D01*
X12236168Y-12308851D02*
X12226644Y-12280280D01*
X12226644Y-12280280D02*
X12217120Y-12232661D01*
X12217120Y-12232661D02*
X12217120Y-12194566D01*
X12217120Y-12194566D02*
X12226644Y-12146947D01*
X12226644Y-12146947D02*
X12236168Y-12118375D01*
X12236168Y-12118375D02*
X12245691Y-12099328D01*
X12245691Y-12099328D02*
X12264739Y-12070756D01*
X12264739Y-12070756D02*
X12274263Y-12061232D01*
X12436168Y-12089804D02*
X12398072Y-12089804D01*
X12398072Y-12089804D02*
X12379025Y-12099328D01*
X12379025Y-12099328D02*
X12369501Y-12108851D01*
X12369501Y-12108851D02*
X12350453Y-12137423D01*
X12350453Y-12137423D02*
X12340929Y-12175518D01*
X12340929Y-12175518D02*
X12340929Y-12251708D01*
X12340929Y-12251708D02*
X12350453Y-12270756D01*
X12350453Y-12270756D02*
X12359977Y-12280280D01*
X12359977Y-12280280D02*
X12379025Y-12289804D01*
X12379025Y-12289804D02*
X12417120Y-12289804D01*
X12417120Y-12289804D02*
X12436168Y-12280280D01*
X12436168Y-12280280D02*
X12445691Y-12270756D01*
X12445691Y-12270756D02*
X12455215Y-12251708D01*
X12455215Y-12251708D02*
X12455215Y-12204089D01*
X12455215Y-12204089D02*
X12445691Y-12185042D01*
X12445691Y-12185042D02*
X12436168Y-12175518D01*
X12436168Y-12175518D02*
X12417120Y-12165994D01*
X12417120Y-12165994D02*
X12379025Y-12165994D01*
X12379025Y-12165994D02*
X12359977Y-12175518D01*
X12359977Y-12175518D02*
X12350453Y-12185042D01*
X12350453Y-12185042D02*
X12340929Y-12204089D01*
X12693310Y-12289804D02*
X12693310Y-12089804D01*
X12779025Y-12289804D02*
X12779025Y-12185042D01*
X12779025Y-12185042D02*
X12769501Y-12165994D01*
X12769501Y-12165994D02*
X12750453Y-12156470D01*
X12750453Y-12156470D02*
X12721882Y-12156470D01*
X12721882Y-12156470D02*
X12702834Y-12165994D01*
X12702834Y-12165994D02*
X12693310Y-12175518D01*
X12902834Y-12289804D02*
X12883787Y-12280280D01*
X12883787Y-12280280D02*
X12874263Y-12270756D01*
X12874263Y-12270756D02*
X12864739Y-12251708D01*
X12864739Y-12251708D02*
X12864739Y-12194566D01*
X12864739Y-12194566D02*
X12874263Y-12175518D01*
X12874263Y-12175518D02*
X12883787Y-12165994D01*
X12883787Y-12165994D02*
X12902834Y-12156470D01*
X12902834Y-12156470D02*
X12931406Y-12156470D01*
X12931406Y-12156470D02*
X12950453Y-12165994D01*
X12950453Y-12165994D02*
X12959977Y-12175518D01*
X12959977Y-12175518D02*
X12969501Y-12194566D01*
X12969501Y-12194566D02*
X12969501Y-12251708D01*
X12969501Y-12251708D02*
X12959977Y-12270756D01*
X12959977Y-12270756D02*
X12950453Y-12280280D01*
X12950453Y-12280280D02*
X12931406Y-12289804D01*
X12931406Y-12289804D02*
X12902834Y-12289804D01*
X13083787Y-12289804D02*
X13064739Y-12280280D01*
X13064739Y-12280280D02*
X13055215Y-12261232D01*
X13055215Y-12261232D02*
X13055215Y-12089804D01*
X13236168Y-12280280D02*
X13217120Y-12289804D01*
X13217120Y-12289804D02*
X13179025Y-12289804D01*
X13179025Y-12289804D02*
X13159977Y-12280280D01*
X13159977Y-12280280D02*
X13150453Y-12261232D01*
X13150453Y-12261232D02*
X13150453Y-12185042D01*
X13150453Y-12185042D02*
X13159977Y-12165994D01*
X13159977Y-12165994D02*
X13179025Y-12156470D01*
X13179025Y-12156470D02*
X13217120Y-12156470D01*
X13217120Y-12156470D02*
X13236168Y-12165994D01*
X13236168Y-12165994D02*
X13245691Y-12185042D01*
X13245691Y-12185042D02*
X13245691Y-12204089D01*
X13245691Y-12204089D02*
X13150453Y-12223137D01*
X13321882Y-12280280D02*
X13340930Y-12289804D01*
X13340930Y-12289804D02*
X13379025Y-12289804D01*
X13379025Y-12289804D02*
X13398072Y-12280280D01*
X13398072Y-12280280D02*
X13407596Y-12261232D01*
X13407596Y-12261232D02*
X13407596Y-12251708D01*
X13407596Y-12251708D02*
X13398072Y-12232661D01*
X13398072Y-12232661D02*
X13379025Y-12223137D01*
X13379025Y-12223137D02*
X13350453Y-12223137D01*
X13350453Y-12223137D02*
X13331406Y-12213613D01*
X13331406Y-12213613D02*
X13321882Y-12194566D01*
X13321882Y-12194566D02*
X13321882Y-12185042D01*
X13321882Y-12185042D02*
X13331406Y-12165994D01*
X13331406Y-12165994D02*
X13350453Y-12156470D01*
X13350453Y-12156470D02*
X13379025Y-12156470D01*
X13379025Y-12156470D02*
X13398072Y-12165994D01*
X13474263Y-12365994D02*
X13483787Y-12356470D01*
X13483787Y-12356470D02*
X13502834Y-12327899D01*
X13502834Y-12327899D02*
X13512358Y-12308851D01*
X13512358Y-12308851D02*
X13521882Y-12280280D01*
X13521882Y-12280280D02*
X13531406Y-12232661D01*
X13531406Y-12232661D02*
X13531406Y-12194566D01*
X13531406Y-12194566D02*
X13521882Y-12146947D01*
X13521882Y-12146947D02*
X13512358Y-12118375D01*
X13512358Y-12118375D02*
X13502834Y-12099328D01*
X13502834Y-12099328D02*
X13483787Y-12070756D01*
X13483787Y-12070756D02*
X13474263Y-12061232D01*
D12*
X8699200Y-12462320D02*
G75*
G03*
X8699200Y-12462320I-54500J0D01*
G01*
D11*
X9064739Y-12553804D02*
X8950453Y-12553804D01*
X9007596Y-12553804D02*
X9007596Y-12353804D01*
X9007596Y-12353804D02*
X8988548Y-12382375D01*
X8988548Y-12382375D02*
X8969501Y-12401423D01*
X8969501Y-12401423D02*
X8950453Y-12410947D01*
X9150453Y-12534756D02*
X9159977Y-12544280D01*
X9159977Y-12544280D02*
X9150453Y-12553804D01*
X9150453Y-12553804D02*
X9140929Y-12544280D01*
X9140929Y-12544280D02*
X9150453Y-12534756D01*
X9150453Y-12534756D02*
X9150453Y-12553804D01*
X9283786Y-12353804D02*
X9302834Y-12353804D01*
X9302834Y-12353804D02*
X9321882Y-12363328D01*
X9321882Y-12363328D02*
X9331405Y-12372851D01*
X9331405Y-12372851D02*
X9340929Y-12391899D01*
X9340929Y-12391899D02*
X9350453Y-12429994D01*
X9350453Y-12429994D02*
X9350453Y-12477613D01*
X9350453Y-12477613D02*
X9340929Y-12515708D01*
X9340929Y-12515708D02*
X9331405Y-12534756D01*
X9331405Y-12534756D02*
X9321882Y-12544280D01*
X9321882Y-12544280D02*
X9302834Y-12553804D01*
X9302834Y-12553804D02*
X9283786Y-12553804D01*
X9283786Y-12553804D02*
X9264739Y-12544280D01*
X9264739Y-12544280D02*
X9255215Y-12534756D01*
X9255215Y-12534756D02*
X9245691Y-12515708D01*
X9245691Y-12515708D02*
X9236167Y-12477613D01*
X9236167Y-12477613D02*
X9236167Y-12429994D01*
X9236167Y-12429994D02*
X9245691Y-12391899D01*
X9245691Y-12391899D02*
X9255215Y-12372851D01*
X9255215Y-12372851D02*
X9264739Y-12363328D01*
X9264739Y-12363328D02*
X9283786Y-12353804D01*
X9445691Y-12553804D02*
X9483786Y-12553804D01*
X9483786Y-12553804D02*
X9502834Y-12544280D01*
X9502834Y-12544280D02*
X9512358Y-12534756D01*
X9512358Y-12534756D02*
X9531405Y-12506185D01*
X9531405Y-12506185D02*
X9540929Y-12468089D01*
X9540929Y-12468089D02*
X9540929Y-12391899D01*
X9540929Y-12391899D02*
X9531405Y-12372851D01*
X9531405Y-12372851D02*
X9521882Y-12363328D01*
X9521882Y-12363328D02*
X9502834Y-12353804D01*
X9502834Y-12353804D02*
X9464739Y-12353804D01*
X9464739Y-12353804D02*
X9445691Y-12363328D01*
X9445691Y-12363328D02*
X9436167Y-12372851D01*
X9436167Y-12372851D02*
X9426644Y-12391899D01*
X9426644Y-12391899D02*
X9426644Y-12439518D01*
X9426644Y-12439518D02*
X9436167Y-12458566D01*
X9436167Y-12458566D02*
X9445691Y-12468089D01*
X9445691Y-12468089D02*
X9464739Y-12477613D01*
X9464739Y-12477613D02*
X9502834Y-12477613D01*
X9502834Y-12477613D02*
X9521882Y-12468089D01*
X9521882Y-12468089D02*
X9531405Y-12458566D01*
X9531405Y-12458566D02*
X9540929Y-12439518D01*
X9664739Y-12353804D02*
X9683786Y-12353804D01*
X9683786Y-12353804D02*
X9702834Y-12363328D01*
X9702834Y-12363328D02*
X9712358Y-12372851D01*
X9712358Y-12372851D02*
X9721882Y-12391899D01*
X9721882Y-12391899D02*
X9731405Y-12429994D01*
X9731405Y-12429994D02*
X9731405Y-12477613D01*
X9731405Y-12477613D02*
X9721882Y-12515708D01*
X9721882Y-12515708D02*
X9712358Y-12534756D01*
X9712358Y-12534756D02*
X9702834Y-12544280D01*
X9702834Y-12544280D02*
X9683786Y-12553804D01*
X9683786Y-12553804D02*
X9664739Y-12553804D01*
X9664739Y-12553804D02*
X9645691Y-12544280D01*
X9645691Y-12544280D02*
X9636167Y-12534756D01*
X9636167Y-12534756D02*
X9626644Y-12515708D01*
X9626644Y-12515708D02*
X9617120Y-12477613D01*
X9617120Y-12477613D02*
X9617120Y-12429994D01*
X9617120Y-12429994D02*
X9626644Y-12391899D01*
X9626644Y-12391899D02*
X9636167Y-12372851D01*
X9636167Y-12372851D02*
X9645691Y-12363328D01*
X9645691Y-12363328D02*
X9664739Y-12353804D01*
X9817120Y-12553804D02*
X9817120Y-12420470D01*
X9817120Y-12439518D02*
X9826644Y-12429994D01*
X9826644Y-12429994D02*
X9845691Y-12420470D01*
X9845691Y-12420470D02*
X9874263Y-12420470D01*
X9874263Y-12420470D02*
X9893310Y-12429994D01*
X9893310Y-12429994D02*
X9902834Y-12449042D01*
X9902834Y-12449042D02*
X9902834Y-12553804D01*
X9902834Y-12449042D02*
X9912358Y-12429994D01*
X9912358Y-12429994D02*
X9931405Y-12420470D01*
X9931405Y-12420470D02*
X9959977Y-12420470D01*
X9959977Y-12420470D02*
X9979025Y-12429994D01*
X9979025Y-12429994D02*
X9988548Y-12449042D01*
X9988548Y-12449042D02*
X9988548Y-12553804D01*
X10083786Y-12553804D02*
X10083786Y-12420470D01*
X10083786Y-12439518D02*
X10093310Y-12429994D01*
X10093310Y-12429994D02*
X10112358Y-12420470D01*
X10112358Y-12420470D02*
X10140929Y-12420470D01*
X10140929Y-12420470D02*
X10159977Y-12429994D01*
X10159977Y-12429994D02*
X10169501Y-12449042D01*
X10169501Y-12449042D02*
X10169501Y-12553804D01*
X10169501Y-12449042D02*
X10179025Y-12429994D01*
X10179025Y-12429994D02*
X10198072Y-12420470D01*
X10198072Y-12420470D02*
X10226644Y-12420470D01*
X10226644Y-12420470D02*
X10245691Y-12429994D01*
X10245691Y-12429994D02*
X10255215Y-12449042D01*
X10255215Y-12449042D02*
X10255215Y-12553804D01*
X10645691Y-12344280D02*
X10474263Y-12601423D01*
X10902834Y-12353804D02*
X10921882Y-12353804D01*
X10921882Y-12353804D02*
X10940929Y-12363328D01*
X10940929Y-12363328D02*
X10950453Y-12372851D01*
X10950453Y-12372851D02*
X10959977Y-12391899D01*
X10959977Y-12391899D02*
X10969501Y-12429994D01*
X10969501Y-12429994D02*
X10969501Y-12477613D01*
X10969501Y-12477613D02*
X10959977Y-12515708D01*
X10959977Y-12515708D02*
X10950453Y-12534756D01*
X10950453Y-12534756D02*
X10940929Y-12544280D01*
X10940929Y-12544280D02*
X10921882Y-12553804D01*
X10921882Y-12553804D02*
X10902834Y-12553804D01*
X10902834Y-12553804D02*
X10883787Y-12544280D01*
X10883787Y-12544280D02*
X10874263Y-12534756D01*
X10874263Y-12534756D02*
X10864739Y-12515708D01*
X10864739Y-12515708D02*
X10855215Y-12477613D01*
X10855215Y-12477613D02*
X10855215Y-12429994D01*
X10855215Y-12429994D02*
X10864739Y-12391899D01*
X10864739Y-12391899D02*
X10874263Y-12372851D01*
X10874263Y-12372851D02*
X10883787Y-12363328D01*
X10883787Y-12363328D02*
X10902834Y-12353804D01*
X11055215Y-12534756D02*
X11064739Y-12544280D01*
X11064739Y-12544280D02*
X11055215Y-12553804D01*
X11055215Y-12553804D02*
X11045691Y-12544280D01*
X11045691Y-12544280D02*
X11055215Y-12534756D01*
X11055215Y-12534756D02*
X11055215Y-12553804D01*
X11188548Y-12353804D02*
X11207596Y-12353804D01*
X11207596Y-12353804D02*
X11226644Y-12363328D01*
X11226644Y-12363328D02*
X11236167Y-12372851D01*
X11236167Y-12372851D02*
X11245691Y-12391899D01*
X11245691Y-12391899D02*
X11255215Y-12429994D01*
X11255215Y-12429994D02*
X11255215Y-12477613D01*
X11255215Y-12477613D02*
X11245691Y-12515708D01*
X11245691Y-12515708D02*
X11236167Y-12534756D01*
X11236167Y-12534756D02*
X11226644Y-12544280D01*
X11226644Y-12544280D02*
X11207596Y-12553804D01*
X11207596Y-12553804D02*
X11188548Y-12553804D01*
X11188548Y-12553804D02*
X11169501Y-12544280D01*
X11169501Y-12544280D02*
X11159977Y-12534756D01*
X11159977Y-12534756D02*
X11150453Y-12515708D01*
X11150453Y-12515708D02*
X11140929Y-12477613D01*
X11140929Y-12477613D02*
X11140929Y-12429994D01*
X11140929Y-12429994D02*
X11150453Y-12391899D01*
X11150453Y-12391899D02*
X11159977Y-12372851D01*
X11159977Y-12372851D02*
X11169501Y-12363328D01*
X11169501Y-12363328D02*
X11188548Y-12353804D01*
X11426644Y-12420470D02*
X11426644Y-12553804D01*
X11379025Y-12344280D02*
X11331406Y-12487137D01*
X11331406Y-12487137D02*
X11455215Y-12487137D01*
X11521882Y-12372851D02*
X11531406Y-12363328D01*
X11531406Y-12363328D02*
X11550453Y-12353804D01*
X11550453Y-12353804D02*
X11598072Y-12353804D01*
X11598072Y-12353804D02*
X11617120Y-12363328D01*
X11617120Y-12363328D02*
X11626644Y-12372851D01*
X11626644Y-12372851D02*
X11636167Y-12391899D01*
X11636167Y-12391899D02*
X11636167Y-12410947D01*
X11636167Y-12410947D02*
X11626644Y-12439518D01*
X11626644Y-12439518D02*
X11512358Y-12553804D01*
X11512358Y-12553804D02*
X11636167Y-12553804D01*
X11731406Y-12553804D02*
X11769501Y-12553804D01*
X11769501Y-12553804D02*
X11788548Y-12544280D01*
X11788548Y-12544280D02*
X11798072Y-12534756D01*
X11798072Y-12534756D02*
X11817120Y-12506185D01*
X11817120Y-12506185D02*
X11826644Y-12468089D01*
X11826644Y-12468089D02*
X11826644Y-12391899D01*
X11826644Y-12391899D02*
X11817120Y-12372851D01*
X11817120Y-12372851D02*
X11807596Y-12363328D01*
X11807596Y-12363328D02*
X11788548Y-12353804D01*
X11788548Y-12353804D02*
X11750453Y-12353804D01*
X11750453Y-12353804D02*
X11731406Y-12363328D01*
X11731406Y-12363328D02*
X11721882Y-12372851D01*
X11721882Y-12372851D02*
X11712358Y-12391899D01*
X11712358Y-12391899D02*
X11712358Y-12439518D01*
X11712358Y-12439518D02*
X11721882Y-12458566D01*
X11721882Y-12458566D02*
X11731406Y-12468089D01*
X11731406Y-12468089D02*
X11750453Y-12477613D01*
X11750453Y-12477613D02*
X11788548Y-12477613D01*
X11788548Y-12477613D02*
X11807596Y-12468089D01*
X11807596Y-12468089D02*
X11817120Y-12458566D01*
X11817120Y-12458566D02*
X11826644Y-12439518D01*
X11902834Y-12353804D02*
X11902834Y-12391899D01*
X11979025Y-12353804D02*
X11979025Y-12391899D01*
X12274263Y-12629994D02*
X12264739Y-12620470D01*
X12264739Y-12620470D02*
X12245691Y-12591899D01*
X12245691Y-12591899D02*
X12236168Y-12572851D01*
X12236168Y-12572851D02*
X12226644Y-12544280D01*
X12226644Y-12544280D02*
X12217120Y-12496661D01*
X12217120Y-12496661D02*
X12217120Y-12458566D01*
X12217120Y-12458566D02*
X12226644Y-12410947D01*
X12226644Y-12410947D02*
X12236168Y-12382375D01*
X12236168Y-12382375D02*
X12245691Y-12363328D01*
X12245691Y-12363328D02*
X12264739Y-12334756D01*
X12264739Y-12334756D02*
X12274263Y-12325232D01*
X12340929Y-12372851D02*
X12350453Y-12363328D01*
X12350453Y-12363328D02*
X12369501Y-12353804D01*
X12369501Y-12353804D02*
X12417120Y-12353804D01*
X12417120Y-12353804D02*
X12436168Y-12363328D01*
X12436168Y-12363328D02*
X12445691Y-12372851D01*
X12445691Y-12372851D02*
X12455215Y-12391899D01*
X12455215Y-12391899D02*
X12455215Y-12410947D01*
X12455215Y-12410947D02*
X12445691Y-12439518D01*
X12445691Y-12439518D02*
X12331406Y-12553804D01*
X12331406Y-12553804D02*
X12455215Y-12553804D01*
X12693310Y-12553804D02*
X12693310Y-12353804D01*
X12779025Y-12553804D02*
X12779025Y-12449042D01*
X12779025Y-12449042D02*
X12769501Y-12429994D01*
X12769501Y-12429994D02*
X12750453Y-12420470D01*
X12750453Y-12420470D02*
X12721882Y-12420470D01*
X12721882Y-12420470D02*
X12702834Y-12429994D01*
X12702834Y-12429994D02*
X12693310Y-12439518D01*
X12902834Y-12553804D02*
X12883787Y-12544280D01*
X12883787Y-12544280D02*
X12874263Y-12534756D01*
X12874263Y-12534756D02*
X12864739Y-12515708D01*
X12864739Y-12515708D02*
X12864739Y-12458566D01*
X12864739Y-12458566D02*
X12874263Y-12439518D01*
X12874263Y-12439518D02*
X12883787Y-12429994D01*
X12883787Y-12429994D02*
X12902834Y-12420470D01*
X12902834Y-12420470D02*
X12931406Y-12420470D01*
X12931406Y-12420470D02*
X12950453Y-12429994D01*
X12950453Y-12429994D02*
X12959977Y-12439518D01*
X12959977Y-12439518D02*
X12969501Y-12458566D01*
X12969501Y-12458566D02*
X12969501Y-12515708D01*
X12969501Y-12515708D02*
X12959977Y-12534756D01*
X12959977Y-12534756D02*
X12950453Y-12544280D01*
X12950453Y-12544280D02*
X12931406Y-12553804D01*
X12931406Y-12553804D02*
X12902834Y-12553804D01*
X13083787Y-12553804D02*
X13064739Y-12544280D01*
X13064739Y-12544280D02*
X13055215Y-12525232D01*
X13055215Y-12525232D02*
X13055215Y-12353804D01*
X13236168Y-12544280D02*
X13217120Y-12553804D01*
X13217120Y-12553804D02*
X13179025Y-12553804D01*
X13179025Y-12553804D02*
X13159977Y-12544280D01*
X13159977Y-12544280D02*
X13150453Y-12525232D01*
X13150453Y-12525232D02*
X13150453Y-12449042D01*
X13150453Y-12449042D02*
X13159977Y-12429994D01*
X13159977Y-12429994D02*
X13179025Y-12420470D01*
X13179025Y-12420470D02*
X13217120Y-12420470D01*
X13217120Y-12420470D02*
X13236168Y-12429994D01*
X13236168Y-12429994D02*
X13245691Y-12449042D01*
X13245691Y-12449042D02*
X13245691Y-12468089D01*
X13245691Y-12468089D02*
X13150453Y-12487137D01*
X13321882Y-12544280D02*
X13340930Y-12553804D01*
X13340930Y-12553804D02*
X13379025Y-12553804D01*
X13379025Y-12553804D02*
X13398072Y-12544280D01*
X13398072Y-12544280D02*
X13407596Y-12525232D01*
X13407596Y-12525232D02*
X13407596Y-12515708D01*
X13407596Y-12515708D02*
X13398072Y-12496661D01*
X13398072Y-12496661D02*
X13379025Y-12487137D01*
X13379025Y-12487137D02*
X13350453Y-12487137D01*
X13350453Y-12487137D02*
X13331406Y-12477613D01*
X13331406Y-12477613D02*
X13321882Y-12458566D01*
X13321882Y-12458566D02*
X13321882Y-12449042D01*
X13321882Y-12449042D02*
X13331406Y-12429994D01*
X13331406Y-12429994D02*
X13350453Y-12420470D01*
X13350453Y-12420470D02*
X13379025Y-12420470D01*
X13379025Y-12420470D02*
X13398072Y-12429994D01*
X13474263Y-12629994D02*
X13483787Y-12620470D01*
X13483787Y-12620470D02*
X13502834Y-12591899D01*
X13502834Y-12591899D02*
X13512358Y-12572851D01*
X13512358Y-12572851D02*
X13521882Y-12544280D01*
X13521882Y-12544280D02*
X13531406Y-12496661D01*
X13531406Y-12496661D02*
X13531406Y-12458566D01*
X13531406Y-12458566D02*
X13521882Y-12410947D01*
X13521882Y-12410947D02*
X13512358Y-12382375D01*
X13512358Y-12382375D02*
X13502834Y-12363328D01*
X13502834Y-12363328D02*
X13483787Y-12334756D01*
X13483787Y-12334756D02*
X13474263Y-12325232D01*
X8599200Y-12626320D02*
X8599200Y-12826320D01*
X8499200Y-12726320D02*
X8699200Y-12726320D01*
X8940929Y-12617804D02*
X9064739Y-12617804D01*
X9064739Y-12617804D02*
X8998072Y-12693994D01*
X8998072Y-12693994D02*
X9026644Y-12693994D01*
X9026644Y-12693994D02*
X9045691Y-12703518D01*
X9045691Y-12703518D02*
X9055215Y-12713042D01*
X9055215Y-12713042D02*
X9064739Y-12732089D01*
X9064739Y-12732089D02*
X9064739Y-12779708D01*
X9064739Y-12779708D02*
X9055215Y-12798756D01*
X9055215Y-12798756D02*
X9045691Y-12808280D01*
X9045691Y-12808280D02*
X9026644Y-12817804D01*
X9026644Y-12817804D02*
X8969501Y-12817804D01*
X8969501Y-12817804D02*
X8950453Y-12808280D01*
X8950453Y-12808280D02*
X8940929Y-12798756D01*
X9150453Y-12798756D02*
X9159977Y-12808280D01*
X9159977Y-12808280D02*
X9150453Y-12817804D01*
X9150453Y-12817804D02*
X9140929Y-12808280D01*
X9140929Y-12808280D02*
X9150453Y-12798756D01*
X9150453Y-12798756D02*
X9150453Y-12817804D01*
X9236167Y-12636851D02*
X9245691Y-12627328D01*
X9245691Y-12627328D02*
X9264739Y-12617804D01*
X9264739Y-12617804D02*
X9312358Y-12617804D01*
X9312358Y-12617804D02*
X9331405Y-12627328D01*
X9331405Y-12627328D02*
X9340929Y-12636851D01*
X9340929Y-12636851D02*
X9350453Y-12655899D01*
X9350453Y-12655899D02*
X9350453Y-12674947D01*
X9350453Y-12674947D02*
X9340929Y-12703518D01*
X9340929Y-12703518D02*
X9226644Y-12817804D01*
X9226644Y-12817804D02*
X9350453Y-12817804D01*
X9474263Y-12617804D02*
X9493310Y-12617804D01*
X9493310Y-12617804D02*
X9512358Y-12627328D01*
X9512358Y-12627328D02*
X9521882Y-12636851D01*
X9521882Y-12636851D02*
X9531405Y-12655899D01*
X9531405Y-12655899D02*
X9540929Y-12693994D01*
X9540929Y-12693994D02*
X9540929Y-12741613D01*
X9540929Y-12741613D02*
X9531405Y-12779708D01*
X9531405Y-12779708D02*
X9521882Y-12798756D01*
X9521882Y-12798756D02*
X9512358Y-12808280D01*
X9512358Y-12808280D02*
X9493310Y-12817804D01*
X9493310Y-12817804D02*
X9474263Y-12817804D01*
X9474263Y-12817804D02*
X9455215Y-12808280D01*
X9455215Y-12808280D02*
X9445691Y-12798756D01*
X9445691Y-12798756D02*
X9436167Y-12779708D01*
X9436167Y-12779708D02*
X9426644Y-12741613D01*
X9426644Y-12741613D02*
X9426644Y-12693994D01*
X9426644Y-12693994D02*
X9436167Y-12655899D01*
X9436167Y-12655899D02*
X9445691Y-12636851D01*
X9445691Y-12636851D02*
X9455215Y-12627328D01*
X9455215Y-12627328D02*
X9474263Y-12617804D01*
X9664739Y-12617804D02*
X9683786Y-12617804D01*
X9683786Y-12617804D02*
X9702834Y-12627328D01*
X9702834Y-12627328D02*
X9712358Y-12636851D01*
X9712358Y-12636851D02*
X9721882Y-12655899D01*
X9721882Y-12655899D02*
X9731405Y-12693994D01*
X9731405Y-12693994D02*
X9731405Y-12741613D01*
X9731405Y-12741613D02*
X9721882Y-12779708D01*
X9721882Y-12779708D02*
X9712358Y-12798756D01*
X9712358Y-12798756D02*
X9702834Y-12808280D01*
X9702834Y-12808280D02*
X9683786Y-12817804D01*
X9683786Y-12817804D02*
X9664739Y-12817804D01*
X9664739Y-12817804D02*
X9645691Y-12808280D01*
X9645691Y-12808280D02*
X9636167Y-12798756D01*
X9636167Y-12798756D02*
X9626644Y-12779708D01*
X9626644Y-12779708D02*
X9617120Y-12741613D01*
X9617120Y-12741613D02*
X9617120Y-12693994D01*
X9617120Y-12693994D02*
X9626644Y-12655899D01*
X9626644Y-12655899D02*
X9636167Y-12636851D01*
X9636167Y-12636851D02*
X9645691Y-12627328D01*
X9645691Y-12627328D02*
X9664739Y-12617804D01*
X9817120Y-12817804D02*
X9817120Y-12684470D01*
X9817120Y-12703518D02*
X9826644Y-12693994D01*
X9826644Y-12693994D02*
X9845691Y-12684470D01*
X9845691Y-12684470D02*
X9874263Y-12684470D01*
X9874263Y-12684470D02*
X9893310Y-12693994D01*
X9893310Y-12693994D02*
X9902834Y-12713042D01*
X9902834Y-12713042D02*
X9902834Y-12817804D01*
X9902834Y-12713042D02*
X9912358Y-12693994D01*
X9912358Y-12693994D02*
X9931405Y-12684470D01*
X9931405Y-12684470D02*
X9959977Y-12684470D01*
X9959977Y-12684470D02*
X9979025Y-12693994D01*
X9979025Y-12693994D02*
X9988548Y-12713042D01*
X9988548Y-12713042D02*
X9988548Y-12817804D01*
X10083786Y-12817804D02*
X10083786Y-12684470D01*
X10083786Y-12703518D02*
X10093310Y-12693994D01*
X10093310Y-12693994D02*
X10112358Y-12684470D01*
X10112358Y-12684470D02*
X10140929Y-12684470D01*
X10140929Y-12684470D02*
X10159977Y-12693994D01*
X10159977Y-12693994D02*
X10169501Y-12713042D01*
X10169501Y-12713042D02*
X10169501Y-12817804D01*
X10169501Y-12713042D02*
X10179025Y-12693994D01*
X10179025Y-12693994D02*
X10198072Y-12684470D01*
X10198072Y-12684470D02*
X10226644Y-12684470D01*
X10226644Y-12684470D02*
X10245691Y-12693994D01*
X10245691Y-12693994D02*
X10255215Y-12713042D01*
X10255215Y-12713042D02*
X10255215Y-12817804D01*
X10645691Y-12608280D02*
X10474263Y-12865423D01*
X10902834Y-12617804D02*
X10921882Y-12617804D01*
X10921882Y-12617804D02*
X10940929Y-12627328D01*
X10940929Y-12627328D02*
X10950453Y-12636851D01*
X10950453Y-12636851D02*
X10959977Y-12655899D01*
X10959977Y-12655899D02*
X10969501Y-12693994D01*
X10969501Y-12693994D02*
X10969501Y-12741613D01*
X10969501Y-12741613D02*
X10959977Y-12779708D01*
X10959977Y-12779708D02*
X10950453Y-12798756D01*
X10950453Y-12798756D02*
X10940929Y-12808280D01*
X10940929Y-12808280D02*
X10921882Y-12817804D01*
X10921882Y-12817804D02*
X10902834Y-12817804D01*
X10902834Y-12817804D02*
X10883787Y-12808280D01*
X10883787Y-12808280D02*
X10874263Y-12798756D01*
X10874263Y-12798756D02*
X10864739Y-12779708D01*
X10864739Y-12779708D02*
X10855215Y-12741613D01*
X10855215Y-12741613D02*
X10855215Y-12693994D01*
X10855215Y-12693994D02*
X10864739Y-12655899D01*
X10864739Y-12655899D02*
X10874263Y-12636851D01*
X10874263Y-12636851D02*
X10883787Y-12627328D01*
X10883787Y-12627328D02*
X10902834Y-12617804D01*
X11055215Y-12798756D02*
X11064739Y-12808280D01*
X11064739Y-12808280D02*
X11055215Y-12817804D01*
X11055215Y-12817804D02*
X11045691Y-12808280D01*
X11045691Y-12808280D02*
X11055215Y-12798756D01*
X11055215Y-12798756D02*
X11055215Y-12817804D01*
X11255215Y-12817804D02*
X11140929Y-12817804D01*
X11198072Y-12817804D02*
X11198072Y-12617804D01*
X11198072Y-12617804D02*
X11179025Y-12646375D01*
X11179025Y-12646375D02*
X11159977Y-12665423D01*
X11159977Y-12665423D02*
X11140929Y-12674947D01*
X11331406Y-12636851D02*
X11340929Y-12627328D01*
X11340929Y-12627328D02*
X11359977Y-12617804D01*
X11359977Y-12617804D02*
X11407596Y-12617804D01*
X11407596Y-12617804D02*
X11426644Y-12627328D01*
X11426644Y-12627328D02*
X11436167Y-12636851D01*
X11436167Y-12636851D02*
X11445691Y-12655899D01*
X11445691Y-12655899D02*
X11445691Y-12674947D01*
X11445691Y-12674947D02*
X11436167Y-12703518D01*
X11436167Y-12703518D02*
X11321882Y-12817804D01*
X11321882Y-12817804D02*
X11445691Y-12817804D01*
X11617120Y-12617804D02*
X11579025Y-12617804D01*
X11579025Y-12617804D02*
X11559977Y-12627328D01*
X11559977Y-12627328D02*
X11550453Y-12636851D01*
X11550453Y-12636851D02*
X11531406Y-12665423D01*
X11531406Y-12665423D02*
X11521882Y-12703518D01*
X11521882Y-12703518D02*
X11521882Y-12779708D01*
X11521882Y-12779708D02*
X11531406Y-12798756D01*
X11531406Y-12798756D02*
X11540929Y-12808280D01*
X11540929Y-12808280D02*
X11559977Y-12817804D01*
X11559977Y-12817804D02*
X11598072Y-12817804D01*
X11598072Y-12817804D02*
X11617120Y-12808280D01*
X11617120Y-12808280D02*
X11626644Y-12798756D01*
X11626644Y-12798756D02*
X11636167Y-12779708D01*
X11636167Y-12779708D02*
X11636167Y-12732089D01*
X11636167Y-12732089D02*
X11626644Y-12713042D01*
X11626644Y-12713042D02*
X11617120Y-12703518D01*
X11617120Y-12703518D02*
X11598072Y-12693994D01*
X11598072Y-12693994D02*
X11559977Y-12693994D01*
X11559977Y-12693994D02*
X11540929Y-12703518D01*
X11540929Y-12703518D02*
X11531406Y-12713042D01*
X11531406Y-12713042D02*
X11521882Y-12732089D01*
X11759977Y-12617804D02*
X11779025Y-12617804D01*
X11779025Y-12617804D02*
X11798072Y-12627328D01*
X11798072Y-12627328D02*
X11807596Y-12636851D01*
X11807596Y-12636851D02*
X11817120Y-12655899D01*
X11817120Y-12655899D02*
X11826644Y-12693994D01*
X11826644Y-12693994D02*
X11826644Y-12741613D01*
X11826644Y-12741613D02*
X11817120Y-12779708D01*
X11817120Y-12779708D02*
X11807596Y-12798756D01*
X11807596Y-12798756D02*
X11798072Y-12808280D01*
X11798072Y-12808280D02*
X11779025Y-12817804D01*
X11779025Y-12817804D02*
X11759977Y-12817804D01*
X11759977Y-12817804D02*
X11740929Y-12808280D01*
X11740929Y-12808280D02*
X11731406Y-12798756D01*
X11731406Y-12798756D02*
X11721882Y-12779708D01*
X11721882Y-12779708D02*
X11712358Y-12741613D01*
X11712358Y-12741613D02*
X11712358Y-12693994D01*
X11712358Y-12693994D02*
X11721882Y-12655899D01*
X11721882Y-12655899D02*
X11731406Y-12636851D01*
X11731406Y-12636851D02*
X11740929Y-12627328D01*
X11740929Y-12627328D02*
X11759977Y-12617804D01*
X11902834Y-12617804D02*
X11902834Y-12655899D01*
X11979025Y-12617804D02*
X11979025Y-12655899D01*
X12274263Y-12893994D02*
X12264739Y-12884470D01*
X12264739Y-12884470D02*
X12245691Y-12855899D01*
X12245691Y-12855899D02*
X12236168Y-12836851D01*
X12236168Y-12836851D02*
X12226644Y-12808280D01*
X12226644Y-12808280D02*
X12217120Y-12760661D01*
X12217120Y-12760661D02*
X12217120Y-12722566D01*
X12217120Y-12722566D02*
X12226644Y-12674947D01*
X12226644Y-12674947D02*
X12236168Y-12646375D01*
X12236168Y-12646375D02*
X12245691Y-12627328D01*
X12245691Y-12627328D02*
X12264739Y-12598756D01*
X12264739Y-12598756D02*
X12274263Y-12589232D01*
X12436168Y-12684470D02*
X12436168Y-12817804D01*
X12388548Y-12608280D02*
X12340929Y-12751137D01*
X12340929Y-12751137D02*
X12464739Y-12751137D01*
X12693310Y-12817804D02*
X12693310Y-12617804D01*
X12779025Y-12817804D02*
X12779025Y-12713042D01*
X12779025Y-12713042D02*
X12769501Y-12693994D01*
X12769501Y-12693994D02*
X12750453Y-12684470D01*
X12750453Y-12684470D02*
X12721882Y-12684470D01*
X12721882Y-12684470D02*
X12702834Y-12693994D01*
X12702834Y-12693994D02*
X12693310Y-12703518D01*
X12902834Y-12817804D02*
X12883787Y-12808280D01*
X12883787Y-12808280D02*
X12874263Y-12798756D01*
X12874263Y-12798756D02*
X12864739Y-12779708D01*
X12864739Y-12779708D02*
X12864739Y-12722566D01*
X12864739Y-12722566D02*
X12874263Y-12703518D01*
X12874263Y-12703518D02*
X12883787Y-12693994D01*
X12883787Y-12693994D02*
X12902834Y-12684470D01*
X12902834Y-12684470D02*
X12931406Y-12684470D01*
X12931406Y-12684470D02*
X12950453Y-12693994D01*
X12950453Y-12693994D02*
X12959977Y-12703518D01*
X12959977Y-12703518D02*
X12969501Y-12722566D01*
X12969501Y-12722566D02*
X12969501Y-12779708D01*
X12969501Y-12779708D02*
X12959977Y-12798756D01*
X12959977Y-12798756D02*
X12950453Y-12808280D01*
X12950453Y-12808280D02*
X12931406Y-12817804D01*
X12931406Y-12817804D02*
X12902834Y-12817804D01*
X13083787Y-12817804D02*
X13064739Y-12808280D01*
X13064739Y-12808280D02*
X13055215Y-12789232D01*
X13055215Y-12789232D02*
X13055215Y-12617804D01*
X13236168Y-12808280D02*
X13217120Y-12817804D01*
X13217120Y-12817804D02*
X13179025Y-12817804D01*
X13179025Y-12817804D02*
X13159977Y-12808280D01*
X13159977Y-12808280D02*
X13150453Y-12789232D01*
X13150453Y-12789232D02*
X13150453Y-12713042D01*
X13150453Y-12713042D02*
X13159977Y-12693994D01*
X13159977Y-12693994D02*
X13179025Y-12684470D01*
X13179025Y-12684470D02*
X13217120Y-12684470D01*
X13217120Y-12684470D02*
X13236168Y-12693994D01*
X13236168Y-12693994D02*
X13245691Y-12713042D01*
X13245691Y-12713042D02*
X13245691Y-12732089D01*
X13245691Y-12732089D02*
X13150453Y-12751137D01*
X13321882Y-12808280D02*
X13340930Y-12817804D01*
X13340930Y-12817804D02*
X13379025Y-12817804D01*
X13379025Y-12817804D02*
X13398072Y-12808280D01*
X13398072Y-12808280D02*
X13407596Y-12789232D01*
X13407596Y-12789232D02*
X13407596Y-12779708D01*
X13407596Y-12779708D02*
X13398072Y-12760661D01*
X13398072Y-12760661D02*
X13379025Y-12751137D01*
X13379025Y-12751137D02*
X13350453Y-12751137D01*
X13350453Y-12751137D02*
X13331406Y-12741613D01*
X13331406Y-12741613D02*
X13321882Y-12722566D01*
X13321882Y-12722566D02*
X13321882Y-12713042D01*
X13321882Y-12713042D02*
X13331406Y-12693994D01*
X13331406Y-12693994D02*
X13350453Y-12684470D01*
X13350453Y-12684470D02*
X13379025Y-12684470D01*
X13379025Y-12684470D02*
X13398072Y-12693994D01*
X13474263Y-12893994D02*
X13483787Y-12884470D01*
X13483787Y-12884470D02*
X13502834Y-12855899D01*
X13502834Y-12855899D02*
X13512358Y-12836851D01*
X13512358Y-12836851D02*
X13521882Y-12808280D01*
X13521882Y-12808280D02*
X13531406Y-12760661D01*
X13531406Y-12760661D02*
X13531406Y-12722566D01*
X13531406Y-12722566D02*
X13521882Y-12674947D01*
X13521882Y-12674947D02*
X13512358Y-12646375D01*
X13512358Y-12646375D02*
X13502834Y-12627328D01*
X13502834Y-12627328D02*
X13483787Y-12598756D01*
X13483787Y-12598756D02*
X13474263Y-12589232D01*
X13836168Y-12893994D02*
X13826644Y-12884470D01*
X13826644Y-12884470D02*
X13807596Y-12855899D01*
X13807596Y-12855899D02*
X13798072Y-12836851D01*
X13798072Y-12836851D02*
X13788549Y-12808280D01*
X13788549Y-12808280D02*
X13779025Y-12760661D01*
X13779025Y-12760661D02*
X13779025Y-12722566D01*
X13779025Y-12722566D02*
X13788549Y-12674947D01*
X13788549Y-12674947D02*
X13798072Y-12646375D01*
X13798072Y-12646375D02*
X13807596Y-12627328D01*
X13807596Y-12627328D02*
X13826644Y-12598756D01*
X13826644Y-12598756D02*
X13836168Y-12589232D01*
X13912358Y-12684470D02*
X13912358Y-12817804D01*
X13912358Y-12703518D02*
X13921882Y-12693994D01*
X13921882Y-12693994D02*
X13940930Y-12684470D01*
X13940930Y-12684470D02*
X13969501Y-12684470D01*
X13969501Y-12684470D02*
X13988549Y-12693994D01*
X13988549Y-12693994D02*
X13998072Y-12713042D01*
X13998072Y-12713042D02*
X13998072Y-12817804D01*
X14121882Y-12817804D02*
X14102834Y-12808280D01*
X14102834Y-12808280D02*
X14093311Y-12798756D01*
X14093311Y-12798756D02*
X14083787Y-12779708D01*
X14083787Y-12779708D02*
X14083787Y-12722566D01*
X14083787Y-12722566D02*
X14093311Y-12703518D01*
X14093311Y-12703518D02*
X14102834Y-12693994D01*
X14102834Y-12693994D02*
X14121882Y-12684470D01*
X14121882Y-12684470D02*
X14150453Y-12684470D01*
X14150453Y-12684470D02*
X14169501Y-12693994D01*
X14169501Y-12693994D02*
X14179025Y-12703518D01*
X14179025Y-12703518D02*
X14188549Y-12722566D01*
X14188549Y-12722566D02*
X14188549Y-12779708D01*
X14188549Y-12779708D02*
X14179025Y-12798756D01*
X14179025Y-12798756D02*
X14169501Y-12808280D01*
X14169501Y-12808280D02*
X14150453Y-12817804D01*
X14150453Y-12817804D02*
X14121882Y-12817804D01*
X14245692Y-12684470D02*
X14321882Y-12684470D01*
X14274263Y-12617804D02*
X14274263Y-12789232D01*
X14274263Y-12789232D02*
X14283787Y-12808280D01*
X14283787Y-12808280D02*
X14302834Y-12817804D01*
X14302834Y-12817804D02*
X14321882Y-12817804D01*
X14540930Y-12684470D02*
X14540930Y-12884470D01*
X14540930Y-12693994D02*
X14559977Y-12684470D01*
X14559977Y-12684470D02*
X14598073Y-12684470D01*
X14598073Y-12684470D02*
X14617120Y-12693994D01*
X14617120Y-12693994D02*
X14626644Y-12703518D01*
X14626644Y-12703518D02*
X14636168Y-12722566D01*
X14636168Y-12722566D02*
X14636168Y-12779708D01*
X14636168Y-12779708D02*
X14626644Y-12798756D01*
X14626644Y-12798756D02*
X14617120Y-12808280D01*
X14617120Y-12808280D02*
X14598073Y-12817804D01*
X14598073Y-12817804D02*
X14559977Y-12817804D01*
X14559977Y-12817804D02*
X14540930Y-12808280D01*
X14750453Y-12817804D02*
X14731406Y-12808280D01*
X14731406Y-12808280D02*
X14721882Y-12789232D01*
X14721882Y-12789232D02*
X14721882Y-12617804D01*
X14912358Y-12817804D02*
X14912358Y-12713042D01*
X14912358Y-12713042D02*
X14902834Y-12693994D01*
X14902834Y-12693994D02*
X14883787Y-12684470D01*
X14883787Y-12684470D02*
X14845692Y-12684470D01*
X14845692Y-12684470D02*
X14826644Y-12693994D01*
X14912358Y-12808280D02*
X14893311Y-12817804D01*
X14893311Y-12817804D02*
X14845692Y-12817804D01*
X14845692Y-12817804D02*
X14826644Y-12808280D01*
X14826644Y-12808280D02*
X14817120Y-12789232D01*
X14817120Y-12789232D02*
X14817120Y-12770185D01*
X14817120Y-12770185D02*
X14826644Y-12751137D01*
X14826644Y-12751137D02*
X14845692Y-12741613D01*
X14845692Y-12741613D02*
X14893311Y-12741613D01*
X14893311Y-12741613D02*
X14912358Y-12732089D01*
X14979025Y-12684470D02*
X15055215Y-12684470D01*
X15007596Y-12617804D02*
X15007596Y-12789232D01*
X15007596Y-12789232D02*
X15017120Y-12808280D01*
X15017120Y-12808280D02*
X15036168Y-12817804D01*
X15036168Y-12817804D02*
X15055215Y-12817804D01*
X15198073Y-12808280D02*
X15179025Y-12817804D01*
X15179025Y-12817804D02*
X15140930Y-12817804D01*
X15140930Y-12817804D02*
X15121882Y-12808280D01*
X15121882Y-12808280D02*
X15112358Y-12789232D01*
X15112358Y-12789232D02*
X15112358Y-12713042D01*
X15112358Y-12713042D02*
X15121882Y-12693994D01*
X15121882Y-12693994D02*
X15140930Y-12684470D01*
X15140930Y-12684470D02*
X15179025Y-12684470D01*
X15179025Y-12684470D02*
X15198073Y-12693994D01*
X15198073Y-12693994D02*
X15207596Y-12713042D01*
X15207596Y-12713042D02*
X15207596Y-12732089D01*
X15207596Y-12732089D02*
X15112358Y-12751137D01*
X15379025Y-12817804D02*
X15379025Y-12617804D01*
X15379025Y-12808280D02*
X15359977Y-12817804D01*
X15359977Y-12817804D02*
X15321882Y-12817804D01*
X15321882Y-12817804D02*
X15302834Y-12808280D01*
X15302834Y-12808280D02*
X15293311Y-12798756D01*
X15293311Y-12798756D02*
X15283787Y-12779708D01*
X15283787Y-12779708D02*
X15283787Y-12722566D01*
X15283787Y-12722566D02*
X15293311Y-12703518D01*
X15293311Y-12703518D02*
X15302834Y-12693994D01*
X15302834Y-12693994D02*
X15321882Y-12684470D01*
X15321882Y-12684470D02*
X15359977Y-12684470D01*
X15359977Y-12684470D02*
X15379025Y-12693994D01*
X15455215Y-12893994D02*
X15464739Y-12884470D01*
X15464739Y-12884470D02*
X15483787Y-12855899D01*
X15483787Y-12855899D02*
X15493311Y-12836851D01*
X15493311Y-12836851D02*
X15502834Y-12808280D01*
X15502834Y-12808280D02*
X15512358Y-12760661D01*
X15512358Y-12760661D02*
X15512358Y-12722566D01*
X15512358Y-12722566D02*
X15502834Y-12674947D01*
X15502834Y-12674947D02*
X15493311Y-12646375D01*
X15493311Y-12646375D02*
X15483787Y-12627328D01*
X15483787Y-12627328D02*
X15464739Y-12598756D01*
X15464739Y-12598756D02*
X15455215Y-12589232D01*
M02*
